<svg xmlns="http://www.w3.org/2000/svg" width="1920" height="891" style="cursor: move;"><g transform="translate(-1229.8366130976428,-564.8741691199695) scale(2.2973967099940733)"><path class="link" marker-end="" d="M833,350.5, 979,366" style="stroke-width: 0.71; stroke-opacity: 0.42; stroke: rgb(80, 80, 80);"></path><path class="link" marker-end="" d="M833,350.5, 979,394" style="stroke-width: 0.71; stroke-opacity: 0.42; stroke: rgb(80, 80, 80);"></path><path class="link" marker-end="" d="M833,369.5, 979,366" style="stroke-width: 0.71; stroke-opacity: 0.42; stroke: rgb(80, 80, 80);"></path><path class="link" marker-end="" d="M833,369.5, 979,394" style="stroke-width: 0.71; stroke-opacity: 0.42; stroke: rgb(80, 80, 80);"></path><path class="link" marker-end="" d="M833,388.5, 979,366" style="stroke-width: 0.71; stroke-opacity: 0.42; stroke: rgb(80, 80, 80);"></path><path class="link" marker-end="" d="M833,388.5, 979,394" style="stroke-width: 0.71; stroke-opacity: 0.42; stroke: rgb(80, 80, 80);"></path><path class="link" marker-end="" d="M833,407.5, 979,366" style="stroke-width: 0.71; stroke-opacity: 0.42; stroke: rgb(80, 80, 80);"></path><path class="link" marker-end="" d="M833,407.5, 979,394" style="stroke-width: 0.71; stroke-opacity: 0.42; stroke: rgb(80, 80, 80);"></path><path class="link" marker-end="" d="M833,426.5, 979,366" style="stroke-width: 0.71; stroke-opacity: 0.42; stroke: rgb(80, 80, 80);"></path><path class="link" marker-end="" d="M833,426.5, 979,394" style="stroke-width: 0.71; stroke-opacity: 0.42; stroke: rgb(80, 80, 80);"></path><path class="link" marker-end="" d="M833,445.5, 979,366" style="stroke-width: 0.71; stroke-opacity: 0.42; stroke: rgb(80, 80, 80);"></path><path class="link" marker-end="" d="M833,445.5, 979,394" style="stroke-width: 0.71; stroke-opacity: 0.42; stroke: rgb(80, 80, 80);"></path><path class="link" marker-end="" d="M833,464.5, 979,366" style="stroke-width: 0.71; stroke-opacity: 0.42; stroke: rgb(80, 80, 80);"></path><path class="link" marker-end="" d="M833,464.5, 979,394" style="stroke-width: 0.71; stroke-opacity: 0.42; stroke: rgb(80, 80, 80);"></path><path class="link" marker-end="" d="M833,483.5, 979,366" style="stroke-width: 0.71; stroke-opacity: 0.42; stroke: rgb(80, 80, 80);"></path><path class="link" marker-end="" d="M833,483.5, 979,394" style="stroke-width: 0.71; stroke-opacity: 0.42; stroke: rgb(80, 80, 80);"></path><path class="link" marker-end="" d="M833,502.5, 979,366" style="stroke-width: 0.71; stroke-opacity: 0.42; stroke: rgb(80, 80, 80);"></path><path class="link" marker-end="" d="M833,502.5, 979,394" style="stroke-width: 0.71; stroke-opacity: 0.42; stroke: rgb(80, 80, 80);"></path><path class="link" marker-end="" d="M833,521.5, 979,366" style="stroke-width: 0.71; stroke-opacity: 0.42; stroke: rgb(80, 80, 80);"></path><path class="link" marker-end="" d="M833,521.5, 979,394" style="stroke-width: 0.71; stroke-opacity: 0.42; stroke: rgb(80, 80, 80);"></path><path class="link" marker-end="" d="M979,366, 1125,350.5" style="stroke-width: 0.71; stroke-opacity: 0.42; stroke: rgb(80, 80, 80);"></path><path class="link" marker-end="" d="M979,366, 1125,369.5" style="stroke-width: 0.71; stroke-opacity: 0.42; stroke: rgb(80, 80, 80);"></path><path class="link" marker-end="" d="M979,366, 1125,388.5" style="stroke-width: 0.71; stroke-opacity: 0.42; stroke: rgb(80, 80, 80);"></path><path class="link" marker-end="" d="M979,366, 1125,407.5" style="stroke-width: 0.71; stroke-opacity: 0.42; stroke: rgb(80, 80, 80);"></path><path class="link" marker-end="" d="M979,366, 1125,426.5" style="stroke-width: 0.71; stroke-opacity: 0.42; stroke: rgb(80, 80, 80);"></path><path class="link" marker-end="" d="M979,366, 1125,445.5" style="stroke-width: 0.71; stroke-opacity: 0.42; stroke: rgb(80, 80, 80);"></path><path class="link" marker-end="" d="M979,366, 1125,464.5" style="stroke-width: 0.71; stroke-opacity: 0.42; stroke: rgb(80, 80, 80);"></path><path class="link" marker-end="" d="M979,366, 1125,483.5" style="stroke-width: 0.71; stroke-opacity: 0.42; stroke: rgb(80, 80, 80);"></path><path class="link" marker-end="" d="M979,366, 1125,502.5" style="stroke-width: 0.71; stroke-opacity: 0.42; stroke: rgb(80, 80, 80);"></path><path class="link" marker-end="" d="M979,394, 1125,350.5" style="stroke-width: 0.71; stroke-opacity: 0.42; stroke: rgb(80, 80, 80);"></path><path class="link" marker-end="" d="M979,394, 1125,369.5" style="stroke-width: 0.71; stroke-opacity: 0.42; stroke: rgb(80, 80, 80);"></path><path class="link" marker-end="" d="M979,394, 1125,388.5" style="stroke-width: 0.71; stroke-opacity: 0.42; stroke: rgb(80, 80, 80);"></path><path class="link" marker-end="" d="M979,394, 1125,407.5" style="stroke-width: 0.71; stroke-opacity: 0.42; stroke: rgb(80, 80, 80);"></path><path class="link" marker-end="" d="M979,394, 1125,426.5" style="stroke-width: 0.71; stroke-opacity: 0.42; stroke: rgb(80, 80, 80);"></path><path class="link" marker-end="" d="M979,394, 1125,445.5" style="stroke-width: 0.71; stroke-opacity: 0.42; stroke: rgb(80, 80, 80);"></path><path class="link" marker-end="" d="M979,394, 1125,464.5" style="stroke-width: 0.71; stroke-opacity: 0.42; stroke: rgb(80, 80, 80);"></path><path class="link" marker-end="" d="M979,394, 1125,483.5" style="stroke-width: 0.71; stroke-opacity: 0.42; stroke: rgb(80, 80, 80);"></path><path class="link" marker-end="" d="M979,394, 1125,502.5" style="stroke-width: 0.71; stroke-opacity: 0.42; stroke: rgb(80, 80, 80);"></path><path class="link" marker-end="" d="M833,350.5, 979,422" style="stroke-width: 0.71; stroke-opacity: 0.42; stroke: rgb(80, 80, 80);"></path><path class="link" marker-end="" d="M833,369.5, 979,422" style="stroke-width: 0.71; stroke-opacity: 0.42; stroke: rgb(80, 80, 80);"></path><path class="link" marker-end="" d="M833,388.5, 979,422" style="stroke-width: 0.71; stroke-opacity: 0.42; stroke: rgb(80, 80, 80);"></path><path class="link" marker-end="" d="M833,407.5, 979,422" style="stroke-width: 0.71; stroke-opacity: 0.42; stroke: rgb(80, 80, 80);"></path><path class="link" marker-end="" d="M833,426.5, 979,422" style="stroke-width: 0.71; stroke-opacity: 0.42; stroke: rgb(80, 80, 80);"></path><path class="link" marker-end="" d="M833,445.5, 979,422" style="stroke-width: 0.71; stroke-opacity: 0.42; stroke: rgb(80, 80, 80);"></path><path class="link" marker-end="" d="M833,464.5, 979,422" style="stroke-width: 0.71; stroke-opacity: 0.42; stroke: rgb(80, 80, 80);"></path><path class="link" marker-end="" d="M833,483.5, 979,422" style="stroke-width: 0.71; stroke-opacity: 0.42; stroke: rgb(80, 80, 80);"></path><path class="link" marker-end="" d="M833,502.5, 979,422" style="stroke-width: 0.71; stroke-opacity: 0.42; stroke: rgb(80, 80, 80);"></path><path class="link" marker-end="" d="M833,521.5, 979,422" style="stroke-width: 0.71; stroke-opacity: 0.42; stroke: rgb(80, 80, 80);"></path><path class="link" marker-end="" d="M979,422, 1125,350.5" style="stroke-width: 0.71; stroke-opacity: 0.42; stroke: rgb(80, 80, 80);"></path><path class="link" marker-end="" d="M979,422, 1125,369.5" style="stroke-width: 0.71; stroke-opacity: 0.42; stroke: rgb(80, 80, 80);"></path><path class="link" marker-end="" d="M979,422, 1125,388.5" style="stroke-width: 0.71; stroke-opacity: 0.42; stroke: rgb(80, 80, 80);"></path><path class="link" marker-end="" d="M979,422, 1125,407.5" style="stroke-width: 0.71; stroke-opacity: 0.42; stroke: rgb(80, 80, 80);"></path><path class="link" marker-end="" d="M979,422, 1125,426.5" style="stroke-width: 0.71; stroke-opacity: 0.42; stroke: rgb(80, 80, 80);"></path><path class="link" marker-end="" d="M979,422, 1125,445.5" style="stroke-width: 0.71; stroke-opacity: 0.42; stroke: rgb(80, 80, 80);"></path><path class="link" marker-end="" d="M979,422, 1125,464.5" style="stroke-width: 0.71; stroke-opacity: 0.42; stroke: rgb(80, 80, 80);"></path><path class="link" marker-end="" d="M979,422, 1125,483.5" style="stroke-width: 0.71; stroke-opacity: 0.42; stroke: rgb(80, 80, 80);"></path><path class="link" marker-end="" d="M979,422, 1125,502.5" style="stroke-width: 0.71; stroke-opacity: 0.42; stroke: rgb(80, 80, 80);"></path><path class="link" marker-end="" d="M833,350.5, 979,450" style="stroke-width: 0.71; stroke-opacity: 0.42; stroke: rgb(80, 80, 80);"></path><path class="link" marker-end="" d="M833,369.5, 979,450" style="stroke-width: 0.71; stroke-opacity: 0.42; stroke: rgb(80, 80, 80);"></path><path class="link" marker-end="" d="M833,388.5, 979,450" style="stroke-width: 0.71; stroke-opacity: 0.42; stroke: rgb(80, 80, 80);"></path><path class="link" marker-end="" d="M833,407.5, 979,450" style="stroke-width: 0.71; stroke-opacity: 0.42; stroke: rgb(80, 80, 80);"></path><path class="link" marker-end="" d="M833,426.5, 979,450" style="stroke-width: 0.71; stroke-opacity: 0.42; stroke: rgb(80, 80, 80);"></path><path class="link" marker-end="" d="M833,445.5, 979,450" style="stroke-width: 0.71; stroke-opacity: 0.42; stroke: rgb(80, 80, 80);"></path><path class="link" marker-end="" d="M833,464.5, 979,450" style="stroke-width: 0.71; stroke-opacity: 0.42; stroke: rgb(80, 80, 80);"></path><path class="link" marker-end="" d="M833,483.5, 979,450" style="stroke-width: 0.71; stroke-opacity: 0.42; stroke: rgb(80, 80, 80);"></path><path class="link" marker-end="" d="M833,502.5, 979,450" style="stroke-width: 0.71; stroke-opacity: 0.42; stroke: rgb(80, 80, 80);"></path><path class="link" marker-end="" d="M833,521.5, 979,450" style="stroke-width: 0.71; stroke-opacity: 0.42; stroke: rgb(80, 80, 80);"></path><path class="link" marker-end="" d="M979,450, 1125,350.5" style="stroke-width: 0.71; stroke-opacity: 0.42; stroke: rgb(80, 80, 80);"></path><path class="link" marker-end="" d="M979,450, 1125,369.5" style="stroke-width: 0.71; stroke-opacity: 0.42; stroke: rgb(80, 80, 80);"></path><path class="link" marker-end="" d="M979,450, 1125,388.5" style="stroke-width: 0.71; stroke-opacity: 0.42; stroke: rgb(80, 80, 80);"></path><path class="link" marker-end="" d="M979,450, 1125,407.5" style="stroke-width: 0.71; stroke-opacity: 0.42; stroke: rgb(80, 80, 80);"></path><path class="link" marker-end="" d="M979,450, 1125,426.5" style="stroke-width: 0.71; stroke-opacity: 0.42; stroke: rgb(80, 80, 80);"></path><path class="link" marker-end="" d="M979,450, 1125,445.5" style="stroke-width: 0.71; stroke-opacity: 0.42; stroke: rgb(80, 80, 80);"></path><path class="link" marker-end="" d="M979,450, 1125,464.5" style="stroke-width: 0.71; stroke-opacity: 0.42; stroke: rgb(80, 80, 80);"></path><path class="link" marker-end="" d="M979,450, 1125,483.5" style="stroke-width: 0.71; stroke-opacity: 0.42; stroke: rgb(80, 80, 80);"></path><path class="link" marker-end="" d="M979,450, 1125,502.5" style="stroke-width: 0.71; stroke-opacity: 0.42; stroke: rgb(80, 80, 80);"></path><path class="link" marker-end="" d="M833,350.5, 979,478" style="stroke-width: 0.71; stroke-opacity: 0.42; stroke: rgb(80, 80, 80);"></path><path class="link" marker-end="" d="M833,369.5, 979,478" style="stroke-width: 0.71; stroke-opacity: 0.42; stroke: rgb(80, 80, 80);"></path><path class="link" marker-end="" d="M833,388.5, 979,478" style="stroke-width: 0.71; stroke-opacity: 0.42; stroke: rgb(80, 80, 80);"></path><path class="link" marker-end="" d="M833,407.5, 979,478" style="stroke-width: 0.71; stroke-opacity: 0.42; stroke: rgb(80, 80, 80);"></path><path class="link" marker-end="" d="M833,426.5, 979,478" style="stroke-width: 0.71; stroke-opacity: 0.42; stroke: rgb(80, 80, 80);"></path><path class="link" marker-end="" d="M833,445.5, 979,478" style="stroke-width: 0.71; stroke-opacity: 0.42; stroke: rgb(80, 80, 80);"></path><path class="link" marker-end="" d="M833,464.5, 979,478" style="stroke-width: 0.71; stroke-opacity: 0.42; stroke: rgb(80, 80, 80);"></path><path class="link" marker-end="" d="M833,483.5, 979,478" style="stroke-width: 0.71; stroke-opacity: 0.42; stroke: rgb(80, 80, 80);"></path><path class="link" marker-end="" d="M833,502.5, 979,478" style="stroke-width: 0.71; stroke-opacity: 0.42; stroke: rgb(80, 80, 80);"></path><path class="link" marker-end="" d="M833,521.5, 979,478" style="stroke-width: 0.71; stroke-opacity: 0.42; stroke: rgb(80, 80, 80);"></path><path class="link" marker-end="" d="M979,478, 1125,350.5" style="stroke-width: 0.71; stroke-opacity: 0.42; stroke: rgb(80, 80, 80);"></path><path class="link" marker-end="" d="M979,478, 1125,369.5" style="stroke-width: 0.71; stroke-opacity: 0.42; stroke: rgb(80, 80, 80);"></path><path class="link" marker-end="" d="M979,478, 1125,388.5" style="stroke-width: 0.71; stroke-opacity: 0.42; stroke: rgb(80, 80, 80);"></path><path class="link" marker-end="" d="M979,478, 1125,407.5" style="stroke-width: 0.71; stroke-opacity: 0.42; stroke: rgb(80, 80, 80);"></path><path class="link" marker-end="" d="M979,478, 1125,426.5" style="stroke-width: 0.71; stroke-opacity: 0.42; stroke: rgb(80, 80, 80);"></path><path class="link" marker-end="" d="M979,478, 1125,445.5" style="stroke-width: 0.71; stroke-opacity: 0.42; stroke: rgb(80, 80, 80);"></path><path class="link" marker-end="" d="M979,478, 1125,464.5" style="stroke-width: 0.71; stroke-opacity: 0.42; stroke: rgb(80, 80, 80);"></path><path class="link" marker-end="" d="M979,478, 1125,483.5" style="stroke-width: 0.71; stroke-opacity: 0.42; stroke: rgb(80, 80, 80);"></path><path class="link" marker-end="" d="M979,478, 1125,502.5" style="stroke-width: 0.71; stroke-opacity: 0.42; stroke: rgb(80, 80, 80);"></path><path class="link" marker-end="" d="M833,350.5, 979,506" style="stroke-width: 0.71; stroke-opacity: 0.42; stroke: rgb(80, 80, 80);"></path><path class="link" marker-end="" d="M833,369.5, 979,506" style="stroke-width: 0.71; stroke-opacity: 0.42; stroke: rgb(80, 80, 80);"></path><path class="link" marker-end="" d="M833,388.5, 979,506" style="stroke-width: 0.71; stroke-opacity: 0.42; stroke: rgb(80, 80, 80);"></path><path class="link" marker-end="" d="M833,407.5, 979,506" style="stroke-width: 0.71; stroke-opacity: 0.42; stroke: rgb(80, 80, 80);"></path><path class="link" marker-end="" d="M833,426.5, 979,506" style="stroke-width: 0.71; stroke-opacity: 0.42; stroke: rgb(80, 80, 80);"></path><path class="link" marker-end="" d="M833,445.5, 979,506" style="stroke-width: 0.71; stroke-opacity: 0.42; stroke: rgb(80, 80, 80);"></path><path class="link" marker-end="" d="M833,464.5, 979,506" style="stroke-width: 0.71; stroke-opacity: 0.42; stroke: rgb(80, 80, 80);"></path><path class="link" marker-end="" d="M833,483.5, 979,506" style="stroke-width: 0.71; stroke-opacity: 0.42; stroke: rgb(80, 80, 80);"></path><path class="link" marker-end="" d="M833,502.5, 979,506" style="stroke-width: 0.71; stroke-opacity: 0.42; stroke: rgb(80, 80, 80);"></path><path class="link" marker-end="" d="M833,521.5, 979,506" style="stroke-width: 0.71; stroke-opacity: 0.42; stroke: rgb(80, 80, 80);"></path><path class="link" marker-end="" d="M979,506, 1125,350.5" style="stroke-width: 0.71; stroke-opacity: 0.42; stroke: rgb(80, 80, 80);"></path><path class="link" marker-end="" d="M979,506, 1125,369.5" style="stroke-width: 0.71; stroke-opacity: 0.42; stroke: rgb(80, 80, 80);"></path><path class="link" marker-end="" d="M979,506, 1125,388.5" style="stroke-width: 0.71; stroke-opacity: 0.42; stroke: rgb(80, 80, 80);"></path><path class="link" marker-end="" d="M979,506, 1125,407.5" style="stroke-width: 0.71; stroke-opacity: 0.42; stroke: rgb(80, 80, 80);"></path><path class="link" marker-end="" d="M979,506, 1125,426.5" style="stroke-width: 0.71; stroke-opacity: 0.42; stroke: rgb(80, 80, 80);"></path><path class="link" marker-end="" d="M979,506, 1125,445.5" style="stroke-width: 0.71; stroke-opacity: 0.42; stroke: rgb(80, 80, 80);"></path><path class="link" marker-end="" d="M979,506, 1125,464.5" style="stroke-width: 0.71; stroke-opacity: 0.42; stroke: rgb(80, 80, 80);"></path><path class="link" marker-end="" d="M979,506, 1125,483.5" style="stroke-width: 0.71; stroke-opacity: 0.42; stroke: rgb(80, 80, 80);"></path><path class="link" marker-end="" d="M979,506, 1125,502.5" style="stroke-width: 0.71; stroke-opacity: 0.42; stroke: rgb(80, 80, 80);"></path><path class="link" marker-end="" d="M979,366, 1125,521.5" style="stroke-width: 0.71; stroke-opacity: 0.42; stroke: rgb(80, 80, 80);"></path><path class="link" marker-end="" d="M979,394, 1125,521.5" style="stroke-width: 0.71; stroke-opacity: 0.42; stroke: rgb(80, 80, 80);"></path><path class="link" marker-end="" d="M979,422, 1125,521.5" style="stroke-width: 0.71; stroke-opacity: 0.42; stroke: rgb(80, 80, 80);"></path><path class="link" marker-end="" d="M979,450, 1125,521.5" style="stroke-width: 0.71; stroke-opacity: 0.42; stroke: rgb(80, 80, 80);"></path><path class="link" marker-end="" d="M979,478, 1125,521.5" style="stroke-width: 0.71; stroke-opacity: 0.42; stroke: rgb(80, 80, 80);"></path><path class="link" marker-end="" d="M979,506, 1125,521.5" style="stroke-width: 0.71; stroke-opacity: 0.42; stroke: rgb(80, 80, 80);"></path><circle r="8.5" class="node" id="0_0" cx="833" cy="350.5" style="fill: rgb(255, 255, 255); stroke: rgb(51, 51, 51);"></circle><circle r="8.5" class="node" id="0_1" cx="833" cy="369.5" style="fill: rgb(255, 255, 255); stroke: rgb(51, 51, 51);"></circle><circle r="8.5" class="node" id="0_2" cx="833" cy="388.5" style="fill: rgb(255, 255, 255); stroke: rgb(51, 51, 51);"></circle><circle r="8.5" class="node" id="0_3" cx="833" cy="407.5" style="fill: rgb(255, 255, 255); stroke: rgb(51, 51, 51);"></circle><circle r="8.5" class="node" id="0_4" cx="833" cy="426.5" style="fill: rgb(255, 255, 255); stroke: rgb(51, 51, 51);"></circle><circle r="8.5" class="node" id="0_5" cx="833" cy="445.5" style="fill: rgb(255, 255, 255); stroke: rgb(51, 51, 51);"></circle><circle r="8.5" class="node" id="0_6" cx="833" cy="464.5" style="fill: rgb(255, 255, 255); stroke: rgb(51, 51, 51);"></circle><circle r="8.5" class="node" id="0_7" cx="833" cy="483.5" style="fill: rgb(255, 255, 255); stroke: rgb(51, 51, 51);"></circle><circle r="8.5" class="node" id="0_8" cx="833" cy="502.5" style="fill: rgb(255, 255, 255); stroke: rgb(51, 51, 51);"></circle><circle r="8.5" class="node" id="0_9" cx="833" cy="521.5" style="fill: rgb(255, 255, 255); stroke: rgb(51, 51, 51);"></circle><circle r="8.5" class="node" id="1_0" cx="979" cy="366" style="fill: rgb(255, 255, 255); stroke: rgb(51, 51, 51);"></circle><circle r="8.5" class="node" id="1_1" cx="979" cy="394" style="fill: rgb(255, 255, 255); stroke: rgb(51, 51, 51);"></circle><circle r="8.5" class="node" id="1_2" cx="979" cy="422" style="fill: rgb(255, 255, 255); stroke: rgb(51, 51, 51);"></circle><circle r="8.5" class="node" id="1_3" cx="979" cy="450" style="fill: rgb(255, 255, 255); stroke: rgb(51, 51, 51);"></circle><circle r="8.5" class="node" id="1_4" cx="979" cy="478" style="fill: rgb(255, 255, 255); stroke: rgb(51, 51, 51);"></circle><circle r="8.5" class="node" id="1_5" cx="979" cy="506" style="fill: rgb(255, 255, 255); stroke: rgb(51, 51, 51);"></circle><circle r="8.5" class="node" id="2_0" cx="1125" cy="350.5" style="fill: rgb(255, 255, 255); stroke: rgb(51, 51, 51);"></circle><circle r="8.5" class="node" id="2_1" cx="1125" cy="369.5" style="fill: rgb(255, 255, 255); stroke: rgb(51, 51, 51);"></circle><circle r="8.5" class="node" id="2_2" cx="1125" cy="388.5" style="fill: rgb(255, 255, 255); stroke: rgb(51, 51, 51);"></circle><circle r="8.5" class="node" id="2_3" cx="1125" cy="407.5" style="fill: rgb(255, 255, 255); stroke: rgb(51, 51, 51);"></circle><circle r="8.5" class="node" id="2_4" cx="1125" cy="426.5" style="fill: rgb(255, 255, 255); stroke: rgb(51, 51, 51);"></circle><circle r="8.5" class="node" id="2_5" cx="1125" cy="445.5" style="fill: rgb(255, 255, 255); stroke: rgb(51, 51, 51);"></circle><circle r="8.5" class="node" id="2_6" cx="1125" cy="464.5" style="fill: rgb(255, 255, 255); stroke: rgb(51, 51, 51);"></circle><circle r="8.5" class="node" id="2_7" cx="1125" cy="483.5" style="fill: rgb(255, 255, 255); stroke: rgb(51, 51, 51);"></circle><circle r="8.5" class="node" id="2_8" cx="1125" cy="502.5" style="fill: rgb(255, 255, 255); stroke: rgb(51, 51, 51);"></circle><text class="text" dy=".35em" x="798" y="560.5" style="font-size: 12px;"></text><text class="text" dy=".35em" x="944" y="560.5" style="font-size: 12px;"></text><text class="text" dy=".35em" x="1090" y="560.5" style="font-size: 12px;"></text><circle r="8.5" class="node" id="2_9" cx="1125" cy="521.5" style="fill: rgb(255, 255, 255); stroke: rgb(51, 51, 51);"></circle></g><defs><marker id="arrow" viewBox="0 -5 10 10" markerWidth="7" markerHeight="7" orient="auto" refX="35.8"><path d="M0,-5L10,0L0,5" style="stroke: rgb(80, 80, 80); fill: none;"></path></marker></defs></svg>