<svg viewBox="0 0 330.0000305175781 200.00001525878906" xmlns="http://www.w3.org/2000/svg"><g><g><g><g><g><line x1="50.5625" y1="178" x2="45.5625" y2="178" style="visibility: inherit;" fill="rgb(0, 0, 0)" stroke="rgb(204, 204, 204)" stroke-width="1px"></line><line x1="50.5625" y1="158.2222222222222" x2="45.5625" y2="158.2222222222222" style="visibility: inherit;" fill="rgb(0, 0, 0)" stroke="rgb(204, 204, 204)" stroke-width="1px"></line><line x1="50.5625" y1="138.44444444444446" x2="45.5625" y2="138.44444444444446" style="visibility: inherit;" fill="rgb(0, 0, 0)" stroke="rgb(204, 204, 204)" stroke-width="1px"></line><line x1="50.5625" y1="118.66666666666666" x2="45.5625" y2="118.66666666666666" style="visibility: inherit;" fill="rgb(0, 0, 0)" stroke="rgb(204, 204, 204)" stroke-width="1px"></line><line x1="50.5625" y1="98.8888888888889" x2="45.5625" y2="98.8888888888889" style="visibility: inherit;" fill="rgb(0, 0, 0)" stroke="rgb(204, 204, 204)" stroke-width="1px"></line><line x1="50.5625" y1="79.1111111111111" x2="45.5625" y2="79.1111111111111" style="visibility: inherit;" fill="rgb(0, 0, 0)" stroke="rgb(204, 204, 204)" stroke-width="1px"></line><line x1="50.5625" y1="59.33333333333334" x2="45.5625" y2="59.33333333333334" style="visibility: inherit;" fill="rgb(0, 0, 0)" stroke="rgb(204, 204, 204)" stroke-width="1px"></line><line x1="50.5625" y1="39.55555555555557" x2="45.5625" y2="39.55555555555557" style="visibility: inherit;" fill="rgb(0, 0, 0)" stroke="rgb(204, 204, 204)" stroke-width="1px"></line><line x1="50.5625" y1="19.777777777777786" x2="45.5625" y2="19.777777777777786" style="visibility: inherit;" fill="rgb(0, 0, 0)" stroke="rgb(204, 204, 204)" stroke-width="1px"></line><line x1="50.5625" y1="0" x2="45.5625" y2="0" style="visibility: inherit;" fill="rgb(0, 0, 0)" stroke="rgb(204, 204, 204)" stroke-width="1px"></line></g><g transform="translate(40.5625, 0)"><text x="0" y="178" dx="0em" dy="0.3em" style="text-anchor: end; visibility: hidden; font-family: Roboto, sans-serif; font-size: 12px; font-weight: 200;" fill="rgb(50, 49, 63)" stroke="none" stroke-width="1px">-0.1</text><text x="0" y="158.2222222222222" dx="0em" dy="0.3em" style="text-anchor: end; visibility: inherit; font-family: Roboto, sans-serif; font-size: 12px; font-weight: 200;" fill="rgb(50, 49, 63)" stroke="none" stroke-width="1px">0</text><text x="0" y="138.44444444444446" dx="0em" dy="0.3em" style="text-anchor: end; visibility: hidden; font-family: Roboto, sans-serif; font-size: 12px; font-weight: 200;" fill="rgb(50, 49, 63)" stroke="none" stroke-width="1px">0.1</text><text x="0" y="118.66666666666666" dx="0em" dy="0.3em" style="text-anchor: end; visibility: inherit; font-family: Roboto, sans-serif; font-size: 12px; font-weight: 200;" fill="rgb(50, 49, 63)" stroke="none" stroke-width="1px">0.2</text><text x="0" y="98.8888888888889" dx="0em" dy="0.3em" style="text-anchor: end; visibility: hidden; font-family: Roboto, sans-serif; font-size: 12px; font-weight: 200;" fill="rgb(50, 49, 63)" stroke="none" stroke-width="1px">0.3</text><text x="0" y="79.1111111111111" dx="0em" dy="0.3em" style="text-anchor: end; visibility: inherit; font-family: Roboto, sans-serif; font-size: 12px; font-weight: 200;" fill="rgb(50, 49, 63)" stroke="none" stroke-width="1px">0.4</text><text x="0" y="59.33333333333334" dx="0em" dy="0.3em" style="text-anchor: end; visibility: hidden; font-family: Roboto, sans-serif; font-size: 12px; font-weight: 200;" fill="rgb(50, 49, 63)" stroke="none" stroke-width="1px">0.5</text><text x="0" y="39.55555555555557" dx="0em" dy="0.3em" style="text-anchor: end; visibility: inherit; font-family: Roboto, sans-serif; font-size: 12px; font-weight: 200;" fill="rgb(50, 49, 63)" stroke="none" stroke-width="1px">0.6</text><text x="0" y="19.777777777777786" dx="0em" dy="0.3em" style="text-anchor: end; visibility: hidden; font-family: Roboto, sans-serif; font-size: 12px; font-weight: 200;" fill="rgb(50, 49, 63)" stroke="none" stroke-width="1px">0.7</text><text x="0" y="0" dx="0em" dy="0.3em" style="text-anchor: end; visibility: hidden; font-family: Roboto, sans-serif; font-size: 12px; font-weight: 200;" fill="rgb(50, 49, 63)" stroke="none" stroke-width="1px">0.8</text></g><line x1="50.5625" y1="0" x2="50.5625" y2="178" fill="rgb(0, 0, 0)" stroke="rgb(204, 204, 204)" stroke-width="1px"></line></g></g><g transform="translate(50, 0)" clip-path="url(#clip_0)"><clipPath id="clip_0"><rect width="279" height="177"></rect></clipPath><g><g><g><line x1="0" y1="0" x2="0" y2="178" fill="rgb(0, 0, 0)" stroke="rgb(60, 60, 60)" stroke-width="1px" opacity="0.25"></line><line x1="23.286458333333332" y1="0" x2="23.286458333333332" y2="178" fill="rgb(0, 0, 0)" stroke="rgb(60, 60, 60)" stroke-width="1px" opacity="0.25"></line><line x1="46.572916666666664" y1="0" x2="46.572916666666664" y2="178" fill="rgb(0, 0, 0)" stroke="rgb(60, 60, 60)" stroke-width="1px" opacity="0.25"></line><line x1="69.859375" y1="0" x2="69.859375" y2="178" fill="rgb(0, 0, 0)" stroke="rgb(60, 60, 60)" stroke-width="1px" opacity="0.25"></line><line x1="93.14583333333333" y1="0" x2="93.14583333333333" y2="178" fill="rgb(0, 0, 0)" stroke="rgb(60, 60, 60)" stroke-width="1px" opacity="0.25"></line><line x1="116.43229166666667" y1="0" x2="116.43229166666667" y2="178" fill="rgb(0, 0, 0)" stroke="rgb(60, 60, 60)" stroke-width="1px" opacity="0.25"></line><line x1="139.71875" y1="0" x2="139.71875" y2="178" fill="rgb(0, 0, 0)" stroke="rgb(60, 60, 60)" stroke-width="1px" opacity="0.25"></line><line x1="163.00520833333334" y1="0" x2="163.00520833333334" y2="178" fill="rgb(0, 0, 0)" stroke="rgb(60, 60, 60)" stroke-width="1px" opacity="0.25"></line><line x1="186.29166666666666" y1="0" x2="186.29166666666666" y2="178" fill="rgb(0, 0, 0)" stroke="rgb(60, 60, 60)" stroke-width="1px" opacity="0.25"></line><line x1="209.578125" y1="0" x2="209.578125" y2="178" fill="rgb(0, 0, 0)" stroke="rgb(60, 60, 60)" stroke-width="1px" opacity="0.25"></line><line x1="232.86458333333334" y1="0" x2="232.86458333333334" y2="178" fill="rgb(0, 0, 0)" stroke="rgb(60, 60, 60)" stroke-width="1px" opacity="0.25"></line><line x1="256.15104166666663" y1="0" x2="256.15104166666663" y2="178" fill="rgb(0, 0, 0)" stroke="rgb(60, 60, 60)" stroke-width="1px" opacity="0.25"></line><line x1="279.4375" y1="0" x2="279.4375" y2="178" fill="rgb(0, 0, 0)" stroke="rgb(60, 60, 60)" stroke-width="1px" opacity="0.25"></line></g><g><line x1="0" y1="178" x2="279.4375" y2="178" fill="rgb(0, 0, 0)" stroke="rgb(60, 60, 60)" stroke-width="1px" opacity="0.25"></line><line x1="0" y1="158.2222222222222" x2="279.4375" y2="158.2222222222222" fill="rgb(0, 0, 0)" stroke="rgb(60, 60, 60)" stroke-width="1px" opacity="0.25"></line><line x1="0" y1="138.44444444444446" x2="279.4375" y2="138.44444444444446" fill="rgb(0, 0, 0)" stroke="rgb(60, 60, 60)" stroke-width="1px" opacity="0.25"></line><line x1="0" y1="118.66666666666666" x2="279.4375" y2="118.66666666666666" fill="rgb(0, 0, 0)" stroke="rgb(60, 60, 60)" stroke-width="1px" opacity="0.25"></line><line x1="0" y1="98.8888888888889" x2="279.4375" y2="98.8888888888889" fill="rgb(0, 0, 0)" stroke="rgb(60, 60, 60)" stroke-width="1px" opacity="0.25"></line><line x1="0" y1="79.1111111111111" x2="279.4375" y2="79.1111111111111" fill="rgb(0, 0, 0)" stroke="rgb(60, 60, 60)" stroke-width="1px" opacity="0.25"></line><line x1="0" y1="59.33333333333334" x2="279.4375" y2="59.33333333333334" fill="rgb(0, 0, 0)" stroke="rgb(60, 60, 60)" stroke-width="1px" opacity="0.25"></line><line x1="0" y1="39.55555555555557" x2="279.4375" y2="39.55555555555557" fill="rgb(0, 0, 0)" stroke="rgb(60, 60, 60)" stroke-width="1px" opacity="0.25"></line><line x1="0" y1="19.777777777777786" x2="279.4375" y2="19.777777777777786" fill="rgb(0, 0, 0)" stroke="rgb(60, 60, 60)" stroke-width="1px" opacity="0.25"></line><line x1="0" y1="0" x2="279.4375" y2="0" fill="rgb(0, 0, 0)" stroke="rgb(60, 60, 60)" stroke-width="1px" opacity="0.25"></line></g></g></g><g><g><line x1="0" y1="158.2222222222222" x2="279.4375" y2="158.2222222222222" fill="rgb(0, 0, 0)" stroke="rgb(153, 153, 153)" stroke-width="1.5px"></line></g></g><g><g><line x1="23.286458333333332" y1="0" x2="23.286458333333332" y2="178" fill="rgb(0, 0, 0)" stroke="rgb(153, 153, 153)" stroke-width="1.5px"></line></g></g><g><g><g><g><g><path stroke="rgb(255, 112, 67)" stroke-width="2px" d="M23.286458333333332,32.91032899750605L25.615104166666665,33.291921907001075L27.94375,33.72075772826095L30.272395833333334,34.17498480669815L32.60104166666667,34.609884160827406L34.9296875,35.04104606355699L37.25833333333333,35.452020669932274L39.586979166666666,35.8406397878145L41.915625,36.214569903861026L44.24427083333333,36.58545128699667L46.572916666666664,36.996447779053774L48.9015625,37.4163297154246L51.23020833333333,37.84983080185263L53.55885416666667,38.3022019746496L55.8875,38.77840134158326L58.216145833333336,39.274272599368295L60.54479166666667,39.841268964537534L62.8734375,40.43003537966198L65.20208333333333,41.03626246155612L67.53072916666667,41.6570439345725L69.859375,42.25576179847493L72.18802083333334,42.9190034310242L74.51666666666667,43.62643043819557L76.8453125,44.40014420437408L79.17395833333333,45.24618102065744L81.50260416666667,46.17185458661691L83.83125,47.13591738010434L86.15989583333334,48.14154541469596L88.48854166666666,49.24729492596616L90.8171875,50.378954377933454L93.14583333333333,51.654060100074524L95.47447916666667,52.99082203026703L97.803125,54.36493136149136L100.13177083333333,55.825135203285L102.46041666666666,57.33901866155911L104.7890625,58.88755718272248L107.11770833333334,60.559957733577946L109.44635416666667,62.43604457793138L111.775,64.44943244624842L114.10364583333333,66.5584488170513L116.43229166666667,68.68034315752647L118.7609375,70.7120091327728L121.08958333333334,72.77143497710824L123.41822916666666,74.7842102789449L125.746875,76.64837322977759L128.07552083333331,78.56484224882965L130.40416666666667,80.49720485375617L132.7328125,82.42796821750676L135.06145833333335,84.35566897276804L137.39010416666665,86.19580402094545L139.71875,87.89214506618065L142.04739583333333,89.40544284042623L144.37604166666668,90.83356435160896L146.7046875,92.38079859915841L149.03333333333333,94.07307707133084L151.36197916666666,95.65694332239403L153.690625,97.1189017143891L156.01927083333334,98.29290817196788L158.34791666666666,99.21365884021967L160.6765625,100.12473584525087L163.00520833333334,100.97962707136125L165.33385416666667,102.20541791431539L167.6625,103.49819253736861L169.99114583333332,104.34704723204982L172.31979166666667,104.49037272149477L174.6484375,104.56682642415323L176.97708333333333,104.96167284716266L179.30572916666668,106.06792408772434L181.634375,107.34536511562474L183.96302083333333,108.39389962736756L186.29166666666666,108.87427808248725L188.6203125,108.82259511194862L190.94895833333334,108.487159772171L193.27760416666666,108.99754399929317L195.60625,109.77939938827676L197.93489583333334,110.51953907404935L200.26354166666667,111.02419324474293L202.5921875,111.11105980198306L204.92083333333332,111.06977611878612L207.24947916666667,111.42301512220958L209.578125,111.87156616855668L211.90677083333333,112.37979770294895L214.23541666666668,112.41922246173267L216.5640625,112.85715966542375L218.89270833333333,112.85563736364465L221.22135416666666,113.04987981507976L223.55,113.14542294032586L225.87864583333334,113.48806054087807L228.20729166666666,113.77634867842391L230.5359375,113.71558676781825L232.86458333333334,113.41726399236464L235.19322916666667,113.468192727673L237.521875,113.86738145098232L239.85052083333332,114.43083606144206L242.17916666666667,114.59329357003092L244.5078125,114.2987989507081L246.83645833333333,113.88799604904423L249.16510416666668,113.37856885472004L251.49375,113.82208186130494" style="fill: none;" fill="none"></path></g><g><path stroke="rgb(187, 187, 187)" stroke-width="2px" d="M23.286458333333332,27.270039214028262L25.615104166666665,27.58924899167486L27.94375,27.9165227472647L30.272395833333334,28.27078207421539L32.60104166666667,28.571616020481343L34.9296875,28.871724308205756L37.25833333333333,29.207588162154245L39.586979166666666,29.556825842725402L41.915625,29.926679764205133L44.24427083333333,30.265923121192824L46.572916666666664,30.67080919196432L48.9015625,31.075002796404846L51.23020833333333,31.516294511890106L53.55885416666667,31.984031716876373L55.8875,32.4824164144781L58.216145833333336,32.997035288048686L60.54479166666667,33.557360039121896L62.8734375,34.06531685640499L65.20208333333333,34.67550176097959L67.53072916666667,35.314511492973764L69.859375,35.978785442521506L72.18802083333334,36.6970292521973L74.51666666666667,37.48349381528255L76.8453125,38.293991746015244L79.17395833333333,39.16289113719818L81.50260416666667,40.12674568986504L83.83125,41.177879406678784L86.15989583333334,42.330765098542635L88.48854166666666,43.51705574272956L90.8171875,44.74916378445129L93.14583333333333,45.9892170312974L95.47447916666667,47.3164200232823L97.803125,48.7243372517765L100.13177083333333,50.15104681010823L102.46041666666666,51.69775451815795L104.7890625,53.28634392626494L107.11770833333334,54.897572632447144L109.44635416666667,56.76948312834173L111.775,58.84705022853378L114.10364583333333,61.091715881206326L116.43229166666667,63.50457764268059L118.7609375,65.88485967260655L121.08958333333334,68.14800651687064L123.41822916666666,70.37789748969502L125.746875,72.55594004399731L128.07552083333331,74.52866347567914L130.40416666666667,76.55696528722493L132.7328125,78.61275997042424L135.06145833333335,80.53108111524378L137.39010416666665,82.40799625420375L139.71875,84.25109440309984L142.04739583333333,85.96238103443793L144.37604166666668,87.61403881073929L146.7046875,89.16331439485211L149.03333333333333,90.74771534034412L151.36197916666666,92.20897366713154L153.690625,93.50676344964005L156.01927083333334,94.81635718888586L158.34791666666666,96.0208754010459L160.6765625,97.13614723422229L163.00520833333334,98.14205281472402L165.33385416666667,99.23477540335774L167.6625,99.8993776277009L169.99114583333332,100.89346633962613L172.31979166666667,101.89394830035262L174.6484375,102.59481909626315L176.97708333333333,103.13463857490638L179.30572916666668,103.90702276260943L181.634375,104.70151842665781L183.96302083333333,105.09428896194628L186.29166666666666,105.64796187822913L188.6203125,106.35245271596911L190.94895833333334,106.68183437232335L193.27760416666666,106.97737371735934L195.60625,107.50253511688344L197.93489583333334,107.9517847928677L200.26354166666667,108.3919963392911L202.5921875,108.73837970349311L204.92083333333332,108.95817266562122L207.24947916666667,109.25227553044877L209.578125,109.61326930890884L211.90677083333333,109.92901607469298L214.23541666666668,110.04648371076597L216.5640625,110.18406546634046L218.89270833333333,110.40264290219841L221.22135416666666,110.66991323286739L223.55,110.91630889474685L225.87864583333334,111.05337162646586L228.20729166666666,111.1598357588029L230.5359375,111.3750016217085L232.86458333333334,111.4683596645585L235.19322916666667,111.62416628197249L237.521875,111.81778626757115L239.85052083333332,111.89306050542675L242.17916666666667,111.91492630775316L244.5078125,112.09696047810706L246.83645833333333,112.16676150147909L249.16510416666668,111.96498732133917L251.49375,112.18141268311467" style="fill: none;" fill="none"></path></g></g></g></g><g opacity="0.2"><g><g><g><path stroke="rgb(255, 112, 67)" stroke-width="2px" d="M23.286458333333332,32.91032899750605L25.615104166666665,33.5208776526981L27.94375,34.1324401166704L30.272395833333334,34.709155850940284L32.60104166666667,35.177688757578544L34.9296875,35.63749819331699L37.25833333333333,36.03972093264263L39.586979166666666,36.40725019243029L41.915625,36.76604419284397L44.24427083333333,37.1361669169532L46.572916666666664,37.6092148092058L48.9015625,38.04386764102512L51.23020833333333,38.498666975233306L53.55885416666667,38.979872491624626L55.8875,39.49214063750374L58.216145833333336,40.01772975921631L60.54479166666667,40.69152357843188L62.8734375,41.31303551461962L65.20208333333333,41.945510731803054L67.53072916666667,42.58815940221152L69.859375,43.15380575921801L72.18802083333334,43.913844055599654L74.51666666666667,44.687556982040405L76.8453125,45.56070568826464L79.17395833333333,46.51523023181492L81.50260416666667,47.56036098798117L83.83125,48.5820091035631L86.15989583333334,49.649985922707465L88.48854166666666,50.9059181743198L90.8171875,52.07644293043348L93.14583333333333,53.566718260447196L95.47447916666667,54.99596465958491L97.803125,56.42609519428679L100.13177083333333,58.015440861384086L102.46041666666666,59.609843783908424L104.7890625,61.21036492453682L107.11770833333334,63.06855853398642L109.44635416666667,65.25017482704588L111.775,67.46951423750984L114.10364583333333,69.72197336620756L116.43229166666667,71.86318466398451L118.7609375,73.75950809319815L121.08958333333334,75.86057374212477L123.41822916666666,77.80337323082819L125.746875,79.44461765554216L128.07552083333331,81.43954577710893L130.40416666666667,83.39574876096513L132.7328125,85.32411326302423L135.06145833333335,87.24722010559508L137.39010416666665,88.95600659317442L139.71875,90.43665663401288L142.04739583333333,91.6753895017836L144.37604166666668,92.97574661837685L146.7046875,94.70164997047847L149.03333333333333,96.61149477958679L151.36197916666666,98.03274269898733L153.690625,99.31183930238089L156.01927083333334,100.05391785833572L158.34791666666666,100.59478484259712L160.6765625,101.49135135279762L163.00520833333334,102.26196391052669L165.33385416666667,104.04410417874655L167.6625,105.43735447194841L169.99114583333332,105.6203292740716L172.31979166666667,104.70536095566219L174.6484375,104.68150697814094L176.97708333333333,105.55394248167676L179.30572916666668,107.72730094856685L181.634375,109.26152665747537L183.96302083333333,109.9667013949818L186.29166666666666,109.59484576516682L188.6203125,108.74507065614065L190.94895833333334,107.98400676250458L193.27760416666666,109.76312033997642L195.60625,110.95218247175217L197.93489583333334,111.62974860270819L200.26354166666667,111.7811745007833L202.5921875,111.24135963784325L204.92083333333332,111.00785059399074L207.24947916666667,111.95287362734479L209.578125,112.54439273807739L211.90677083333333,113.14214500453737L214.23541666666668,112.4783595999082L216.5640625,113.5140654709604L218.89270833333333,112.853353910976L221.22135416666666,113.34124349223244L223.55,113.28873762819504L225.87864583333334,114.00201694170636L228.20729166666666,114.20878088474274L230.5359375,113.62444390190971L232.86458333333334,112.96977982918423L235.19322916666667,113.54458583063548L237.521875,114.4661645359463L239.85052083333332,115.27601797713173L242.17916666666667,114.83697983291414L244.5078125,113.85705702172386L246.83645833333333,113.27179169654846L249.16510416666668,112.6144280632337L251.49375,114.48735137118233" style="fill: none;" fill="none"></path></g><g><path stroke="rgb(187, 187, 187)" stroke-width="2px" d="M23.286458333333332,27.270039214028262L25.615104166666665,27.780774858262806L27.94375,28.23070555263096L30.272395833333334,28.68739104270935L32.60104166666667,28.964384820726185L34.9296875,29.286882109112224L37.25833333333333,29.687878847122192L39.586979166666666,30.066017733679885L41.915625,30.472142457962036L44.24427083333333,30.769659969541777L46.572916666666664,31.274466011259307L48.9015625,31.679093599319458L51.23020833333333,32.176791191101074L53.55885416666667,32.68472117847868L55.8875,33.22940762837729L58.216145833333336,33.76860064930388L60.54479166666667,34.39761005507576L62.8734375,34.827123112148726L65.20208333333333,35.590686162312835L67.53072916666667,36.27296768294441L69.859375,36.975159936481056L72.18802083333334,37.77437133259245L74.51666666666667,38.66317513253954L76.8453125,39.5097290409936L79.17395833333333,40.46623404820761L81.50260416666667,41.57252340846592L83.83125,42.75457729233637L86.15989583333334,44.060091866387275L88.48854166666666,45.2964906162686L90.8171875,46.5973251660665L93.14583333333333,47.84929649035137L95.47447916666667,49.30722424719068L97.803125,50.83621292644077L100.13177083333333,52.29111104541355L102.46041666666666,54.017816013760054L104.7890625,55.66922799746197L107.11770833333334,57.31441566679212L109.44635416666667,59.577348854806694L111.775,61.963400867250236L114.10364583333333,64.4587143527137L116.43229166666667,67.12387028005388L118.7609375,69.45528271463182L121.08958333333334,71.54272678163316L123.41822916666666,73.72273394796584L125.746875,75.82300387488472L128.07552083333331,77.48774862289429L130.40416666666667,79.59941800435385L132.7328125,81.69645199510786L135.06145833333335,83.40856283240849L137.39010416666665,85.2233689626058L139.71875,87.01574162642163L142.04739583333333,88.52931098143262L144.37604166666668,90.09152547518414L146.7046875,91.4872277710173L149.03333333333333,93.12431675857967L151.36197916666666,94.40086115731134L153.690625,95.45344812340205L156.01927083333334,96.78074779775407L158.34791666666666,97.82765271928575L160.6765625,98.80905498398675L163.00520833333334,99.65091118547653L165.33385416666667,100.87385928630829L167.6625,100.8962809642156L169.99114583333332,102.38459940751395L172.31979166666667,103.39467124144238L174.6484375,103.64612529012894L176.97708333333333,103.94436779287126L179.30572916666668,105.06559904416403L181.634375,105.89326192273035L183.96302083333333,105.68344476487901L186.29166666666666,106.47847125265335L188.6203125,107.40918897257912L190.94895833333334,107.17590685685477L193.27760416666666,107.42068273491329L195.60625,108.29027721616959L197.93489583333334,108.62565930684408L200.26354166666667,109.05231365892624L202.5921875,109.25795474979614L204.92083333333332,109.2878621088134L207.24947916666667,109.69342982769012L209.578125,110.15475997659897L211.90677083333333,110.40263622336919L214.23541666666668,110.22268516487544L216.5640625,110.39043809970221L218.89270833333333,110.73050905598535L221.22135416666666,111.0708187288708L223.55,111.28590238756603L225.87864583333334,111.25896572404439L228.20729166666666,111.31953195730847L230.5359375,111.69775041606691L232.86458333333334,111.60839672883353L235.19322916666667,111.85787620809343L237.521875,112.10821624596915L239.85052083333332,112.00597186221016L242.17916666666667,111.94772501124275L244.5078125,112.37001173363792L246.83645833333333,112.27146303653717L249.16510416666668,111.66232605112923L251.49375,112.50605072577795" style="fill: none;" fill="none"></path></g></g></g></g></g></g><g transform="translate(50, 178)" clip-path="url(#clip_1)"><clipPath id="clip_1"><rect width="279" height="21"></rect></clipPath><g><g><line x1="0" y1="0" x2="0" y2="5" style="visibility: inherit;" fill="rgb(0, 0, 0)" stroke="rgb(204, 204, 204)" stroke-width="1px"></line><line x1="23.286458333333332" y1="0" x2="23.286458333333332" y2="5" style="visibility: inherit;" fill="rgb(0, 0, 0)" stroke="rgb(204, 204, 204)" stroke-width="1px"></line><line x1="46.572916666666664" y1="0" x2="46.572916666666664" y2="5" style="visibility: inherit;" fill="rgb(0, 0, 0)" stroke="rgb(204, 204, 204)" stroke-width="1px"></line><line x1="69.859375" y1="0" x2="69.859375" y2="5" style="visibility: inherit;" fill="rgb(0, 0, 0)" stroke="rgb(204, 204, 204)" stroke-width="1px"></line><line x1="93.14583333333333" y1="0" x2="93.14583333333333" y2="5" style="visibility: inherit;" fill="rgb(0, 0, 0)" stroke="rgb(204, 204, 204)" stroke-width="1px"></line><line x1="116.43229166666667" y1="0" x2="116.43229166666667" y2="5" style="visibility: inherit;" fill="rgb(0, 0, 0)" stroke="rgb(204, 204, 204)" stroke-width="1px"></line><line x1="139.71875" y1="0" x2="139.71875" y2="5" style="visibility: inherit;" fill="rgb(0, 0, 0)" stroke="rgb(204, 204, 204)" stroke-width="1px"></line><line x1="163.00520833333334" y1="0" x2="163.00520833333334" y2="5" style="visibility: inherit;" fill="rgb(0, 0, 0)" stroke="rgb(204, 204, 204)" stroke-width="1px"></line><line x1="186.29166666666666" y1="0" x2="186.29166666666666" y2="5" style="visibility: inherit;" fill="rgb(0, 0, 0)" stroke="rgb(204, 204, 204)" stroke-width="1px"></line><line x1="209.578125" y1="0" x2="209.578125" y2="5" style="visibility: inherit;" fill="rgb(0, 0, 0)" stroke="rgb(204, 204, 204)" stroke-width="1px"></line><line x1="232.86458333333334" y1="0" x2="232.86458333333334" y2="5" style="visibility: inherit;" fill="rgb(0, 0, 0)" stroke="rgb(204, 204, 204)" stroke-width="1px"></line><line x1="256.15104166666663" y1="0" x2="256.15104166666663" y2="5" style="visibility: inherit;" fill="rgb(0, 0, 0)" stroke="rgb(204, 204, 204)" stroke-width="1px"></line><line x1="279.4375" y1="0" x2="279.4375" y2="5" style="visibility: inherit;" fill="rgb(0, 0, 0)" stroke="rgb(204, 204, 204)" stroke-width="1px"></line></g><g transform="translate(0, 8)"><text x="0" y="0" dx="0em" dy="0.95em" style="text-anchor: middle; visibility: hidden; font-family: Roboto, sans-serif; font-size: 12px; font-weight: 200;" fill="rgb(50, 49, 63)" stroke="none" stroke-width="1px">-10</text><text x="23.286458333333332" y="0" dx="0em" dy="0.95em" style="text-anchor: middle; visibility: inherit; font-family: Roboto, sans-serif; font-size: 12px; font-weight: 200;" fill="rgb(50, 49, 63)" stroke="none" stroke-width="1px">0</text><text x="46.572916666666664" y="0" dx="0em" dy="0.95em" style="text-anchor: middle; visibility: inherit; font-family: Roboto, sans-serif; font-size: 12px; font-weight: 200;" fill="rgb(50, 49, 63)" stroke="none" stroke-width="1px">10</text><text x="69.859375" y="0" dx="0em" dy="0.95em" style="text-anchor: middle; visibility: inherit; font-family: Roboto, sans-serif; font-size: 12px; font-weight: 200;" fill="rgb(50, 49, 63)" stroke="none" stroke-width="1px">20</text><text x="93.14583333333333" y="0" dx="0em" dy="0.95em" style="text-anchor: middle; visibility: inherit; font-family: Roboto, sans-serif; font-size: 12px; font-weight: 200;" fill="rgb(50, 49, 63)" stroke="none" stroke-width="1px">30</text><text x="116.43229166666667" y="0" dx="0em" dy="0.95em" style="text-anchor: middle; visibility: inherit; font-family: Roboto, sans-serif; font-size: 12px; font-weight: 200;" fill="rgb(50, 49, 63)" stroke="none" stroke-width="1px">40</text><text x="139.71875" y="0" dx="0em" dy="0.95em" style="text-anchor: middle; visibility: inherit; font-family: Roboto, sans-serif; font-size: 12px; font-weight: 200;" fill="rgb(50, 49, 63)" stroke="none" stroke-width="1px">50</text><text x="163.00520833333334" y="0" dx="0em" dy="0.95em" style="text-anchor: middle; visibility: inherit; font-family: Roboto, sans-serif; font-size: 12px; font-weight: 200;" fill="rgb(50, 49, 63)" stroke="none" stroke-width="1px">60</text><text x="186.29166666666666" y="0" dx="0em" dy="0.95em" style="text-anchor: middle; visibility: inherit; font-family: Roboto, sans-serif; font-size: 12px; font-weight: 200;" fill="rgb(50, 49, 63)" stroke="none" stroke-width="1px">70</text><text x="209.578125" y="0" dx="0em" dy="0.95em" style="text-anchor: middle; visibility: inherit; font-family: Roboto, sans-serif; font-size: 12px; font-weight: 200;" fill="rgb(50, 49, 63)" stroke="none" stroke-width="1px">80</text><text x="232.86458333333334" y="0" dx="0em" dy="0.95em" style="text-anchor: middle; visibility: inherit; font-family: Roboto, sans-serif; font-size: 12px; font-weight: 200;" fill="rgb(50, 49, 63)" stroke="none" stroke-width="1px">90</text><text x="256.15104166666663" y="0" dx="0em" dy="0.95em" style="text-anchor: middle; visibility: inherit; font-family: Roboto, sans-serif; font-size: 12px; font-weight: 200;" fill="rgb(50, 49, 63)" stroke="none" stroke-width="1px">100</text><text x="279.4375" y="0" dx="0em" dy="0.95em" style="text-anchor: middle; visibility: hidden; font-family: Roboto, sans-serif; font-size: 12px; font-weight: 200;" fill="rgb(50, 49, 63)" stroke="none" stroke-width="1px">110</text></g><line x1="0" y1="0" x2="279.4375" y2="0" fill="rgb(0, 0, 0)" stroke="rgb(204, 204, 204)" stroke-width="1px"></line></g></g></g></g></svg>