<svg viewBox="0 0 330.0000305175781 200.00001525878906" xmlns="http://www.w3.org/2000/svg"><g><g><g><g><g><line x1="50.5625" y1="178" x2="45.5625" y2="178" style="visibility: inherit;" fill="rgb(0, 0, 0)" stroke="rgb(204, 204, 204)" stroke-width="1px"></line><line x1="50.5625" y1="155.74999999999997" x2="45.5625" y2="155.74999999999997" style="visibility: inherit;" fill="rgb(0, 0, 0)" stroke="rgb(204, 204, 204)" stroke-width="1px"></line><line x1="50.5625" y1="133.5" x2="45.5625" y2="133.5" style="visibility: inherit;" fill="rgb(0, 0, 0)" stroke="rgb(204, 204, 204)" stroke-width="1px"></line><line x1="50.5625" y1="111.25" x2="45.5625" y2="111.25" style="visibility: inherit;" fill="rgb(0, 0, 0)" stroke="rgb(204, 204, 204)" stroke-width="1px"></line><line x1="50.5625" y1="88.99999999999999" x2="45.5625" y2="88.99999999999999" style="visibility: inherit;" fill="rgb(0, 0, 0)" stroke="rgb(204, 204, 204)" stroke-width="1px"></line><line x1="50.5625" y1="66.75" x2="45.5625" y2="66.75" style="visibility: inherit;" fill="rgb(0, 0, 0)" stroke="rgb(204, 204, 204)" stroke-width="1px"></line><line x1="50.5625" y1="44.49999999999998" x2="45.5625" y2="44.49999999999998" style="visibility: inherit;" fill="rgb(0, 0, 0)" stroke="rgb(204, 204, 204)" stroke-width="1px"></line><line x1="50.5625" y1="22.25000000000002" x2="45.5625" y2="22.25000000000002" style="visibility: inherit;" fill="rgb(0, 0, 0)" stroke="rgb(204, 204, 204)" stroke-width="1px"></line><line x1="50.5625" y1="0" x2="45.5625" y2="0" style="visibility: inherit;" fill="rgb(0, 0, 0)" stroke="rgb(204, 204, 204)" stroke-width="1px"></line></g><g transform="translate(40.5625, 0)"><text x="0" y="178" dx="0em" dy="0.3em" style="text-anchor: end; visibility: hidden; font-family: Roboto, sans-serif; font-size: 12px; font-weight: 200;" fill="rgb(50, 49, 63)" stroke="none" stroke-width="1px">0.6</text><text x="0" y="155.74999999999997" dx="0em" dy="0.3em" style="text-anchor: end; visibility: inherit; font-family: Roboto, sans-serif; font-size: 12px; font-weight: 200;" fill="rgb(50, 49, 63)" stroke="none" stroke-width="1px">0.65</text><text x="0" y="133.5" dx="0em" dy="0.3em" style="text-anchor: end; visibility: hidden; font-family: Roboto, sans-serif; font-size: 12px; font-weight: 200;" fill="rgb(50, 49, 63)" stroke="none" stroke-width="1px">0.7</text><text x="0" y="111.25" dx="0em" dy="0.3em" style="text-anchor: end; visibility: inherit; font-family: Roboto, sans-serif; font-size: 12px; font-weight: 200;" fill="rgb(50, 49, 63)" stroke="none" stroke-width="1px">0.75</text><text x="0" y="88.99999999999999" dx="0em" dy="0.3em" style="text-anchor: end; visibility: hidden; font-family: Roboto, sans-serif; font-size: 12px; font-weight: 200;" fill="rgb(50, 49, 63)" stroke="none" stroke-width="1px">0.8</text><text x="0" y="66.75" dx="0em" dy="0.3em" style="text-anchor: end; visibility: inherit; font-family: Roboto, sans-serif; font-size: 12px; font-weight: 200;" fill="rgb(50, 49, 63)" stroke="none" stroke-width="1px">0.85</text><text x="0" y="44.49999999999998" dx="0em" dy="0.3em" style="text-anchor: end; visibility: hidden; font-family: Roboto, sans-serif; font-size: 12px; font-weight: 200;" fill="rgb(50, 49, 63)" stroke="none" stroke-width="1px">0.9</text><text x="0" y="22.25000000000002" dx="0em" dy="0.3em" style="text-anchor: end; visibility: inherit; font-family: Roboto, sans-serif; font-size: 12px; font-weight: 200;" fill="rgb(50, 49, 63)" stroke="none" stroke-width="1px">0.95</text><text x="0" y="0" dx="0em" dy="0.3em" style="text-anchor: end; visibility: hidden; font-family: Roboto, sans-serif; font-size: 12px; font-weight: 200;" fill="rgb(50, 49, 63)" stroke="none" stroke-width="1px">1</text></g><line x1="50.5625" y1="0" x2="50.5625" y2="178" fill="rgb(0, 0, 0)" stroke="rgb(204, 204, 204)" stroke-width="1px"></line></g></g><g transform="translate(50, 0)" clip-path="url(#clip_0)"><clipPath id="clip_0"><rect width="279" height="177"></rect></clipPath><g><g><g><line x1="0" y1="0" x2="0" y2="178" fill="rgb(0, 0, 0)" stroke="rgb(60, 60, 60)" stroke-width="1px" opacity="0.25"></line><line x1="21.49519230769231" y1="0" x2="21.49519230769231" y2="178" fill="rgb(0, 0, 0)" stroke="rgb(60, 60, 60)" stroke-width="1px" opacity="0.25"></line><line x1="42.99038461538462" y1="0" x2="42.99038461538462" y2="178" fill="rgb(0, 0, 0)" stroke="rgb(60, 60, 60)" stroke-width="1px" opacity="0.25"></line><line x1="64.48557692307692" y1="0" x2="64.48557692307692" y2="178" fill="rgb(0, 0, 0)" stroke="rgb(60, 60, 60)" stroke-width="1px" opacity="0.25"></line><line x1="85.98076923076924" y1="0" x2="85.98076923076924" y2="178" fill="rgb(0, 0, 0)" stroke="rgb(60, 60, 60)" stroke-width="1px" opacity="0.25"></line><line x1="107.47596153846155" y1="0" x2="107.47596153846155" y2="178" fill="rgb(0, 0, 0)" stroke="rgb(60, 60, 60)" stroke-width="1px" opacity="0.25"></line><line x1="128.97115384615384" y1="0" x2="128.97115384615384" y2="178" fill="rgb(0, 0, 0)" stroke="rgb(60, 60, 60)" stroke-width="1px" opacity="0.25"></line><line x1="150.46634615384616" y1="0" x2="150.46634615384616" y2="178" fill="rgb(0, 0, 0)" stroke="rgb(60, 60, 60)" stroke-width="1px" opacity="0.25"></line><line x1="171.96153846153848" y1="0" x2="171.96153846153848" y2="178" fill="rgb(0, 0, 0)" stroke="rgb(60, 60, 60)" stroke-width="1px" opacity="0.25"></line><line x1="193.45673076923077" y1="0" x2="193.45673076923077" y2="178" fill="rgb(0, 0, 0)" stroke="rgb(60, 60, 60)" stroke-width="1px" opacity="0.25"></line><line x1="214.9519230769231" y1="0" x2="214.9519230769231" y2="178" fill="rgb(0, 0, 0)" stroke="rgb(60, 60, 60)" stroke-width="1px" opacity="0.25"></line><line x1="236.4471153846154" y1="0" x2="236.4471153846154" y2="178" fill="rgb(0, 0, 0)" stroke="rgb(60, 60, 60)" stroke-width="1px" opacity="0.25"></line><line x1="257.9423076923077" y1="0" x2="257.9423076923077" y2="178" fill="rgb(0, 0, 0)" stroke="rgb(60, 60, 60)" stroke-width="1px" opacity="0.25"></line><line x1="279.4375" y1="0" x2="279.4375" y2="178" fill="rgb(0, 0, 0)" stroke="rgb(60, 60, 60)" stroke-width="1px" opacity="0.25"></line></g><g><line x1="0" y1="178" x2="279.4375" y2="178" fill="rgb(0, 0, 0)" stroke="rgb(60, 60, 60)" stroke-width="1px" opacity="0.25"></line><line x1="0" y1="155.74999999999997" x2="279.4375" y2="155.74999999999997" fill="rgb(0, 0, 0)" stroke="rgb(60, 60, 60)" stroke-width="1px" opacity="0.25"></line><line x1="0" y1="133.5" x2="279.4375" y2="133.5" fill="rgb(0, 0, 0)" stroke="rgb(60, 60, 60)" stroke-width="1px" opacity="0.25"></line><line x1="0" y1="111.25" x2="279.4375" y2="111.25" fill="rgb(0, 0, 0)" stroke="rgb(60, 60, 60)" stroke-width="1px" opacity="0.25"></line><line x1="0" y1="88.99999999999999" x2="279.4375" y2="88.99999999999999" fill="rgb(0, 0, 0)" stroke="rgb(60, 60, 60)" stroke-width="1px" opacity="0.25"></line><line x1="0" y1="66.75" x2="279.4375" y2="66.75" fill="rgb(0, 0, 0)" stroke="rgb(60, 60, 60)" stroke-width="1px" opacity="0.25"></line><line x1="0" y1="44.49999999999998" x2="279.4375" y2="44.49999999999998" fill="rgb(0, 0, 0)" stroke="rgb(60, 60, 60)" stroke-width="1px" opacity="0.25"></line><line x1="0" y1="22.25000000000002" x2="279.4375" y2="22.25000000000002" fill="rgb(0, 0, 0)" stroke="rgb(60, 60, 60)" stroke-width="1px" opacity="0.25"></line><line x1="0" y1="0" x2="279.4375" y2="0" fill="rgb(0, 0, 0)" stroke="rgb(60, 60, 60)" stroke-width="1px" opacity="0.25"></line></g></g></g><g><g><line x1="0" y1="445" x2="279.4375" y2="445" fill="rgb(0, 0, 0)" stroke="rgb(153, 153, 153)" stroke-width="1.5px"></line></g></g><g><g><line x1="21.49519230769231" y1="0" x2="21.49519230769231" y2="178" fill="rgb(0, 0, 0)" stroke="rgb(153, 153, 153)" stroke-width="1.5px"></line></g></g><g><g><g><g><g><path stroke="rgb(238, 51, 119)" stroke-width="2px" d="M21.49519230769231,135.9722340106964L23.64471153846154,135.9722340106964L25.794230769230772,135.9722340106964L27.94375,135.9722340106964L30.093269230769234,135.97223401069635L32.24278846153846,135.97223401069635L34.392307692307696,135.9722340106964L36.541826923076925,135.97223401069635L38.691346153846155,135.97223401069635L40.840865384615384,135.97223401069635L42.99038461538462,135.97223401069635L45.13990384615385,135.9722340106963L47.28942307692308,135.9722340106963L49.43894230769231,135.97223401069635L51.588461538461544,135.9722340106964L53.737980769230774,135.9722340106964L55.8875,135.9722340106964L58.03701923076923,135.9722340106964L60.18653846153847,135.9722340106964L62.3360576923077,135.9722340106964L64.48557692307692,135.9722340106964L66.63509615384616,135.97223401069635L68.78461538461539,135.9722340106964L70.93413461538461,135.9722340106964L73.08365384615385,135.97223401069635L75.23317307692308,135.97223401069635L77.38269230769231,135.97223401069635L79.53221153846154,135.97223401069635L81.68173076923077,135.9722340106964L83.83125,135.97223401069635L85.98076923076924,135.9722340106964L88.13028846153846,135.9722340106964L90.2798076923077,135.97223401069635L92.42932692307691,135.9722340106964L94.57884615384616,135.9722340106964L96.72836538461539,135.9722340106964L98.87788461538462,135.97223401069635L101.02740384615385,135.97223401069635L103.17692307692309,135.97223401069635L105.3264423076923,131.02778720194758L107.47596153846155,108.28334250613528L109.62548076923076,94.63667570032287L111.775,86.44867562103842L113.92451923076923,81.5358755749809L116.07403846153846,78.5881955478911L118.2235576923077,76.8195875318333L120.37307692307694,75.75842272226919L122.52259615384615,75.12172383655611L124.6721153846154,74.73970450513745L126.82163461538461,74.51049290628949L128.97115384615384,74.37296594698196L131.12067307692308,69.34600296924414L133.27019230769233,66.32982518261082L135.41971153846154,64.52011851063426L137.56923076923078,63.43429450744952L139.71875,57.83835330339796L141.86826923076922,54.4807885809684L144.01778846153846,52.466249747511085L146.1673076923077,51.25752644743695L148.31682692307692,45.58784566525299L150.46634615384616,42.186037195942774L152.61586538461538,40.1449521143567L154.76538461538462,38.92030106540508L156.91490384615383,38.185510436034136L159.06442307692308,37.744636058411594L161.2139423076923,32.53567523932546L163.36346153846154,29.410298747873895L165.51298076923078,27.535072853002916L167.6625,26.40993731608031L169.8120192307692,25.73485599392671L171.96153846153848,25.32980720063457L174.1110576923077,25.086777924659266L176.2605769230769,24.94096035907412L178.41009615384613,24.85346981972307L180.5596153846154,24.80097549611243L182.7091346153846,24.76947890194606L184.85865384615383,24.75058094544616L187.00817307692307,24.7392421715463L189.15769230769232,24.732438907206383L191.30721153846153,24.728356948602435L193.45673076923077,24.725907773439985L195.60625,24.724438268342574L197.75576923076923,24.72355656528415L199.90528846153848,24.723027543449035L202.0548076923077,24.722710130348023L204.2043269230769,24.72251968248736L206.35384615384618,24.72240541377096L208.5033653846154,24.72233685254118L210.6528846153846,24.722295715803234L212.80240384615382,24.722271033760485L214.9519230769231,24.722256224534835L217.1014423076923,24.722247338999466L219.25096153846152,24.722242007678283L221.40048076923077,24.722238808885496L223.55,24.722236889609903L225.69951923076923,24.722235738044546L227.84903846153847,24.72223504710531L229.99855769230768,24.72223463254177L232.14807692307693,24.72223438380359L234.29759615384617,24.7222342345607L236.4471153846154,24.722234145014962L238.5966346153846,24.722234091287504L240.74615384615387,24.722234059051086L242.8956730769231,24.722234039709257L245.0451923076923,24.722234028104136L247.19471153846152,24.722234021141006L249.3442307692308,24.722234016963128L251.49375,24.722234014456422L253.64326923076922,24.722234012952438L255.79278846153846,24.722234012050006L257.9423076923077,24.72223401150853L260.09182692307695,24.72223401118364L262.24134615384617,24.72223401098879" style="fill: none;" fill="none"></path></g><g><path stroke="rgb(51, 187, 238)" stroke-width="2px" d="M21.49519230769231,96.55659526586527L23.64471153846154,96.55659526586527L25.794230769230772,96.55659526586533L27.94375,96.55659526586533L30.093269230769234,96.55659526586527L32.24278846153846,96.55659526586527L34.392307692307696,96.55659526586533L36.541826923076925,96.55659526586527L38.691346153846155,96.55659526586527L40.840865384615384,96.55659526586527L42.99038461538462,96.55659526586533L45.13990384615385,96.55659526586527L47.28942307692308,96.55659526586527L49.43894230769231,96.55659526586527L51.588461538461544,96.55659526586527L53.737980769230774,96.55659526586533L55.8875,96.55659526586527L58.03701923076923,96.55659526586527L60.18653846153847,96.55659526586527L62.3360576923077,96.55659526586527L64.48557692307692,96.55659526586533L66.63509615384616,96.55659526586527L68.78461538461539,96.55659526586527L70.93413461538461,96.55659526586527L73.08365384615385,96.55659526586527L75.23317307692308,96.55659526586527L77.38269230769231,96.55659526586527L79.53221153846154,96.55659526586527L81.68173076923077,96.55659526586533L83.83125,96.55659526586527L85.98076923076924,96.55659526586527L88.13028846153846,96.55659526586527L90.2798076923077,96.55659526586521L92.42932692307691,96.55659526586527L94.57884615384616,96.55659526586533L96.72836538461539,96.55659526586527L98.87788461538462,96.55659526586521L101.02740384615385,96.55659526586521L103.17692307692309,96.55659526586527L105.3264423076923,94.87735658659567L107.47596153846155,92.19056409247213L109.62548076923076,88.89923930991742L111.775,86.92444444139831L113.92451923076923,85.73956752065178L116.07403846153846,85.02864136833526L118.2235576923077,84.60208567699266L120.37307692307694,84.34615226220406L122.52259615384615,84.19259221333704L124.6721153846154,84.10045618401907L126.82163461538461,84.04517456642901L128.97115384615384,84.01200559587534L131.12067307692308,77.27512828617074L133.27019230769233,73.23300190036052L135.41971153846154,69.12847678222558L137.56923076923078,68.34501099799999L139.71875,66.19568224081267L141.86826923076922,64.90608498650087L144.01778846153846,64.13232663391393L146.1673076923077,63.66807162236187L148.31682692307692,63.38951861543069L150.46634615384616,63.222386811271946L152.61586538461538,63.122107728776676L154.76538461538462,61.38270160225469L156.91490384615383,60.339057926341546L159.06442307692308,61.39211039781848L161.2139423076923,67.0616791310327L163.36346153846154,68.78418169393642L165.51298076923078,71.49692190870347L167.6625,71.44532736053888L169.8120192307692,71.41437063164004L171.96153846153848,71.39579659430078L174.1110576923077,71.38465217189723L176.2605769230769,71.37796551845513L178.41009615384613,71.37395352638991L180.5596153846154,71.3715463311507L182.7091346153846,71.3701020140072L184.85865384615383,71.36923542372111L187.00817307692307,71.36871546954946L189.15769230769232,71.36840349704644L191.30721153846153,71.36821631354464L193.45673076923077,71.36810400344355L195.60625,71.36803661738293L197.75576923076923,71.36799618574652L199.90528846153848,71.36797192676471L202.0548076923077,71.3679573713756L204.2043269230769,69.6886993514905L206.35384615384618,70.3603938262111L208.5033653846154,70.7634105110434L210.6528846153846,69.32597123529122L212.80240384615382,68.46350766983988L214.9519230769231,66.26678024391748L217.1014423076923,66.62799307501562L219.25096153846152,68.52397006032615L221.40048076923077,69.66155625151247L223.55,70.34410796622427L225.69951923076923,70.75363899505133L227.84903846153847,70.99935761234761L229.99855769230768,71.14678878272534L232.14807692307693,71.23524748495197L234.29759615384617,71.28832270628796L236.4471153846154,71.32016783908956L238.5966346153846,71.3392749187705L240.74615384615387,71.35073916657909L242.8956730769231,71.35761771526427L245.0451923076923,71.36174484447531L247.19471153846152,71.36422112200198L249.3442307692308,71.36570688851798L251.49375,66.32886109809947L253.64326923076922,63.30675362384839L255.79278846153846,64.85197710297419L257.9423076923077,65.7791111904497L260.09182692307695,68.01464092958656L262.24134615384617,67.67670948641708" style="fill: none;" fill="none"></path></g></g></g></g><g opacity="0.2"><g><g><g><path stroke="rgb(238, 51, 119)" stroke-width="2px" d="M21.49519230769231,135.9722340106964L23.64471153846154,135.9722340106964L25.794230769230772,135.9722340106964L27.94375,135.9722340106964L30.093269230769234,135.9722340106964L32.24278846153846,135.9722340106964L34.392307692307696,135.9722340106964L36.541826923076925,135.9722340106964L38.691346153846155,135.9722340106964L40.840865384615384,135.9722340106964L42.99038461538462,135.9722340106964L45.13990384615385,135.9722340106964L47.28942307692308,135.9722340106964L49.43894230769231,135.9722340106964L51.588461538461544,135.9722340106964L53.737980769230774,135.9722340106964L55.8875,135.9722340106964L58.03701923076923,135.9722340106964L60.18653846153847,135.9722340106964L62.3360576923077,135.9722340106964L64.48557692307692,135.9722340106964L66.63509615384616,135.9722340106964L68.78461538461539,135.9722340106964L70.93413461538461,135.9722340106964L73.08365384615385,135.9722340106964L75.23317307692308,135.9722340106964L77.38269230769231,135.9722340106964L79.53221153846154,135.9722340106964L81.68173076923077,135.9722340106964L83.83125,135.9722340106964L85.98076923076924,135.9722340106964L88.13028846153846,135.9722340106964L90.2798076923077,135.9722340106964L92.42932692307691,135.9722340106964L94.57884615384616,135.9722340106964L96.72836538461539,135.9722340106964L98.87788461538462,135.9722340106964L101.02740384615385,135.9722340106964L103.17692307692309,135.9722340106964L105.3264423076923,123.6111170053482L107.47596153846155,74.16667550802231L109.62548076923076,74.16667550802231L111.775,74.16667550802231L113.92451923076923,74.16667550802231L116.07403846153846,74.16667550802231L118.2235576923077,74.16667550802231L120.37307692307694,74.16667550802231L122.52259615384615,74.16667550802231L124.6721153846154,74.16667550802231L126.82163461538461,74.16667550802231L128.97115384615384,74.16667550802231L131.12067307692308,61.8055585026741L133.27019230769233,61.8055585026741L135.41971153846154,61.8055585026741L137.56923076923078,61.8055585026741L139.71875,49.4444414973259L141.86826923076922,49.4444414973259L144.01778846153846,49.4444414973259L146.1673076923077,49.4444414973259L148.31682692307692,37.08332449197769L150.46634615384616,37.08332449197769L152.61586538461538,37.08332449197769L154.76538461538462,37.08332449197769L156.91490384615383,37.08332449197769L159.06442307692308,37.08332449197769L161.2139423076923,24.72223401069641L163.36346153846154,24.72223401069641L165.51298076923078,24.72223401069641L167.6625,24.72223401069641L169.8120192307692,24.72223401069641L171.96153846153848,24.72223401069641L174.1110576923077,24.72223401069641L176.2605769230769,24.72223401069641L178.41009615384613,24.72223401069641L180.5596153846154,24.72223401069641L182.7091346153846,24.72223401069641L184.85865384615383,24.72223401069641L187.00817307692307,24.72223401069641L189.15769230769232,24.72223401069641L191.30721153846153,24.72223401069641L193.45673076923077,24.72223401069641L195.60625,24.72223401069641L197.75576923076923,24.72223401069641L199.90528846153848,24.72223401069641L202.0548076923077,24.72223401069641L204.2043269230769,24.72223401069641L206.35384615384618,24.72223401069641L208.5033653846154,24.72223401069641L210.6528846153846,24.72223401069641L212.80240384615382,24.72223401069641L214.9519230769231,24.72223401069641L217.1014423076923,24.72223401069641L219.25096153846152,24.72223401069641L221.40048076923077,24.72223401069641L223.55,24.72223401069641L225.69951923076923,24.72223401069641L227.84903846153847,24.72223401069641L229.99855769230768,24.72223401069641L232.14807692307693,24.72223401069641L234.29759615384617,24.72223401069641L236.4471153846154,24.72223401069641L238.5966346153846,24.72223401069641L240.74615384615387,24.72223401069641L242.8956730769231,24.72223401069641L245.0451923076923,24.72223401069641L247.19471153846152,24.72223401069641L249.3442307692308,24.72223401069641L251.49375,24.72223401069641L253.64326923076922,24.72223401069641L255.79278846153846,24.72223401069641L257.9423076923077,24.72223401069641L260.09182692307695,24.72223401069641L262.24134615384617,24.72223401069641" style="fill: none;" fill="none"></path></g><g><path stroke="rgb(51, 187, 238)" stroke-width="2px" d="M21.49519230769231,96.55659526586533L23.64471153846154,96.55659526586533L25.794230769230772,96.55659526586533L27.94375,96.55659526586533L30.093269230769234,96.55659526586533L32.24278846153846,96.55659526586533L34.392307692307696,96.55659526586533L36.541826923076925,96.55659526586533L38.691346153846155,96.55659526586533L40.840865384615384,96.55659526586533L42.99038461538462,96.55659526586533L45.13990384615385,96.55659526586533L47.28942307692308,96.55659526586533L49.43894230769231,96.55659526586533L51.588461538461544,96.55659526586533L53.737980769230774,96.55659526586533L55.8875,96.55659526586533L58.03701923076923,96.55659526586533L60.18653846153847,96.55659526586533L62.3360576923077,96.55659526586533L64.48557692307692,96.55659526586533L66.63509615384616,96.55659526586533L68.78461538461539,96.55659526586533L70.93413461538461,96.55659526586533L73.08365384615385,96.55659526586533L75.23317307692308,96.55659526586533L77.38269230769231,96.55659526586533L79.53221153846154,96.55659526586533L81.68173076923077,96.55659526586533L83.83125,96.55659526586533L85.98076923076924,96.55659526586533L88.13028846153846,96.55659526586533L90.2798076923077,96.55659526586533L92.42932692307691,96.55659526586533L94.57884615384616,96.55659526586533L96.72836538461539,96.55659526586533L98.87788461538462,96.55659526586533L101.02740384615385,96.55659526586533L103.17692307692309,96.55659526586533L105.3264423076923,92.35849857330322L107.47596153846155,88.1603753566742L109.62548076923076,83.96225214004517L111.775,83.96225214004517L113.92451923076923,83.96225214004517L116.07403846153846,83.96225214004517L118.2235576923077,83.96225214004517L120.37307692307694,83.96225214004517L122.52259615384615,83.96225214004517L124.6721153846154,83.96225214004517L126.82163461538461,83.96225214004517L128.97115384615384,83.96225214004517L131.12067307692308,67.1698123216629L133.27019230769233,67.1698123216629L135.41971153846154,62.971689105033875L137.56923076923078,67.1698123216629L139.71875,62.971689105033875L141.86826923076922,62.971689105033875L144.01778846153846,62.971689105033875L146.1673076923077,62.971689105033875L148.31682692307692,62.971689105033875L150.46634615384616,62.971689105033875L152.61586538461538,62.971689105033875L154.76538461538462,58.77359241247177L156.91490384615383,58.77359241247177L159.06442307692308,62.971689105033875L161.2139423076923,75.56603223085403L163.36346153846154,71.36793553829193L165.51298076923078,75.56603223085403L167.6625,71.36793553829193L169.8120192307692,71.36793553829193L171.96153846153848,71.36793553829193L174.1110576923077,71.36793553829193L176.2605769230769,71.36793553829193L178.41009615384613,71.36793553829193L180.5596153846154,71.36793553829193L182.7091346153846,71.36793553829193L184.85865384615383,71.36793553829193L187.00817307692307,71.36793553829193L189.15769230769232,71.36793553829193L191.30721153846153,71.36793553829193L193.45673076923077,71.36793553829193L195.60625,71.36793553829193L197.75576923076923,71.36793553829193L199.90528846153848,71.36793553829193L202.0548076923077,71.36793553829193L204.2043269230769,67.1698123216629L206.35384615384618,71.36793553829193L208.5033653846154,71.36793553829193L210.6528846153846,67.1698123216629L212.80240384615382,67.1698123216629L214.9519230769231,62.971689105033875L217.1014423076923,67.1698123216629L219.25096153846152,71.36793553829193L221.40048076923077,71.36793553829193L223.55,71.36793553829193L225.69951923076923,71.36793553829193L227.84903846153847,71.36793553829193L229.99855769230768,71.36793553829193L232.14807692307693,71.36793553829193L234.29759615384617,71.36793553829193L236.4471153846154,71.36793553829193L238.5966346153846,71.36793553829193L240.74615384615387,71.36793553829193L242.8956730769231,71.36793553829193L245.0451923076923,71.36793553829193L247.19471153846152,71.36793553829193L249.3442307692308,71.36793553829193L251.49375,58.77359241247177L253.64326923076922,58.77359241247177L255.79278846153846,67.1698123216629L257.9423076923077,67.1698123216629L260.09182692307695,71.36793553829193L262.24134615384617,67.1698123216629" style="fill: none;" fill="none"></path></g></g></g></g></g></g><g transform="translate(50, 178)" clip-path="url(#clip_1)"><clipPath id="clip_1"><rect width="279" height="21"></rect></clipPath><g><g><line x1="0" y1="0" x2="0" y2="5" style="visibility: inherit;" fill="rgb(0, 0, 0)" stroke="rgb(204, 204, 204)" stroke-width="1px"></line><line x1="21.49519230769231" y1="0" x2="21.49519230769231" y2="5" style="visibility: inherit;" fill="rgb(0, 0, 0)" stroke="rgb(204, 204, 204)" stroke-width="1px"></line><line x1="42.99038461538462" y1="0" x2="42.99038461538462" y2="5" style="visibility: inherit;" fill="rgb(0, 0, 0)" stroke="rgb(204, 204, 204)" stroke-width="1px"></line><line x1="64.48557692307692" y1="0" x2="64.48557692307692" y2="5" style="visibility: inherit;" fill="rgb(0, 0, 0)" stroke="rgb(204, 204, 204)" stroke-width="1px"></line><line x1="85.98076923076924" y1="0" x2="85.98076923076924" y2="5" style="visibility: inherit;" fill="rgb(0, 0, 0)" stroke="rgb(204, 204, 204)" stroke-width="1px"></line><line x1="107.47596153846155" y1="0" x2="107.47596153846155" y2="5" style="visibility: inherit;" fill="rgb(0, 0, 0)" stroke="rgb(204, 204, 204)" stroke-width="1px"></line><line x1="128.97115384615384" y1="0" x2="128.97115384615384" y2="5" style="visibility: inherit;" fill="rgb(0, 0, 0)" stroke="rgb(204, 204, 204)" stroke-width="1px"></line><line x1="150.46634615384616" y1="0" x2="150.46634615384616" y2="5" style="visibility: inherit;" fill="rgb(0, 0, 0)" stroke="rgb(204, 204, 204)" stroke-width="1px"></line><line x1="171.96153846153848" y1="0" x2="171.96153846153848" y2="5" style="visibility: inherit;" fill="rgb(0, 0, 0)" stroke="rgb(204, 204, 204)" stroke-width="1px"></line><line x1="193.45673076923077" y1="0" x2="193.45673076923077" y2="5" style="visibility: inherit;" fill="rgb(0, 0, 0)" stroke="rgb(204, 204, 204)" stroke-width="1px"></line><line x1="214.9519230769231" y1="0" x2="214.9519230769231" y2="5" style="visibility: inherit;" fill="rgb(0, 0, 0)" stroke="rgb(204, 204, 204)" stroke-width="1px"></line><line x1="236.4471153846154" y1="0" x2="236.4471153846154" y2="5" style="visibility: inherit;" fill="rgb(0, 0, 0)" stroke="rgb(204, 204, 204)" stroke-width="1px"></line><line x1="257.9423076923077" y1="0" x2="257.9423076923077" y2="5" style="visibility: inherit;" fill="rgb(0, 0, 0)" stroke="rgb(204, 204, 204)" stroke-width="1px"></line><line x1="279.4375" y1="0" x2="279.4375" y2="5" style="visibility: inherit;" fill="rgb(0, 0, 0)" stroke="rgb(204, 204, 204)" stroke-width="1px"></line></g><g transform="translate(0, 8)"><text x="0" y="0" dx="0em" dy="0.95em" style="text-anchor: middle; visibility: hidden; font-family: Roboto, sans-serif; font-size: 12px; font-weight: 200;" fill="rgb(50, 49, 63)" stroke="none" stroke-width="1px">-10</text><text x="21.49519230769231" y="0" dx="0em" dy="0.95em" style="text-anchor: middle; visibility: inherit; font-family: Roboto, sans-serif; font-size: 12px; font-weight: 200;" fill="rgb(50, 49, 63)" stroke="none" stroke-width="1px">0</text><text x="42.99038461538462" y="0" dx="0em" dy="0.95em" style="text-anchor: middle; visibility: hidden; font-family: Roboto, sans-serif; font-size: 12px; font-weight: 200;" fill="rgb(50, 49, 63)" stroke="none" stroke-width="1px">10</text><text x="64.48557692307692" y="0" dx="0em" dy="0.95em" style="text-anchor: middle; visibility: inherit; font-family: Roboto, sans-serif; font-size: 12px; font-weight: 200;" fill="rgb(50, 49, 63)" stroke="none" stroke-width="1px">20</text><text x="85.98076923076924" y="0" dx="0em" dy="0.95em" style="text-anchor: middle; visibility: hidden; font-family: Roboto, sans-serif; font-size: 12px; font-weight: 200;" fill="rgb(50, 49, 63)" stroke="none" stroke-width="1px">30</text><text x="107.47596153846155" y="0" dx="0em" dy="0.95em" style="text-anchor: middle; visibility: inherit; font-family: Roboto, sans-serif; font-size: 12px; font-weight: 200;" fill="rgb(50, 49, 63)" stroke="none" stroke-width="1px">40</text><text x="128.97115384615384" y="0" dx="0em" dy="0.95em" style="text-anchor: middle; visibility: hidden; font-family: Roboto, sans-serif; font-size: 12px; font-weight: 200;" fill="rgb(50, 49, 63)" stroke="none" stroke-width="1px">50</text><text x="150.46634615384616" y="0" dx="0em" dy="0.95em" style="text-anchor: middle; visibility: inherit; font-family: Roboto, sans-serif; font-size: 12px; font-weight: 200;" fill="rgb(50, 49, 63)" stroke="none" stroke-width="1px">60</text><text x="171.96153846153848" y="0" dx="0em" dy="0.95em" style="text-anchor: middle; visibility: hidden; font-family: Roboto, sans-serif; font-size: 12px; font-weight: 200;" fill="rgb(50, 49, 63)" stroke="none" stroke-width="1px">70</text><text x="193.45673076923077" y="0" dx="0em" dy="0.95em" style="text-anchor: middle; visibility: inherit; font-family: Roboto, sans-serif; font-size: 12px; font-weight: 200;" fill="rgb(50, 49, 63)" stroke="none" stroke-width="1px">80</text><text x="214.9519230769231" y="0" dx="0em" dy="0.95em" style="text-anchor: middle; visibility: hidden; font-family: Roboto, sans-serif; font-size: 12px; font-weight: 200;" fill="rgb(50, 49, 63)" stroke="none" stroke-width="1px">90</text><text x="236.4471153846154" y="0" dx="0em" dy="0.95em" style="text-anchor: middle; visibility: inherit; font-family: Roboto, sans-serif; font-size: 12px; font-weight: 200;" fill="rgb(50, 49, 63)" stroke="none" stroke-width="1px">100</text><text x="257.9423076923077" y="0" dx="0em" dy="0.95em" style="text-anchor: middle; visibility: hidden; font-family: Roboto, sans-serif; font-size: 12px; font-weight: 200;" fill="rgb(50, 49, 63)" stroke="none" stroke-width="1px">110</text><text x="279.4375" y="0" dx="0em" dy="0.95em" style="text-anchor: middle; visibility: hidden; font-family: Roboto, sans-serif; font-size: 12px; font-weight: 200;" fill="rgb(50, 49, 63)" stroke="none" stroke-width="1px">120</text></g><line x1="0" y1="0" x2="279.4375" y2="0" fill="rgb(0, 0, 0)" stroke="rgb(204, 204, 204)" stroke-width="1px"></line></g></g></g></g></svg>