<svg viewBox="0 0 330.0000305175781 200.00001525878906" xmlns="http://www.w3.org/2000/svg"><g><g><g><g><g><line x1="50.5625" y1="178" x2="45.5625" y2="178" style="visibility: inherit;" fill="rgb(0, 0, 0)" stroke="rgb(204, 204, 204)" stroke-width="1px"></line><line x1="50.5625" y1="158.2222222222222" x2="45.5625" y2="158.2222222222222" style="visibility: inherit;" fill="rgb(0, 0, 0)" stroke="rgb(204, 204, 204)" stroke-width="1px"></line><line x1="50.5625" y1="138.44444444444446" x2="45.5625" y2="138.44444444444446" style="visibility: inherit;" fill="rgb(0, 0, 0)" stroke="rgb(204, 204, 204)" stroke-width="1px"></line><line x1="50.5625" y1="118.66666666666666" x2="45.5625" y2="118.66666666666666" style="visibility: inherit;" fill="rgb(0, 0, 0)" stroke="rgb(204, 204, 204)" stroke-width="1px"></line><line x1="50.5625" y1="98.8888888888889" x2="45.5625" y2="98.8888888888889" style="visibility: inherit;" fill="rgb(0, 0, 0)" stroke="rgb(204, 204, 204)" stroke-width="1px"></line><line x1="50.5625" y1="79.1111111111111" x2="45.5625" y2="79.1111111111111" style="visibility: inherit;" fill="rgb(0, 0, 0)" stroke="rgb(204, 204, 204)" stroke-width="1px"></line><line x1="50.5625" y1="59.33333333333334" x2="45.5625" y2="59.33333333333334" style="visibility: inherit;" fill="rgb(0, 0, 0)" stroke="rgb(204, 204, 204)" stroke-width="1px"></line><line x1="50.5625" y1="39.55555555555557" x2="45.5625" y2="39.55555555555557" style="visibility: inherit;" fill="rgb(0, 0, 0)" stroke="rgb(204, 204, 204)" stroke-width="1px"></line><line x1="50.5625" y1="19.777777777777786" x2="45.5625" y2="19.777777777777786" style="visibility: inherit;" fill="rgb(0, 0, 0)" stroke="rgb(204, 204, 204)" stroke-width="1px"></line><line x1="50.5625" y1="0" x2="45.5625" y2="0" style="visibility: inherit;" fill="rgb(0, 0, 0)" stroke="rgb(204, 204, 204)" stroke-width="1px"></line></g><g transform="translate(40.5625, 0)"><text x="0" y="178" dx="0em" dy="0.3em" style="text-anchor: end; visibility: hidden; font-family: Roboto, sans-serif; font-size: 12px; font-weight: 200;" fill="rgb(50, 49, 63)" stroke="none" stroke-width="1px">-0.1</text><text x="0" y="158.2222222222222" dx="0em" dy="0.3em" style="text-anchor: end; visibility: inherit; font-family: Roboto, sans-serif; font-size: 12px; font-weight: 200;" fill="rgb(50, 49, 63)" stroke="none" stroke-width="1px">0</text><text x="0" y="138.44444444444446" dx="0em" dy="0.3em" style="text-anchor: end; visibility: hidden; font-family: Roboto, sans-serif; font-size: 12px; font-weight: 200;" fill="rgb(50, 49, 63)" stroke="none" stroke-width="1px">0.1</text><text x="0" y="118.66666666666666" dx="0em" dy="0.3em" style="text-anchor: end; visibility: inherit; font-family: Roboto, sans-serif; font-size: 12px; font-weight: 200;" fill="rgb(50, 49, 63)" stroke="none" stroke-width="1px">0.2</text><text x="0" y="98.8888888888889" dx="0em" dy="0.3em" style="text-anchor: end; visibility: hidden; font-family: Roboto, sans-serif; font-size: 12px; font-weight: 200;" fill="rgb(50, 49, 63)" stroke="none" stroke-width="1px">0.3</text><text x="0" y="79.1111111111111" dx="0em" dy="0.3em" style="text-anchor: end; visibility: inherit; font-family: Roboto, sans-serif; font-size: 12px; font-weight: 200;" fill="rgb(50, 49, 63)" stroke="none" stroke-width="1px">0.4</text><text x="0" y="59.33333333333334" dx="0em" dy="0.3em" style="text-anchor: end; visibility: hidden; font-family: Roboto, sans-serif; font-size: 12px; font-weight: 200;" fill="rgb(50, 49, 63)" stroke="none" stroke-width="1px">0.5</text><text x="0" y="39.55555555555557" dx="0em" dy="0.3em" style="text-anchor: end; visibility: inherit; font-family: Roboto, sans-serif; font-size: 12px; font-weight: 200;" fill="rgb(50, 49, 63)" stroke="none" stroke-width="1px">0.6</text><text x="0" y="19.777777777777786" dx="0em" dy="0.3em" style="text-anchor: end; visibility: hidden; font-family: Roboto, sans-serif; font-size: 12px; font-weight: 200;" fill="rgb(50, 49, 63)" stroke="none" stroke-width="1px">0.7</text><text x="0" y="0" dx="0em" dy="0.3em" style="text-anchor: end; visibility: hidden; font-family: Roboto, sans-serif; font-size: 12px; font-weight: 200;" fill="rgb(50, 49, 63)" stroke="none" stroke-width="1px">0.8</text></g><line x1="50.5625" y1="0" x2="50.5625" y2="178" fill="rgb(0, 0, 0)" stroke="rgb(204, 204, 204)" stroke-width="1px"></line></g></g><g transform="translate(50, 0)" clip-path="url(#clip_0)"><clipPath id="clip_0"><rect width="279" height="177"></rect></clipPath><g><g><g><line x1="0" y1="0" x2="0" y2="178" fill="rgb(0, 0, 0)" stroke="rgb(60, 60, 60)" stroke-width="1px" opacity="0.25"></line><line x1="21.49519230769231" y1="0" x2="21.49519230769231" y2="178" fill="rgb(0, 0, 0)" stroke="rgb(60, 60, 60)" stroke-width="1px" opacity="0.25"></line><line x1="42.99038461538462" y1="0" x2="42.99038461538462" y2="178" fill="rgb(0, 0, 0)" stroke="rgb(60, 60, 60)" stroke-width="1px" opacity="0.25"></line><line x1="64.48557692307692" y1="0" x2="64.48557692307692" y2="178" fill="rgb(0, 0, 0)" stroke="rgb(60, 60, 60)" stroke-width="1px" opacity="0.25"></line><line x1="85.98076923076924" y1="0" x2="85.98076923076924" y2="178" fill="rgb(0, 0, 0)" stroke="rgb(60, 60, 60)" stroke-width="1px" opacity="0.25"></line><line x1="107.47596153846155" y1="0" x2="107.47596153846155" y2="178" fill="rgb(0, 0, 0)" stroke="rgb(60, 60, 60)" stroke-width="1px" opacity="0.25"></line><line x1="128.97115384615384" y1="0" x2="128.97115384615384" y2="178" fill="rgb(0, 0, 0)" stroke="rgb(60, 60, 60)" stroke-width="1px" opacity="0.25"></line><line x1="150.46634615384616" y1="0" x2="150.46634615384616" y2="178" fill="rgb(0, 0, 0)" stroke="rgb(60, 60, 60)" stroke-width="1px" opacity="0.25"></line><line x1="171.96153846153848" y1="0" x2="171.96153846153848" y2="178" fill="rgb(0, 0, 0)" stroke="rgb(60, 60, 60)" stroke-width="1px" opacity="0.25"></line><line x1="193.45673076923077" y1="0" x2="193.45673076923077" y2="178" fill="rgb(0, 0, 0)" stroke="rgb(60, 60, 60)" stroke-width="1px" opacity="0.25"></line><line x1="214.9519230769231" y1="0" x2="214.9519230769231" y2="178" fill="rgb(0, 0, 0)" stroke="rgb(60, 60, 60)" stroke-width="1px" opacity="0.25"></line><line x1="236.4471153846154" y1="0" x2="236.4471153846154" y2="178" fill="rgb(0, 0, 0)" stroke="rgb(60, 60, 60)" stroke-width="1px" opacity="0.25"></line><line x1="257.9423076923077" y1="0" x2="257.9423076923077" y2="178" fill="rgb(0, 0, 0)" stroke="rgb(60, 60, 60)" stroke-width="1px" opacity="0.25"></line><line x1="279.4375" y1="0" x2="279.4375" y2="178" fill="rgb(0, 0, 0)" stroke="rgb(60, 60, 60)" stroke-width="1px" opacity="0.25"></line></g><g><line x1="0" y1="178" x2="279.4375" y2="178" fill="rgb(0, 0, 0)" stroke="rgb(60, 60, 60)" stroke-width="1px" opacity="0.25"></line><line x1="0" y1="158.2222222222222" x2="279.4375" y2="158.2222222222222" fill="rgb(0, 0, 0)" stroke="rgb(60, 60, 60)" stroke-width="1px" opacity="0.25"></line><line x1="0" y1="138.44444444444446" x2="279.4375" y2="138.44444444444446" fill="rgb(0, 0, 0)" stroke="rgb(60, 60, 60)" stroke-width="1px" opacity="0.25"></line><line x1="0" y1="118.66666666666666" x2="279.4375" y2="118.66666666666666" fill="rgb(0, 0, 0)" stroke="rgb(60, 60, 60)" stroke-width="1px" opacity="0.25"></line><line x1="0" y1="98.8888888888889" x2="279.4375" y2="98.8888888888889" fill="rgb(0, 0, 0)" stroke="rgb(60, 60, 60)" stroke-width="1px" opacity="0.25"></line><line x1="0" y1="79.1111111111111" x2="279.4375" y2="79.1111111111111" fill="rgb(0, 0, 0)" stroke="rgb(60, 60, 60)" stroke-width="1px" opacity="0.25"></line><line x1="0" y1="59.33333333333334" x2="279.4375" y2="59.33333333333334" fill="rgb(0, 0, 0)" stroke="rgb(60, 60, 60)" stroke-width="1px" opacity="0.25"></line><line x1="0" y1="39.55555555555557" x2="279.4375" y2="39.55555555555557" fill="rgb(0, 0, 0)" stroke="rgb(60, 60, 60)" stroke-width="1px" opacity="0.25"></line><line x1="0" y1="19.777777777777786" x2="279.4375" y2="19.777777777777786" fill="rgb(0, 0, 0)" stroke="rgb(60, 60, 60)" stroke-width="1px" opacity="0.25"></line><line x1="0" y1="0" x2="279.4375" y2="0" fill="rgb(0, 0, 0)" stroke="rgb(60, 60, 60)" stroke-width="1px" opacity="0.25"></line></g></g></g><g><g><line x1="0" y1="158.2222222222222" x2="279.4375" y2="158.2222222222222" fill="rgb(0, 0, 0)" stroke="rgb(153, 153, 153)" stroke-width="1.5px"></line></g></g><g><g><line x1="21.49519230769231" y1="0" x2="21.49519230769231" y2="178" fill="rgb(0, 0, 0)" stroke="rgb(153, 153, 153)" stroke-width="1.5px"></line></g></g><g><g><g><g><g><path stroke="rgb(238, 51, 119)" stroke-width="2px" d="M21.49519230769231,33.16855552461413L23.64471153846154,33.10231903526522L25.794230769230772,32.99858497329851L27.94375,32.94173032892687L30.093269230769234,32.96750620601084L32.24278846153846,33.07053831074558L34.392307692307696,33.203929912183696L36.541826923076925,33.33511449256963L38.691346153846155,33.461087357712636L40.840865384615384,33.54295078032584L42.99038461538462,33.58285840356367L45.13990384615385,33.626865123841775L47.28942307692308,33.73338923831416L49.43894230769231,33.86167733397314L51.588461538461544,34.06547060072271L53.737980769230774,34.30691447442779L55.8875,34.585629774759354L58.03701923076923,34.88743379648165L60.18653846153847,35.15236962320384L62.3360576923077,35.461478430061234L64.48557692307692,35.84496833008198L66.63509615384616,36.26842341550925L68.78461538461539,36.80215072367219L70.93413461538461,37.36546390053206L73.08365384615385,37.92974700764848L75.23317307692308,38.512219792205876L77.38269230769231,39.14709736386313L79.53221153846154,40.004462040998405L81.68173076923077,41.067898247922535L83.83125,42.59558891111988L85.98076923076924,44.62951954010975L88.13028846153846,46.8300187208073L90.2798076923077,48.823850264393506L92.42932692307691,50.92465991848298L94.57884615384616,53.415914268181076L96.72836538461539,55.7446919772796L98.87788461538462,57.80622732354775L101.02740384615385,59.406311333440016L103.17692307692309,61.3655551677459L105.3264423076923,64.00429395690382L107.47596153846155,66.83858197935811L109.62548076923076,69.50757794646084L111.775,71.90082148356726L113.92451923076923,74.16478767486655L116.07403846153846,76.07751567279655L118.2235576923077,77.68209730796639L120.37307692307694,78.67003825834688L122.52259615384615,79.78756911477748L124.6721153846154,81.60819474745377L126.82163461538461,83.95326054826437L128.97115384615384,86.28740929671963L131.12067307692308,88.29397701156697L133.27019230769233,90.14826889991623L135.41971153846154,91.74345237774405L137.56923076923078,93.23755811377778L139.71875,94.66341363888351L141.86826923076922,95.99521196121162L144.01778846153846,97.32683999148205L146.1673076923077,98.61399638736573L148.31682692307692,100.10883881566197L150.46634615384616,101.67971727666293L152.61586538461538,102.78599804822163L154.76538461538462,103.8421505899244L156.91490384615383,105.0102584461313L159.06442307692308,106.33823697897775L161.2139423076923,107.659365999829L163.36346153846154,108.94512227993417L165.51298076923078,110.15817346996127L167.6625,111.1204415701724L169.8120192307692,111.96563420617628L171.96153846153848,112.59850569388365L174.1110576923077,113.17298243204083L176.2605769230769,114.15510192436237L178.41009615384613,114.96762492279235L180.5596153846154,116.0912553987107L182.7091346153846,117.10057411121537L184.85865384615383,117.7990608730216L187.00817307692307,118.23541479286015L189.15769230769232,118.31895830153633L191.30721153846153,118.06420499303134L193.45673076923077,118.16782187353489L195.60625,118.81230844019403L197.75576923076923,119.68152149030031L199.90528846153848,120.15472718581634L202.0548076923077,120.60757472286336L204.2043269230769,120.9213751710305L206.35384615384618,121.41162545821169L208.5033653846154,122.45383094288898L210.6528846153846,123.62898871027227L212.80240384615382,124.5399832185806L214.9519230769231,125.12110600677006L217.1014423076923,125.45527631988914L219.25096153846152,125.10715824402511L221.40048076923077,125.28477134594273L223.55,125.67913712170426L225.69951923076923,125.99654535847263L227.84903846153847,125.86843036252672L229.99855769230768,125.21314337501639L232.14807692307693,124.76834355979986L234.29759615384617,125.27643914269636L236.4471153846154,125.84267172099818L238.5966346153846,126.26401462285722L240.74615384615387,126.35234757208893L242.8956730769231,126.32509730358694L245.0451923076923,126.3025169338769L247.19471153846152,126.87318073705752L249.3442307692308,127.81351872216545L251.49375,128.73231645913785L253.64326923076922,129.12047326857962L255.79278846153846,128.57290316863595L257.9423076923077,127.71887926207228L260.09182692307695,126.79543854628417L262.24134615384617,126.1914086689616" style="fill: none;" fill="none"></path></g><g><path stroke="rgb(51, 187, 238)" stroke-width="2px" d="M21.49519230769231,50.89112363921272L23.64471153846154,51.35931762721804L25.794230769230772,51.696815327992525L27.94375,52.07233612073794L30.093269230769234,52.41433468173102L32.24278846153846,52.70102440771319L34.392307692307696,52.929222612187395L36.541826923076925,53.11697359925406L38.691346153846155,53.29321068319122L40.840865384615384,53.45880391379903L42.99038461538462,53.62299639024292L45.13990384615385,53.794094250028145L47.28942307692308,53.961209055969576L49.43894230769231,54.10585329605909L51.588461538461544,54.238162942086326L53.737980769230774,54.38725504734789L55.8875,54.538861609392384L58.03701923076923,54.69127575289777L60.18653846153847,54.86007972907919L62.3360576923077,55.04131731761528L64.48557692307692,55.234901497482554L66.63509615384616,55.43417798625795L68.78461538461539,55.65039430631775L70.93413461538461,55.88900186905041L73.08365384615385,56.16624345431719L75.23317307692308,56.46230849227906L77.38269230769231,56.79736592188041L79.53221153846154,57.16577773487657L81.68173076923077,57.60776905792755L83.83125,58.13522906387638L85.98076923076924,58.772870226220206L88.13028846153846,59.5234934206592L90.2798076923077,60.38551376433842L92.42932692307691,61.309234984389256L94.57884615384616,62.288432770518L96.72836538461539,63.41153482707624L98.87788461538462,64.60198114192137L101.02740384615385,65.74905804217669L103.17692307692309,66.87785596488891L105.3264423076923,68.23210199427884L107.47596153846155,69.61935658948326L109.62548076923076,70.73542019664002L111.775,71.7189241282659L113.92451923076923,72.86059269059048L116.07403846153846,74.09343487350715L118.2235576923077,75.4551826007402L120.37307692307694,76.64088040187508L122.52259615384615,77.56277521609081L124.6721153846154,78.60380168587001L126.82163461538461,79.71795517768058L128.97115384615384,80.85591854194712L131.12067307692308,82.01012471640391L133.27019230769233,83.05603622722712L135.41971153846154,84.1479028396835L137.56923076923078,85.20251769355515L139.71875,86.20781653641649L141.86826923076922,87.16187977636604L144.01778846153846,88.07465804325403L146.1673076923077,88.9395811361484L148.31682692307692,89.7448558106801L150.46634615384616,90.47588743138996L152.61586538461538,91.2207167362625L154.76538461538462,92.06748407906356L156.91490384615383,92.84668882186848L159.06442307692308,93.47289631860836L161.2139423076923,94.26042758549349L163.36346153846154,94.91166197202331L165.51298076923078,95.46395656961569L167.6625,96.10580873057928L169.8120192307692,96.77168847460958L171.96153846153848,97.39382515222147L174.1110576923077,97.91770491655191L176.2605769230769,98.29284244040628L178.41009615384613,98.78424544820508L180.5596153846154,99.31142157528394L182.7091346153846,99.68460663949274L184.85865384615383,100.06492479586164L187.00817307692307,100.45272455711633L189.15769230769232,100.83580648296092L191.30721153846153,101.1058684816209L193.45673076923077,101.20781039709668L195.60625,101.45192795040434L197.75576923076923,101.70865608147783L199.90528846153848,102.0564695411444L202.0548076923077,102.29907541488068L204.2043269230769,102.51010976707279L206.35384615384618,102.76969493645964L208.5033653846154,103.06898249981592L210.6528846153846,103.22424956174699L212.80240384615382,103.1929022922172L214.9519230769231,103.21612219867764L217.1014423076923,103.47314191110857L219.25096153846152,103.62165754783905L221.40048076923077,103.95122822638272L223.55,104.18219055377331L225.69951923076923,104.32993466773694L227.84903846153847,104.46194150187678L229.99855769230768,104.59196335689423L232.14807692307693,104.56631570097194L234.29759615384617,104.55159433505764L236.4471153846154,104.7667118750655L238.5966346153846,104.94627243402131L240.74615384615387,105.08377230902694L242.8956730769231,105.19681145526413L245.0451923076923,105.2312287648499L247.19471153846152,105.26537695354767L249.3442307692308,105.51113182004221L251.49375,105.47678996408207L253.64326923076922,105.43690597981744L255.79278846153846,105.56406846293794L257.9423076923077,105.66759732818662L260.09182692307695,105.57703032964106L262.24134615384617,105.39323618005564" style="fill: none;" fill="none"></path></g></g></g></g><g opacity="0.2"><g><g><g><path stroke="rgb(238, 51, 119)" stroke-width="2px" d="M21.49519230769231,33.16855552461413L23.64471153846154,33.06257714165583L25.794230769230772,32.8990002738105L27.94375,32.874869267145804L30.093269230769234,33.00115919113159L32.24278846153846,33.21306880315146L34.392307692307696,33.39468203650581L36.541826923076925,33.52638287014433L38.691346153846155,33.64687286482918L40.840865384615384,33.66450842221579L42.99038461538462,33.64235787921482L45.13990384615385,33.69263572163054L47.28942307692308,33.89282759030661L49.43894230769231,34.05385814772713L51.588461538461544,34.37092094951206L53.737980769230774,34.668910000059356L55.8875,35.00358478228252L58.03701923076923,35.340063201056594L60.18653846153847,35.54973300298056L62.3360576923077,35.92511338657805L64.48557692307692,36.42018214861553L66.63509615384616,36.903592109680176L68.78461538461539,37.60273114840191L70.93413461538461,38.210426992840254L73.08365384615385,38.77616765764025L75.23317307692308,39.385926485061646L77.38269230769231,40.09941209687128L79.53221153846154,41.290507740444625L81.68173076923077,42.66305157873367L83.83125,44.88712406158447L85.98076923076924,47.68041480912104L88.13028846153846,50.130767054028L90.2798076923077,51.8145973417494L92.42932692307691,54.07587424914043L94.57884615384616,57.15279568566218L96.72836538461539,59.237858480877364L98.87788461538462,60.89853031105467L101.02740384615385,61.806437333424896L103.17692307692309,64.30442090829214L105.3264423076923,67.96240213182237L107.47596153846155,71.09001400735643L109.62548076923076,73.51107189390395L111.775,75.49068678749933L113.92451923076923,77.56073696083494L116.07403846153846,78.94660766919455L118.2235576923077,80.08896976047093L120.37307692307694,80.1519496838252L122.52259615384615,81.46386539936066L124.6721153846154,84.3391331964069L126.82163461538461,87.47085924943289L128.97115384615384,89.78863241937425L131.12067307692308,91.30382858382332L133.27019230769233,92.92970673243207L135.41971153846154,94.13622759448158L137.56923076923078,95.478716717826L139.71875,96.80219692654079L141.86826923076922,97.992909444703L144.01778846153846,99.32428203688728L146.1673076923077,100.54473098119101L148.31682692307692,102.35110245810615L150.46634615384616,104.03603496816423L152.61586538461538,104.44541920555963L154.76538461538462,105.42637940247855L156.91490384615383,106.76242023044163L159.06442307692308,108.33020477824742L161.2139423076923,109.6410595311059L163.36346153846154,110.8737567000919L165.51298076923078,111.97775025500191L167.6625,112.56384372048909L169.8120192307692,113.23342316018211L171.96153846153848,113.54781292544472L174.1110576923077,114.03469753927654L176.2605769230769,115.62828116284477L178.41009615384613,116.18640942043727L180.5596153846154,117.77670111258826L182.7091346153846,118.61455217997235L184.85865384615383,118.84679101573097L187.00817307692307,118.88994567261803L189.15769230769232,118.44427356455063L191.30721153846153,117.68207503027385L193.45673076923077,118.32324719429016L195.60625,119.77903829018277L197.75576923076923,120.98534106545979L199.90528846153848,120.86453572909039L202.0548076923077,121.28684602843391L204.2043269230769,121.3920758432812L206.35384615384618,122.14700088898343L208.5033653846154,124.01713916990494L210.6528846153846,125.3917253613472L212.80240384615382,125.90647498104309L214.9519230769231,125.99279018905428L217.1014423076923,125.95653178956773L219.25096153846152,124.58498113022911L221.40048076923077,125.55119099881914L223.55,126.27068578534657L225.69951923076923,126.47265771362518L227.84903846153847,125.67625786860785L229.99855769230768,124.23021289375093L232.14807692307693,124.1011438369751L234.29759615384617,126.03858251704109L236.4471153846154,126.69202058845097L238.5966346153846,126.89602897564572L240.74615384615387,126.48484699593651L242.8956730769231,126.28422190083397L245.0451923076923,126.26864637931189L247.19471153846152,127.72917644182843L249.3442307692308,129.2240256998274L251.49375,130.11051306459638L253.64326923076922,129.7027084827423L255.79278846153846,127.75154801872041L257.9423076923077,126.43784340222678L260.09182692307695,125.410277472602L262.24134615384617,125.28536385297775" style="fill: none;" fill="none"></path></g><g><path stroke="rgb(51, 187, 238)" stroke-width="2px" d="M21.49519230769231,50.89112363921272L23.64471153846154,51.64023402002123L25.794230769230772,52.02081312073603L27.94375,52.51394857300654L30.093269230769234,52.8608480029636L32.24278846153846,53.09761950704786L34.392307692307696,53.255549695756706L36.541826923076925,53.390716340806755L38.691346153846155,53.553126149707374L40.840865384615384,53.7046905623542L42.99038461538462,53.86779589123198L45.13990384615385,54.04980993270874L47.28942307692308,54.21133560604521L49.43894230769231,54.32253628306919L51.588461538461544,54.436471886105025L53.737980769230774,54.610788053936446L55.8875,54.766207297643035L58.03701923076923,54.91985827022129L60.18653846153847,55.11325997776457L62.3360576923077,55.313157134585914L64.48557692307692,55.525267150666984L66.63509615384616,55.73308616214329L68.78461538461539,55.974714517593384L70.93413461538461,56.24691038661533L73.08365384615385,56.58210386170283L75.23317307692308,56.90640478663975L77.38269230769231,57.29995120896235L79.53221153846154,57.71839488877192L81.68173076923077,58.27075563536751L83.83125,58.92641878128052L85.98076923076924,59.72933175828722L88.13028846153846,60.64942806296879L90.2798076923077,61.67854417694941L92.42932692307691,62.6948167483012L94.57884615384616,63.75722940762839L96.72836538461539,65.09618788295323L98.87788461538462,66.38765059577095L101.02740384615385,67.46967338191139L103.17692307692309,68.57105284267003L105.3264423076923,70.26347103383806L107.47596153846155,71.7002384795083L109.62548076923076,72.40951560603249L111.775,73.19418002499475L113.92451923076923,74.5730955335829L116.07403846153846,75.94269814756181L118.2235576923077,77.49780419137743L120.37307692307694,78.41942710346648L122.52259615384615,78.94561743736267L124.6721153846154,80.16534139050378L126.82163461538461,81.38918541537392L128.97115384615384,82.56286358833313L131.12067307692308,83.74143397808075L133.27019230769233,84.62490349345738L135.41971153846154,85.78570275836522L137.56923076923078,86.784439974361L139.71875,87.71576480070752L141.86826923076922,88.59297463628981L144.01778846153846,89.44382544358572L146.1673076923077,90.23696577548981L148.31682692307692,90.95276782247757L150.46634615384616,91.57243486245474L152.61586538461538,92.33796069357132L154.76538461538462,93.33763509326512L156.91490384615383,94.01549593607587L159.06442307692308,94.41220756371817L161.2139423076923,95.44172448582118L163.36346153846154,95.88851355181801L165.51298076923078,96.29239846600427L167.6625,97.0685869720247L169.8120192307692,97.77050809065503L171.96153846153848,98.3270301686393L174.1110576923077,98.70352456304764L176.2605769230769,98.85554872618782L178.41009615384613,99.5213499599033L180.5596153846154,100.10218576590222L182.7091346153846,100.24438423580592L184.85865384615383,100.635402030415L187.00817307692307,101.03442419899835L189.15769230769232,101.41042937172784L191.30721153846153,101.51096147961086L193.45673076923077,101.3607232703103L195.60625,101.81810428036584L197.75576923076923,102.09374827808803L199.90528846153848,102.57818973064423L202.0548076923077,102.66298422548508L204.2043269230769,102.82666129536098L206.35384615384618,103.1590726905399L208.5033653846154,103.51791384485033L210.6528846153846,103.4571501546436L212.80240384615382,103.14588138792251L214.9519230769231,103.25095205836827L217.1014423076923,103.85867147975499L219.25096153846152,103.84443100293478L221.40048076923077,104.44558424419826L223.55,104.52863404485916L225.69951923076923,104.5515508386824L227.84903846153847,104.6599517530865L229.99855769230768,104.78699613942041L232.14807692307693,104.52784421708849L234.29759615384617,104.52951228618622L236.4471153846154,105.08938818507725L238.5966346153846,105.215613272455L240.74615384615387,105.29002212153542L242.8956730769231,105.3663701746199L245.0451923076923,105.28285472922856L247.19471153846152,105.31659923659431L249.3442307692308,105.87976411978406L251.49375,105.42527718014186L253.64326923076922,105.37708000342053L255.79278846153846,105.75481218761867L257.9423076923077,105.82289062605965L260.09182692307695,105.44117983182272L262.24134615384617,105.11754495567745" style="fill: none;" fill="none"></path></g></g></g></g></g></g><g transform="translate(50, 178)" clip-path="url(#clip_1)"><clipPath id="clip_1"><rect width="279" height="21"></rect></clipPath><g><g><line x1="0" y1="0" x2="0" y2="5" style="visibility: inherit;" fill="rgb(0, 0, 0)" stroke="rgb(204, 204, 204)" stroke-width="1px"></line><line x1="21.49519230769231" y1="0" x2="21.49519230769231" y2="5" style="visibility: inherit;" fill="rgb(0, 0, 0)" stroke="rgb(204, 204, 204)" stroke-width="1px"></line><line x1="42.99038461538462" y1="0" x2="42.99038461538462" y2="5" style="visibility: inherit;" fill="rgb(0, 0, 0)" stroke="rgb(204, 204, 204)" stroke-width="1px"></line><line x1="64.48557692307692" y1="0" x2="64.48557692307692" y2="5" style="visibility: inherit;" fill="rgb(0, 0, 0)" stroke="rgb(204, 204, 204)" stroke-width="1px"></line><line x1="85.98076923076924" y1="0" x2="85.98076923076924" y2="5" style="visibility: inherit;" fill="rgb(0, 0, 0)" stroke="rgb(204, 204, 204)" stroke-width="1px"></line><line x1="107.47596153846155" y1="0" x2="107.47596153846155" y2="5" style="visibility: inherit;" fill="rgb(0, 0, 0)" stroke="rgb(204, 204, 204)" stroke-width="1px"></line><line x1="128.97115384615384" y1="0" x2="128.97115384615384" y2="5" style="visibility: inherit;" fill="rgb(0, 0, 0)" stroke="rgb(204, 204, 204)" stroke-width="1px"></line><line x1="150.46634615384616" y1="0" x2="150.46634615384616" y2="5" style="visibility: inherit;" fill="rgb(0, 0, 0)" stroke="rgb(204, 204, 204)" stroke-width="1px"></line><line x1="171.96153846153848" y1="0" x2="171.96153846153848" y2="5" style="visibility: inherit;" fill="rgb(0, 0, 0)" stroke="rgb(204, 204, 204)" stroke-width="1px"></line><line x1="193.45673076923077" y1="0" x2="193.45673076923077" y2="5" style="visibility: inherit;" fill="rgb(0, 0, 0)" stroke="rgb(204, 204, 204)" stroke-width="1px"></line><line x1="214.9519230769231" y1="0" x2="214.9519230769231" y2="5" style="visibility: inherit;" fill="rgb(0, 0, 0)" stroke="rgb(204, 204, 204)" stroke-width="1px"></line><line x1="236.4471153846154" y1="0" x2="236.4471153846154" y2="5" style="visibility: inherit;" fill="rgb(0, 0, 0)" stroke="rgb(204, 204, 204)" stroke-width="1px"></line><line x1="257.9423076923077" y1="0" x2="257.9423076923077" y2="5" style="visibility: inherit;" fill="rgb(0, 0, 0)" stroke="rgb(204, 204, 204)" stroke-width="1px"></line><line x1="279.4375" y1="0" x2="279.4375" y2="5" style="visibility: inherit;" fill="rgb(0, 0, 0)" stroke="rgb(204, 204, 204)" stroke-width="1px"></line></g><g transform="translate(0, 8)"><text x="0" y="0" dx="0em" dy="0.95em" style="text-anchor: middle; visibility: hidden; font-family: Roboto, sans-serif; font-size: 12px; font-weight: 200;" fill="rgb(50, 49, 63)" stroke="none" stroke-width="1px">-10</text><text x="21.49519230769231" y="0" dx="0em" dy="0.95em" style="text-anchor: middle; visibility: inherit; font-family: Roboto, sans-serif; font-size: 12px; font-weight: 200;" fill="rgb(50, 49, 63)" stroke="none" stroke-width="1px">0</text><text x="42.99038461538462" y="0" dx="0em" dy="0.95em" style="text-anchor: middle; visibility: hidden; font-family: Roboto, sans-serif; font-size: 12px; font-weight: 200;" fill="rgb(50, 49, 63)" stroke="none" stroke-width="1px">10</text><text x="64.48557692307692" y="0" dx="0em" dy="0.95em" style="text-anchor: middle; visibility: inherit; font-family: Roboto, sans-serif; font-size: 12px; font-weight: 200;" fill="rgb(50, 49, 63)" stroke="none" stroke-width="1px">20</text><text x="85.98076923076924" y="0" dx="0em" dy="0.95em" style="text-anchor: middle; visibility: hidden; font-family: Roboto, sans-serif; font-size: 12px; font-weight: 200;" fill="rgb(50, 49, 63)" stroke="none" stroke-width="1px">30</text><text x="107.47596153846155" y="0" dx="0em" dy="0.95em" style="text-anchor: middle; visibility: inherit; font-family: Roboto, sans-serif; font-size: 12px; font-weight: 200;" fill="rgb(50, 49, 63)" stroke="none" stroke-width="1px">40</text><text x="128.97115384615384" y="0" dx="0em" dy="0.95em" style="text-anchor: middle; visibility: hidden; font-family: Roboto, sans-serif; font-size: 12px; font-weight: 200;" fill="rgb(50, 49, 63)" stroke="none" stroke-width="1px">50</text><text x="150.46634615384616" y="0" dx="0em" dy="0.95em" style="text-anchor: middle; visibility: inherit; font-family: Roboto, sans-serif; font-size: 12px; font-weight: 200;" fill="rgb(50, 49, 63)" stroke="none" stroke-width="1px">60</text><text x="171.96153846153848" y="0" dx="0em" dy="0.95em" style="text-anchor: middle; visibility: hidden; font-family: Roboto, sans-serif; font-size: 12px; font-weight: 200;" fill="rgb(50, 49, 63)" stroke="none" stroke-width="1px">70</text><text x="193.45673076923077" y="0" dx="0em" dy="0.95em" style="text-anchor: middle; visibility: inherit; font-family: Roboto, sans-serif; font-size: 12px; font-weight: 200;" fill="rgb(50, 49, 63)" stroke="none" stroke-width="1px">80</text><text x="214.9519230769231" y="0" dx="0em" dy="0.95em" style="text-anchor: middle; visibility: hidden; font-family: Roboto, sans-serif; font-size: 12px; font-weight: 200;" fill="rgb(50, 49, 63)" stroke="none" stroke-width="1px">90</text><text x="236.4471153846154" y="0" dx="0em" dy="0.95em" style="text-anchor: middle; visibility: inherit; font-family: Roboto, sans-serif; font-size: 12px; font-weight: 200;" fill="rgb(50, 49, 63)" stroke="none" stroke-width="1px">100</text><text x="257.9423076923077" y="0" dx="0em" dy="0.95em" style="text-anchor: middle; visibility: hidden; font-family: Roboto, sans-serif; font-size: 12px; font-weight: 200;" fill="rgb(50, 49, 63)" stroke="none" stroke-width="1px">110</text><text x="279.4375" y="0" dx="0em" dy="0.95em" style="text-anchor: middle; visibility: hidden; font-family: Roboto, sans-serif; font-size: 12px; font-weight: 200;" fill="rgb(50, 49, 63)" stroke="none" stroke-width="1px">120</text></g><line x1="0" y1="0" x2="279.4375" y2="0" fill="rgb(0, 0, 0)" stroke="rgb(204, 204, 204)" stroke-width="1px"></line></g></g></g></g></svg>