<svg viewBox="0 0 330.0000305175781 200.00001525878906" xmlns="http://www.w3.org/2000/svg"><g><g><g><g><g><line x1="50.5625" y1="178" x2="45.5625" y2="178" style="visibility: inherit;" fill="rgb(0, 0, 0)" stroke="rgb(204, 204, 204)" stroke-width="1px"></line><line x1="50.5625" y1="160.20000000000002" x2="45.5625" y2="160.20000000000002" style="visibility: inherit;" fill="rgb(0, 0, 0)" stroke="rgb(204, 204, 204)" stroke-width="1px"></line><line x1="50.5625" y1="142.4" x2="45.5625" y2="142.4" style="visibility: inherit;" fill="rgb(0, 0, 0)" stroke="rgb(204, 204, 204)" stroke-width="1px"></line><line x1="50.5625" y1="124.6" x2="45.5625" y2="124.6" style="visibility: inherit;" fill="rgb(0, 0, 0)" stroke="rgb(204, 204, 204)" stroke-width="1px"></line><line x1="50.5625" y1="106.8" x2="45.5625" y2="106.8" style="visibility: inherit;" fill="rgb(0, 0, 0)" stroke="rgb(204, 204, 204)" stroke-width="1px"></line><line x1="50.5625" y1="89" x2="45.5625" y2="89" style="visibility: inherit;" fill="rgb(0, 0, 0)" stroke="rgb(204, 204, 204)" stroke-width="1px"></line><line x1="50.5625" y1="71.2" x2="45.5625" y2="71.2" style="visibility: inherit;" fill="rgb(0, 0, 0)" stroke="rgb(204, 204, 204)" stroke-width="1px"></line><line x1="50.5625" y1="53.400000000000006" x2="45.5625" y2="53.400000000000006" style="visibility: inherit;" fill="rgb(0, 0, 0)" stroke="rgb(204, 204, 204)" stroke-width="1px"></line><line x1="50.5625" y1="35.60000000000001" x2="45.5625" y2="35.60000000000001" style="visibility: inherit;" fill="rgb(0, 0, 0)" stroke="rgb(204, 204, 204)" stroke-width="1px"></line><line x1="50.5625" y1="17.799999999999997" x2="45.5625" y2="17.799999999999997" style="visibility: inherit;" fill="rgb(0, 0, 0)" stroke="rgb(204, 204, 204)" stroke-width="1px"></line><line x1="50.5625" y1="0" x2="45.5625" y2="0" style="visibility: inherit;" fill="rgb(0, 0, 0)" stroke="rgb(204, 204, 204)" stroke-width="1px"></line></g><g transform="translate(40.5625, 0)"><text x="0" y="178" dx="0em" dy="0.3em" style="text-anchor: end; visibility: hidden; font-family: Roboto, sans-serif; font-size: 12px; font-weight: 200;" fill="rgb(50, 49, 63)" stroke="none" stroke-width="1px">-0.1</text><text x="0" y="160.20000000000002" dx="0em" dy="0.3em" style="text-anchor: end; visibility: inherit; font-family: Roboto, sans-serif; font-size: 12px; font-weight: 200;" fill="rgb(50, 49, 63)" stroke="none" stroke-width="1px">0</text><text x="0" y="142.4" dx="0em" dy="0.3em" style="text-anchor: end; visibility: hidden; font-family: Roboto, sans-serif; font-size: 12px; font-weight: 200;" fill="rgb(50, 49, 63)" stroke="none" stroke-width="1px">0.1</text><text x="0" y="124.6" dx="0em" dy="0.3em" style="text-anchor: end; visibility: inherit; font-family: Roboto, sans-serif; font-size: 12px; font-weight: 200;" fill="rgb(50, 49, 63)" stroke="none" stroke-width="1px">0.2</text><text x="0" y="106.8" dx="0em" dy="0.3em" style="text-anchor: end; visibility: hidden; font-family: Roboto, sans-serif; font-size: 12px; font-weight: 200;" fill="rgb(50, 49, 63)" stroke="none" stroke-width="1px">0.3</text><text x="0" y="89" dx="0em" dy="0.3em" style="text-anchor: end; visibility: inherit; font-family: Roboto, sans-serif; font-size: 12px; font-weight: 200;" fill="rgb(50, 49, 63)" stroke="none" stroke-width="1px">0.4</text><text x="0" y="71.2" dx="0em" dy="0.3em" style="text-anchor: end; visibility: hidden; font-family: Roboto, sans-serif; font-size: 12px; font-weight: 200;" fill="rgb(50, 49, 63)" stroke="none" stroke-width="1px">0.5</text><text x="0" y="53.400000000000006" dx="0em" dy="0.3em" style="text-anchor: end; visibility: inherit; font-family: Roboto, sans-serif; font-size: 12px; font-weight: 200;" fill="rgb(50, 49, 63)" stroke="none" stroke-width="1px">0.6</text><text x="0" y="35.60000000000001" dx="0em" dy="0.3em" style="text-anchor: end; visibility: hidden; font-family: Roboto, sans-serif; font-size: 12px; font-weight: 200;" fill="rgb(50, 49, 63)" stroke="none" stroke-width="1px">0.7</text><text x="0" y="17.799999999999997" dx="0em" dy="0.3em" style="text-anchor: end; visibility: inherit; font-family: Roboto, sans-serif; font-size: 12px; font-weight: 200;" fill="rgb(50, 49, 63)" stroke="none" stroke-width="1px">0.8</text><text x="0" y="0" dx="0em" dy="0.3em" style="text-anchor: end; visibility: hidden; font-family: Roboto, sans-serif; font-size: 12px; font-weight: 200;" fill="rgb(50, 49, 63)" stroke="none" stroke-width="1px">0.9</text></g><line x1="50.5625" y1="0" x2="50.5625" y2="178" fill="rgb(0, 0, 0)" stroke="rgb(204, 204, 204)" stroke-width="1px"></line></g></g><g transform="translate(50, 0)" clip-path="url(#clip_0)"><clipPath id="clip_0"><rect width="279" height="177"></rect></clipPath><g><g><g><line x1="0" y1="0" x2="0" y2="178" fill="rgb(0, 0, 0)" stroke="rgb(60, 60, 60)" stroke-width="1px" opacity="0.25"></line><line x1="25.40340909090909" y1="0" x2="25.40340909090909" y2="178" fill="rgb(0, 0, 0)" stroke="rgb(60, 60, 60)" stroke-width="1px" opacity="0.25"></line><line x1="50.80681818181818" y1="0" x2="50.80681818181818" y2="178" fill="rgb(0, 0, 0)" stroke="rgb(60, 60, 60)" stroke-width="1px" opacity="0.25"></line><line x1="76.21022727272727" y1="0" x2="76.21022727272727" y2="178" fill="rgb(0, 0, 0)" stroke="rgb(60, 60, 60)" stroke-width="1px" opacity="0.25"></line><line x1="101.61363636363636" y1="0" x2="101.61363636363636" y2="178" fill="rgb(0, 0, 0)" stroke="rgb(60, 60, 60)" stroke-width="1px" opacity="0.25"></line><line x1="127.01704545454545" y1="0" x2="127.01704545454545" y2="178" fill="rgb(0, 0, 0)" stroke="rgb(60, 60, 60)" stroke-width="1px" opacity="0.25"></line><line x1="152.42045454545453" y1="0" x2="152.42045454545453" y2="178" fill="rgb(0, 0, 0)" stroke="rgb(60, 60, 60)" stroke-width="1px" opacity="0.25"></line><line x1="177.82386363636363" y1="0" x2="177.82386363636363" y2="178" fill="rgb(0, 0, 0)" stroke="rgb(60, 60, 60)" stroke-width="1px" opacity="0.25"></line><line x1="203.22727272727272" y1="0" x2="203.22727272727272" y2="178" fill="rgb(0, 0, 0)" stroke="rgb(60, 60, 60)" stroke-width="1px" opacity="0.25"></line><line x1="228.63068181818184" y1="0" x2="228.63068181818184" y2="178" fill="rgb(0, 0, 0)" stroke="rgb(60, 60, 60)" stroke-width="1px" opacity="0.25"></line><line x1="254.0340909090909" y1="0" x2="254.0340909090909" y2="178" fill="rgb(0, 0, 0)" stroke="rgb(60, 60, 60)" stroke-width="1px" opacity="0.25"></line><line x1="279.4375" y1="0" x2="279.4375" y2="178" fill="rgb(0, 0, 0)" stroke="rgb(60, 60, 60)" stroke-width="1px" opacity="0.25"></line></g><g><line x1="0" y1="178" x2="279.4375" y2="178" fill="rgb(0, 0, 0)" stroke="rgb(60, 60, 60)" stroke-width="1px" opacity="0.25"></line><line x1="0" y1="160.20000000000002" x2="279.4375" y2="160.20000000000002" fill="rgb(0, 0, 0)" stroke="rgb(60, 60, 60)" stroke-width="1px" opacity="0.25"></line><line x1="0" y1="142.4" x2="279.4375" y2="142.4" fill="rgb(0, 0, 0)" stroke="rgb(60, 60, 60)" stroke-width="1px" opacity="0.25"></line><line x1="0" y1="124.6" x2="279.4375" y2="124.6" fill="rgb(0, 0, 0)" stroke="rgb(60, 60, 60)" stroke-width="1px" opacity="0.25"></line><line x1="0" y1="106.8" x2="279.4375" y2="106.8" fill="rgb(0, 0, 0)" stroke="rgb(60, 60, 60)" stroke-width="1px" opacity="0.25"></line><line x1="0" y1="89" x2="279.4375" y2="89" fill="rgb(0, 0, 0)" stroke="rgb(60, 60, 60)" stroke-width="1px" opacity="0.25"></line><line x1="0" y1="71.2" x2="279.4375" y2="71.2" fill="rgb(0, 0, 0)" stroke="rgb(60, 60, 60)" stroke-width="1px" opacity="0.25"></line><line x1="0" y1="53.400000000000006" x2="279.4375" y2="53.400000000000006" fill="rgb(0, 0, 0)" stroke="rgb(60, 60, 60)" stroke-width="1px" opacity="0.25"></line><line x1="0" y1="35.60000000000001" x2="279.4375" y2="35.60000000000001" fill="rgb(0, 0, 0)" stroke="rgb(60, 60, 60)" stroke-width="1px" opacity="0.25"></line><line x1="0" y1="17.799999999999997" x2="279.4375" y2="17.799999999999997" fill="rgb(0, 0, 0)" stroke="rgb(60, 60, 60)" stroke-width="1px" opacity="0.25"></line><line x1="0" y1="0" x2="279.4375" y2="0" fill="rgb(0, 0, 0)" stroke="rgb(60, 60, 60)" stroke-width="1px" opacity="0.25"></line></g></g></g><g><g><line x1="0" y1="160.20000000000002" x2="279.4375" y2="160.20000000000002" fill="rgb(0, 0, 0)" stroke="rgb(153, 153, 153)" stroke-width="1.5px"></line></g></g><g><g><line x1="25.40340909090909" y1="0" x2="25.40340909090909" y2="178" fill="rgb(0, 0, 0)" stroke="rgb(153, 153, 153)" stroke-width="1.5px"></line></g></g><g><g><g><g><g><path stroke="rgb(0, 119, 187)" stroke-width="2px" d="M25.40340909090909,26.743775320053103L27.94375,27.174658787250504L30.48409090909091,27.51983162675586L33.02443181818182,27.80171600869475L35.564772727272725,28.0679130654795L38.10511363636363,28.52902465272538L40.64545454545454,29.03599586487632L43.185795454545456,29.609409823871044L45.726136363636364,30.108244697771088L48.26647727272727,30.690192845667188L50.80681818181818,31.350041025480703L53.347159090909095,32.19617119931789L55.8875,33.290909275967316L58.427840909090904,34.723246129382616L60.96818181818182,35.84179661085407L63.50852272727273,36.84008719726383L66.04886363636363,38.25781147392367L68.58920454545455,39.68369820774035L71.12954545454545,41.07135735988304L73.66988636363635,42.2329959234548L76.21022727272727,43.48059510043564L78.75056818181818,44.96275151143615L81.29090909090908,46.45619647447018L83.83125,47.77949486687333L86.37159090909091,49.15844817786928L88.91193181818181,50.14044686357019L91.45227272727273,51.172037185058L93.99261363636364,52.902774174193866L96.53295454545454,54.283066475649L99.07329545454546,56.10757058201361L101.61363636363636,58.21292050475268L104.15397727272727,60.17117971624068L106.69431818181819,62.097822992088425L109.23465909090909,64.72048798927673L111.775,67.18701011921621L114.31534090909092,69.43225729269382L116.85568181818181,71.46391960806871L119.39602272727272,73.53303880045547L121.93636363636364,75.89738228460243L124.47670454545454,78.8104922294224L127.01704545454545,81.49074704859676L129.55738636363637,83.87401168588663L132.09772727272727,85.0388486260193L134.63806818181817,87.10330524206269L137.1784090909091,88.74306766384068L139.71875,90.64517770417407L142.2590909090909,92.51568581473602L144.79943181818183,94.43011178147187L147.3397727272727,96.20337306484818L149.88011363636363,97.86245562927418L152.42045454545453,98.1160864299339L154.96079545454546,98.12721204434648L157.50113636363636,98.58968971058697L160.0414772727273,100.98577236345645L162.58181818181816,103.83455111987314L165.1221590909091,105.7419022274437L167.6625,105.35814256861336L170.20284090909092,104.29385552522244L172.74318181818182,104.32013768265666L175.28352272727273,105.1176921791436L177.82386363636363,106.90839593092218L180.36420454545456,108.10141471194994L182.90454545454546,107.93111844043595L185.44488636363639,108.93503034103313L187.9852272727273,110.22766950600385L190.52556818181816,111.06500527663849L193.0659090909091,111.75474304082289L195.60625,112.35824975325045L198.14659090909092,112.20981429668295L200.68693181818182,112.10785596044079L203.22727272727272,112.3986086444331L205.76761363636362,112.52308042504029L208.30795454545455,113.97314564262412L210.84829545454545,114.86071612044921L213.38863636363638,114.2262599373147L215.92897727272728,115.7737670650652L218.46931818181818,117.2357689971072L221.00965909090908,117.34311441864625L223.55,114.49867075136933L226.0903409090909,113.37583958060524L228.63068181818184,115.62069324106562L231.1710227272727,117.4127195969259L233.71136363636361,117.13097793907139L236.25170454545454,116.44872195631392L238.79204545454544,117.4978843683608L241.33238636363637,120.58615114895152L243.87272727272727,122.59356510286119L246.41306818181818,121.6695557740008L248.95340909090908,119.67811760822983L251.49375,119.64030877542525L254.0340909090909,119.67418021316547L256.57443181818184,121.83421653005611" style="fill: none;" fill="none"></path></g><g><path stroke="rgb(255, 112, 67)" stroke-width="2px" d="M25.40340909090909,43.22718853950501L27.94375,43.55490001738072L30.48409090909091,43.88553536765429L33.02443181818182,44.22396180436893L35.564772727272725,44.57150397646518L38.10511363636363,44.948201738750896L40.64545454545454,45.33640491642632L43.185795454545456,45.74586184404357L45.726136363636364,46.205600877348694L48.26647727272727,46.70626492181279L50.80681818181818,47.257159196440504L53.347159090909095,47.87117224221249L55.8875,48.57174482947926L58.427840909090904,49.31492925094455L60.96818181818182,50.272864311389604L63.50852272727273,51.280319195735224L66.04886363636363,52.291668626669676L68.58920454545455,53.376385191163756L71.12954545454545,54.479282319679854L73.66988636363635,55.61919640937298L76.21022727272727,56.8160836772575L78.75056818181818,58.04380329055289L81.29090909090908,59.31005297968982L83.83125,60.61777348081333L86.37159090909091,61.96763765466055L88.91193181818181,63.36809502391128L91.45227272727273,64.8413134343573L93.99261363636364,66.28420143562093L96.53295454545454,67.81792450456209L99.07329545454546,69.4400464860974L101.61363636363636,71.08072659370616L104.15397727272727,72.79131048105803L106.69431818181819,74.50000405115938L109.23465909090909,76.28785498855724L111.775,78.10507911419458L114.31534090909092,79.96955772639524L116.85568181818181,81.84490012614934L119.39602272727272,83.81077631422096L121.93636363636364,85.81460636649852L124.47670454545454,87.87130612764108L127.01704545454545,89.87910940470411L129.55738636363637,91.87523345460458L132.09772727272727,93.75512173891681L134.63806818181817,95.80388331401447L137.1784090909091,97.70963764680228L139.71875,99.57179272957019L142.2590909090909,101.33661252020866L144.79943181818183,103.01597870925305L147.3397727272727,104.58351935352553L149.88011363636363,106.03939787273193L152.42045454545453,107.5576019795288L154.96079545454546,108.91093527028652L157.50113636363636,110.08830320566915L160.0414772727273,111.4553175242559L162.58181818181816,112.72958631228381L165.1221590909091,113.74065377540015L167.6625,114.8769819916884L170.20284090909092,115.84193394551289L172.74318181818182,116.80863180619255L175.28352272727273,117.74749250210394L177.82386363636363,118.56901965020343L180.36420454545456,119.53117320703416L182.90454545454546,120.31649465898842L185.44488636363639,121.12501743042571L187.9852272727273,121.90551689508023L190.52556818181816,122.64684046532192L193.0659090909091,123.34657439008639L195.60625,123.96023140677981L198.14659090909092,124.60894945340854L200.68693181818182,125.22322850154342L203.22727272727272,125.78452086166442L205.76761363636362,126.33810930559576L208.30795454545455,126.86409813111747L210.84829545454545,127.38799977747037L213.38863636363638,127.82311439065597L215.92897727272728,128.30402311294353L218.46931818181818,128.72506560927079L221.00965909090908,129.14230158832936L223.55,129.54882006470723L226.0903409090909,129.75648442163683L228.63068181818184,130.11627830299506L231.1710227272727,130.59935277719956L233.71136363636361,131.1371083666066L236.25170454545454,131.52683153684018L238.79204545454544,131.8702639444773L241.33238636363637,132.22470326328903L243.87272727272727,132.23695949259178L246.41306818181818,132.58987620081172L248.95340909090908,133.04376337173977L251.49375,133.38520253922582L254.0340909090909,133.72886648193622L256.57443181818184,133.74272822866214" style="fill: none;" fill="none"></path></g></g></g></g><g opacity="0.2"><g><g><g><path stroke="rgb(0, 119, 187)" stroke-width="2px" d="M25.40340909090909,26.743775320053103L27.94375,27.433188867568973L30.48409090909091,27.851197552680972L33.02443181818182,28.13321204185486L35.564772727272725,28.41545994281769L38.10511363636363,29.166907978057864L40.64545454545454,29.760972809791568L43.185795454545456,30.445452880859378L45.726136363636364,30.84392924308777L48.26647727272727,31.55431802272797L50.80681818181818,32.333828520774844L53.347159090909095,33.46076185703278L55.8875,34.92944188117981L58.427840909090904,36.8689453125L60.96818181818182,37.51830751895905L63.50852272727273,38.336819005012515L66.04886363636363,40.383797955513L68.58920454545455,41.82216627597809L71.12954545454545,43.15263469219208L73.66988636363635,43.975347590446475L76.21022727272727,45.35192544460297L78.75056818181818,47.185937356948855L81.29090909090908,48.696334433555606L83.83125,49.76442677974701L86.37159090909091,51.226868343353274L88.91193181818181,51.613440704345706L91.45227272727273,52.71942002773285L93.99261363636364,55.49887700080872L96.53295454545454,56.35350365638733L99.07329545454546,58.84432573318482L101.61363636363636,61.37094469070435L104.15397727272727,63.10856814384461L106.69431818181819,64.98778767585755L109.23465909090909,68.65448529720307L111.775,70.88679320812226L114.31534090909092,72.8001279950142L116.85568181818181,74.51141304969788L119.39602272727272,76.63671756982804L121.93636363636364,79.44389749765396L124.47670454545454,83.18015713691712L127.01704545454545,85.5111292719841L129.55738636363637,87.44890863895417L132.09772727272727,86.7861040353775L134.63806818181817,90.19999016523361L137.1784090909091,91.20271129608155L139.71875,93.4983427643776L142.2590909090909,95.3214479804039L144.79943181818183,97.3017507314682L147.3397727272727,98.86326498985291L149.88011363636363,100.35107947587967L152.42045454545453,98.49653263092041L154.96079545454546,98.14390046596527L157.50113636363636,99.28340620994568L160.0414772727273,104.57989634275437L162.58181818181816,108.10771925449372L165.1221590909091,108.60292888879776L167.6625,104.78250308036804L170.20284090909092,102.69742496013642L172.74318181818182,104.35956091880799L175.28352272727273,106.3140239238739L177.82386363636363,109.59445155858994L180.36420454545456,109.89094288349152L182.90454545454546,107.67567403316498L185.44488636363639,110.44089819192887L187.9852272727273,112.16662825345993L190.52556818181816,112.32100893259049L193.0659090909091,112.78934968709946L195.60625,113.26350982189179L198.14659090909092,111.98716111183167L200.68693181818182,111.95491845607758L203.22727272727272,112.8347376704216L205.76761363636362,112.70978809595108L208.30795454545455,116.14824346899987L210.84829545454545,116.19207183718682L213.38863636363638,113.27457566261292L215.92897727272728,118.09502775669098L218.46931818181818,119.42877189517021L221.00965909090908,117.50413255095482L223.55,110.23200525045395L226.0903409090909,111.69159282445908L228.63068181818184,118.98797373175621L231.1710227272727,120.10075913071633L233.71136363636361,116.70836545228958L236.25170454545454,115.42533798217774L238.79204545454544,119.07162798643112L241.33238636363637,125.21855131983757L243.87272727272727,125.60468603372574L246.41306818181818,120.28354178071022L248.95340909090908,116.69096035957337L251.49375,119.58359552621842L254.0340909090909,119.72498736977577L256.57443181818184,125.07427100539208" style="fill: none;" fill="none"></path></g><g><path stroke="rgb(255, 112, 67)" stroke-width="2px" d="M25.40340909090909,43.22718853950501L27.94375,43.75152690410614L30.48409090909091,44.202945303916934L33.02443181818182,44.621951293945315L35.564772727272725,45.02525503635407L38.10511363636363,45.469310355186465L40.64545454545454,45.89154167175293L43.185795454545456,46.34285397529602L45.726136363636364,46.88362665176392L48.26647727272727,47.44969267845154L50.80681818181818,48.07850403785706L53.347159090909095,48.788850378990176L55.8875,49.62031621932984L58.427840909090904,50.428249907493594L60.96818181818182,51.70864088535309L63.50852272727273,52.79079098701477L66.04886363636363,53.808264803886416L68.58920454545455,55.003184628486636L71.12954545454545,56.13345999717713L73.66988636363635,57.3289633512497L76.21022727272727,58.61134893894196L78.75056818181818,59.885342311859134L81.29090909090908,61.20940251350403L83.83125,62.57933874130249L86.37159090909091,63.992424321174624L88.91193181818181,65.46877510547638L91.45227272727273,67.05113728046418L93.99261363636364,68.44853122234345L96.53295454545454,70.11850769519806L99.07329545454546,71.87322856187821L101.61363636363636,73.54174621105194L104.15397727272727,75.35718597173691L106.69431818181819,77.06304420232773L109.23465909090909,78.96963126659394L111.775,80.83091522455216L114.31534090909092,82.76627559661866L116.85568181818181,84.6579136967659L119.39602272727272,86.75959057807923L121.93636363636364,88.82035143375397L124.47670454545454,90.95635576248169L127.01704545454545,92.89081431627274L129.55738636363637,94.86941952705384L132.09772727272727,96.57495416402817L134.63806818181817,98.87702567577362L137.1784090909091,100.56826914548874L139.71875,102.3650253534317L142.2590909090909,103.98384220600128L144.79943181818183,105.53502799272538L147.3397727272727,106.93483031988144L149.88011363636363,108.22321565151215L152.42045454545453,109.83490813970566L154.96079545454546,110.94093520641327L157.50113636363636,111.85435510873795L160.0414772727273,113.50583900213242L162.58181818181816,114.64098949432373L165.1221590909091,115.2572549700737L167.6625,116.58147431612015L170.20284090909092,117.28936187624932L172.74318181818182,118.25867859721184L175.28352272727273,119.15578354597092L177.82386363636363,119.8013103723526L180.36420454545456,120.9744035422802L182.90454545454546,121.49447683691979L185.44488636363639,122.33780158758164L187.9852272727273,123.076266092062L190.52556818181816,123.75882582068444L193.0659090909091,124.39617527723313L195.60625,124.88071693181992L198.14659090909092,125.58202652335167L200.68693181818182,126.14464707374573L203.22727272727272,126.62645940184593L205.76761363636362,127.16849197149277L208.30795454545455,127.65308136940003L210.84829545454545,128.17385224699976L213.38863636363638,128.47578631043436L215.92897727272728,129.0253861963749L218.46931818181818,129.3566293537617L221.00965909090908,129.7681555569172L223.55,130.158597779274L226.0903409090909,130.06798095703127L228.63068181818184,130.65596912503244L231.1710227272727,131.32396448850633L233.71136363636361,131.94374175071718L236.25170454545454,132.11141629219057L238.79204545454544,132.38541255593302L241.33238636363637,132.7563622415066L243.87272727272727,132.25534383654596L246.41306818181818,133.11925126314165L248.95340909090908,133.72459412813188L251.49375,133.89736129045488L254.0340909090909,134.24436239600183L256.57443181818184,133.76352084875109" style="fill: none;" fill="none"></path></g></g></g></g></g><g><g opacity="0.846799"><span fill="rgb(0, 0, 0)" stroke="none" stroke-width="1px">Alt + Scroll to Zoom</span></g></g></g><g transform="translate(50, 178)" clip-path="url(#clip_1)"><clipPath id="clip_1"><rect width="279" height="21"></rect></clipPath><g><g><line x1="0" y1="0" x2="0" y2="5" style="visibility: inherit;" fill="rgb(0, 0, 0)" stroke="rgb(204, 204, 204)" stroke-width="1px"></line><line x1="25.40340909090909" y1="0" x2="25.40340909090909" y2="5" style="visibility: inherit;" fill="rgb(0, 0, 0)" stroke="rgb(204, 204, 204)" stroke-width="1px"></line><line x1="50.80681818181818" y1="0" x2="50.80681818181818" y2="5" style="visibility: inherit;" fill="rgb(0, 0, 0)" stroke="rgb(204, 204, 204)" stroke-width="1px"></line><line x1="76.21022727272727" y1="0" x2="76.21022727272727" y2="5" style="visibility: inherit;" fill="rgb(0, 0, 0)" stroke="rgb(204, 204, 204)" stroke-width="1px"></line><line x1="101.61363636363636" y1="0" x2="101.61363636363636" y2="5" style="visibility: inherit;" fill="rgb(0, 0, 0)" stroke="rgb(204, 204, 204)" stroke-width="1px"></line><line x1="127.01704545454545" y1="0" x2="127.01704545454545" y2="5" style="visibility: inherit;" fill="rgb(0, 0, 0)" stroke="rgb(204, 204, 204)" stroke-width="1px"></line><line x1="152.42045454545453" y1="0" x2="152.42045454545453" y2="5" style="visibility: inherit;" fill="rgb(0, 0, 0)" stroke="rgb(204, 204, 204)" stroke-width="1px"></line><line x1="177.82386363636363" y1="0" x2="177.82386363636363" y2="5" style="visibility: inherit;" fill="rgb(0, 0, 0)" stroke="rgb(204, 204, 204)" stroke-width="1px"></line><line x1="203.22727272727272" y1="0" x2="203.22727272727272" y2="5" style="visibility: inherit;" fill="rgb(0, 0, 0)" stroke="rgb(204, 204, 204)" stroke-width="1px"></line><line x1="228.63068181818184" y1="0" x2="228.63068181818184" y2="5" style="visibility: inherit;" fill="rgb(0, 0, 0)" stroke="rgb(204, 204, 204)" stroke-width="1px"></line><line x1="254.0340909090909" y1="0" x2="254.0340909090909" y2="5" style="visibility: inherit;" fill="rgb(0, 0, 0)" stroke="rgb(204, 204, 204)" stroke-width="1px"></line><line x1="279.4375" y1="0" x2="279.4375" y2="5" style="visibility: inherit;" fill="rgb(0, 0, 0)" stroke="rgb(204, 204, 204)" stroke-width="1px"></line></g><g transform="translate(0, 8)"><text x="0" y="0" dx="0em" dy="0.95em" style="text-anchor: middle; visibility: hidden; font-family: Roboto, sans-serif; font-size: 12px; font-weight: 200;" fill="rgb(50, 49, 63)" stroke="none" stroke-width="1px">-10</text><text x="25.40340909090909" y="0" dx="0em" dy="0.95em" style="text-anchor: middle; visibility: inherit; font-family: Roboto, sans-serif; font-size: 12px; font-weight: 200;" fill="rgb(50, 49, 63)" stroke="none" stroke-width="1px">0</text><text x="50.80681818181818" y="0" dx="0em" dy="0.95em" style="text-anchor: middle; visibility: inherit; font-family: Roboto, sans-serif; font-size: 12px; font-weight: 200;" fill="rgb(50, 49, 63)" stroke="none" stroke-width="1px">10</text><text x="76.21022727272727" y="0" dx="0em" dy="0.95em" style="text-anchor: middle; visibility: inherit; font-family: Roboto, sans-serif; font-size: 12px; font-weight: 200;" fill="rgb(50, 49, 63)" stroke="none" stroke-width="1px">20</text><text x="101.61363636363636" y="0" dx="0em" dy="0.95em" style="text-anchor: middle; visibility: inherit; font-family: Roboto, sans-serif; font-size: 12px; font-weight: 200;" fill="rgb(50, 49, 63)" stroke="none" stroke-width="1px">30</text><text x="127.01704545454545" y="0" dx="0em" dy="0.95em" style="text-anchor: middle; visibility: inherit; font-family: Roboto, sans-serif; font-size: 12px; font-weight: 200;" fill="rgb(50, 49, 63)" stroke="none" stroke-width="1px">40</text><text x="152.42045454545453" y="0" dx="0em" dy="0.95em" style="text-anchor: middle; visibility: inherit; font-family: Roboto, sans-serif; font-size: 12px; font-weight: 200;" fill="rgb(50, 49, 63)" stroke="none" stroke-width="1px">50</text><text x="177.82386363636363" y="0" dx="0em" dy="0.95em" style="text-anchor: middle; visibility: inherit; font-family: Roboto, sans-serif; font-size: 12px; font-weight: 200;" fill="rgb(50, 49, 63)" stroke="none" stroke-width="1px">60</text><text x="203.22727272727272" y="0" dx="0em" dy="0.95em" style="text-anchor: middle; visibility: inherit; font-family: Roboto, sans-serif; font-size: 12px; font-weight: 200;" fill="rgb(50, 49, 63)" stroke="none" stroke-width="1px">70</text><text x="228.63068181818184" y="0" dx="0em" dy="0.95em" style="text-anchor: middle; visibility: inherit; font-family: Roboto, sans-serif; font-size: 12px; font-weight: 200;" fill="rgb(50, 49, 63)" stroke="none" stroke-width="1px">80</text><text x="254.0340909090909" y="0" dx="0em" dy="0.95em" style="text-anchor: middle; visibility: inherit; font-family: Roboto, sans-serif; font-size: 12px; font-weight: 200;" fill="rgb(50, 49, 63)" stroke="none" stroke-width="1px">90</text><text x="279.4375" y="0" dx="0em" dy="0.95em" style="text-anchor: middle; visibility: hidden; font-family: Roboto, sans-serif; font-size: 12px; font-weight: 200;" fill="rgb(50, 49, 63)" stroke="none" stroke-width="1px">100</text></g><line x1="0" y1="0" x2="279.4375" y2="0" fill="rgb(0, 0, 0)" stroke="rgb(204, 204, 204)" stroke-width="1px"></line></g></g></g></g></svg>