<svg viewBox="0 0 330.0000305175781 200.00001525878906" xmlns="http://www.w3.org/2000/svg"><g><g><g><g><g><line x1="50.5625" y1="178" x2="45.5625" y2="178" style="visibility: inherit;" fill="rgb(0, 0, 0)" stroke="rgb(204, 204, 204)" stroke-width="1px"></line><line x1="50.5625" y1="163.16666666666666" x2="45.5625" y2="163.16666666666666" style="visibility: inherit;" fill="rgb(0, 0, 0)" stroke="rgb(204, 204, 204)" stroke-width="1px"></line><line x1="50.5625" y1="148.33333333333334" x2="45.5625" y2="148.33333333333334" style="visibility: inherit;" fill="rgb(0, 0, 0)" stroke="rgb(204, 204, 204)" stroke-width="1px"></line><line x1="50.5625" y1="133.5" x2="45.5625" y2="133.5" style="visibility: inherit;" fill="rgb(0, 0, 0)" stroke="rgb(204, 204, 204)" stroke-width="1px"></line><line x1="50.5625" y1="118.66666666666669" x2="45.5625" y2="118.66666666666669" style="visibility: inherit;" fill="rgb(0, 0, 0)" stroke="rgb(204, 204, 204)" stroke-width="1px"></line><line x1="50.5625" y1="103.83333333333334" x2="45.5625" y2="103.83333333333334" style="visibility: inherit;" fill="rgb(0, 0, 0)" stroke="rgb(204, 204, 204)" stroke-width="1px"></line><line x1="50.5625" y1="89.00000000000001" x2="45.5625" y2="89.00000000000001" style="visibility: inherit;" fill="rgb(0, 0, 0)" stroke="rgb(204, 204, 204)" stroke-width="1px"></line><line x1="50.5625" y1="74.16666666666669" x2="45.5625" y2="74.16666666666669" style="visibility: inherit;" fill="rgb(0, 0, 0)" stroke="rgb(204, 204, 204)" stroke-width="1px"></line><line x1="50.5625" y1="59.33333333333336" x2="45.5625" y2="59.33333333333336" style="visibility: inherit;" fill="rgb(0, 0, 0)" stroke="rgb(204, 204, 204)" stroke-width="1px"></line><line x1="50.5625" y1="44.50000000000002" x2="45.5625" y2="44.50000000000002" style="visibility: inherit;" fill="rgb(0, 0, 0)" stroke="rgb(204, 204, 204)" stroke-width="1px"></line><line x1="50.5625" y1="29.66666666666668" x2="45.5625" y2="29.66666666666668" style="visibility: inherit;" fill="rgb(0, 0, 0)" stroke="rgb(204, 204, 204)" stroke-width="1px"></line><line x1="50.5625" y1="14.83333333333334" x2="45.5625" y2="14.83333333333334" style="visibility: inherit;" fill="rgb(0, 0, 0)" stroke="rgb(204, 204, 204)" stroke-width="1px"></line><line x1="50.5625" y1="0" x2="45.5625" y2="0" style="visibility: inherit;" fill="rgb(0, 0, 0)" stroke="rgb(204, 204, 204)" stroke-width="1px"></line></g><g transform="translate(40.5625, 0)"><text x="0" y="178" dx="0em" dy="0.3em" style="text-anchor: end; visibility: hidden; font-family: Roboto, sans-serif; font-size: 12px; font-weight: 200;" fill="rgb(50, 49, 63)" stroke="none" stroke-width="1px">-0.1</text><text x="0" y="163.16666666666666" dx="0em" dy="0.3em" style="text-anchor: end; visibility: inherit; font-family: Roboto, sans-serif; font-size: 12px; font-weight: 200;" fill="rgb(50, 49, 63)" stroke="none" stroke-width="1px">0</text><text x="0" y="148.33333333333334" dx="0em" dy="0.3em" style="text-anchor: end; visibility: hidden; font-family: Roboto, sans-serif; font-size: 12px; font-weight: 200;" fill="rgb(50, 49, 63)" stroke="none" stroke-width="1px">0.1</text><text x="0" y="133.5" dx="0em" dy="0.3em" style="text-anchor: end; visibility: inherit; font-family: Roboto, sans-serif; font-size: 12px; font-weight: 200;" fill="rgb(50, 49, 63)" stroke="none" stroke-width="1px">0.2</text><text x="0" y="118.66666666666669" dx="0em" dy="0.3em" style="text-anchor: end; visibility: hidden; font-family: Roboto, sans-serif; font-size: 12px; font-weight: 200;" fill="rgb(50, 49, 63)" stroke="none" stroke-width="1px">0.3</text><text x="0" y="103.83333333333334" dx="0em" dy="0.3em" style="text-anchor: end; visibility: inherit; font-family: Roboto, sans-serif; font-size: 12px; font-weight: 200;" fill="rgb(50, 49, 63)" stroke="none" stroke-width="1px">0.4</text><text x="0" y="89.00000000000001" dx="0em" dy="0.3em" style="text-anchor: end; visibility: hidden; font-family: Roboto, sans-serif; font-size: 12px; font-weight: 200;" fill="rgb(50, 49, 63)" stroke="none" stroke-width="1px">0.5</text><text x="0" y="74.16666666666669" dx="0em" dy="0.3em" style="text-anchor: end; visibility: inherit; font-family: Roboto, sans-serif; font-size: 12px; font-weight: 200;" fill="rgb(50, 49, 63)" stroke="none" stroke-width="1px">0.6</text><text x="0" y="59.33333333333336" dx="0em" dy="0.3em" style="text-anchor: end; visibility: hidden; font-family: Roboto, sans-serif; font-size: 12px; font-weight: 200;" fill="rgb(50, 49, 63)" stroke="none" stroke-width="1px">0.7</text><text x="0" y="44.50000000000002" dx="0em" dy="0.3em" style="text-anchor: end; visibility: inherit; font-family: Roboto, sans-serif; font-size: 12px; font-weight: 200;" fill="rgb(50, 49, 63)" stroke="none" stroke-width="1px">0.8</text><text x="0" y="29.66666666666668" dx="0em" dy="0.3em" style="text-anchor: end; visibility: hidden; font-family: Roboto, sans-serif; font-size: 12px; font-weight: 200;" fill="rgb(50, 49, 63)" stroke="none" stroke-width="1px">0.9</text><text x="0" y="14.83333333333334" dx="0em" dy="0.3em" style="text-anchor: end; visibility: inherit; font-family: Roboto, sans-serif; font-size: 12px; font-weight: 200;" fill="rgb(50, 49, 63)" stroke="none" stroke-width="1px">1</text><text x="0" y="0" dx="0em" dy="0.3em" style="text-anchor: end; visibility: hidden; font-family: Roboto, sans-serif; font-size: 12px; font-weight: 200;" fill="rgb(50, 49, 63)" stroke="none" stroke-width="1px">1.1</text></g><line x1="50.5625" y1="0" x2="50.5625" y2="178" fill="rgb(0, 0, 0)" stroke="rgb(204, 204, 204)" stroke-width="1px"></line></g></g><g transform="translate(50, 0)" clip-path="url(#clip_0)"><clipPath id="clip_0"><rect width="279" height="177"></rect></clipPath><g><g><g><line x1="0" y1="0" x2="0" y2="178" fill="rgb(0, 0, 0)" stroke="rgb(60, 60, 60)" stroke-width="1px" opacity="0.25"></line><line x1="25.40340909090909" y1="0" x2="25.40340909090909" y2="178" fill="rgb(0, 0, 0)" stroke="rgb(60, 60, 60)" stroke-width="1px" opacity="0.25"></line><line x1="50.80681818181818" y1="0" x2="50.80681818181818" y2="178" fill="rgb(0, 0, 0)" stroke="rgb(60, 60, 60)" stroke-width="1px" opacity="0.25"></line><line x1="76.21022727272727" y1="0" x2="76.21022727272727" y2="178" fill="rgb(0, 0, 0)" stroke="rgb(60, 60, 60)" stroke-width="1px" opacity="0.25"></line><line x1="101.61363636363636" y1="0" x2="101.61363636363636" y2="178" fill="rgb(0, 0, 0)" stroke="rgb(60, 60, 60)" stroke-width="1px" opacity="0.25"></line><line x1="127.01704545454545" y1="0" x2="127.01704545454545" y2="178" fill="rgb(0, 0, 0)" stroke="rgb(60, 60, 60)" stroke-width="1px" opacity="0.25"></line><line x1="152.42045454545453" y1="0" x2="152.42045454545453" y2="178" fill="rgb(0, 0, 0)" stroke="rgb(60, 60, 60)" stroke-width="1px" opacity="0.25"></line><line x1="177.82386363636363" y1="0" x2="177.82386363636363" y2="178" fill="rgb(0, 0, 0)" stroke="rgb(60, 60, 60)" stroke-width="1px" opacity="0.25"></line><line x1="203.22727272727272" y1="0" x2="203.22727272727272" y2="178" fill="rgb(0, 0, 0)" stroke="rgb(60, 60, 60)" stroke-width="1px" opacity="0.25"></line><line x1="228.63068181818184" y1="0" x2="228.63068181818184" y2="178" fill="rgb(0, 0, 0)" stroke="rgb(60, 60, 60)" stroke-width="1px" opacity="0.25"></line><line x1="254.0340909090909" y1="0" x2="254.0340909090909" y2="178" fill="rgb(0, 0, 0)" stroke="rgb(60, 60, 60)" stroke-width="1px" opacity="0.25"></line><line x1="279.4375" y1="0" x2="279.4375" y2="178" fill="rgb(0, 0, 0)" stroke="rgb(60, 60, 60)" stroke-width="1px" opacity="0.25"></line></g><g><line x1="0" y1="178" x2="279.4375" y2="178" fill="rgb(0, 0, 0)" stroke="rgb(60, 60, 60)" stroke-width="1px" opacity="0.25"></line><line x1="0" y1="163.16666666666666" x2="279.4375" y2="163.16666666666666" fill="rgb(0, 0, 0)" stroke="rgb(60, 60, 60)" stroke-width="1px" opacity="0.25"></line><line x1="0" y1="148.33333333333334" x2="279.4375" y2="148.33333333333334" fill="rgb(0, 0, 0)" stroke="rgb(60, 60, 60)" stroke-width="1px" opacity="0.25"></line><line x1="0" y1="133.5" x2="279.4375" y2="133.5" fill="rgb(0, 0, 0)" stroke="rgb(60, 60, 60)" stroke-width="1px" opacity="0.25"></line><line x1="0" y1="118.66666666666669" x2="279.4375" y2="118.66666666666669" fill="rgb(0, 0, 0)" stroke="rgb(60, 60, 60)" stroke-width="1px" opacity="0.25"></line><line x1="0" y1="103.83333333333334" x2="279.4375" y2="103.83333333333334" fill="rgb(0, 0, 0)" stroke="rgb(60, 60, 60)" stroke-width="1px" opacity="0.25"></line><line x1="0" y1="89.00000000000001" x2="279.4375" y2="89.00000000000001" fill="rgb(0, 0, 0)" stroke="rgb(60, 60, 60)" stroke-width="1px" opacity="0.25"></line><line x1="0" y1="74.16666666666669" x2="279.4375" y2="74.16666666666669" fill="rgb(0, 0, 0)" stroke="rgb(60, 60, 60)" stroke-width="1px" opacity="0.25"></line><line x1="0" y1="59.33333333333336" x2="279.4375" y2="59.33333333333336" fill="rgb(0, 0, 0)" stroke="rgb(60, 60, 60)" stroke-width="1px" opacity="0.25"></line><line x1="0" y1="44.50000000000002" x2="279.4375" y2="44.50000000000002" fill="rgb(0, 0, 0)" stroke="rgb(60, 60, 60)" stroke-width="1px" opacity="0.25"></line><line x1="0" y1="29.66666666666668" x2="279.4375" y2="29.66666666666668" fill="rgb(0, 0, 0)" stroke="rgb(60, 60, 60)" stroke-width="1px" opacity="0.25"></line><line x1="0" y1="14.83333333333334" x2="279.4375" y2="14.83333333333334" fill="rgb(0, 0, 0)" stroke="rgb(60, 60, 60)" stroke-width="1px" opacity="0.25"></line><line x1="0" y1="0" x2="279.4375" y2="0" fill="rgb(0, 0, 0)" stroke="rgb(60, 60, 60)" stroke-width="1px" opacity="0.25"></line></g></g></g><g><g><line x1="0" y1="163.16666666666666" x2="279.4375" y2="163.16666666666666" fill="rgb(0, 0, 0)" stroke="rgb(153, 153, 153)" stroke-width="1.5px"></line></g></g><g><g><line x1="25.40340909090909" y1="0" x2="25.40340909090909" y2="178" fill="rgb(0, 0, 0)" stroke="rgb(153, 153, 153)" stroke-width="1.5px"></line></g></g><g><g><g><g><g><path stroke="rgb(0, 119, 187)" stroke-width="2px" d="M25.40340909090909,103.03153200944267L27.94375,103.03153200944267L30.48409090909091,103.03153200944263L33.02443181818182,103.03153200944267L35.564772727272725,103.03153200944267L38.10511363636363,103.03153200944267L40.64545454545454,103.03153200944267L43.185795454545456,103.03153200944267L45.726136363636364,103.03153200944267L48.26647727272727,103.03153200944267L50.80681818181818,103.03153200944267L53.347159090909095,103.03153200944267L55.8875,103.03153200944267L58.427840909090904,103.03153200944267L60.96818181818182,103.03153200944267L63.50852272727273,103.03153200944267L66.04886363636363,103.03153200944267L68.58920454545455,103.03153200944267L71.12954545454545,101.4278298702383L73.66988636363635,98.86200985164099L76.21022727272727,95.71893828546949L78.75056818181818,92.22951571901665L81.29090909090908,90.13589157353668L83.83125,88.8797276680477L86.37159090909091,84.91881518384467L88.91193181818181,82.54227490036766L91.45227272727273,81.11635332480789L93.99261363636364,78.65719768095441L96.53295454545454,75.57810202250131L99.07329545454546,72.1270423512217L101.61363636363636,63.64198852168876L104.15397727272727,58.55095694428549L106.69431818181819,55.49633825715745L109.23465909090909,53.66356713823362L111.775,47.75309647444108L114.31534090909092,44.20681414119288L116.85568181818181,42.079044764653794L119.39602272727272,40.80238314715786L121.93636363636364,40.03638617969424L124.47670454545454,39.57678800030826L127.01704545454545,39.30102909306988L129.55738636363637,39.135573748868396L132.09772727272727,39.03630054239844L134.63806818181817,38.97673661853485L137.1784090909091,38.940998264223275L139.71875,38.91955525163872L142.2590909090909,38.90668944408884L144.79943181818183,38.89896995955921L147.3397727272727,38.89433826884155L149.88011363636363,38.891559254411L152.42045454545453,38.88989184575269L154.96079545454546,38.8888914005577L157.50113636363636,38.8882911334407L160.0414772727273,38.887930973170505L162.58181818181816,38.8877148770084L165.1221590909091,38.88758521931113L167.6625,38.88750742469276L170.20284090909092,38.887460747921736L172.74318181818182,38.887432741859136L175.28352272727273,38.887415938221565L177.82386363636363,38.88740585603904L180.36420454545456,38.887399806729526L182.90454545454546,38.8873961771438L185.44488636363639,38.88739399939237L187.9852272727273,38.887392692741535L190.52556818181816,38.88739190875099L193.0659090909091,38.88739143835669L195.60625,38.88739115612011L198.14659090909092,38.88739098677815L200.68693181818182,38.88739088517297L203.22727272727272,38.88739082420986L205.76761363636362,38.887390787632015L208.30795454545455,38.88739076568528L210.84829545454545,38.887390752517284L213.38863636363638,38.887390744616454L215.92897727272728,38.88739073987595L218.46931818181818,38.887390737031666L221.00965909090908,38.887390735325084L223.55,38.887390734301135L226.0903409090909,38.88739073368678L228.63068181818184,38.887390733318135L231.1710227272727,38.88739073309698L233.71136363636361,38.88739073296428L236.25170454545454,38.88739073288466L238.79204545454544,38.88739073283688L241.33238636363637,37.283784548484604L243.87272727272727,36.321620837873205L246.41306818181818,37.34792879583002L248.95340909090908,37.96371357060411L251.49375,38.33318443546855L254.0340909090909,38.554866954387215L256.57443181818184,37.084270281414796" style="fill: none;" fill="none"></path></g><g><path stroke="rgb(255, 112, 67)" stroke-width="2px" d="M25.40340909090909,72.81817956765495L27.94375,72.81817956765495L30.48409090909091,72.81817956765495L33.02443181818182,72.81817956765495L35.564772727272725,72.81817956765495L38.10511363636363,72.81817956765495L40.64545454545454,72.81817956765495L43.185795454545456,72.81817956765495L45.726136363636364,72.81817956765495L48.26647727272727,72.81817956765495L50.80681818181818,72.81817956765495L53.347159090909095,72.81817956765495L55.8875,72.81817956765495L58.427840909090904,72.81817956765495L60.96818181818182,72.81817956765495L63.50852272727273,72.81817956765495L66.04886363636363,72.81817956765495L68.58920454545455,72.81817956765495L71.12954545454545,72.81817956765494L73.66988636363635,71.73935327408077L76.21022727272727,70.55267748449886L78.75056818181818,69.30128814681044L81.29090909090908,65.31407544050425L83.83125,60.76418050931371L86.37159090909091,56.4160724729768L88.91193181818181,53.26782121764189L91.45227272727273,50.839476387864714L93.99261363636364,48.84307732442104L96.53295454545454,47.64523867098051L99.07329545454546,45.847748672913895L101.61363636363636,43.69046793532544L104.15397727272727,40.77791573561764L106.69431818181819,39.03038456414506L109.23465909090909,36.903079033784195L111.775,34.54790888605486L114.31534090909092,33.13480682332896L116.85568181818181,32.286945595021635L119.39602272727272,31.23883543440471L121.93636363636364,31.14936276671487L124.47670454545454,28.938101926850955L127.01704545454545,27.071951999403975L129.55738636363637,25.952262043893725L132.09772727272727,25.280448070932383L134.63806818181817,24.877359687279764L137.1784090909091,24.096113232089017L139.71875,23.087971934005093L142.2590909090909,23.022480580202963L144.79943181818183,23.522579192923157L147.3397727272727,24.901425210538225L149.88011363636363,25.189339396103172L152.42045454545453,24.8226944824503L154.96079545454546,24.063314109270323L157.50113636363636,23.60768588536376L160.0414772727273,22.79491552603197L162.58181818181816,24.464827010386003L165.1221590909091,26.00616732598568L167.6625,26.391578090357243L170.20284090909092,25.004644274016506L172.74318181818182,23.63309055922435L175.28352272727273,22.810158330349154L177.82386363636363,23.934579267987456L180.36420454545456,24.609231830570433L182.90454545454546,23.935236518144592L185.44488636363639,22.991445905701305L187.9852272727273,23.50395838821095L190.52556818181816,24.350859302704496L193.0659090909091,24.85899985140066L195.60625,25.163884180618354L198.14659090909092,24.80742135316116L200.68693181818182,23.514756806711254L203.22727272727272,22.739158078841303L205.76761363636362,22.273798842119348L208.30795454545455,21.99458330008617L210.84829545454545,23.445234249829664L213.38863636363638,22.69744454471236L215.92897727272728,22.788164146629757L218.46931818181818,23.381989332768008L221.00965909090908,24.277677869438733L223.55,23.736304141465602L226.0903409090909,22.87208647969392L228.63068181818184,22.353555882630932L231.1710227272727,23.121224374368687L233.71136363636361,23.042432044423567L236.25170454545454,22.455763221468708L238.79204545454544,22.10376192769581L241.33238636363637,21.353167726444248L243.87272727272727,23.060384905644508L246.41306818181818,23.545321788176857L248.95340909090908,22.75749706772068L251.49375,22.284802235446975L254.0340909090909,22.001185336082766L256.57443181818184,22.37040862145201" style="fill: none;" fill="none"></path></g></g></g></g><g opacity="0.2"><g><g><g><path stroke="rgb(0, 119, 187)" stroke-width="2px" d="M25.40340909090909,103.03153200944267L27.94375,103.03153200944267L30.48409090909091,103.03153200944267L33.02443181818182,103.03153200944267L35.564772727272725,103.03153200944267L38.10511363636363,103.03153200944267L40.64545454545454,103.03153200944267L43.185795454545456,103.03153200944267L45.726136363636364,103.03153200944267L48.26647727272727,103.03153200944267L50.80681818181818,103.03153200944267L53.347159090909095,103.03153200944267L55.8875,103.03153200944267L58.427840909090904,103.03153200944267L60.96818181818182,103.03153200944267L63.50852272727273,103.03153200944267L66.04886363636363,103.03153200944267L68.58920454545455,103.03153200944267L71.12954545454545,99.02252096931142L73.66988636363635,95.01351434985799L76.21022727272727,91.00450330972673L78.75056818181818,86.9954966902733L81.29090909090908,86.9954966902733L83.83125,86.9954966902733L86.37159090909091,78.9774746100108L88.91193181818181,78.9774746100108L91.45227272727273,78.9774746100108L93.99261363636364,74.96846799055737L96.53295454545454,70.95946137110394L99.07329545454546,66.95045475165051L101.61363636363636,50.91441059112551L104.15397727272727,50.91441059112551L106.69431818181819,50.91441059112551L109.23465909090909,50.91441059112551L111.775,38.88739073276522L114.31534090909092,38.88739073276522L116.85568181818181,38.88739073276522L119.39602272727272,38.88739073276522L121.93636363636364,38.88739073276522L124.47670454545454,38.88739073276522L127.01704545454545,38.88739073276522L129.55738636363637,38.88739073276522L132.09772727272727,38.88739073276522L134.63806818181817,38.88739073276522L137.1784090909091,38.88739073276522L139.71875,38.88739073276522L142.2590909090909,38.88739073276522L144.79943181818183,38.88739073276522L147.3397727272727,38.88739073276522L149.88011363636363,38.88739073276522L152.42045454545453,38.88739073276522L154.96079545454546,38.88739073276522L157.50113636363636,38.88739073276522L160.0414772727273,38.88739073276522L162.58181818181816,38.88739073276522L165.1221590909091,38.88739073276522L167.6625,38.88739073276522L170.20284090909092,38.88739073276522L172.74318181818182,38.88739073276522L175.28352272727273,38.88739073276522L177.82386363636363,38.88739073276522L180.36420454545456,38.88739073276522L182.90454545454546,38.88739073276522L185.44488636363639,38.88739073276522L187.9852272727273,38.88739073276522L190.52556818181816,38.88739073276522L193.0659090909091,38.88739073276522L195.60625,38.88739073276522L198.14659090909092,38.88739073276522L200.68693181818182,38.88739073276522L203.22727272727272,38.88739073276522L205.76761363636362,38.88739073276522L208.30795454545455,38.88739073276522L210.84829545454545,38.88739073276522L213.38863636363638,38.88739073276522L215.92897727272728,38.88739073276522L218.46931818181818,38.88739073276522L221.00965909090908,38.88739073276522L223.55,38.88739073276522L226.0903409090909,38.88739073276522L228.63068181818184,38.88739073276522L231.1710227272727,38.88739073276522L233.71136363636361,38.88739073276522L236.25170454545454,38.88739073276522L238.79204545454544,38.88739073276522L241.33238636363637,34.87837527195616L243.87272727272727,34.87837527195616L246.41306818181818,38.88739073276522L248.95340909090908,38.88739073276522L251.49375,38.88739073276522L254.0340909090909,38.88739073276522L256.57443181818184,34.87837527195616" style="fill: none;" fill="none"></path></g><g><path stroke="rgb(255, 112, 67)" stroke-width="2px" d="M25.40340909090909,72.81817956765495L27.94375,72.81817956765495L30.48409090909091,72.81817956765495L33.02443181818182,72.81817956765495L35.564772727272725,72.81817956765495L38.10511363636363,72.81817956765495L40.64545454545454,72.81817956765495L43.185795454545456,72.81817956765495L45.726136363636364,72.81817956765495L48.26647727272727,72.81817956765495L50.80681818181818,72.81817956765495L53.347159090909095,72.81817956765495L55.8875,72.81817956765495L58.427840909090904,72.81817956765495L60.96818181818182,72.81817956765495L63.50852272727273,72.81817956765495L66.04886363636363,72.81817956765495L68.58920454545455,72.81817956765495L71.12954545454545,72.81817956765495L73.66988636363635,70.12121244271599L76.21022727272727,68.7727288802465L78.75056818181818,67.42424531777702L81.29090909090908,59.33333510160448L83.83125,53.9393920103709L86.37159090909091,49.893941322962455L88.91193181818181,48.54545776049297L91.45227272727273,47.19696535666786L93.99261363636364,45.84848179419838L96.53295454545454,45.84848179419838L99.07329545454546,43.15151466925941L101.61363636363636,40.45454754432045L104.15397727272727,36.40908801555636L106.69431818181819,36.40908801555636L109.23465909090909,33.71212089061739L111.775,31.015153765678427L114.31534090909092,31.015153765678427L116.85568181818181,31.015153765678427L119.39602272727272,29.666670203208945L121.93636363636364,31.015153765678427L124.47670454545454,25.621210674444846L127.01704545454545,24.272727111975364L129.55738636363637,24.272727111975364L132.09772727272727,24.272727111975364L134.63806818181817,24.272727111975364L137.1784090909091,22.92424354950588L139.71875,21.5757599870364L142.2590909090909,22.92424354950588L144.79943181818183,24.272727111975364L147.3397727272727,26.96969423691433L149.88011363636363,25.621210674444846L152.42045454545453,24.272727111975364L154.96079545454546,22.92424354950588L157.50113636363636,22.92424354950588L160.0414772727273,21.5757599870364L162.58181818181816,26.96969423691433L165.1221590909091,28.31817779938381L167.6625,26.96969423691433L170.20284090909092,22.92424354950588L172.74318181818182,21.5757599870364L175.28352272727273,21.5757599870364L177.82386363636363,25.621210674444846L180.36420454545456,25.621210674444846L182.90454545454546,22.92424354950588L185.44488636363639,21.5757599870364L187.9852272727273,24.272727111975364L190.52556818181816,25.621210674444846L193.0659090909091,25.621210674444846L195.60625,25.621210674444846L198.14659090909092,24.272727111975364L200.68693181818182,21.5757599870364L203.22727272727272,21.5757599870364L205.76761363636362,21.5757599870364L208.30795454545455,21.5757599870364L210.84829545454545,25.621210674444846L213.38863636363638,21.5757599870364L215.92897727272728,22.92424354950588L218.46931818181818,24.272727111975364L221.00965909090908,25.621210674444846L223.55,22.92424354950588L226.0903409090909,21.5757599870364L228.63068181818184,21.5757599870364L231.1710227272727,24.272727111975364L233.71136363636361,22.92424354950588L236.25170454545454,21.5757599870364L238.79204545454544,21.5757599870364L241.33238636363637,20.227276424566917L243.87272727272727,25.621210674444846L246.41306818181818,24.272727111975364L248.95340909090908,21.5757599870364L251.49375,21.5757599870364L254.0340909090909,21.5757599870364L256.57443181818184,22.92424354950588" style="fill: none;" fill="none"></path></g></g></g></g></g></g><g transform="translate(50, 178)" clip-path="url(#clip_1)"><clipPath id="clip_1"><rect width="279" height="21"></rect></clipPath><g><g><line x1="0" y1="0" x2="0" y2="5" style="visibility: inherit;" fill="rgb(0, 0, 0)" stroke="rgb(204, 204, 204)" stroke-width="1px"></line><line x1="25.40340909090909" y1="0" x2="25.40340909090909" y2="5" style="visibility: inherit;" fill="rgb(0, 0, 0)" stroke="rgb(204, 204, 204)" stroke-width="1px"></line><line x1="50.80681818181818" y1="0" x2="50.80681818181818" y2="5" style="visibility: inherit;" fill="rgb(0, 0, 0)" stroke="rgb(204, 204, 204)" stroke-width="1px"></line><line x1="76.21022727272727" y1="0" x2="76.21022727272727" y2="5" style="visibility: inherit;" fill="rgb(0, 0, 0)" stroke="rgb(204, 204, 204)" stroke-width="1px"></line><line x1="101.61363636363636" y1="0" x2="101.61363636363636" y2="5" style="visibility: inherit;" fill="rgb(0, 0, 0)" stroke="rgb(204, 204, 204)" stroke-width="1px"></line><line x1="127.01704545454545" y1="0" x2="127.01704545454545" y2="5" style="visibility: inherit;" fill="rgb(0, 0, 0)" stroke="rgb(204, 204, 204)" stroke-width="1px"></line><line x1="152.42045454545453" y1="0" x2="152.42045454545453" y2="5" style="visibility: inherit;" fill="rgb(0, 0, 0)" stroke="rgb(204, 204, 204)" stroke-width="1px"></line><line x1="177.82386363636363" y1="0" x2="177.82386363636363" y2="5" style="visibility: inherit;" fill="rgb(0, 0, 0)" stroke="rgb(204, 204, 204)" stroke-width="1px"></line><line x1="203.22727272727272" y1="0" x2="203.22727272727272" y2="5" style="visibility: inherit;" fill="rgb(0, 0, 0)" stroke="rgb(204, 204, 204)" stroke-width="1px"></line><line x1="228.63068181818184" y1="0" x2="228.63068181818184" y2="5" style="visibility: inherit;" fill="rgb(0, 0, 0)" stroke="rgb(204, 204, 204)" stroke-width="1px"></line><line x1="254.0340909090909" y1="0" x2="254.0340909090909" y2="5" style="visibility: inherit;" fill="rgb(0, 0, 0)" stroke="rgb(204, 204, 204)" stroke-width="1px"></line><line x1="279.4375" y1="0" x2="279.4375" y2="5" style="visibility: inherit;" fill="rgb(0, 0, 0)" stroke="rgb(204, 204, 204)" stroke-width="1px"></line></g><g transform="translate(0, 8)"><text x="0" y="0" dx="0em" dy="0.95em" style="text-anchor: middle; visibility: hidden; font-family: Roboto, sans-serif; font-size: 12px; font-weight: 200;" fill="rgb(50, 49, 63)" stroke="none" stroke-width="1px">-10</text><text x="25.40340909090909" y="0" dx="0em" dy="0.95em" style="text-anchor: middle; visibility: inherit; font-family: Roboto, sans-serif; font-size: 12px; font-weight: 200;" fill="rgb(50, 49, 63)" stroke="none" stroke-width="1px">0</text><text x="50.80681818181818" y="0" dx="0em" dy="0.95em" style="text-anchor: middle; visibility: inherit; font-family: Roboto, sans-serif; font-size: 12px; font-weight: 200;" fill="rgb(50, 49, 63)" stroke="none" stroke-width="1px">10</text><text x="76.21022727272727" y="0" dx="0em" dy="0.95em" style="text-anchor: middle; visibility: inherit; font-family: Roboto, sans-serif; font-size: 12px; font-weight: 200;" fill="rgb(50, 49, 63)" stroke="none" stroke-width="1px">20</text><text x="101.61363636363636" y="0" dx="0em" dy="0.95em" style="text-anchor: middle; visibility: inherit; font-family: Roboto, sans-serif; font-size: 12px; font-weight: 200;" fill="rgb(50, 49, 63)" stroke="none" stroke-width="1px">30</text><text x="127.01704545454545" y="0" dx="0em" dy="0.95em" style="text-anchor: middle; visibility: inherit; font-family: Roboto, sans-serif; font-size: 12px; font-weight: 200;" fill="rgb(50, 49, 63)" stroke="none" stroke-width="1px">40</text><text x="152.42045454545453" y="0" dx="0em" dy="0.95em" style="text-anchor: middle; visibility: inherit; font-family: Roboto, sans-serif; font-size: 12px; font-weight: 200;" fill="rgb(50, 49, 63)" stroke="none" stroke-width="1px">50</text><text x="177.82386363636363" y="0" dx="0em" dy="0.95em" style="text-anchor: middle; visibility: inherit; font-family: Roboto, sans-serif; font-size: 12px; font-weight: 200;" fill="rgb(50, 49, 63)" stroke="none" stroke-width="1px">60</text><text x="203.22727272727272" y="0" dx="0em" dy="0.95em" style="text-anchor: middle; visibility: inherit; font-family: Roboto, sans-serif; font-size: 12px; font-weight: 200;" fill="rgb(50, 49, 63)" stroke="none" stroke-width="1px">70</text><text x="228.63068181818184" y="0" dx="0em" dy="0.95em" style="text-anchor: middle; visibility: inherit; font-family: Roboto, sans-serif; font-size: 12px; font-weight: 200;" fill="rgb(50, 49, 63)" stroke="none" stroke-width="1px">80</text><text x="254.0340909090909" y="0" dx="0em" dy="0.95em" style="text-anchor: middle; visibility: inherit; font-family: Roboto, sans-serif; font-size: 12px; font-weight: 200;" fill="rgb(50, 49, 63)" stroke="none" stroke-width="1px">90</text><text x="279.4375" y="0" dx="0em" dy="0.95em" style="text-anchor: middle; visibility: hidden; font-family: Roboto, sans-serif; font-size: 12px; font-weight: 200;" fill="rgb(50, 49, 63)" stroke="none" stroke-width="1px">100</text></g><line x1="0" y1="0" x2="279.4375" y2="0" fill="rgb(0, 0, 0)" stroke="rgb(204, 204, 204)" stroke-width="1px"></line></g></g></g></g></svg>