<svg viewBox="0 0 330.0000305175781 200.00001525878906" xmlns="http://www.w3.org/2000/svg"><g><g><g><g><g><line x1="50.5625" y1="178" x2="45.5625" y2="178" style="visibility: inherit;" fill="rgb(0, 0, 0)" stroke="rgb(204, 204, 204)" stroke-width="1px"></line><line x1="50.5625" y1="158.2222222222222" x2="45.5625" y2="158.2222222222222" style="visibility: inherit;" fill="rgb(0, 0, 0)" stroke="rgb(204, 204, 204)" stroke-width="1px"></line><line x1="50.5625" y1="138.44444444444446" x2="45.5625" y2="138.44444444444446" style="visibility: inherit;" fill="rgb(0, 0, 0)" stroke="rgb(204, 204, 204)" stroke-width="1px"></line><line x1="50.5625" y1="118.66666666666666" x2="45.5625" y2="118.66666666666666" style="visibility: inherit;" fill="rgb(0, 0, 0)" stroke="rgb(204, 204, 204)" stroke-width="1px"></line><line x1="50.5625" y1="98.8888888888889" x2="45.5625" y2="98.8888888888889" style="visibility: inherit;" fill="rgb(0, 0, 0)" stroke="rgb(204, 204, 204)" stroke-width="1px"></line><line x1="50.5625" y1="79.1111111111111" x2="45.5625" y2="79.1111111111111" style="visibility: inherit;" fill="rgb(0, 0, 0)" stroke="rgb(204, 204, 204)" stroke-width="1px"></line><line x1="50.5625" y1="59.33333333333334" x2="45.5625" y2="59.33333333333334" style="visibility: inherit;" fill="rgb(0, 0, 0)" stroke="rgb(204, 204, 204)" stroke-width="1px"></line><line x1="50.5625" y1="39.55555555555557" x2="45.5625" y2="39.55555555555557" style="visibility: inherit;" fill="rgb(0, 0, 0)" stroke="rgb(204, 204, 204)" stroke-width="1px"></line><line x1="50.5625" y1="19.777777777777786" x2="45.5625" y2="19.777777777777786" style="visibility: inherit;" fill="rgb(0, 0, 0)" stroke="rgb(204, 204, 204)" stroke-width="1px"></line><line x1="50.5625" y1="0" x2="45.5625" y2="0" style="visibility: inherit;" fill="rgb(0, 0, 0)" stroke="rgb(204, 204, 204)" stroke-width="1px"></line></g><g transform="translate(40.5625, 0)"><text x="0" y="178" dx="0em" dy="0.3em" style="text-anchor: end; visibility: hidden; font-family: Roboto, sans-serif; font-size: 12px; font-weight: 200;" fill="rgb(50, 49, 63)" stroke="none" stroke-width="1px">-0.1</text><text x="0" y="158.2222222222222" dx="0em" dy="0.3em" style="text-anchor: end; visibility: inherit; font-family: Roboto, sans-serif; font-size: 12px; font-weight: 200;" fill="rgb(50, 49, 63)" stroke="none" stroke-width="1px">0</text><text x="0" y="138.44444444444446" dx="0em" dy="0.3em" style="text-anchor: end; visibility: hidden; font-family: Roboto, sans-serif; font-size: 12px; font-weight: 200;" fill="rgb(50, 49, 63)" stroke="none" stroke-width="1px">0.1</text><text x="0" y="118.66666666666666" dx="0em" dy="0.3em" style="text-anchor: end; visibility: inherit; font-family: Roboto, sans-serif; font-size: 12px; font-weight: 200;" fill="rgb(50, 49, 63)" stroke="none" stroke-width="1px">0.2</text><text x="0" y="98.8888888888889" dx="0em" dy="0.3em" style="text-anchor: end; visibility: hidden; font-family: Roboto, sans-serif; font-size: 12px; font-weight: 200;" fill="rgb(50, 49, 63)" stroke="none" stroke-width="1px">0.3</text><text x="0" y="79.1111111111111" dx="0em" dy="0.3em" style="text-anchor: end; visibility: inherit; font-family: Roboto, sans-serif; font-size: 12px; font-weight: 200;" fill="rgb(50, 49, 63)" stroke="none" stroke-width="1px">0.4</text><text x="0" y="59.33333333333334" dx="0em" dy="0.3em" style="text-anchor: end; visibility: hidden; font-family: Roboto, sans-serif; font-size: 12px; font-weight: 200;" fill="rgb(50, 49, 63)" stroke="none" stroke-width="1px">0.5</text><text x="0" y="39.55555555555557" dx="0em" dy="0.3em" style="text-anchor: end; visibility: inherit; font-family: Roboto, sans-serif; font-size: 12px; font-weight: 200;" fill="rgb(50, 49, 63)" stroke="none" stroke-width="1px">0.6</text><text x="0" y="19.777777777777786" dx="0em" dy="0.3em" style="text-anchor: end; visibility: hidden; font-family: Roboto, sans-serif; font-size: 12px; font-weight: 200;" fill="rgb(50, 49, 63)" stroke="none" stroke-width="1px">0.7</text><text x="0" y="0" dx="0em" dy="0.3em" style="text-anchor: end; visibility: hidden; font-family: Roboto, sans-serif; font-size: 12px; font-weight: 200;" fill="rgb(50, 49, 63)" stroke="none" stroke-width="1px">0.8</text></g><line x1="50.5625" y1="0" x2="50.5625" y2="178" fill="rgb(0, 0, 0)" stroke="rgb(204, 204, 204)" stroke-width="1px"></line></g></g><g transform="translate(50, 0)" clip-path="url(#clip_0)"><clipPath id="clip_0"><rect width="279" height="177"></rect></clipPath><g><g><g><line x1="0" y1="0" x2="0" y2="178" fill="rgb(0, 0, 0)" stroke="rgb(60, 60, 60)" stroke-width="1px" opacity="0.25"></line><line x1="31.04861111111111" y1="0" x2="31.04861111111111" y2="178" fill="rgb(0, 0, 0)" stroke="rgb(60, 60, 60)" stroke-width="1px" opacity="0.25"></line><line x1="62.09722222222222" y1="0" x2="62.09722222222222" y2="178" fill="rgb(0, 0, 0)" stroke="rgb(60, 60, 60)" stroke-width="1px" opacity="0.25"></line><line x1="93.14583333333333" y1="0" x2="93.14583333333333" y2="178" fill="rgb(0, 0, 0)" stroke="rgb(60, 60, 60)" stroke-width="1px" opacity="0.25"></line><line x1="124.19444444444444" y1="0" x2="124.19444444444444" y2="178" fill="rgb(0, 0, 0)" stroke="rgb(60, 60, 60)" stroke-width="1px" opacity="0.25"></line><line x1="155.24305555555557" y1="0" x2="155.24305555555557" y2="178" fill="rgb(0, 0, 0)" stroke="rgb(60, 60, 60)" stroke-width="1px" opacity="0.25"></line><line x1="186.29166666666666" y1="0" x2="186.29166666666666" y2="178" fill="rgb(0, 0, 0)" stroke="rgb(60, 60, 60)" stroke-width="1px" opacity="0.25"></line><line x1="217.34027777777777" y1="0" x2="217.34027777777777" y2="178" fill="rgb(0, 0, 0)" stroke="rgb(60, 60, 60)" stroke-width="1px" opacity="0.25"></line><line x1="248.38888888888889" y1="0" x2="248.38888888888889" y2="178" fill="rgb(0, 0, 0)" stroke="rgb(60, 60, 60)" stroke-width="1px" opacity="0.25"></line><line x1="279.4375" y1="0" x2="279.4375" y2="178" fill="rgb(0, 0, 0)" stroke="rgb(60, 60, 60)" stroke-width="1px" opacity="0.25"></line></g><g><line x1="0" y1="178" x2="279.4375" y2="178" fill="rgb(0, 0, 0)" stroke="rgb(60, 60, 60)" stroke-width="1px" opacity="0.25"></line><line x1="0" y1="158.2222222222222" x2="279.4375" y2="158.2222222222222" fill="rgb(0, 0, 0)" stroke="rgb(60, 60, 60)" stroke-width="1px" opacity="0.25"></line><line x1="0" y1="138.44444444444446" x2="279.4375" y2="138.44444444444446" fill="rgb(0, 0, 0)" stroke="rgb(60, 60, 60)" stroke-width="1px" opacity="0.25"></line><line x1="0" y1="118.66666666666666" x2="279.4375" y2="118.66666666666666" fill="rgb(0, 0, 0)" stroke="rgb(60, 60, 60)" stroke-width="1px" opacity="0.25"></line><line x1="0" y1="98.8888888888889" x2="279.4375" y2="98.8888888888889" fill="rgb(0, 0, 0)" stroke="rgb(60, 60, 60)" stroke-width="1px" opacity="0.25"></line><line x1="0" y1="79.1111111111111" x2="279.4375" y2="79.1111111111111" fill="rgb(0, 0, 0)" stroke="rgb(60, 60, 60)" stroke-width="1px" opacity="0.25"></line><line x1="0" y1="59.33333333333334" x2="279.4375" y2="59.33333333333334" fill="rgb(0, 0, 0)" stroke="rgb(60, 60, 60)" stroke-width="1px" opacity="0.25"></line><line x1="0" y1="39.55555555555557" x2="279.4375" y2="39.55555555555557" fill="rgb(0, 0, 0)" stroke="rgb(60, 60, 60)" stroke-width="1px" opacity="0.25"></line><line x1="0" y1="19.777777777777786" x2="279.4375" y2="19.777777777777786" fill="rgb(0, 0, 0)" stroke="rgb(60, 60, 60)" stroke-width="1px" opacity="0.25"></line><line x1="0" y1="0" x2="279.4375" y2="0" fill="rgb(0, 0, 0)" stroke="rgb(60, 60, 60)" stroke-width="1px" opacity="0.25"></line></g></g></g><g><g><line x1="0" y1="158.2222222222222" x2="279.4375" y2="158.2222222222222" fill="rgb(0, 0, 0)" stroke="rgb(153, 153, 153)" stroke-width="1.5px"></line></g></g><g><g><line x1="31.04861111111111" y1="0" x2="31.04861111111111" y2="178" fill="rgb(0, 0, 0)" stroke="rgb(153, 153, 153)" stroke-width="1.5px"></line></g></g><g><g><g><g><g><path stroke="rgb(0, 153, 136)" stroke-width="2px" d="M31.04861111111111,19.583730061848986L32.60104166666667,20.094060477283268L34.15347222222222,20.74221229012595L35.70590277777777,21.321909159519322L37.25833333333333,21.76589770945433L38.81076388888889,22.085190628818076L40.36319444444444,22.366756488444256L41.915625,22.687546131198523L43.46805555555556,22.9892526552081L45.02048611111111,23.51349772524491L46.572916666666664,24.068959300426542L48.125347222222224,24.51401496537077L49.67777777777778,25.07233302846795L51.23020833333333,25.6340053806751L52.78263888888889,26.12286981590948L54.33506944444444,26.80734987794577L55.8875,27.458906799671983L57.439930555555556,28.057028071908373L58.99236111111111,28.760379888425067L60.54479166666667,29.61804847492388L62.09722222222222,30.445313906168387L63.649652777777774,31.20401985422015L65.20208333333333,31.98917073761764L66.7545138888889,32.75895978902468L68.30694444444444,33.40108659902762L69.859375,34.01793469864149L71.41180555555555,34.92400877023138L72.96423611111112,36.11956507343759L74.51666666666667,37.249160341328746L76.06909722222221,38.320690083770984L77.62152777777779,39.35023205919087L79.17395833333333,40.382718150524845L80.72638888888888,41.5568574898089L82.27881944444445,42.61408993845241L83.83125,43.867649655702564L85.38368055555556,45.41254622347302L86.93611111111112,47.1533038322998L88.48854166666666,48.891665707154466L90.04097222222222,50.60539042610333L91.59340277777778,52.171646502340515L93.14583333333333,53.75743682515137L94.69826388888889,55.29870252814794L96.25069444444445,56.84863774361734L97.803125,58.232438625100386L99.35555555555555,59.57144132673274L100.90798611111111,61.136847561546965L102.46041666666666,63.1737939380732L104.01284722222222,65.32142064555103L105.56527777777778,67.40603696657217L107.11770833333334,69.46700972861854L108.67013888888889,71.43131947446905L110.22256944444445,73.35631378449986L111.775,75.14840902727619L113.32743055555555,76.8583576232716L114.87986111111111,78.97689671486565L116.43229166666667,80.88087261817893L117.98472222222222,82.59408201503682L119.53715277777778,84.07495619691188L121.08958333333334,85.55218060316722L122.64201388888888,87.04863951704158L124.19444444444444,88.58129355040613L125.746875,90.12256766064091L127.29930555555555,91.60432810142846L128.8517361111111,93.02666193047953L130.40416666666667,94.39223135060611L131.95659722222223,95.71047537652576L133.5090277777778,96.92116456174276L135.06145833333335,98.14873911837127L136.61388888888888,99.35217580337952L138.16631944444444,100.52974681473883L139.71875,101.66980348676708L141.27118055555556,102.76934583972059L142.8236111111111,103.81218015876837L144.37604166666668,104.84143322941121L145.92847222222224,105.78602799583018L147.48090277777777,106.78286847490527L149.03333333333333,107.75308538090265L150.5857638888889,108.67877645856785L152.13819444444442,109.54753700104011L153.690625,110.34808114161748L155.24305555555557,111.05647687840192L156.7954861111111,111.8062078016L158.34791666666666,112.62887924984412L159.90034722222222,113.43330410233992L161.45277777777775,114.18707623747105L163.00520833333334,114.88478733963703L164.5576388888889,115.57201556417837L166.11006944444443,116.18669222757646L167.6625,116.68412226749052L169.21493055555555,117.12063629151271L170.76736111111111,117.6775559878932L172.31979166666667,118.26440553843497L173.87222222222223,118.87070188576358L175.42465277777777,119.51635272164438L176.97708333333333,120.14140475705838L178.52951388888889,120.74906972795074L180.08194444444445,121.25579762839219L181.634375,121.62204450464677L183.18680555555557,121.96904331503171L184.7392361111111,122.25583517983272L186.29166666666666,122.59391559224159L187.84409722222225,122.91496569153166L189.39652777777778,123.45171545884907L190.94895833333334,124.04862656227554L192.5013888888889,124.60858365051367L194.05381944444443,125.0428525589385L195.60625,125.28603297764927L197.15868055555558,125.67407177332628L198.7111111111111,126.08567551373925L200.26354166666667,126.44424867391282L201.81597222222223,126.8712279146494L203.36840277777776,127.23390310413461L204.92083333333332,127.4445659853759L206.4732638888889,127.70199378357785L208.02569444444444,127.89353110806023L209.578125,128.1420228095471L211.13055555555556,128.14611016713627L212.6829861111111,128.58559079105817L214.23541666666668,128.9278057285259L215.78784722222224,129.23572978187264L217.34027777777777,129.447825222067L218.89270833333333,129.76262060666534L220.4451388888889,130.05526352377734L221.99756944444442,130.3570519633214L223.55,130.63218644144854L225.10243055555557,130.78443537417022L226.6548611111111,131.00479072224212L228.20729166666666,131.15482338866926L229.75972222222222,131.36586817993856L231.31215277777775,131.32624573975616L232.86458333333334,131.72483798081896L234.4170138888889,132.02940403218864L235.96944444444443,132.3069359628109L237.521875,132.553113377821L239.07430555555555,132.69772181581018L240.62673611111111,132.7515616701941L242.17916666666667,132.93926832266717L243.73159722222223,132.82627152780202L245.28402777777777,132.69267843989238L246.83645833333333,132.81919811662658L248.38888888888889,133.1886016703113L249.94131944444445,133.57174413063908L251.49375,133.83781197066378L253.04618055555557,133.9355508072889L254.5986111111111,133.9056396805806L256.15104166666663,134.05060853899894L257.7034722222222,134.25566144325495L259.2559027777778,134.51629827674458L260.80833333333334,134.57651059382894L262.36076388888887,134.4730288525314L263.91319444444446,134.36253338561468L265.465625,134.26166110009225L267.0180555555556,134.31265905230077" style="fill: none;" fill="none"></path></g><g><path stroke="rgb(238, 51, 119)" stroke-width="2px" d="M31.04861111111111,22.817119916280117L32.60104166666667,23.10082428322901L34.15347222222222,23.421006158906597L35.70590277777777,23.738970796656794L37.25833333333333,24.086871196534457L38.81076388888889,24.45303401176693L40.36319444444444,24.833724825390078L41.915625,25.22465264136637L43.46805555555556,25.62167827166796L45.02048611111111,26.073642454641973L46.572916666666664,26.564246458603176L48.125347222222224,27.061370729149058L49.67777777777778,27.61263632314856L51.23020833333333,28.186382822655144L52.78263888888889,28.75095233021436L54.33506944444444,29.355584856945082L55.8875,30.027585240149254L57.439930555555556,30.694796591253265L58.99236111111111,31.388164074708683L60.54479166666667,32.08353099880431L62.09722222222222,32.82198728145134L63.649652777777774,33.60621361670829L65.20208333333333,34.415409488094866L66.7545138888889,35.2573939234094L68.30694444444444,36.142959451601826L69.859375,36.98862556915398L71.41180555555555,37.95622795824149L72.96423611111112,38.933645627463626L74.51666666666667,39.99498291405312L76.06909722222221,41.11349992070139L77.62152777777779,42.30712708108225L79.17395833333333,43.583906568345924L80.72638888888888,44.92201700608837L82.27881944444445,46.287481101539825L83.83125,47.61900175381421L85.38368055555556,49.01103471159828L86.93611111111112,50.45256400070553L88.48854166666666,51.91274293253456L90.04097222222222,53.35344275683383L91.59340277777778,54.82444566264489L93.14583333333333,56.338687998590515L94.69826388888889,57.892324641951454L96.25069444444445,59.43477235947726L97.803125,61.00464142749226L99.35555555555555,62.52217048588319L100.90798611111111,64.05755014140797L102.46041666666666,65.69699308234266L104.01284722222222,67.36507408133934L105.56527777777778,69.07902163057922L107.11770833333334,70.82882120352713L108.67013888888889,72.59936573988104L110.22256944444445,74.39809250962804L111.775,76.17431267711407L113.32743055555555,77.74953320126963L114.87986111111111,79.21362479959095L116.43229166666667,80.94935882085461L117.98472222222222,82.63625356087793L119.53715277777778,84.2415958568571L121.08958333333334,85.6959326461029L122.64201388888888,87.11429392070018L124.19444444444444,88.53052086892L125.746875,89.88094890207746L127.29930555555555,91.22841120615026L128.8517361111111,92.50278559240355L130.40416666666667,93.7147474542021L131.95659722222223,94.88857099674033L133.5090277777778,96.03384836472208L135.06145833333335,97.11755076488798L136.61388888888888,98.18457257149521L138.16631944444444,99.17318222163858L139.71875,100.15387288143151L141.27118055555556,101.14903679072141L142.8236111111111,102.09721711689465L144.37604166666668,102.95390318680347L145.92847222222224,103.72977692129669L147.48090277777777,104.59650773484317L149.03333333333333,105.42513075411934L150.5857638888889,106.11682853597108L152.13819444444442,106.85002755422019L153.690625,107.49330521801286L155.24305555555557,108.13123276936517L156.7954861111111,108.78518668543467L158.34791666666666,109.40396847034859L159.90034722222222,110.00553127881443L161.45277777777775,110.58195519898268L163.00520833333334,111.12135272031719L164.5576388888889,111.61756624331159L166.11006944444443,112.12005072299027L167.6625,112.599809075177L169.21493055555555,113.0498746701759L170.76736111111111,113.42213424456207L172.31979166666667,113.84282197403168L173.87222222222223,114.27024394182715L175.42465277777777,114.68418524343119L176.97708333333333,115.07914795286466L178.52951388888889,115.38653106177057L180.08194444444445,115.73075015820254L181.634375,116.11393543832482L183.18680555555557,116.42344709951138L184.7392361111111,116.74981063370315L186.29166666666666,117.02931749018009L187.84409722222225,117.22919470782266L189.39652777777778,117.48932254078434L190.94895833333334,117.83086612612806L192.5013888888889,118.11170179917892L194.05381944444443,118.33469070955802L195.60625,118.55000960673371L197.15868055555558,118.82519766132654L198.7111111111111,119.09135540059249L200.26354166666667,119.2589789718915L201.81597222222223,119.44470126373743L203.36840277777776,119.63624203634829L204.92083333333332,119.87249229741967L206.4732638888889,120.09520215824968L208.02569444444444,120.30540836077368L209.578125,120.47805411682721L211.13055555555556,120.45564989487049L212.6829861111111,120.6491929280476L214.23541666666668,120.86673970679075L215.78784722222224,121.08431386744758L217.34027777777777,121.24649627086984L218.89270833333333,121.44447574595426L220.4451388888889,121.61281510341057L221.99756944444442,121.70906324739653L223.55,121.84328514469901L225.10243055555557,121.93255707899674L226.6548611111111,122.03638629351688L228.20729166666666,122.20483078036818L229.75972222222222,122.3459676750945L231.31215277777775,122.30151179258041L232.86458333333334,122.33760363619601L234.4170138888889,122.53458400358734L235.96944444444443,122.73968510767473L237.521875,122.87069002288307L239.07430555555555,122.9476213663681L240.62673611111111,123.10311944940865L242.17916666666667,123.13117380998706L243.73159722222223,123.33260332250568L245.28402777777777,123.45607689243937L246.83645833333333,123.59607393013202L248.38888888888889,123.75526257766677L249.94131944444445,123.79513534686335L251.49375,123.88335452545502L253.04618055555557,124.03267095527343L254.5986111111111,124.1183930147831L256.15104166666663,124.23966235043142L257.7034722222222,124.3280000627662L259.2559027777778,124.15863434384683L260.80833333333334,124.433350162502L262.36076388888887,124.61161497772817L263.91319444444446,124.67589487491034L265.465625,124.65238588698828L267.0180555555556,124.66093794162613" style="fill: none;" fill="none"></path></g></g></g></g><g opacity="0.2"><g><g><g><path stroke="rgb(0, 153, 136)" stroke-width="2px" d="M31.04861111111111,19.583730061848964L32.60104166666667,20.400258726543864L34.15347222222222,21.364438030454863L35.70590277777777,22.003632677925967L37.25833333333333,22.3455691602495L38.81076388888889,22.526887681749134L40.36319444444444,22.769400172763405L41.915625,23.155260509914836L43.46805555555556,23.434211174647025L45.02048611111111,24.291940556632156L46.572916666666664,24.89711366759407L48.125347222222224,25.179176489512137L49.67777777777778,25.907987117767334L51.23020833333333,26.475413534376372L52.78263888888889,26.855591826968727L54.33506944444444,27.833587222629127L55.8875,28.43596646520828L57.439930555555556,28.95405811733671L58.99236111111111,29.815300464630127L60.54479166666667,30.904472960366153L62.09722222222222,31.686166683832816L63.649652777777774,32.342053810755424L65.20208333333333,33.1668815612793L66.7545138888889,33.913634247250044L68.30694444444444,34.364272250069526L69.859375,34.943204217486915L71.41180555555555,36.28311755922106L72.96423611111112,37.91289769278633L74.51666666666667,38.943552202648604L76.06909722222221,39.92798410521614L77.62152777777779,40.8945446809133L79.17395833333333,41.93144708209568L80.72638888888888,43.318066358566284L82.27881944444445,44.19993853569031L83.83125,45.74798917770386L85.38368055555556,47.72989103529188L86.93611111111112,49.7644402186076L88.48854166666666,51.49920850329929L90.04097222222222,53.17597749498156L91.59340277777778,54.52103061146208L93.14583333333333,56.13612230618796L94.69826388888889,57.61060108078852L96.25069444444445,59.173540565702645L97.803125,60.30813994672564L99.35555555555555,61.57994537883335L100.90798611111111,63.48495691352421L102.46041666666666,66.22921350267198L104.01284722222222,68.54286070664725L105.56527777777778,70.53296144803366L107.11770833333334,72.55846887164647L108.67013888888889,74.37778409322104L110.22256944444445,76.24380524953207L111.775,77.83655189143288L113.32743055555555,79.42328051726025L114.87986111111111,82.1547053522534L116.43229166666667,83.7368364731471L117.98472222222222,85.16389611032274L119.53715277777778,86.29626746972403L121.08958333333334,87.76801721254986L122.64201388888888,89.293327887853L124.19444444444444,90.88027460045284L125.746875,92.434478825993L127.29930555555555,93.82696876260971L128.8517361111111,95.16016267405617L130.40416666666667,96.44058548079597L131.95659722222223,97.68784141540527L133.5090277777778,98.73719833956825L135.06145833333335,99.99010095331406L136.61388888888888,101.15733083089194L138.16631944444444,102.2961033317778L139.71875,103.37988849480948L141.27118055555556,104.41865936915082L142.8236111111111,105.37643163734013L144.37604166666668,106.38531283537549L145.92847222222224,107.20292014545863L147.48090277777777,108.27812919351791L149.03333333333333,109.20841073989868L150.5857638888889,110.06731307506561L152.13819444444442,110.85067781474855L153.690625,111.54889735248354L155.24305555555557,112.11907048357857L156.7954861111111,112.93080418639714L158.34791666666666,113.86288642221028L159.90034722222222,114.6399413810836L161.45277777777775,115.31773444016775L163.00520833333334,115.931353992886L164.5576388888889,116.60285790099037L166.11006944444443,117.10870722267364L167.6625,117.43026732736165L169.21493055555555,117.775407327546L170.76736111111111,118.51293553246391L172.31979166666667,119.14467986424765L173.87222222222223,119.78014640675651L175.42465277777777,120.48482897546556L176.97708333333333,121.07898281017941L178.52951388888889,121.6605671842893L180.08194444444445,122.01588947905434L181.634375,122.17141481902864L183.18680555555557,122.48954153060913L184.7392361111111,122.68602297703427L186.29166666666666,123.10103621085486L187.84409722222225,123.39654084046683L189.39652777777778,124.25684010982513L190.94895833333334,124.94399321741527L192.5013888888889,125.44851928287083L194.05381944444443,125.69425592157577L195.60625,125.65080360571545L197.15868055555558,126.25612996684181L198.7111111111111,126.70308112435872L200.26354166666667,126.98210841417313L201.81597222222223,127.5116967757543L203.36840277777776,127.77791588836247L204.92083333333332,127.76056030723785L206.4732638888889,128.08813548088074L208.02569444444444,128.18083709478378L209.578125,128.51476036177743L211.13055555555556,128.15224120352005L212.6829861111111,129.24481172694098L214.23541666666668,129.44112813472748L215.78784722222224,129.6976158618927L217.34027777777777,129.76596838235855L218.89270833333333,130.2348136835628L220.4451388888889,130.4942278994454L221.99756944444442,130.80973462263745L223.55,131.04488815863925L225.10243055555557,131.0128087732527L226.6548611111111,131.33532374435L228.20729166666666,131.3798723883099L229.75972222222222,131.68243536684247L231.31215277777775,131.2668120794826L232.86458333333334,132.32272634241315L234.4170138888889,132.4862531092432L235.96944444444443,132.72323385874432L237.521875,132.92237950033612L239.07430555555555,132.914634472794L240.62673611111111,132.83232145176996L242.17916666666667,133.22082830137677L243.73159722222223,132.65677633550433L245.28402777777777,132.49228880802792L246.83645833333333,133.00897763172787L248.38888888888889,133.7427070008384L249.94131944444445,134.14645782113075L251.49375,134.23691373070082L253.04618055555557,134.08215906222662L254.5986111111111,133.86077299051814L256.15104166666663,134.26806182662645L257.7034722222222,134.56324079963895L259.2559027777778,134.90725352697902L260.80833333333334,134.66682906945547L262.36076388888887,134.31780624058513L263.91319444444446,134.1967901852396L265.465625,134.11035267180867L267.0180555555556,134.3891559806135" style="fill: none;" fill="none"></path></g><g><path stroke="rgb(238, 51, 119)" stroke-width="2px" d="M31.04861111111111,22.817119916280117L32.60104166666667,23.271046903398304L34.15347222222222,23.728380759557094L35.70590277777777,24.112897210650978L37.25833333333333,24.541089958614787L38.81076388888889,24.959569003846912L40.36319444444444,25.378118779924183L41.915625,25.794629149966774L43.46805555555556,26.207213958104457L45.02048611111111,26.744756592644595L46.572916666666664,27.295702722337513L48.125347222222224,27.804351806640625L49.67777777777778,28.437734736336612L51.23020833333333,29.04587854279413L52.78263888888889,29.59714296129015L54.33506944444444,30.262107213338222L55.8875,31.035301446914673L57.439930555555556,31.695444213019485L58.99236111111111,32.428109672334465L60.54479166666667,33.12651782565647L62.09722222222222,33.929631206724395L63.649652777777774,34.78252731429207L65.20208333333333,35.62918731901382L66.7545138888889,36.520360602272895L68.30694444444444,37.471301449669745L69.859375,38.257121139102516L71.41180555555555,39.407629066043434L72.96423611111112,40.399770630730536L74.51666666666667,41.58698786629572L76.06909722222221,42.79127481248644L77.62152777777779,44.097567425833816L79.17395833333333,45.499075545205024L80.72638888888888,46.929182502958504L82.27881944444445,48.33567714691162L83.83125,49.61628267500135L85.38368055555556,51.09908411237928L86.93611111111112,52.6148579120636L88.48854166666666,54.10301131672331L90.04097222222222,55.51449248525831L91.59340277777778,57.0309500164456L93.14583333333333,58.61005149947273L94.69826388888889,60.222779605123726L96.25069444444445,61.748443934652535L97.803125,63.35944502883488L99.35555555555555,64.7984640730752L100.90798611111111,66.36061962445578L102.46041666666666,68.15615749359131L104.01284722222222,69.86719557974074L105.56527777777778,71.64994295438132L107.11770833333334,73.45352056291368L108.67013888888889,75.25518254439038L110.22256944444445,77.09618266423544L111.775,78.8386429283354L113.32743055555555,80.11236398749882L114.87986111111111,81.40976219707066L116.43229166666667,83.55295985274846L117.98472222222222,85.166595670912L119.53715277777778,86.64960930082533L121.08958333333334,87.87743782997131L122.64201388888888,89.24183583259583L124.19444444444444,90.6548612912496L125.746875,91.9065909518136L127.29930555555555,93.24960466225943L128.8517361111111,94.41434717178345L130.40416666666667,95.53269024689993L131.95659722222223,96.64930631054773L133.5090277777778,97.75176441669464L135.06145833333335,98.74310436513689L136.61388888888888,99.78510528140599L138.16631944444444,100.65609669685364L139.71875,101.62490887112087L141.27118055555556,102.64178265465631L142.8236111111111,103.51948760615456L144.37604166666668,104.23893229166669L145.92847222222224,104.89358752303654L147.48090277777777,105.8966039551629L149.03333333333333,106.6680652830336L150.5857638888889,107.15437520874872L152.13819444444442,107.94982608159384L153.690625,108.4582217137019L155.24305555555557,109.08812409639359L156.7954861111111,109.76611755953896L158.34791666666666,110.3321411477195L159.90034722222222,110.90787549151315L161.45277777777775,111.44659107923508L163.00520833333334,111.93044900231892L164.5576388888889,112.36188652780321L166.11006944444443,112.87377744250828L167.6625,113.31944660345715L169.21493055555555,113.72497306267422L170.76736111111111,113.98052360614142L172.31979166666667,114.47385356823605L173.87222222222223,114.91137689352036L175.42465277777777,115.30509719583725L176.97708333333333,115.67159201701483L178.52951388888889,115.84760572512945L180.08194444444445,116.24707880285051L181.634375,116.68871335850822L183.18680555555557,116.88771459129121L184.7392361111111,117.23935593499077L186.29166666666666,117.44857777489555L187.84409722222225,117.5290105342865L189.39652777777778,117.87951429022682L190.94895833333334,118.3431815041436L192.5013888888889,118.53295530875525L194.05381944444443,118.66917407512665L195.60625,118.87298795249727L197.15868055555558,119.23797974321579L198.7111111111111,119.49059200949138L200.26354166666667,119.51041432884004L201.81597222222223,119.72328470150632L203.36840277777776,119.9235531952646L204.92083333333332,120.22686768902672L206.4732638888889,120.42926694949469L208.02569444444444,120.62071766455969L209.578125,120.73702275090749L211.13055555555556,120.42204356193542L212.6829861111111,120.93950747781331L214.23541666666668,121.19305987490547L215.78784722222224,121.41067510843277L217.34027777777777,121.48976987600327L218.89270833333333,121.74144495858086L220.4451388888889,121.86532413959503L221.99756944444442,121.8534354633755L223.55,122.04461799065274L225.10243055555557,122.06646498044333L226.6548611111111,122.1921301152971L228.20729166666666,122.45749751064514L229.75972222222222,122.55767301718396L231.31215277777775,122.23482796880936L232.86458333333334,122.39174140161937L234.4170138888889,122.83005455467438L235.96944444444443,123.0473367638058L237.521875,123.06719739569557L239.07430555555555,123.06301838159561L240.62673611111111,123.33636657396954L242.17916666666667,123.17325535085466L243.73159722222223,123.63474759128358L245.28402777777777,123.6412872473399L246.83645833333333,123.80606948667103L248.38888888888889,123.99404554896886L249.94131944444445,123.85494450065826L251.49375,124.01568329334259L253.04618055555557,124.25664560000104L254.5986111111111,124.24697610404756L256.15104166666663,124.42156635390388L257.7034722222222,124.46050663126839L259.2559027777778,123.90458576546776L260.80833333333334,124.8454238904847L262.36076388888887,124.87901220056747L263.91319444444446,124.77231472068364L265.465625,124.61712240510518L267.0180555555556,124.67376602358287" style="fill: none;" fill="none"></path></g></g></g></g></g></g><g transform="translate(50, 178)" clip-path="url(#clip_1)"><clipPath id="clip_1"><rect width="279" height="21"></rect></clipPath><g><g><line x1="0" y1="0" x2="0" y2="5" style="visibility: inherit;" fill="rgb(0, 0, 0)" stroke="rgb(204, 204, 204)" stroke-width="1px"></line><line x1="31.04861111111111" y1="0" x2="31.04861111111111" y2="5" style="visibility: inherit;" fill="rgb(0, 0, 0)" stroke="rgb(204, 204, 204)" stroke-width="1px"></line><line x1="62.09722222222222" y1="0" x2="62.09722222222222" y2="5" style="visibility: inherit;" fill="rgb(0, 0, 0)" stroke="rgb(204, 204, 204)" stroke-width="1px"></line><line x1="93.14583333333333" y1="0" x2="93.14583333333333" y2="5" style="visibility: inherit;" fill="rgb(0, 0, 0)" stroke="rgb(204, 204, 204)" stroke-width="1px"></line><line x1="124.19444444444444" y1="0" x2="124.19444444444444" y2="5" style="visibility: inherit;" fill="rgb(0, 0, 0)" stroke="rgb(204, 204, 204)" stroke-width="1px"></line><line x1="155.24305555555557" y1="0" x2="155.24305555555557" y2="5" style="visibility: inherit;" fill="rgb(0, 0, 0)" stroke="rgb(204, 204, 204)" stroke-width="1px"></line><line x1="186.29166666666666" y1="0" x2="186.29166666666666" y2="5" style="visibility: inherit;" fill="rgb(0, 0, 0)" stroke="rgb(204, 204, 204)" stroke-width="1px"></line><line x1="217.34027777777777" y1="0" x2="217.34027777777777" y2="5" style="visibility: inherit;" fill="rgb(0, 0, 0)" stroke="rgb(204, 204, 204)" stroke-width="1px"></line><line x1="248.38888888888889" y1="0" x2="248.38888888888889" y2="5" style="visibility: inherit;" fill="rgb(0, 0, 0)" stroke="rgb(204, 204, 204)" stroke-width="1px"></line><line x1="279.4375" y1="0" x2="279.4375" y2="5" style="visibility: inherit;" fill="rgb(0, 0, 0)" stroke="rgb(204, 204, 204)" stroke-width="1px"></line></g><g transform="translate(0, 8)"><text x="0" y="0" dx="0em" dy="0.95em" style="text-anchor: middle; visibility: hidden; font-family: Roboto, sans-serif; font-size: 12px; font-weight: 200;" fill="rgb(50, 49, 63)" stroke="none" stroke-width="1px">-20</text><text x="31.04861111111111" y="0" dx="0em" dy="0.95em" style="text-anchor: middle; visibility: inherit; font-family: Roboto, sans-serif; font-size: 12px; font-weight: 200;" fill="rgb(50, 49, 63)" stroke="none" stroke-width="1px">0</text><text x="62.09722222222222" y="0" dx="0em" dy="0.95em" style="text-anchor: middle; visibility: inherit; font-family: Roboto, sans-serif; font-size: 12px; font-weight: 200;" fill="rgb(50, 49, 63)" stroke="none" stroke-width="1px">20</text><text x="93.14583333333333" y="0" dx="0em" dy="0.95em" style="text-anchor: middle; visibility: inherit; font-family: Roboto, sans-serif; font-size: 12px; font-weight: 200;" fill="rgb(50, 49, 63)" stroke="none" stroke-width="1px">40</text><text x="124.19444444444444" y="0" dx="0em" dy="0.95em" style="text-anchor: middle; visibility: inherit; font-family: Roboto, sans-serif; font-size: 12px; font-weight: 200;" fill="rgb(50, 49, 63)" stroke="none" stroke-width="1px">60</text><text x="155.24305555555557" y="0" dx="0em" dy="0.95em" style="text-anchor: middle; visibility: inherit; font-family: Roboto, sans-serif; font-size: 12px; font-weight: 200;" fill="rgb(50, 49, 63)" stroke="none" stroke-width="1px">80</text><text x="186.29166666666666" y="0" dx="0em" dy="0.95em" style="text-anchor: middle; visibility: inherit; font-family: Roboto, sans-serif; font-size: 12px; font-weight: 200;" fill="rgb(50, 49, 63)" stroke="none" stroke-width="1px">100</text><text x="217.34027777777777" y="0" dx="0em" dy="0.95em" style="text-anchor: middle; visibility: inherit; font-family: Roboto, sans-serif; font-size: 12px; font-weight: 200;" fill="rgb(50, 49, 63)" stroke="none" stroke-width="1px">120</text><text x="248.38888888888889" y="0" dx="0em" dy="0.95em" style="text-anchor: middle; visibility: inherit; font-family: Roboto, sans-serif; font-size: 12px; font-weight: 200;" fill="rgb(50, 49, 63)" stroke="none" stroke-width="1px">140</text><text x="279.4375" y="0" dx="0em" dy="0.95em" style="text-anchor: middle; visibility: hidden; font-family: Roboto, sans-serif; font-size: 12px; font-weight: 200;" fill="rgb(50, 49, 63)" stroke="none" stroke-width="1px">160</text></g><line x1="0" y1="0" x2="279.4375" y2="0" fill="rgb(0, 0, 0)" stroke="rgb(204, 204, 204)" stroke-width="1px"></line></g></g></g></g></svg>