<svg viewBox="0 0 330.0000305175781 200.00001525878906" xmlns="http://www.w3.org/2000/svg"><g><g><g><g><g><line x1="50.5625" y1="178" x2="45.5625" y2="178" style="visibility: inherit;" fill="rgb(0, 0, 0)" stroke="rgb(204, 204, 204)" stroke-width="1px"></line><line x1="50.5625" y1="165.28571428571428" x2="45.5625" y2="165.28571428571428" style="visibility: inherit;" fill="rgb(0, 0, 0)" stroke="rgb(204, 204, 204)" stroke-width="1px"></line><line x1="50.5625" y1="152.57142857142858" x2="45.5625" y2="152.57142857142858" style="visibility: inherit;" fill="rgb(0, 0, 0)" stroke="rgb(204, 204, 204)" stroke-width="1px"></line><line x1="50.5625" y1="139.85714285714286" x2="45.5625" y2="139.85714285714286" style="visibility: inherit;" fill="rgb(0, 0, 0)" stroke="rgb(204, 204, 204)" stroke-width="1px"></line><line x1="50.5625" y1="127.14285714285717" x2="45.5625" y2="127.14285714285717" style="visibility: inherit;" fill="rgb(0, 0, 0)" stroke="rgb(204, 204, 204)" stroke-width="1px"></line><line x1="50.5625" y1="114.42857142857143" x2="45.5625" y2="114.42857142857143" style="visibility: inherit;" fill="rgb(0, 0, 0)" stroke="rgb(204, 204, 204)" stroke-width="1px"></line><line x1="50.5625" y1="101.71428571428575" x2="45.5625" y2="101.71428571428575" style="visibility: inherit;" fill="rgb(0, 0, 0)" stroke="rgb(204, 204, 204)" stroke-width="1px"></line><line x1="50.5625" y1="89" x2="45.5625" y2="89" style="visibility: inherit;" fill="rgb(0, 0, 0)" stroke="rgb(204, 204, 204)" stroke-width="1px"></line><line x1="50.5625" y1="76.28571428571429" x2="45.5625" y2="76.28571428571429" style="visibility: inherit;" fill="rgb(0, 0, 0)" stroke="rgb(204, 204, 204)" stroke-width="1px"></line><line x1="50.5625" y1="63.571428571428605" x2="45.5625" y2="63.571428571428605" style="visibility: inherit;" fill="rgb(0, 0, 0)" stroke="rgb(204, 204, 204)" stroke-width="1px"></line><line x1="50.5625" y1="50.857142857142875" x2="45.5625" y2="50.857142857142875" style="visibility: inherit;" fill="rgb(0, 0, 0)" stroke="rgb(204, 204, 204)" stroke-width="1px"></line><line x1="50.5625" y1="38.14285714285717" x2="45.5625" y2="38.14285714285717" style="visibility: inherit;" fill="rgb(0, 0, 0)" stroke="rgb(204, 204, 204)" stroke-width="1px"></line><line x1="50.5625" y1="25.428571428571455" x2="45.5625" y2="25.428571428571455" style="visibility: inherit;" fill="rgb(0, 0, 0)" stroke="rgb(204, 204, 204)" stroke-width="1px"></line><line x1="50.5625" y1="12.714285714285728" x2="45.5625" y2="12.714285714285728" style="visibility: inherit;" fill="rgb(0, 0, 0)" stroke="rgb(204, 204, 204)" stroke-width="1px"></line><line x1="50.5625" y1="0" x2="45.5625" y2="0" style="visibility: inherit;" fill="rgb(0, 0, 0)" stroke="rgb(204, 204, 204)" stroke-width="1px"></line></g><g transform="translate(40.5625, 0)"><text x="0" y="178" dx="0em" dy="0.3em" style="text-anchor: end; visibility: hidden; font-family: Roboto, sans-serif; font-size: 12px; font-weight: 200;" fill="rgb(50, 49, 63)" stroke="none" stroke-width="1px">0.4</text><text x="0" y="165.28571428571428" dx="0em" dy="0.3em" style="text-anchor: end; visibility: inherit; font-family: Roboto, sans-serif; font-size: 12px; font-weight: 200;" fill="rgb(50, 49, 63)" stroke="none" stroke-width="1px">0.45</text><text x="0" y="152.57142857142858" dx="0em" dy="0.3em" style="text-anchor: end; visibility: hidden; font-family: Roboto, sans-serif; font-size: 12px; font-weight: 200;" fill="rgb(50, 49, 63)" stroke="none" stroke-width="1px">0.5</text><text x="0" y="139.85714285714286" dx="0em" dy="0.3em" style="text-anchor: end; visibility: inherit; font-family: Roboto, sans-serif; font-size: 12px; font-weight: 200;" fill="rgb(50, 49, 63)" stroke="none" stroke-width="1px">0.55</text><text x="0" y="127.14285714285717" dx="0em" dy="0.3em" style="text-anchor: end; visibility: hidden; font-family: Roboto, sans-serif; font-size: 12px; font-weight: 200;" fill="rgb(50, 49, 63)" stroke="none" stroke-width="1px">0.6</text><text x="0" y="114.42857142857143" dx="0em" dy="0.3em" style="text-anchor: end; visibility: inherit; font-family: Roboto, sans-serif; font-size: 12px; font-weight: 200;" fill="rgb(50, 49, 63)" stroke="none" stroke-width="1px">0.65</text><text x="0" y="101.71428571428575" dx="0em" dy="0.3em" style="text-anchor: end; visibility: hidden; font-family: Roboto, sans-serif; font-size: 12px; font-weight: 200;" fill="rgb(50, 49, 63)" stroke="none" stroke-width="1px">0.7</text><text x="0" y="89" dx="0em" dy="0.3em" style="text-anchor: end; visibility: inherit; font-family: Roboto, sans-serif; font-size: 12px; font-weight: 200;" fill="rgb(50, 49, 63)" stroke="none" stroke-width="1px">0.75</text><text x="0" y="76.28571428571429" dx="0em" dy="0.3em" style="text-anchor: end; visibility: hidden; font-family: Roboto, sans-serif; font-size: 12px; font-weight: 200;" fill="rgb(50, 49, 63)" stroke="none" stroke-width="1px">0.8</text><text x="0" y="63.571428571428605" dx="0em" dy="0.3em" style="text-anchor: end; visibility: inherit; font-family: Roboto, sans-serif; font-size: 12px; font-weight: 200;" fill="rgb(50, 49, 63)" stroke="none" stroke-width="1px">0.85</text><text x="0" y="50.857142857142875" dx="0em" dy="0.3em" style="text-anchor: end; visibility: hidden; font-family: Roboto, sans-serif; font-size: 12px; font-weight: 200;" fill="rgb(50, 49, 63)" stroke="none" stroke-width="1px">0.9</text><text x="0" y="38.14285714285717" dx="0em" dy="0.3em" style="text-anchor: end; visibility: inherit; font-family: Roboto, sans-serif; font-size: 12px; font-weight: 200;" fill="rgb(50, 49, 63)" stroke="none" stroke-width="1px">0.95</text><text x="0" y="25.428571428571455" dx="0em" dy="0.3em" style="text-anchor: end; visibility: hidden; font-family: Roboto, sans-serif; font-size: 12px; font-weight: 200;" fill="rgb(50, 49, 63)" stroke="none" stroke-width="1px">1</text><text x="0" y="12.714285714285728" dx="0em" dy="0.3em" style="text-anchor: end; visibility: inherit; font-family: Roboto, sans-serif; font-size: 12px; font-weight: 200;" fill="rgb(50, 49, 63)" stroke="none" stroke-width="1px">1.05</text><text x="0" y="0" dx="0em" dy="0.3em" style="text-anchor: end; visibility: hidden; font-family: Roboto, sans-serif; font-size: 12px; font-weight: 200;" fill="rgb(50, 49, 63)" stroke="none" stroke-width="1px">1.1</text></g><line x1="50.5625" y1="0" x2="50.5625" y2="178" fill="rgb(0, 0, 0)" stroke="rgb(204, 204, 204)" stroke-width="1px"></line></g></g><g transform="translate(50, 0)" clip-path="url(#clip_0)"><clipPath id="clip_0"><rect width="279" height="177"></rect></clipPath><g><g><g><line x1="0" y1="0" x2="0" y2="178" fill="rgb(0, 0, 0)" stroke="rgb(60, 60, 60)" stroke-width="1px" opacity="0.25"></line><line x1="31.04861111111111" y1="0" x2="31.04861111111111" y2="178" fill="rgb(0, 0, 0)" stroke="rgb(60, 60, 60)" stroke-width="1px" opacity="0.25"></line><line x1="62.09722222222222" y1="0" x2="62.09722222222222" y2="178" fill="rgb(0, 0, 0)" stroke="rgb(60, 60, 60)" stroke-width="1px" opacity="0.25"></line><line x1="93.14583333333333" y1="0" x2="93.14583333333333" y2="178" fill="rgb(0, 0, 0)" stroke="rgb(60, 60, 60)" stroke-width="1px" opacity="0.25"></line><line x1="124.19444444444444" y1="0" x2="124.19444444444444" y2="178" fill="rgb(0, 0, 0)" stroke="rgb(60, 60, 60)" stroke-width="1px" opacity="0.25"></line><line x1="155.24305555555557" y1="0" x2="155.24305555555557" y2="178" fill="rgb(0, 0, 0)" stroke="rgb(60, 60, 60)" stroke-width="1px" opacity="0.25"></line><line x1="186.29166666666666" y1="0" x2="186.29166666666666" y2="178" fill="rgb(0, 0, 0)" stroke="rgb(60, 60, 60)" stroke-width="1px" opacity="0.25"></line><line x1="217.34027777777777" y1="0" x2="217.34027777777777" y2="178" fill="rgb(0, 0, 0)" stroke="rgb(60, 60, 60)" stroke-width="1px" opacity="0.25"></line><line x1="248.38888888888889" y1="0" x2="248.38888888888889" y2="178" fill="rgb(0, 0, 0)" stroke="rgb(60, 60, 60)" stroke-width="1px" opacity="0.25"></line><line x1="279.4375" y1="0" x2="279.4375" y2="178" fill="rgb(0, 0, 0)" stroke="rgb(60, 60, 60)" stroke-width="1px" opacity="0.25"></line></g><g><line x1="0" y1="178" x2="279.4375" y2="178" fill="rgb(0, 0, 0)" stroke="rgb(60, 60, 60)" stroke-width="1px" opacity="0.25"></line><line x1="0" y1="165.28571428571428" x2="279.4375" y2="165.28571428571428" fill="rgb(0, 0, 0)" stroke="rgb(60, 60, 60)" stroke-width="1px" opacity="0.25"></line><line x1="0" y1="152.57142857142858" x2="279.4375" y2="152.57142857142858" fill="rgb(0, 0, 0)" stroke="rgb(60, 60, 60)" stroke-width="1px" opacity="0.25"></line><line x1="0" y1="139.85714285714286" x2="279.4375" y2="139.85714285714286" fill="rgb(0, 0, 0)" stroke="rgb(60, 60, 60)" stroke-width="1px" opacity="0.25"></line><line x1="0" y1="127.14285714285717" x2="279.4375" y2="127.14285714285717" fill="rgb(0, 0, 0)" stroke="rgb(60, 60, 60)" stroke-width="1px" opacity="0.25"></line><line x1="0" y1="114.42857142857143" x2="279.4375" y2="114.42857142857143" fill="rgb(0, 0, 0)" stroke="rgb(60, 60, 60)" stroke-width="1px" opacity="0.25"></line><line x1="0" y1="101.71428571428575" x2="279.4375" y2="101.71428571428575" fill="rgb(0, 0, 0)" stroke="rgb(60, 60, 60)" stroke-width="1px" opacity="0.25"></line><line x1="0" y1="89" x2="279.4375" y2="89" fill="rgb(0, 0, 0)" stroke="rgb(60, 60, 60)" stroke-width="1px" opacity="0.25"></line><line x1="0" y1="76.28571428571429" x2="279.4375" y2="76.28571428571429" fill="rgb(0, 0, 0)" stroke="rgb(60, 60, 60)" stroke-width="1px" opacity="0.25"></line><line x1="0" y1="63.571428571428605" x2="279.4375" y2="63.571428571428605" fill="rgb(0, 0, 0)" stroke="rgb(60, 60, 60)" stroke-width="1px" opacity="0.25"></line><line x1="0" y1="50.857142857142875" x2="279.4375" y2="50.857142857142875" fill="rgb(0, 0, 0)" stroke="rgb(60, 60, 60)" stroke-width="1px" opacity="0.25"></line><line x1="0" y1="38.14285714285717" x2="279.4375" y2="38.14285714285717" fill="rgb(0, 0, 0)" stroke="rgb(60, 60, 60)" stroke-width="1px" opacity="0.25"></line><line x1="0" y1="25.428571428571455" x2="279.4375" y2="25.428571428571455" fill="rgb(0, 0, 0)" stroke="rgb(60, 60, 60)" stroke-width="1px" opacity="0.25"></line><line x1="0" y1="12.714285714285728" x2="279.4375" y2="12.714285714285728" fill="rgb(0, 0, 0)" stroke="rgb(60, 60, 60)" stroke-width="1px" opacity="0.25"></line><line x1="0" y1="0" x2="279.4375" y2="0" fill="rgb(0, 0, 0)" stroke="rgb(60, 60, 60)" stroke-width="1px" opacity="0.25"></line></g></g></g><g><g><line x1="0" y1="279.7142857142857" x2="279.4375" y2="279.7142857142857" fill="rgb(0, 0, 0)" stroke="rgb(153, 153, 153)" stroke-width="1.5px"></line></g></g><g><g><line x1="31.04861111111111" y1="0" x2="31.04861111111111" y2="178" fill="rgb(0, 0, 0)" stroke="rgb(153, 153, 153)" stroke-width="1.5px"></line></g></g><g><g><g><g><g><path stroke="rgb(0, 153, 136)" stroke-width="2px" d="M40.36319444444444,178.88014694709736L41.915625,177.46102843943794L43.46805555555556,176.62496750845597L45.02048611111111,168.25698315850116L46.572916666666664,158.03358040924357L48.125347222222224,151.92332827497194L49.67777777777778,148.26570056769242L51.23020833333333,143.464079856416L52.78263888888889,140.58551672242086L54.33506944444444,123.2064787659332L55.8875,112.78219432653009L57.439930555555556,106.52875304678945L58.99236111111111,100.16887738034599L60.54479166666667,85.9205847751207L62.09722222222222,74.76382695428639L63.649652777777774,70.67802168157243L65.20208333333333,65.61849388678294L66.7545138888889,62.58280278226725L68.30694444444444,65.97752906033692L69.859375,68.01435865033326L71.41180555555555,66.62839305874328L72.96423611111112,60.58069450324261L74.51666666666667,56.95207774681141L76.06909722222221,57.38296757780492L77.62152777777779,57.641501415435584L79.17395833333333,57.79662169606642L80.72638888888888,57.889693856543815L82.27881944444445,57.94553714998588L83.83125,57.9790431250271L85.38368055555556,55.39108823017637L86.93611111111112,48.62219837285645L88.48854166666666,44.56086448527435L90.04097222222222,42.12406416237661L91.59340277777778,40.66198397211252L93.14583333333333,39.784735859204915L94.69826388888889,39.25838699191062L96.25069444444445,38.94257767169617L97.803125,38.75309207962585L99.35555555555555,43.855517630159255L100.90798611111111,41.70085605460219L102.46041666666666,40.408059109353914L104.01284722222222,37.02432248957117L105.56527777777778,34.994080517750135L107.11770833333334,33.775935334675005L108.67013888888889,33.04504822483623L110.22256944444445,32.60651595893526L111.775,32.343396599395454L113.32743055555555,32.185524983671904L114.87986111111111,32.090802014237845L116.43229166666667,32.03396823257745L117.98472222222222,31.99986796358127L119.53715277777778,31.979407802183545L121.08958333333334,31.967131705344915L122.64201388888888,31.95976604724173L124.19444444444444,31.955346652379834L125.746875,31.95269501546269L127.29930555555555,31.95110403331237L128.8517361111111,31.950149444022205L130.40416666666667,31.949576690448126L131.95659722222223,31.949233038303642L133.5090277777778,31.949026847016963L135.06145833333335,31.94890313224496L136.61388888888888,31.948828903381774L138.16631944444444,31.948784366063816L139.71875,31.948757643673073L141.27118055555556,31.94874161023865L142.8236111111111,31.948731990177954L144.37604166666668,31.948726218141584L145.92847222222224,31.948722754919725L147.48090277777777,31.948720676986618L149.03333333333333,31.94871943022675L150.5857638888889,31.948718682170835L152.13819444444442,31.948718233337292L153.690625,31.948717964037137L155.24305555555557,31.948717802457065L156.7954861111111,31.94871770550901L158.34791666666666,31.948717647340207L159.90034722222222,31.948717612438887L161.45277777777775,31.948717591498117L163.00520833333334,31.948717578933653L164.5576388888889,31.948717571394976L166.11006944444443,31.948717566871778L167.6625,31.94871756415783L169.21493055555555,31.94871756252948L170.76736111111111,31.948717561552467L172.31979166666667,31.94871756096627L173.87222222222223,31.948717560614543L175.42465277777777,31.94871756040351L176.97708333333333,31.948717560276894L178.52951388888889,31.948717560200926L180.08194444444445,31.948717560155337L181.634375,31.948717560127967L183.18680555555557,31.948717560111564L184.7392361111111,31.948717560101723L186.29166666666666,31.94871756009581L187.84409722222225,31.948717560092255L189.39652777777778,31.94871756009014L190.94895833333334,31.948717560088877L192.5013888888889,31.948717560088106L194.05381944444443,31.94871756008765L195.60625,31.948717560087374L197.15868055555558,31.948717560087196L198.7111111111111,31.948717560087097L200.26354166666667,31.94871756008704L201.81597222222223,31.948717560086997L203.36840277777776,31.94871756008698L204.92083333333332,31.94871756008698L206.4732638888889,31.94871756008698L208.02569444444444,31.94871756008698L209.578125,31.94871756008698L211.13055555555556,31.94871756008698L212.6829861111111,31.94871756008698L214.23541666666668,31.94871756008698L215.78784722222224,31.94871756008698L217.34027777777777,31.94871756008698L218.89270833333333,31.94871756008698L220.4451388888889,31.94871756008698L221.99756944444442,31.94871756008698L223.55,31.94871756008698L225.10243055555557,31.94871756008698L226.6548611111111,31.94871756008698L228.20729166666666,31.94871756008698L229.75972222222222,31.94871756008698L231.31215277777775,31.94871756008698L232.86458333333334,31.94871756008698L234.4170138888889,31.94871756008698L235.96944444444443,31.94871756008698L237.521875,31.94871756008698L239.07430555555555,31.94871756008698L240.62673611111111,31.94871756008698L242.17916666666667,31.94871756008698L243.73159722222223,31.94871756008698L245.28402777777777,31.94871756008698L246.83645833333333,31.94871756008698L248.38888888888889,31.94871756008698L249.94131944444445,31.94871756008698L251.49375,31.94871756008698L253.04618055555557,31.94871756008698L254.5986111111111,31.94871756008698L256.15104166666663,31.94871756008698L257.7034722222222,31.94871756008698L259.2559027777778,31.94871756008698L260.80833333333334,31.94871756008698L262.36076388888887,31.94871756008698L263.91319444444446,31.94871756008698L265.465625,31.94871756008698L267.0180555555556,31.94871756008698" style="fill: none;" fill="none"></path></g><g><path stroke="rgb(238, 51, 119)" stroke-width="2px" d="M31.04861111111111,149.25466220719474L32.60104166666667,149.25466220719474L34.15347222222222,149.25466220719474L35.70590277777777,149.25466220719474L37.25833333333333,146.37751617792802L38.81076388888889,143.8736625913235L40.36319444444444,141.53832884483188L41.915625,140.17968296207252L43.46805555555556,137.59229444848592L45.02048611111111,130.71753496812002L46.572916666666664,123.06861211190149L48.125347222222224,115.83784951478027L49.67777777777778,110.62384885473912L51.23020833333333,103.95914942670944L52.78263888888889,100.84856300620339L54.33506944444444,95.4442568853993L55.8875,91.31803240640559L57.439930555555556,88.84274476086887L58.99236111111111,86.47320612216433L60.54479166666667,82.39805918122669L62.09722222222222,75.53061016552854L63.649652777777774,69.6412677877846L65.20208333333333,66.99219200845766L66.7545138888889,64.51828268774415L68.30694444444444,65.6873712954253L69.859375,69.92671451055705L71.41180555555555,69.81690000431L72.96423611111112,67.09759058901273L74.51666666666667,65.46600600857859L76.06909722222221,64.4870556450657L77.62152777777779,63.89968556546706L79.17395833333333,62.66279044583525L80.72638888888888,63.68959962421585L82.27881944444445,64.30568509986368L83.83125,65.55980944050371L85.38368055555556,64.54333791015685L86.93611111111112,62.16451494766791L88.48854166666666,57.19932896108497L90.04097222222222,54.22021738093471L91.59340277777778,52.43275043709236L93.14583333333333,51.3602702723162L94.69826388888889,50.71678217400099L96.25069444444445,50.33068931521005L97.803125,50.09903360000684L99.35555555555555,52.613459325217356L100.90798611111111,55.006587811575216L102.46041666666666,53.78904574916418L104.01284722222222,48.63616131757299L105.56527777777778,47.313376761403504L107.11770833333334,46.519706027713205L108.67013888888889,46.04350358750312L110.22256944444445,44.873309072032356L111.775,43.28671931140686L113.32743055555555,43.21923850637794L114.87986111111111,44.063223074704815L116.43229166666667,43.68514076435663L117.98472222222222,43.458291378147834L119.53715277777778,43.322181746422544L121.08958333333334,43.240515967387374L122.64201388888888,43.19151649996633L124.19444444444444,43.16211681951366L125.746875,44.028950062585764L127.29930555555555,43.66457695708534L128.8517361111111,43.44595309378507L130.40416666666667,43.31477877580492L131.95659722222223,43.23607418501681L133.5090277777778,43.188851430543984L135.06145833333335,44.04499082920394L136.61388888888888,43.67420141705623L138.16631944444444,43.451727769767615L139.71875,43.318243581394434L141.27118055555556,43.23815306837054L142.8236111111111,43.19009876055619L144.37604166666668,43.161266175867596L145.92847222222224,43.143966625054446L147.48090277777777,43.133586894566534L149.03333333333333,43.12735905627379L150.5857638888889,43.12362235329817L152.13819444444442,43.121380331512796L153.690625,42.23556206709789L155.24305555555557,42.588544159792605L156.7954861111111,42.80033341540944L158.34791666666666,42.927406968779536L159.90034722222222,43.003651100801584L161.45277777777775,43.04939758001482L163.00520833333334,43.07684546754276L164.5576388888889,43.093314200059545L166.11006944444443,43.1031954395696L167.6625,43.10912418327563L169.21493055555555,43.11268142949925L170.76736111111111,43.11481577723342L172.31979166666667,43.116096385873924L173.87222222222223,43.116864751058245L175.42465277777777,43.117325770168826L176.97708333333333,43.117602381635194L178.52951388888889,42.23329529717135L180.08194444444445,42.58718409783669L181.634375,42.799517378235876L183.18680555555557,42.926917346475406L184.7392361111111,43.00335732741911L186.29166666666666,43.04922131598533L187.84409722222225,43.076739709125086L189.39652777777778,43.093250745008916L190.94895833333334,43.10315736653922L192.5013888888889,43.1091013394574L194.05381944444443,43.112667723208325L195.60625,43.114807553458874L197.15868055555558,43.11609145160919L198.7111111111111,43.1168617904994L200.26354166666667,43.117323993833516L201.81597222222223,42.23312826449035L203.36840277777776,41.70261082688444L204.92083333333332,42.26877341566455L206.4732638888889,42.60847096893261L208.02569444444444,42.81228950089344L209.578125,42.93458062006994L211.13055555555556,43.007955291575854L212.6829861111111,43.051980094479404L214.23541666666668,43.078394976221524L215.78784722222224,43.09424390526681L217.34027777777777,43.10375326269396L218.89270833333333,43.10945887715026L220.4451388888889,43.11288224582403L221.99756944444442,42.230463215684665L223.55,41.70101179760104L225.10243055555557,42.26781399809452L226.6548611111111,41.72342226704691L228.20729166666666,42.28126027976203L229.75972222222222,42.61596308739111L231.31215277777775,42.81678477196855L232.86458333333334,42.05280473137134L234.4170138888889,41.59441670701304L235.96944444444443,40.43491084105439L237.521875,39.73920732147922L239.07430555555555,39.32178520973411L240.62673611111111,39.9558049940307L242.17916666666667,40.33621686460866L243.73159722222223,41.44893703829908L245.28402777777777,42.11656914251333L246.83645833333333,42.517148405041894L248.38888888888889,42.757495962559005L249.94131944444445,41.13275839438197L251.49375,40.15791585347578L253.04618055555557,39.57301032893203L254.5986111111111,40.99101311689311L256.15104166666663,40.9573417383261L257.7034722222222,40.93713891118589L259.2559027777778,40.04054416355811L260.80833333333334,39.50258731498146L262.36076388888887,40.0642862571791L263.91319444444446,41.28577867384132L265.465625,42.01867412383869L267.0180555555556,42.4584113938371" style="fill: none;" fill="none"></path></g></g></g></g><g opacity="0.2"><g><g><g><path stroke="rgb(0, 153, 136)" stroke-width="2px" d="M37.25833333333333,181.91208616324835L38.81076388888889,175.39194003173284L40.36319444444444,175.39194003173284L41.915625,175.39194003173284L43.46805555555556,175.39194003173284L45.02048611111111,155.83150163718634L46.572916666666664,142.7912017958505L48.125347222222224,142.7912017958505L49.67777777777778,142.7912017958505L51.23020833333333,136.271055664335L52.78263888888889,136.271055664335L54.33506944444444,97.15017887524196L55.8875,97.15017887524196L57.439930555555556,97.15017887524196L58.99236111111111,90.63003274372649L60.54479166666667,64.54944821766445L62.09722222222222,58.02930208614895L63.649652777777774,64.54944821766445L65.20208333333333,58.02930208614895L66.7545138888889,58.02930208614895L68.30694444444444,71.06959434917995L69.859375,71.06959434917995L71.41180555555555,64.54944821766445L72.96423611111112,51.50915595463345L74.51666666666667,51.50915595463345L76.06909722222221,58.02930208614895L77.62152777777779,58.02930208614895L79.17395833333333,58.02930208614895L80.72638888888888,58.02930208614895L82.27881944444445,58.02930208614895L83.83125,58.02930208614895L85.38368055555556,51.50915595463345L86.93611111111112,38.468863691602465L88.48854166666666,38.468863691602465L90.04097222222222,38.468863691602465L91.59340277777778,38.468863691602465L93.14583333333333,38.468863691602465L94.69826388888889,38.468863691602465L96.25069444444445,38.468863691602465L97.803125,38.468863691602465L99.35555555555555,51.50915595463345L100.90798611111111,38.468863691602465L102.46041666666666,38.468863691602465L104.01284722222222,31.94871756008696L105.56527777777778,31.94871756008696L107.11770833333334,31.94871756008696L108.67013888888889,31.94871756008696L110.22256944444445,31.94871756008696L111.775,31.94871756008696L113.32743055555555,31.94871756008696L114.87986111111111,31.94871756008696L116.43229166666667,31.94871756008696L117.98472222222222,31.94871756008696L119.53715277777778,31.94871756008696L121.08958333333334,31.94871756008696L122.64201388888888,31.94871756008696L124.19444444444444,31.94871756008696L125.746875,31.94871756008696L127.29930555555555,31.94871756008696L128.8517361111111,31.94871756008696L130.40416666666667,31.94871756008696L131.95659722222223,31.94871756008696L133.5090277777778,31.94871756008696L135.06145833333335,31.94871756008696L136.61388888888888,31.94871756008696L138.16631944444444,31.94871756008696L139.71875,31.94871756008696L141.27118055555556,31.94871756008696L142.8236111111111,31.94871756008696L144.37604166666668,31.94871756008696L145.92847222222224,31.94871756008696L147.48090277777777,31.94871756008696L149.03333333333333,31.94871756008696L150.5857638888889,31.94871756008696L152.13819444444442,31.94871756008696L153.690625,31.94871756008696L155.24305555555557,31.94871756008696L156.7954861111111,31.94871756008696L158.34791666666666,31.94871756008696L159.90034722222222,31.94871756008696L161.45277777777775,31.94871756008696L163.00520833333334,31.94871756008696L164.5576388888889,31.94871756008696L166.11006944444443,31.94871756008696L167.6625,31.94871756008696L169.21493055555555,31.94871756008696L170.76736111111111,31.94871756008696L172.31979166666667,31.94871756008696L173.87222222222223,31.94871756008696L175.42465277777777,31.94871756008696L176.97708333333333,31.94871756008696L178.52951388888889,31.94871756008696L180.08194444444445,31.94871756008696L181.634375,31.94871756008696L183.18680555555557,31.94871756008696L184.7392361111111,31.94871756008696L186.29166666666666,31.94871756008696L187.84409722222225,31.94871756008696L189.39652777777778,31.94871756008696L190.94895833333334,31.94871756008696L192.5013888888889,31.94871756008696L194.05381944444443,31.94871756008696L195.60625,31.94871756008696L197.15868055555558,31.94871756008696L198.7111111111111,31.94871756008696L200.26354166666667,31.94871756008696L201.81597222222223,31.94871756008696L203.36840277777776,31.94871756008696L204.92083333333332,31.94871756008696L206.4732638888889,31.94871756008696L208.02569444444444,31.94871756008696L209.578125,31.94871756008696L211.13055555555556,31.94871756008696L212.6829861111111,31.94871756008696L214.23541666666668,31.94871756008696L215.78784722222224,31.94871756008696L217.34027777777777,31.94871756008696L218.89270833333333,31.94871756008696L220.4451388888889,31.94871756008696L221.99756944444442,31.94871756008696L223.55,31.94871756008696L225.10243055555557,31.94871756008696L226.6548611111111,31.94871756008696L228.20729166666666,31.94871756008696L229.75972222222222,31.94871756008696L231.31215277777775,31.94871756008696L232.86458333333334,31.94871756008696L234.4170138888889,31.94871756008696L235.96944444444443,31.94871756008696L237.521875,31.94871756008696L239.07430555555555,31.94871756008696L240.62673611111111,31.94871756008696L242.17916666666667,31.94871756008696L243.73159722222223,31.94871756008696L245.28402777777777,31.94871756008696L246.83645833333333,31.94871756008696L248.38888888888889,31.94871756008696L249.94131944444445,31.94871756008696L251.49375,31.94871756008696L253.04618055555557,31.94871756008696L254.5986111111111,31.94871756008696L256.15104166666663,31.94871756008696L257.7034722222222,31.94871756008696L259.2559027777778,31.94871756008696L260.80833333333334,31.94871756008696L262.36076388888887,31.94871756008696L263.91319444444446,31.94871756008696L265.465625,31.94871756008696L267.0180555555556,31.94871756008696" style="fill: none;" fill="none"></path></g><g><path stroke="rgb(238, 51, 119)" stroke-width="2px" d="M31.04861111111111,149.25466220719474L32.60104166666667,149.25466220719474L34.15347222222222,149.25466220719474L35.70590277777777,149.25466220719474L37.25833333333333,142.6211143221174L38.81076388888889,140.4099316937583L40.36319444444444,138.19876422200883L41.915625,138.19876422200883L43.46805555555556,133.7763989652906L45.02048611111111,120.5093183517456L46.572916666666664,111.66460299491882L48.125347222222224,105.03105510984149L49.67777777777778,102.81987248148238L51.23020833333333,93.9751571246556L52.78263888888889,96.1863397530147L54.33506944444444,87.34160923957826L55.8875,85.13044176782881L57.439930555555556,85.13044176782881L58.99236111111111,82.91925913946972L60.54479166666667,76.28571125439235L62.09722222222222,65.22981326920647L63.649652777777774,60.807448012488244L65.20208333333333,63.01863064084737L66.7545138888889,60.807448012488244L68.30694444444444,67.44099589756557L69.859375,76.28571125439235L71.41180555555555,69.6521785259247L72.96423611111112,63.01863064084737L74.51666666666667,63.01863064084737L76.06909722222221,63.01863064084737L77.62152777777779,63.01863064084737L79.17395833333333,60.807448012488244L80.72638888888888,65.22981326920647L82.27881944444445,65.22981326920647L83.83125,67.44099589756557L85.38368055555556,63.01863064084737L86.93611111111112,58.596280540738796L88.48854166666666,49.75155002730236L90.04097222222222,49.75155002730236L91.59340277777778,49.75155002730236L93.14583333333333,49.75155002730236L94.69826388888889,49.75155002730236L96.25069444444445,49.75155002730236L97.803125,49.75155002730236L99.35555555555555,56.38509791237969L100.90798611111111,58.596280540738796L102.46041666666666,51.96273265566146L104.01284722222222,40.906834670475575L105.56527777777778,45.329199927193805L107.11770833333334,45.329199927193805L108.67013888888889,45.329199927193805L110.22256944444445,43.11801729883468L111.775,40.906834670475575L113.32743055555555,43.11801729883468L114.87986111111111,45.329199927193805L116.43229166666667,43.11801729883468L117.98472222222222,43.11801729883468L119.53715277777778,43.11801729883468L121.08958333333334,43.11801729883468L122.64201388888888,43.11801729883468L124.19444444444444,43.11801729883468L125.746875,45.329199927193805L127.29930555555555,43.11801729883468L128.8517361111111,43.11801729883468L130.40416666666667,43.11801729883468L131.95659722222223,43.11801729883468L133.5090277777778,43.11801729883468L135.06145833333335,45.329199927193805L136.61388888888888,43.11801729883468L138.16631944444444,43.11801729883468L139.71875,43.11801729883468L141.27118055555556,43.11801729883468L142.8236111111111,43.11801729883468L144.37604166666668,43.11801729883468L145.92847222222224,43.11801729883468L147.48090277777777,43.11801729883468L149.03333333333333,43.11801729883468L150.5857638888889,43.11801729883468L152.13819444444442,43.11801729883468L153.690625,40.906834670475575L155.24305555555557,43.11801729883468L156.7954861111111,43.11801729883468L158.34791666666666,43.11801729883468L159.90034722222222,43.11801729883468L161.45277777777775,43.11801729883468L163.00520833333334,43.11801729883468L164.5576388888889,43.11801729883468L166.11006944444443,43.11801729883468L167.6625,43.11801729883468L169.21493055555555,43.11801729883468L170.76736111111111,43.11801729883468L172.31979166666667,43.11801729883468L173.87222222222223,43.11801729883468L175.42465277777777,43.11801729883468L176.97708333333333,43.11801729883468L178.52951388888889,40.906834670475575L180.08194444444445,43.11801729883468L181.634375,43.11801729883468L183.18680555555557,43.11801729883468L184.7392361111111,43.11801729883468L186.29166666666666,43.11801729883468L187.84409722222225,43.11801729883468L189.39652777777778,43.11801729883468L190.94895833333334,43.11801729883468L192.5013888888889,43.11801729883468L194.05381944444443,43.11801729883468L195.60625,43.11801729883468L197.15868055555558,43.11801729883468L198.7111111111111,43.11801729883468L200.26354166666667,43.11801729883468L201.81597222222223,40.906834670475575L203.36840277777776,40.906834670475575L204.92083333333332,43.11801729883468L206.4732638888889,43.11801729883468L208.02569444444444,43.11801729883468L209.578125,43.11801729883468L211.13055555555556,43.11801729883468L212.6829861111111,43.11801729883468L214.23541666666668,43.11801729883468L215.78784722222224,43.11801729883468L217.34027777777777,43.11801729883468L218.89270833333333,43.11801729883468L220.4451388888889,43.11801729883468L221.99756944444442,40.906834670475575L223.55,40.906834670475575L225.10243055555557,43.11801729883468L226.6548611111111,40.906834670475575L228.20729166666666,43.11801729883468L229.75972222222222,43.11801729883468L231.31215277777775,43.11801729883468L232.86458333333334,40.906834670475575L234.4170138888889,40.906834670475575L235.96944444444443,38.69565204211645L237.521875,38.69565204211645L239.07430555555555,38.69565204211645L240.62673611111111,40.906834670475575L242.17916666666667,40.906834670475575L243.73159722222223,43.11801729883468L245.28402777777777,43.11801729883468L246.83645833333333,43.11801729883468L248.38888888888889,43.11801729883468L249.94131944444445,38.69565204211645L251.49375,38.69565204211645L253.04618055555557,38.69565204211645L254.5986111111111,43.11801729883468L256.15104166666663,40.906834670475575L257.7034722222222,40.906834670475575L259.2559027777778,38.69565204211645L260.80833333333334,38.69565204211645L262.36076388888887,40.906834670475575L263.91319444444446,43.11801729883468L265.465625,43.11801729883468L267.0180555555556,43.11801729883468" style="fill: none;" fill="none"></path></g></g></g></g></g></g><g transform="translate(50, 178)" clip-path="url(#clip_1)"><clipPath id="clip_1"><rect width="279" height="21"></rect></clipPath><g><g><line x1="0" y1="0" x2="0" y2="5" style="visibility: inherit;" fill="rgb(0, 0, 0)" stroke="rgb(204, 204, 204)" stroke-width="1px"></line><line x1="31.04861111111111" y1="0" x2="31.04861111111111" y2="5" style="visibility: inherit;" fill="rgb(0, 0, 0)" stroke="rgb(204, 204, 204)" stroke-width="1px"></line><line x1="62.09722222222222" y1="0" x2="62.09722222222222" y2="5" style="visibility: inherit;" fill="rgb(0, 0, 0)" stroke="rgb(204, 204, 204)" stroke-width="1px"></line><line x1="93.14583333333333" y1="0" x2="93.14583333333333" y2="5" style="visibility: inherit;" fill="rgb(0, 0, 0)" stroke="rgb(204, 204, 204)" stroke-width="1px"></line><line x1="124.19444444444444" y1="0" x2="124.19444444444444" y2="5" style="visibility: inherit;" fill="rgb(0, 0, 0)" stroke="rgb(204, 204, 204)" stroke-width="1px"></line><line x1="155.24305555555557" y1="0" x2="155.24305555555557" y2="5" style="visibility: inherit;" fill="rgb(0, 0, 0)" stroke="rgb(204, 204, 204)" stroke-width="1px"></line><line x1="186.29166666666666" y1="0" x2="186.29166666666666" y2="5" style="visibility: inherit;" fill="rgb(0, 0, 0)" stroke="rgb(204, 204, 204)" stroke-width="1px"></line><line x1="217.34027777777777" y1="0" x2="217.34027777777777" y2="5" style="visibility: inherit;" fill="rgb(0, 0, 0)" stroke="rgb(204, 204, 204)" stroke-width="1px"></line><line x1="248.38888888888889" y1="0" x2="248.38888888888889" y2="5" style="visibility: inherit;" fill="rgb(0, 0, 0)" stroke="rgb(204, 204, 204)" stroke-width="1px"></line><line x1="279.4375" y1="0" x2="279.4375" y2="5" style="visibility: inherit;" fill="rgb(0, 0, 0)" stroke="rgb(204, 204, 204)" stroke-width="1px"></line></g><g transform="translate(0, 8)"><text x="0" y="0" dx="0em" dy="0.95em" style="text-anchor: middle; visibility: hidden; font-family: Roboto, sans-serif; font-size: 12px; font-weight: 200;" fill="rgb(50, 49, 63)" stroke="none" stroke-width="1px">-20</text><text x="31.04861111111111" y="0" dx="0em" dy="0.95em" style="text-anchor: middle; visibility: inherit; font-family: Roboto, sans-serif; font-size: 12px; font-weight: 200;" fill="rgb(50, 49, 63)" stroke="none" stroke-width="1px">0</text><text x="62.09722222222222" y="0" dx="0em" dy="0.95em" style="text-anchor: middle; visibility: inherit; font-family: Roboto, sans-serif; font-size: 12px; font-weight: 200;" fill="rgb(50, 49, 63)" stroke="none" stroke-width="1px">20</text><text x="93.14583333333333" y="0" dx="0em" dy="0.95em" style="text-anchor: middle; visibility: inherit; font-family: Roboto, sans-serif; font-size: 12px; font-weight: 200;" fill="rgb(50, 49, 63)" stroke="none" stroke-width="1px">40</text><text x="124.19444444444444" y="0" dx="0em" dy="0.95em" style="text-anchor: middle; visibility: inherit; font-family: Roboto, sans-serif; font-size: 12px; font-weight: 200;" fill="rgb(50, 49, 63)" stroke="none" stroke-width="1px">60</text><text x="155.24305555555557" y="0" dx="0em" dy="0.95em" style="text-anchor: middle; visibility: inherit; font-family: Roboto, sans-serif; font-size: 12px; font-weight: 200;" fill="rgb(50, 49, 63)" stroke="none" stroke-width="1px">80</text><text x="186.29166666666666" y="0" dx="0em" dy="0.95em" style="text-anchor: middle; visibility: inherit; font-family: Roboto, sans-serif; font-size: 12px; font-weight: 200;" fill="rgb(50, 49, 63)" stroke="none" stroke-width="1px">100</text><text x="217.34027777777777" y="0" dx="0em" dy="0.95em" style="text-anchor: middle; visibility: inherit; font-family: Roboto, sans-serif; font-size: 12px; font-weight: 200;" fill="rgb(50, 49, 63)" stroke="none" stroke-width="1px">120</text><text x="248.38888888888889" y="0" dx="0em" dy="0.95em" style="text-anchor: middle; visibility: inherit; font-family: Roboto, sans-serif; font-size: 12px; font-weight: 200;" fill="rgb(50, 49, 63)" stroke="none" stroke-width="1px">140</text><text x="279.4375" y="0" dx="0em" dy="0.95em" style="text-anchor: middle; visibility: hidden; font-family: Roboto, sans-serif; font-size: 12px; font-weight: 200;" fill="rgb(50, 49, 63)" stroke="none" stroke-width="1px">160</text></g><line x1="0" y1="0" x2="279.4375" y2="0" fill="rgb(0, 0, 0)" stroke="rgb(204, 204, 204)" stroke-width="1px"></line></g></g></g></g></svg>