<svg viewBox="0 0 330.0000305175781 200.00001525878906" xmlns="http://www.w3.org/2000/svg"><g><g><g><g><g><line x1="50.5625" y1="178" x2="45.5625" y2="178" style="visibility: inherit;" fill="rgb(0, 0, 0)" stroke="rgb(204, 204, 204)" stroke-width="1px"></line><line x1="50.5625" y1="160.20000000000002" x2="45.5625" y2="160.20000000000002" style="visibility: inherit;" fill="rgb(0, 0, 0)" stroke="rgb(204, 204, 204)" stroke-width="1px"></line><line x1="50.5625" y1="142.4" x2="45.5625" y2="142.4" style="visibility: inherit;" fill="rgb(0, 0, 0)" stroke="rgb(204, 204, 204)" stroke-width="1px"></line><line x1="50.5625" y1="124.60000000000004" x2="45.5625" y2="124.60000000000004" style="visibility: inherit;" fill="rgb(0, 0, 0)" stroke="rgb(204, 204, 204)" stroke-width="1px"></line><line x1="50.5625" y1="106.80000000000001" x2="45.5625" y2="106.80000000000001" style="visibility: inherit;" fill="rgb(0, 0, 0)" stroke="rgb(204, 204, 204)" stroke-width="1px"></line><line x1="50.5625" y1="89" x2="45.5625" y2="89" style="visibility: inherit;" fill="rgb(0, 0, 0)" stroke="rgb(204, 204, 204)" stroke-width="1px"></line><line x1="50.5625" y1="71.20000000000002" x2="45.5625" y2="71.20000000000002" style="visibility: inherit;" fill="rgb(0, 0, 0)" stroke="rgb(204, 204, 204)" stroke-width="1px"></line><line x1="50.5625" y1="53.400000000000006" x2="45.5625" y2="53.400000000000006" style="visibility: inherit;" fill="rgb(0, 0, 0)" stroke="rgb(204, 204, 204)" stroke-width="1px"></line><line x1="50.5625" y1="35.60000000000003" x2="45.5625" y2="35.60000000000003" style="visibility: inherit;" fill="rgb(0, 0, 0)" stroke="rgb(204, 204, 204)" stroke-width="1px"></line><line x1="50.5625" y1="17.800000000000015" x2="45.5625" y2="17.800000000000015" style="visibility: inherit;" fill="rgb(0, 0, 0)" stroke="rgb(204, 204, 204)" stroke-width="1px"></line><line x1="50.5625" y1="0" x2="45.5625" y2="0" style="visibility: inherit;" fill="rgb(0, 0, 0)" stroke="rgb(204, 204, 204)" stroke-width="1px"></line></g><g transform="translate(40.5625, 0)"><text x="0" y="178" dx="0em" dy="0.3em" style="text-anchor: end; visibility: hidden; font-family: Roboto, sans-serif; font-size: 12px; font-weight: 200;" fill="rgb(50, 49, 63)" stroke="none" stroke-width="1px">0.55</text><text x="0" y="160.20000000000002" dx="0em" dy="0.3em" style="text-anchor: end; visibility: inherit; font-family: Roboto, sans-serif; font-size: 12px; font-weight: 200;" fill="rgb(50, 49, 63)" stroke="none" stroke-width="1px">0.6</text><text x="0" y="142.4" dx="0em" dy="0.3em" style="text-anchor: end; visibility: hidden; font-family: Roboto, sans-serif; font-size: 12px; font-weight: 200;" fill="rgb(50, 49, 63)" stroke="none" stroke-width="1px">0.65</text><text x="0" y="124.60000000000004" dx="0em" dy="0.3em" style="text-anchor: end; visibility: inherit; font-family: Roboto, sans-serif; font-size: 12px; font-weight: 200;" fill="rgb(50, 49, 63)" stroke="none" stroke-width="1px">0.7</text><text x="0" y="106.80000000000001" dx="0em" dy="0.3em" style="text-anchor: end; visibility: hidden; font-family: Roboto, sans-serif; font-size: 12px; font-weight: 200;" fill="rgb(50, 49, 63)" stroke="none" stroke-width="1px">0.75</text><text x="0" y="89" dx="0em" dy="0.3em" style="text-anchor: end; visibility: inherit; font-family: Roboto, sans-serif; font-size: 12px; font-weight: 200;" fill="rgb(50, 49, 63)" stroke="none" stroke-width="1px">0.8</text><text x="0" y="71.20000000000002" dx="0em" dy="0.3em" style="text-anchor: end; visibility: hidden; font-family: Roboto, sans-serif; font-size: 12px; font-weight: 200;" fill="rgb(50, 49, 63)" stroke="none" stroke-width="1px">0.85</text><text x="0" y="53.400000000000006" dx="0em" dy="0.3em" style="text-anchor: end; visibility: inherit; font-family: Roboto, sans-serif; font-size: 12px; font-weight: 200;" fill="rgb(50, 49, 63)" stroke="none" stroke-width="1px">0.9</text><text x="0" y="35.60000000000003" dx="0em" dy="0.3em" style="text-anchor: end; visibility: hidden; font-family: Roboto, sans-serif; font-size: 12px; font-weight: 200;" fill="rgb(50, 49, 63)" stroke="none" stroke-width="1px">0.95</text><text x="0" y="17.800000000000015" dx="0em" dy="0.3em" style="text-anchor: end; visibility: inherit; font-family: Roboto, sans-serif; font-size: 12px; font-weight: 200;" fill="rgb(50, 49, 63)" stroke="none" stroke-width="1px">1</text><text x="0" y="0" dx="0em" dy="0.3em" style="text-anchor: end; visibility: hidden; font-family: Roboto, sans-serif; font-size: 12px; font-weight: 200;" fill="rgb(50, 49, 63)" stroke="none" stroke-width="1px">1.05</text></g><line x1="50.5625" y1="0" x2="50.5625" y2="178" fill="rgb(0, 0, 0)" stroke="rgb(204, 204, 204)" stroke-width="1px"></line></g></g><g transform="translate(50, 0)" clip-path="url(#clip_0)"><clipPath id="clip_0"><rect width="279" height="177"></rect></clipPath><g><g><g><line x1="0" y1="0" x2="0" y2="178" fill="rgb(0, 0, 0)" stroke="rgb(60, 60, 60)" stroke-width="1px" opacity="0.25"></line><line x1="23.286458333333332" y1="0" x2="23.286458333333332" y2="178" fill="rgb(0, 0, 0)" stroke="rgb(60, 60, 60)" stroke-width="1px" opacity="0.25"></line><line x1="46.572916666666664" y1="0" x2="46.572916666666664" y2="178" fill="rgb(0, 0, 0)" stroke="rgb(60, 60, 60)" stroke-width="1px" opacity="0.25"></line><line x1="69.859375" y1="0" x2="69.859375" y2="178" fill="rgb(0, 0, 0)" stroke="rgb(60, 60, 60)" stroke-width="1px" opacity="0.25"></line><line x1="93.14583333333333" y1="0" x2="93.14583333333333" y2="178" fill="rgb(0, 0, 0)" stroke="rgb(60, 60, 60)" stroke-width="1px" opacity="0.25"></line><line x1="116.43229166666667" y1="0" x2="116.43229166666667" y2="178" fill="rgb(0, 0, 0)" stroke="rgb(60, 60, 60)" stroke-width="1px" opacity="0.25"></line><line x1="139.71875" y1="0" x2="139.71875" y2="178" fill="rgb(0, 0, 0)" stroke="rgb(60, 60, 60)" stroke-width="1px" opacity="0.25"></line><line x1="163.00520833333334" y1="0" x2="163.00520833333334" y2="178" fill="rgb(0, 0, 0)" stroke="rgb(60, 60, 60)" stroke-width="1px" opacity="0.25"></line><line x1="186.29166666666666" y1="0" x2="186.29166666666666" y2="178" fill="rgb(0, 0, 0)" stroke="rgb(60, 60, 60)" stroke-width="1px" opacity="0.25"></line><line x1="209.578125" y1="0" x2="209.578125" y2="178" fill="rgb(0, 0, 0)" stroke="rgb(60, 60, 60)" stroke-width="1px" opacity="0.25"></line><line x1="232.86458333333334" y1="0" x2="232.86458333333334" y2="178" fill="rgb(0, 0, 0)" stroke="rgb(60, 60, 60)" stroke-width="1px" opacity="0.25"></line><line x1="256.15104166666663" y1="0" x2="256.15104166666663" y2="178" fill="rgb(0, 0, 0)" stroke="rgb(60, 60, 60)" stroke-width="1px" opacity="0.25"></line><line x1="279.4375" y1="0" x2="279.4375" y2="178" fill="rgb(0, 0, 0)" stroke="rgb(60, 60, 60)" stroke-width="1px" opacity="0.25"></line></g><g><line x1="0" y1="178" x2="279.4375" y2="178" fill="rgb(0, 0, 0)" stroke="rgb(60, 60, 60)" stroke-width="1px" opacity="0.25"></line><line x1="0" y1="160.20000000000002" x2="279.4375" y2="160.20000000000002" fill="rgb(0, 0, 0)" stroke="rgb(60, 60, 60)" stroke-width="1px" opacity="0.25"></line><line x1="0" y1="142.4" x2="279.4375" y2="142.4" fill="rgb(0, 0, 0)" stroke="rgb(60, 60, 60)" stroke-width="1px" opacity="0.25"></line><line x1="0" y1="124.60000000000004" x2="279.4375" y2="124.60000000000004" fill="rgb(0, 0, 0)" stroke="rgb(60, 60, 60)" stroke-width="1px" opacity="0.25"></line><line x1="0" y1="106.80000000000001" x2="279.4375" y2="106.80000000000001" fill="rgb(0, 0, 0)" stroke="rgb(60, 60, 60)" stroke-width="1px" opacity="0.25"></line><line x1="0" y1="89" x2="279.4375" y2="89" fill="rgb(0, 0, 0)" stroke="rgb(60, 60, 60)" stroke-width="1px" opacity="0.25"></line><line x1="0" y1="71.20000000000002" x2="279.4375" y2="71.20000000000002" fill="rgb(0, 0, 0)" stroke="rgb(60, 60, 60)" stroke-width="1px" opacity="0.25"></line><line x1="0" y1="53.400000000000006" x2="279.4375" y2="53.400000000000006" fill="rgb(0, 0, 0)" stroke="rgb(60, 60, 60)" stroke-width="1px" opacity="0.25"></line><line x1="0" y1="35.60000000000003" x2="279.4375" y2="35.60000000000003" fill="rgb(0, 0, 0)" stroke="rgb(60, 60, 60)" stroke-width="1px" opacity="0.25"></line><line x1="0" y1="17.800000000000015" x2="279.4375" y2="17.800000000000015" fill="rgb(0, 0, 0)" stroke="rgb(60, 60, 60)" stroke-width="1px" opacity="0.25"></line><line x1="0" y1="0" x2="279.4375" y2="0" fill="rgb(0, 0, 0)" stroke="rgb(60, 60, 60)" stroke-width="1px" opacity="0.25"></line></g></g></g><g><g><line x1="0" y1="373.8" x2="279.4375" y2="373.8" fill="rgb(0, 0, 0)" stroke="rgb(153, 153, 153)" stroke-width="1.5px"></line></g></g><g><g><line x1="23.286458333333332" y1="0" x2="23.286458333333332" y2="178" fill="rgb(0, 0, 0)" stroke="rgb(153, 153, 153)" stroke-width="1.5px"></line></g></g><g><g><g><g><g><path stroke="rgb(255, 112, 67)" stroke-width="2px" d="M23.286458333333332,130.2210481643677L25.615104166666665,130.2210481643677L27.94375,130.22104816436766L30.272395833333334,130.2210481643677L32.60104166666667,130.22104816436774L34.9296875,130.22104816436766L37.25833333333333,130.2210481643677L39.586979166666666,130.2210481643677L41.915625,130.2210481643677L44.24427083333333,130.2210481643677L46.572916666666664,130.22104816436774L48.9015625,130.2210481643677L51.23020833333333,130.2210481643677L53.55885416666667,130.2210481643677L55.8875,130.22104816436774L58.216145833333336,130.22104816436774L60.54479166666667,130.2210481643677L62.8734375,130.22104816436774L65.20208333333333,130.22104816436774L67.53072916666667,130.2210481643677L69.859375,130.2210481643677L72.18802083333334,130.22104816436766L74.51666666666667,130.2210481643677L76.8453125,130.2210481643677L79.17395833333333,130.2210481643677L81.50260416666667,130.2210481643677L83.83125,126.47368171529625L86.15989583333334,116.73051749526722L88.48854166666666,110.88462279251252L90.8171875,107.3770873493932L93.14583333333333,105.27256657979345L95.47447916666667,104.00985429669134L97.803125,99.50485571082321L100.13177083333333,96.80185669698072L102.46041666666666,87.68532349434231L104.7890625,85.96277481309126L107.11770833333334,84.92924561571151L109.44635416666667,84.3091281013772L111.775,83.93705759425032L114.10364583333333,79.96644418411601L116.43229166666667,73.83670503704741L118.7609375,66.41149893647136L121.08958333333334,61.95637527841261L123.41822916666666,63.03066369872784L125.746875,67.42260785256677L128.07552083333331,66.31040324296487L130.40416666666667,61.89571786342988L132.7328125,59.24690663581463L135.06145833333335,50.16287769642381L137.39010416666665,44.71246033286761L139.71875,48.93695211755723L142.04739583333333,51.47164718835791L144.37604166666668,52.99246423083358L146.7046875,53.90495445631729L149.03333333333333,46.95770638884341L151.36197916666666,42.78935754836182L153.690625,40.28834824407394L156.01927083333334,38.78774266150153L158.34791666666666,41.634750413337876L160.6765625,43.342955064439586L163.00520833333334,48.115248956480016L165.33385416666667,43.483883088945326L167.6625,40.70506356842454L169.99114583333332,39.03777185611208L172.31979166666667,45.53213903148351L174.6484375,49.42875933670624L176.97708333333333,51.76673151983993L179.30572916666668,45.67477262696137L181.634375,42.01959729123418L183.96302083333333,39.82649208979786L186.29166666666666,38.51062896893608L188.6203125,37.72111109641906L190.94895833333334,44.74214257566761L193.27760416666666,41.46001926045798L195.60625,39.49074527133216L197.93489583333334,38.30918087785669L200.26354166666667,37.6002422417714L202.5921875,37.17487906012023L204.92083333333332,36.919661151129525L207.24947916666667,36.76653040573509L209.578125,36.67465195849844L211.90677083333333,36.619524890156455L214.23541666666668,36.586448649151244L216.5640625,36.56660290454812L218.89270833333333,36.55469545778627L221.22135416666666,36.54755098972915L223.55,36.54326430889486L225.87864583333334,36.540692300394305L228.20729166666666,36.53914909529398L230.5359375,36.538223172233764L232.86458333333334,36.537667618397634L235.19322916666667,36.53733428609597L237.521875,36.537134286714966L239.85052083333332,36.537014287086386L242.17916666666667,36.53694228730922L244.5078125,36.53689908744293L246.83645833333333,36.53687316752314L249.16510416666668,36.536857615571265L251.49375,36.53684828440015" style="fill: none;" fill="none"></path></g><g><path stroke="rgb(187, 187, 187)" stroke-width="2px" d="M23.286458333333332,152.50270729064943L25.615104166666665,152.50270729064948L27.94375,152.50270729064948L30.272395833333334,152.50270729064948L32.60104166666667,152.50270729064948L34.9296875,152.5027072906494L37.25833333333333,152.50270729064943L39.586979166666666,152.50270729064943L41.915625,152.50270729064948L44.24427083333333,152.50270729064948L46.572916666666664,152.50270729064948L48.9015625,152.50270729064943L51.23020833333333,152.50270729064943L53.55885416666667,152.50270729064943L55.8875,152.50270729064948L58.216145833333336,152.50270729064948L60.54479166666667,152.50270729064943L62.8734375,152.50270729064948L65.20208333333333,152.50270729064943L67.53072916666667,152.50270729064943L69.859375,152.50270729064943L72.18802083333334,152.50270729064948L74.51666666666667,152.50270729064948L76.8453125,152.50270729064948L79.17395833333333,152.50270729064943L81.50260416666667,152.50270729064948L83.83125,151.2198238594055L86.15989583333334,145.31855452914078L88.48854166666666,141.77779525030147L90.8171875,139.65334051795222L93.14583333333333,135.8129034023417L95.47447916666667,132.22575923867396L97.803125,122.37617984627454L100.13177083333333,110.05201324924295L102.46041666666666,97.52598495589417L104.7890625,88.72748598623967L107.11770833333334,80.88261392249754L109.44635416666667,76.17569071532374L111.775,73.35153680220532L114.10364583333333,71.65704445836104L116.43229166666667,66.79170269574209L118.7609375,60.02385128414075L121.08958333333334,53.397376202073325L123.41822916666666,50.704373272504775L125.746875,52.937217870137594L128.07552083333331,54.276924628568736L130.40416666666667,53.797866565300836L132.7328125,50.944667490843706L135.06145833333335,51.7985122826952L137.39010416666665,52.31081915779877L139.71875,52.61820328285821L142.04739583333333,48.953987403206504L144.37604166666668,48.03833999364958L146.7046875,47.48895154791651L149.03333333333333,49.72508271692879L151.36197916666666,51.06676141833522L153.690625,48.02312228450264L156.01927083333334,47.47982092242882L158.34791666666666,49.71960434163496L160.6765625,49.78059227493342L163.00520833333334,49.81718503491245L165.33385416666667,49.83914069089988L167.6625,48.56943196626722L169.99114583333332,46.52472461326253L172.31979166666667,47.86366443790995L174.6484375,47.384146214473255L176.97708333333333,45.813553162186146L179.30572916666668,47.43696156726412L181.634375,47.12812449208577L183.96302083333333,45.65994012875365L186.29166666666666,44.779029510754384L188.6203125,48.0991294946301L190.94895833333334,48.80830736673046L193.27760416666666,47.950931971765606L195.60625,50.00227097123688L197.93489583333334,49.95019225269452L200.26354166666667,48.636062903344026L202.5921875,50.413349530183936L204.92083333333332,51.47972150628786L207.24947916666667,52.11954469195021L209.578125,52.503438603347654L211.90677083333333,51.45089283196099L214.23541666666668,50.81936536912902L216.5640625,50.440448891429824L218.89270833333333,50.2130990048103L221.22135416666666,51.359571191063694L223.55,52.04745450281571L225.87864583333334,51.17730237164185L228.20729166666666,49.372328974712424L230.5359375,47.00646281832965L232.86458333333334,49.435589479175256L235.19322916666667,50.89306547568262L237.521875,50.48466895536197L239.85052083333332,47.67386680671937L242.17916666666667,45.9873855175338L244.5078125,47.54126098047269L246.83645833333333,49.756468376461136L249.16510416666668,49.802710695829106L251.49375,51.113338205674985" style="fill: none;" fill="none"></path></g></g></g></g><g opacity="0.2"><g><g><g><path stroke="rgb(255, 112, 67)" stroke-width="2px" d="M23.286458333333332,130.2210481643677L25.615104166666665,130.2210481643677L27.94375,130.2210481643677L30.272395833333334,130.2210481643677L32.60104166666667,130.2210481643677L34.9296875,130.2210481643677L37.25833333333333,130.2210481643677L39.586979166666666,130.2210481643677L41.915625,130.2210481643677L44.24427083333333,130.2210481643677L46.572916666666664,130.2210481643677L48.9015625,130.2210481643677L51.23020833333333,130.2210481643677L53.55885416666667,130.2210481643677L55.8875,130.2210481643677L58.216145833333336,130.2210481643677L60.54479166666667,130.2210481643677L62.8734375,130.2210481643677L65.20208333333333,130.2210481643677L67.53072916666667,130.2210481643677L69.859375,130.2210481643677L72.18802083333334,130.2210481643677L74.51666666666667,130.2210481643677L76.8453125,130.2210481643677L79.17395833333333,130.2210481643677L81.50260416666667,130.2210481643677L83.83125,120.85264163017274L86.15989583333334,102.11578612327577L88.48854166666666,102.11578612327577L90.8171875,102.11578612327577L93.14583333333333,102.11578612327577L95.47447916666667,102.11578612327577L97.803125,92.74735836982728L100.13177083333333,92.74735836982728L102.46041666666666,74.01052408218385L104.7890625,83.37895183563234L107.11770833333334,83.37895183563234L109.44635416666667,83.37895183563234L111.775,83.37895183563234L114.10364583333333,74.01052408218385L116.43229166666667,64.64209632873536L118.7609375,55.273689794540424L121.08958333333334,55.273689794540424L123.41822916666666,64.64209632873536L125.746875,74.01052408218385L128.07552083333331,64.64209632873536L130.40416666666667,55.273689794540424L132.7328125,55.273689794540424L135.06145833333335,36.53683428764345L137.39010416666665,36.53683428764345L139.71875,55.273689794540424L142.04739583333333,55.273689794540424L144.37604166666668,55.273689794540424L146.7046875,55.273689794540424L149.03333333333333,36.53683428764345L151.36197916666666,36.53683428764345L153.690625,36.53683428764345L156.01927083333334,36.53683428764345L158.34791666666666,45.90526204109194L160.6765625,45.90526204109194L163.00520833333334,55.273689794540424L165.33385416666667,36.53683428764345L167.6625,36.53683428764345L169.99114583333332,36.53683428764345L172.31979166666667,55.273689794540424L174.6484375,55.273689794540424L176.97708333333333,55.273689794540424L179.30572916666668,36.53683428764345L181.634375,36.53683428764345L183.96302083333333,36.53683428764345L186.29166666666666,36.53683428764345L188.6203125,36.53683428764345L190.94895833333334,55.273689794540424L193.27760416666666,36.53683428764345L195.60625,36.53683428764345L197.93489583333334,36.53683428764345L200.26354166666667,36.53683428764345L202.5921875,36.53683428764345L204.92083333333332,36.53683428764345L207.24947916666667,36.53683428764345L209.578125,36.53683428764345L211.90677083333333,36.53683428764345L214.23541666666668,36.53683428764345L216.5640625,36.53683428764345L218.89270833333333,36.53683428764345L221.22135416666666,36.53683428764345L223.55,36.53683428764345L225.87864583333334,36.53683428764345L228.20729166666666,36.53683428764345L230.5359375,36.53683428764345L232.86458333333334,36.53683428764345L235.19322916666667,36.53683428764345L237.521875,36.53683428764345L239.85052083333332,36.53683428764345L242.17916666666667,36.53683428764345L244.5078125,36.53683428764345L246.83645833333333,36.53683428764345L249.16510416666668,36.53683428764345L251.49375,36.53683428764345" style="fill: none;" fill="none"></path></g><g><path stroke="rgb(187, 187, 187)" stroke-width="2px" d="M23.286458333333332,152.50270729064943L25.615104166666665,152.50270729064943L27.94375,152.50270729064943L30.272395833333334,152.50270729064943L32.60104166666667,152.50270729064943L34.9296875,152.50270729064943L37.25833333333333,152.50270729064943L39.586979166666666,152.50270729064943L41.915625,152.50270729064943L44.24427083333333,152.50270729064943L46.572916666666664,152.50270729064943L48.9015625,152.50270729064943L51.23020833333333,152.50270729064943L53.55885416666667,152.50270729064943L55.8875,152.50270729064943L58.216145833333336,152.50270729064943L60.54479166666667,152.50270729064943L62.8734375,152.50270729064943L65.20208333333333,152.50270729064943L67.53072916666667,152.50270729064943L69.859375,152.50270729064943L72.18802083333334,152.50270729064943L74.51666666666667,152.50270729064943L76.8453125,152.50270729064943L79.17395833333333,152.50270729064943L81.50260416666667,152.50270729064943L83.83125,149.29550199508668L86.15989583333334,136.46665959358216L88.48854166666666,136.46665959358216L90.8171875,136.46665959358216L93.14583333333333,130.05224900245668L95.47447916666667,126.84504370689393L97.803125,107.60181193351747L100.13177083333333,91.5657642364502L102.46041666666666,78.73694305419923L104.7890625,75.52973775863649L107.11770833333334,69.11530594825746L109.44635416666667,69.11530594825746L111.775,69.11530594825746L114.10364583333333,69.11530594825746L116.43229166666667,59.49369006156923L118.7609375,49.872074174881L121.08958333333334,43.45766358375551L123.41822916666666,46.664868879318256L125.746875,56.28648476600649L128.07552083333331,56.28648476600649L130.40416666666667,53.079279470443744L132.7328125,46.664868879318256L135.06145833333335,53.079279470443744L137.39010416666665,53.079279470443744L139.71875,53.079279470443744L142.04739583333333,43.45766358375551L144.37604166666668,46.664868879318256L146.7046875,46.664868879318256L149.03333333333333,53.079279470443744L151.36197916666666,53.079279470443744L153.690625,43.45766358375551L156.01927083333334,46.664868879318256L158.34791666666666,53.079279470443744L160.6765625,49.872074174881L163.00520833333334,49.872074174881L165.33385416666667,49.872074174881L167.6625,46.664868879318256L169.99114583333332,43.45766358375551L172.31979166666667,49.872074174881L174.6484375,46.664868879318256L176.97708333333333,43.45766358375551L179.30572916666668,49.872074174881L181.634375,46.664868879318256L183.96302083333333,43.45766358375551L186.29166666666666,43.45766358375551L188.6203125,53.079279470443744L190.94895833333334,49.872074174881L193.27760416666666,46.664868879318256L195.60625,53.079279470443744L197.93489583333334,49.872074174881L200.26354166666667,46.664868879318256L202.5921875,53.079279470443744L204.92083333333332,53.079279470443744L207.24947916666667,53.079279470443744L209.578125,53.079279470443744L211.90677083333333,49.872074174881L214.23541666666668,49.872074174881L216.5640625,49.872074174881L218.89270833333333,49.872074174881L221.22135416666666,53.079279470443744L223.55,53.079279470443744L225.87864583333334,49.872074174881L228.20729166666666,46.664868879318256L230.5359375,43.45766358375551L232.86458333333334,53.079279470443744L235.19322916666667,53.079279470443744L237.521875,49.872074174881L239.85052083333332,43.45766358375551L242.17916666666667,43.45766358375551L244.5078125,49.872074174881L246.83645833333333,53.079279470443744L249.16510416666668,49.872074174881L251.49375,53.079279470443744" style="fill: none;" fill="none"></path></g></g></g></g></g></g><g transform="translate(50, 178)" clip-path="url(#clip_1)"><clipPath id="clip_1"><rect width="279" height="21"></rect></clipPath><g><g><line x1="0" y1="0" x2="0" y2="5" style="visibility: inherit;" fill="rgb(0, 0, 0)" stroke="rgb(204, 204, 204)" stroke-width="1px"></line><line x1="23.286458333333332" y1="0" x2="23.286458333333332" y2="5" style="visibility: inherit;" fill="rgb(0, 0, 0)" stroke="rgb(204, 204, 204)" stroke-width="1px"></line><line x1="46.572916666666664" y1="0" x2="46.572916666666664" y2="5" style="visibility: inherit;" fill="rgb(0, 0, 0)" stroke="rgb(204, 204, 204)" stroke-width="1px"></line><line x1="69.859375" y1="0" x2="69.859375" y2="5" style="visibility: inherit;" fill="rgb(0, 0, 0)" stroke="rgb(204, 204, 204)" stroke-width="1px"></line><line x1="93.14583333333333" y1="0" x2="93.14583333333333" y2="5" style="visibility: inherit;" fill="rgb(0, 0, 0)" stroke="rgb(204, 204, 204)" stroke-width="1px"></line><line x1="116.43229166666667" y1="0" x2="116.43229166666667" y2="5" style="visibility: inherit;" fill="rgb(0, 0, 0)" stroke="rgb(204, 204, 204)" stroke-width="1px"></line><line x1="139.71875" y1="0" x2="139.71875" y2="5" style="visibility: inherit;" fill="rgb(0, 0, 0)" stroke="rgb(204, 204, 204)" stroke-width="1px"></line><line x1="163.00520833333334" y1="0" x2="163.00520833333334" y2="5" style="visibility: inherit;" fill="rgb(0, 0, 0)" stroke="rgb(204, 204, 204)" stroke-width="1px"></line><line x1="186.29166666666666" y1="0" x2="186.29166666666666" y2="5" style="visibility: inherit;" fill="rgb(0, 0, 0)" stroke="rgb(204, 204, 204)" stroke-width="1px"></line><line x1="209.578125" y1="0" x2="209.578125" y2="5" style="visibility: inherit;" fill="rgb(0, 0, 0)" stroke="rgb(204, 204, 204)" stroke-width="1px"></line><line x1="232.86458333333334" y1="0" x2="232.86458333333334" y2="5" style="visibility: inherit;" fill="rgb(0, 0, 0)" stroke="rgb(204, 204, 204)" stroke-width="1px"></line><line x1="256.15104166666663" y1="0" x2="256.15104166666663" y2="5" style="visibility: inherit;" fill="rgb(0, 0, 0)" stroke="rgb(204, 204, 204)" stroke-width="1px"></line><line x1="279.4375" y1="0" x2="279.4375" y2="5" style="visibility: inherit;" fill="rgb(0, 0, 0)" stroke="rgb(204, 204, 204)" stroke-width="1px"></line></g><g transform="translate(0, 8)"><text x="0" y="0" dx="0em" dy="0.95em" style="text-anchor: middle; visibility: hidden; font-family: Roboto, sans-serif; font-size: 12px; font-weight: 200;" fill="rgb(50, 49, 63)" stroke="none" stroke-width="1px">-10</text><text x="23.286458333333332" y="0" dx="0em" dy="0.95em" style="text-anchor: middle; visibility: inherit; font-family: Roboto, sans-serif; font-size: 12px; font-weight: 200;" fill="rgb(50, 49, 63)" stroke="none" stroke-width="1px">0</text><text x="46.572916666666664" y="0" dx="0em" dy="0.95em" style="text-anchor: middle; visibility: inherit; font-family: Roboto, sans-serif; font-size: 12px; font-weight: 200;" fill="rgb(50, 49, 63)" stroke="none" stroke-width="1px">10</text><text x="69.859375" y="0" dx="0em" dy="0.95em" style="text-anchor: middle; visibility: inherit; font-family: Roboto, sans-serif; font-size: 12px; font-weight: 200;" fill="rgb(50, 49, 63)" stroke="none" stroke-width="1px">20</text><text x="93.14583333333333" y="0" dx="0em" dy="0.95em" style="text-anchor: middle; visibility: inherit; font-family: Roboto, sans-serif; font-size: 12px; font-weight: 200;" fill="rgb(50, 49, 63)" stroke="none" stroke-width="1px">30</text><text x="116.43229166666667" y="0" dx="0em" dy="0.95em" style="text-anchor: middle; visibility: inherit; font-family: Roboto, sans-serif; font-size: 12px; font-weight: 200;" fill="rgb(50, 49, 63)" stroke="none" stroke-width="1px">40</text><text x="139.71875" y="0" dx="0em" dy="0.95em" style="text-anchor: middle; visibility: inherit; font-family: Roboto, sans-serif; font-size: 12px; font-weight: 200;" fill="rgb(50, 49, 63)" stroke="none" stroke-width="1px">50</text><text x="163.00520833333334" y="0" dx="0em" dy="0.95em" style="text-anchor: middle; visibility: inherit; font-family: Roboto, sans-serif; font-size: 12px; font-weight: 200;" fill="rgb(50, 49, 63)" stroke="none" stroke-width="1px">60</text><text x="186.29166666666666" y="0" dx="0em" dy="0.95em" style="text-anchor: middle; visibility: inherit; font-family: Roboto, sans-serif; font-size: 12px; font-weight: 200;" fill="rgb(50, 49, 63)" stroke="none" stroke-width="1px">70</text><text x="209.578125" y="0" dx="0em" dy="0.95em" style="text-anchor: middle; visibility: inherit; font-family: Roboto, sans-serif; font-size: 12px; font-weight: 200;" fill="rgb(50, 49, 63)" stroke="none" stroke-width="1px">80</text><text x="232.86458333333334" y="0" dx="0em" dy="0.95em" style="text-anchor: middle; visibility: inherit; font-family: Roboto, sans-serif; font-size: 12px; font-weight: 200;" fill="rgb(50, 49, 63)" stroke="none" stroke-width="1px">90</text><text x="256.15104166666663" y="0" dx="0em" dy="0.95em" style="text-anchor: middle; visibility: inherit; font-family: Roboto, sans-serif; font-size: 12px; font-weight: 200;" fill="rgb(50, 49, 63)" stroke="none" stroke-width="1px">100</text><text x="279.4375" y="0" dx="0em" dy="0.95em" style="text-anchor: middle; visibility: hidden; font-family: Roboto, sans-serif; font-size: 12px; font-weight: 200;" fill="rgb(50, 49, 63)" stroke="none" stroke-width="1px">110</text></g><line x1="0" y1="0" x2="279.4375" y2="0" fill="rgb(0, 0, 0)" stroke="rgb(204, 204, 204)" stroke-width="1px"></line></g></g></g></g></svg>