<svg viewBox="0 0 330 200" xmlns="http://www.w3.org/2000/svg"><g><g><g><g><g><line x1="51.5625" y1="178" x2="46.5625" y2="178" style="visibility: inherit;" fill="rgb(0, 0, 0)" stroke="rgb(204, 204, 204)" stroke-width="1px"></line><line x1="51.5625" y1="155.75" x2="46.5625" y2="155.75" style="visibility: inherit;" fill="rgb(0, 0, 0)" stroke="rgb(204, 204, 204)" stroke-width="1px"></line><line x1="51.5625" y1="133.5" x2="46.5625" y2="133.5" style="visibility: inherit;" fill="rgb(0, 0, 0)" stroke="rgb(204, 204, 204)" stroke-width="1px"></line><line x1="51.5625" y1="111.24999999999999" x2="46.5625" y2="111.24999999999999" style="visibility: inherit;" fill="rgb(0, 0, 0)" stroke="rgb(204, 204, 204)" stroke-width="1px"></line><line x1="51.5625" y1="88.99999999999999" x2="46.5625" y2="88.99999999999999" style="visibility: inherit;" fill="rgb(0, 0, 0)" stroke="rgb(204, 204, 204)" stroke-width="1px"></line><line x1="51.5625" y1="66.75" x2="46.5625" y2="66.75" style="visibility: inherit;" fill="rgb(0, 0, 0)" stroke="rgb(204, 204, 204)" stroke-width="1px"></line><line x1="51.5625" y1="44.5" x2="46.5625" y2="44.5" style="visibility: inherit;" fill="rgb(0, 0, 0)" stroke="rgb(204, 204, 204)" stroke-width="1px"></line><line x1="51.5625" y1="22.25" x2="46.5625" y2="22.25" style="visibility: inherit;" fill="rgb(0, 0, 0)" stroke="rgb(204, 204, 204)" stroke-width="1px"></line><line x1="51.5625" y1="0" x2="46.5625" y2="0" style="visibility: inherit;" fill="rgb(0, 0, 0)" stroke="rgb(204, 204, 204)" stroke-width="1px"></line></g><g transform="translate(41.5625, 0)"><text x="0" y="178" dx="0em" dy="0.3em" style="text-anchor: end; visibility: hidden; font-family: Roboto, sans-serif; font-size: 12px; font-weight: 200;" fill="rgb(50, 49, 63)" stroke="none" stroke-width="1px">-0.1</text><text x="0" y="155.75" dx="0em" dy="0.3em" style="text-anchor: end; visibility: inherit; font-family: Roboto, sans-serif; font-size: 12px; font-weight: 200;" fill="rgb(50, 49, 63)" stroke="none" stroke-width="1px">0</text><text x="0" y="133.5" dx="0em" dy="0.3em" style="text-anchor: end; visibility: hidden; font-family: Roboto, sans-serif; font-size: 12px; font-weight: 200;" fill="rgb(50, 49, 63)" stroke="none" stroke-width="1px">0.1</text><text x="0" y="111.24999999999999" dx="0em" dy="0.3em" style="text-anchor: end; visibility: inherit; font-family: Roboto, sans-serif; font-size: 12px; font-weight: 200;" fill="rgb(50, 49, 63)" stroke="none" stroke-width="1px">0.2</text><text x="0" y="88.99999999999999" dx="0em" dy="0.3em" style="text-anchor: end; visibility: hidden; font-family: Roboto, sans-serif; font-size: 12px; font-weight: 200;" fill="rgb(50, 49, 63)" stroke="none" stroke-width="1px">0.3</text><text x="0" y="66.75" dx="0em" dy="0.3em" style="text-anchor: end; visibility: inherit; font-family: Roboto, sans-serif; font-size: 12px; font-weight: 200;" fill="rgb(50, 49, 63)" stroke="none" stroke-width="1px">0.4</text><text x="0" y="44.5" dx="0em" dy="0.3em" style="text-anchor: end; visibility: hidden; font-family: Roboto, sans-serif; font-size: 12px; font-weight: 200;" fill="rgb(50, 49, 63)" stroke="none" stroke-width="1px">0.5</text><text x="0" y="22.25" dx="0em" dy="0.3em" style="text-anchor: end; visibility: inherit; font-family: Roboto, sans-serif; font-size: 12px; font-weight: 200;" fill="rgb(50, 49, 63)" stroke="none" stroke-width="1px">0.6</text><text x="0" y="0" dx="0em" dy="0.3em" style="text-anchor: end; visibility: hidden; font-family: Roboto, sans-serif; font-size: 12px; font-weight: 200;" fill="rgb(50, 49, 63)" stroke="none" stroke-width="1px">0.7</text></g><line x1="51.5625" y1="0" x2="51.5625" y2="178" fill="rgb(0, 0, 0)" stroke="rgb(204, 204, 204)" stroke-width="1px"></line></g></g><g transform="translate(51, 0)" clip-path="url(#clip_0)"><clipPath id="clip_0"><rect width="278" height="178"></rect></clipPath><g><g><g><line x1="0" y1="0" x2="0" y2="178" fill="rgb(0, 0, 0)" stroke="rgb(60, 60, 60)" stroke-width="1px" opacity="0.25"></line><line x1="30.9375" y1="0" x2="30.9375" y2="178" fill="rgb(0, 0, 0)" stroke="rgb(60, 60, 60)" stroke-width="1px" opacity="0.25"></line><line x1="61.875" y1="0" x2="61.875" y2="178" fill="rgb(0, 0, 0)" stroke="rgb(60, 60, 60)" stroke-width="1px" opacity="0.25"></line><line x1="92.8125" y1="0" x2="92.8125" y2="178" fill="rgb(0, 0, 0)" stroke="rgb(60, 60, 60)" stroke-width="1px" opacity="0.25"></line><line x1="123.75" y1="0" x2="123.75" y2="178" fill="rgb(0, 0, 0)" stroke="rgb(60, 60, 60)" stroke-width="1px" opacity="0.25"></line><line x1="154.6875" y1="0" x2="154.6875" y2="178" fill="rgb(0, 0, 0)" stroke="rgb(60, 60, 60)" stroke-width="1px" opacity="0.25"></line><line x1="185.625" y1="0" x2="185.625" y2="178" fill="rgb(0, 0, 0)" stroke="rgb(60, 60, 60)" stroke-width="1px" opacity="0.25"></line><line x1="216.5625" y1="0" x2="216.5625" y2="178" fill="rgb(0, 0, 0)" stroke="rgb(60, 60, 60)" stroke-width="1px" opacity="0.25"></line><line x1="247.5" y1="0" x2="247.5" y2="178" fill="rgb(0, 0, 0)" stroke="rgb(60, 60, 60)" stroke-width="1px" opacity="0.25"></line><line x1="278.4375" y1="0" x2="278.4375" y2="178" fill="rgb(0, 0, 0)" stroke="rgb(60, 60, 60)" stroke-width="1px" opacity="0.25"></line></g><g><line x1="0" y1="178" x2="278.4375" y2="178" fill="rgb(0, 0, 0)" stroke="rgb(60, 60, 60)" stroke-width="1px" opacity="0.25"></line><line x1="0" y1="155.75" x2="278.4375" y2="155.75" fill="rgb(0, 0, 0)" stroke="rgb(60, 60, 60)" stroke-width="1px" opacity="0.25"></line><line x1="0" y1="133.5" x2="278.4375" y2="133.5" fill="rgb(0, 0, 0)" stroke="rgb(60, 60, 60)" stroke-width="1px" opacity="0.25"></line><line x1="0" y1="111.24999999999999" x2="278.4375" y2="111.24999999999999" fill="rgb(0, 0, 0)" stroke="rgb(60, 60, 60)" stroke-width="1px" opacity="0.25"></line><line x1="0" y1="88.99999999999999" x2="278.4375" y2="88.99999999999999" fill="rgb(0, 0, 0)" stroke="rgb(60, 60, 60)" stroke-width="1px" opacity="0.25"></line><line x1="0" y1="66.75" x2="278.4375" y2="66.75" fill="rgb(0, 0, 0)" stroke="rgb(60, 60, 60)" stroke-width="1px" opacity="0.25"></line><line x1="0" y1="44.5" x2="278.4375" y2="44.5" fill="rgb(0, 0, 0)" stroke="rgb(60, 60, 60)" stroke-width="1px" opacity="0.25"></line><line x1="0" y1="22.25" x2="278.4375" y2="22.25" fill="rgb(0, 0, 0)" stroke="rgb(60, 60, 60)" stroke-width="1px" opacity="0.25"></line><line x1="0" y1="0" x2="278.4375" y2="0" fill="rgb(0, 0, 0)" stroke="rgb(60, 60, 60)" stroke-width="1px" opacity="0.25"></line></g></g></g><g><g><line x1="0" y1="155.75" x2="278.4375" y2="155.75" fill="rgb(0, 0, 0)" stroke="rgb(153, 153, 153)" stroke-width="1.5px"></line></g></g><g><g><line x1="30.9375" y1="0" x2="30.9375" y2="178" fill="rgb(0, 0, 0)" stroke="rgb(153, 153, 153)" stroke-width="1.5px"></line></g></g><g><g><g><g><g><path stroke="rgb(204, 51, 17)" stroke-width="2px" d="M30.9375,22.83951860666275L34.03125,24.42287278175354L37.125,26.136219243614047L40.21874999999999,28.062945037641956L43.3125,30.112387294408606L46.40625,32.22260897185665L49.5,34.35384624167753L52.59375,36.551626610141476L55.6875,38.82995447593038L58.78125,41.283055678838124L61.875,44.04598830685209L64.96875,47.181321329225526L68.0625,50.446716176038215L71.15625,53.53442571680117L74.25,56.26690017282961L77.34375,58.59878405348962L80.43749999999999,60.58041058234526L83.53125,62.30495932533238L86.625,63.90719691565963L89.71875,65.40165939753108L92.8125,66.82658804145993L95.90625,68.18091101268227L99,69.50026621160274L102.09374999999999,70.78820661669602L105.1875,72.06245095584434L108.28125,73.34580687484467L111.375,74.61329697636421L114.46875,75.89712893568387L117.5625,77.12845054101471L120.65625,78.37276286472753L123.75,79.43927811577402L126.84375,80.5022062908837L129.9375,81.73258774500742L133.03125,82.85689560428892L136.125,84.08992597110178L139.21875,85.262288055872L142.3125,86.29847624469615L145.40625,87.13110323004435L148.5,87.85006793452054L151.59375,88.61868700555041L154.6875,89.47810139826963L157.78125,90.51950213108127L160.87499999999997,91.52318847085408L163.96875,92.35000076847912L167.0625,92.96169329266732L170.15625,93.49619502774821L173.25,93.95418198677793L176.34375,94.5151237533987L179.4375,95.37150482456053L182.53125,96.20910479498684L185.625,96.94898356123794L188.71875,97.5332310922403L191.8125,97.89970200821575L194.90625,98.28256168702175L198,98.94516352855563L201.09375,99.75185040857464L204.18749999999997,100.4949098362094L207.28125,100.98810686669152L210.375,101.24877857864739L213.46875000000003,101.39037719786671L216.5625,101.47146783423725L219.65625,101.9765841671962L222.75,102.75044421906104L225.84375,103.2698573682L228.9375,103.36786981304229L232.03125,103.22453338730179L235.125,103.03044065432455L238.21875,103.2315629726452L241.3125,104.0193232778193L244.40625,104.83457491895446L247.5,105.42784480214648L250.59375,105.67383795059042L253.6875,105.35174433634471L256.78125,105.21666870859737L259.875,105.20188973455116L262.96875,105.42545672719767" style="fill: none;" fill="none"></path></g><g><path stroke="rgb(0, 119, 187)" stroke-width="2px" d="M30.9375,15.31754520535469L34.03125,16.893853925168514L37.125,18.52235212982918L40.21874999999999,20.28696590848267L43.3125,22.01370893800365L46.40625,23.81576378071312L49.5,25.761482144344633L52.59375,27.867474832226115L55.6875,30.212316289593307L58.78125,32.58598112774629L61.875,35.40990116633027L64.96875,38.366793739068044L68.0625,41.55176997995443L71.15625,44.75382720642554L74.25,47.78975969291413L77.34375,50.418062939062835L80.43749999999999,52.75081454145776L83.53125,54.65176484938485L86.625,56.593414426676055L89.71875,58.38115753011669L92.8125,60.07594759344085L95.90625,61.667714554617746L99,63.23353053020766L102.09374999999999,64.69250973302006L105.1875,66.12005916328401L108.28125,67.54767157827402L111.375,68.93377243999471L114.46875,70.31646722543235L117.5625,71.57573380966043L120.65625,72.90242040816501L123.75,74.1257720880989L126.84375,75.33617383894102L129.9375,76.5698706480293L133.03125,77.70518590320108L136.125,78.92276859772572L139.21875,79.93742544202927L142.3125,80.89000858508334L145.40625,82.02708340496508L148.5,83.06583827852582L151.59375,84.03955104552357L154.6875,84.93739662005582L157.78125,85.88443136519516L160.87499999999997,86.72533818690215L163.96875,87.5583457150009L167.0625,88.4531360268299L170.15625,89.1865721166415L173.25,89.88558823589811L176.34375,90.5701961381847L179.4375,91.21855816625126L182.53125,91.98514282336001L185.625,92.70119939822403L188.71875,93.34607084142424L191.8125,93.99288977710872L194.90625,94.38260971622785L198,95.0158225126099L201.09375,95.64316668671579L204.18749999999997,95.99108634330167L207.28125,96.41793492995109L210.375,96.89948538877019L213.46875000000003,97.36199181042582L216.5625,97.63443752385658L219.65625,98.1270686224549L222.75,98.19648452016406L225.84375,98.60987150915084L228.9375,99.15180893091927L232.03125,99.60608391075473L235.125,99.72525889342512L238.21875,99.91254939237527L241.3125,100.40316616951996L244.40625,100.76129080927119L247.5,100.91116969332542L250.59375,101.29365217712785L253.6875,101.56086950020354L256.78125,101.78400888452745L259.875,102.06849218851218L262.96875,102.32798872557814" style="fill: none;" fill="none"></path></g></g></g></g><g opacity="0.2"><g><g><g><path stroke="rgb(204, 51, 17)" stroke-width="2px" d="M30.9375,22.83951860666275L34.03125,25.372885286808014L37.125,27.781031847000122L40.21874999999999,30.328774571418762L43.3125,32.78813910484314L46.40625,35.1418052315712L49.5,37.40154963731766L52.59375,39.75601148605347L55.6875,42.19004553556442L58.78125,44.92562507092953L61.875,48.16532765328884L64.96875,51.86725851893425L68.0625,55.33414636552334L71.15625,58.159940883517265L74.25,60.36239993572235L77.34375,62.0949652493L80.43749999999999,63.55201181769371L83.53125,64.89134457707405L86.625,66.31030921638012L89.71875,67.64321652054787L92.8125,68.9639028608799L95.90625,70.21235090494156L99,71.47927296161652L102.09374999999999,72.72010196745396L105.1875,73.97380840778351L108.28125,75.2708352804184L111.375,76.51452888548374L114.46875,77.8228749036789L117.5625,78.97543181478977L120.65625,80.2392306625843L123.75,81.03905063867569L126.84375,82.09659834206104L129.9375,83.57815977931023L133.03125,84.54335731267929L136.125,85.93947146832943L139.21875,87.02083115279675L142.3125,87.8527585119009L145.40625,88.38004370033741L148.5,88.9285149872303L151.59375,89.77161560952663L154.6875,90.76722298562527L157.78125,92.08160322904587L160.87499999999997,93.02871797978878L163.96875,93.5902192145586L167.0625,93.87923207879066L170.15625,94.29794763028622L173.25,94.64116242527962L176.34375,95.35653640329838L179.4375,96.65607643127441L182.53125,97.4655047506094L185.625,98.05880171060562L188.71875,98.40960238873959L191.8125,98.44940838217735L194.90625,98.85685120522976L198,99.93906629085541L201.09375,100.96188072860241L204.18749999999997,101.60949897766113L207.28125,101.72790241241455L210.375,101.63978614658117L213.46875000000003,101.60277512669563L216.5625,101.59310378879309L219.65625,102.73425866663456L222.75,103.91123429685831L225.84375,104.04897709190845L228.9375,103.51488848030567L232.03125,103.00952874869108L235.125,102.73930155485868L238.21875,103.53324645012617L241.3125,105.20096373558044L244.40625,106.0574523806572L247.5,106.31774962693453L250.59375,106.0428276732564L253.6875,104.86860391497612L256.78125,105.01405526697636L259.875,105.17972127348185L262.96875,105.76080721616745" style="fill: none;" fill="none"></path></g><g><path stroke="rgb(0, 119, 187)" stroke-width="2px" d="M30.9375,15.31754520535469L34.03125,17.83963915705681L37.125,20.085710406303406L40.21874999999999,22.362151712179184L43.3125,24.268144637346268L46.40625,26.308654367923737L49.5,28.54389053583145L52.59375,30.938032388687134L55.6875,33.67050197720528L58.78125,36.110596776008606L61.875,39.62016847729683L64.96875,42.78604131937027L68.0625,46.31883484125137L71.15625,49.550639882683754L74.25,52.34008979797363L77.34375,54.358664125204086L80.43749999999999,56.24895480275154L83.53125,57.50270766019821L86.625,59.5055930018425L89.71875,61.062608778476715L92.8125,62.61803974211216L95.90625,64.05531261861324L99,65.58222357928753L102.09374999999999,66.88096125423908L105.1875,68.26137316226959L108.28125,69.6890841126442L111.375,71.01292018592358L114.46875,72.39050728082657L117.5625,73.46463252604008L120.65625,74.89244957268238L123.75,75.96079920232296L126.84375,77.15177622437477L129.9375,78.42041571438313L133.03125,79.40815870463848L136.125,80.7491425871849L139.21875,81.4594106823206L142.3125,82.31888328492641L145.40625,83.73269562423229L148.5,84.62397058308125L151.59375,85.50012019276619L154.6875,86.2841649800539L157.78125,87.3049834817648L160.87499999999997,87.98669841885567L163.96875,88.80785700678825L167.0625,89.7953214943409L170.15625,90.28672625124454L173.25,90.93411241471767L176.34375,91.5971079915762L179.4375,92.1911012083292L182.53125,93.13501980900764L185.625,93.7752842605114L188.71875,94.31337800621986L191.8125,94.96311818063259L194.90625,94.96718962490559L198,95.96564170718193L201.09375,96.58418294787407L204.18749999999997,96.51296582818031L207.28125,97.05820780992508L210.375,97.62181107699871L213.46875000000003,98.05575144290924L216.5625,98.04310609400272L219.65625,98.86601527035236L222.75,98.30060836672783L225.84375,99.22995199263096L228.9375,99.96471506357193L232.03125,100.28749638050795L235.125,99.90402136743069L238.21875,100.19348514080048L241.3125,101.13909133523703L244.40625,101.29847776889801L247.5,101.1359880194068L250.59375,101.86737590283155L253.6875,101.96169548481703L256.78125,102.11871796101332L259.875,102.49521714448929L262.96875,102.71723353117704" style="fill: none;" fill="none"></path></g></g></g></g></g><g><g opacity="0.033866"><span fill="rgb(0, 0, 0)" stroke="none" stroke-width="1px">Alt + Scroll to Zoom</span></g></g></g><g transform="translate(51, 178)" clip-path="url(#clip_1)"><clipPath id="clip_1"><rect width="278" height="22"></rect></clipPath><g><g><line x1="0" y1="0" x2="0" y2="5" style="visibility: inherit;" fill="rgb(0, 0, 0)" stroke="rgb(204, 204, 204)" stroke-width="1px"></line><line x1="30.9375" y1="0" x2="30.9375" y2="5" style="visibility: inherit;" fill="rgb(0, 0, 0)" stroke="rgb(204, 204, 204)" stroke-width="1px"></line><line x1="61.875" y1="0" x2="61.875" y2="5" style="visibility: inherit;" fill="rgb(0, 0, 0)" stroke="rgb(204, 204, 204)" stroke-width="1px"></line><line x1="92.8125" y1="0" x2="92.8125" y2="5" style="visibility: inherit;" fill="rgb(0, 0, 0)" stroke="rgb(204, 204, 204)" stroke-width="1px"></line><line x1="123.75" y1="0" x2="123.75" y2="5" style="visibility: inherit;" fill="rgb(0, 0, 0)" stroke="rgb(204, 204, 204)" stroke-width="1px"></line><line x1="154.6875" y1="0" x2="154.6875" y2="5" style="visibility: inherit;" fill="rgb(0, 0, 0)" stroke="rgb(204, 204, 204)" stroke-width="1px"></line><line x1="185.625" y1="0" x2="185.625" y2="5" style="visibility: inherit;" fill="rgb(0, 0, 0)" stroke="rgb(204, 204, 204)" stroke-width="1px"></line><line x1="216.5625" y1="0" x2="216.5625" y2="5" style="visibility: inherit;" fill="rgb(0, 0, 0)" stroke="rgb(204, 204, 204)" stroke-width="1px"></line><line x1="247.5" y1="0" x2="247.5" y2="5" style="visibility: inherit;" fill="rgb(0, 0, 0)" stroke="rgb(204, 204, 204)" stroke-width="1px"></line><line x1="278.4375" y1="0" x2="278.4375" y2="5" style="visibility: inherit;" fill="rgb(0, 0, 0)" stroke="rgb(204, 204, 204)" stroke-width="1px"></line></g><g transform="translate(0, 8)"><text x="0" y="0" dx="0em" dy="0.95em" style="text-anchor: middle; visibility: hidden; font-family: Roboto, sans-serif; font-size: 12px; font-weight: 200;" fill="rgb(50, 49, 63)" stroke="none" stroke-width="1px">-10</text><text x="30.9375" y="0" dx="0em" dy="0.95em" style="text-anchor: middle; visibility: inherit; font-family: Roboto, sans-serif; font-size: 12px; font-weight: 200;" fill="rgb(50, 49, 63)" stroke="none" stroke-width="1px">0</text><text x="61.875" y="0" dx="0em" dy="0.95em" style="text-anchor: middle; visibility: inherit; font-family: Roboto, sans-serif; font-size: 12px; font-weight: 200;" fill="rgb(50, 49, 63)" stroke="none" stroke-width="1px">10</text><text x="92.8125" y="0" dx="0em" dy="0.95em" style="text-anchor: middle; visibility: inherit; font-family: Roboto, sans-serif; font-size: 12px; font-weight: 200;" fill="rgb(50, 49, 63)" stroke="none" stroke-width="1px">20</text><text x="123.75" y="0" dx="0em" dy="0.95em" style="text-anchor: middle; visibility: inherit; font-family: Roboto, sans-serif; font-size: 12px; font-weight: 200;" fill="rgb(50, 49, 63)" stroke="none" stroke-width="1px">30</text><text x="154.6875" y="0" dx="0em" dy="0.95em" style="text-anchor: middle; visibility: inherit; font-family: Roboto, sans-serif; font-size: 12px; font-weight: 200;" fill="rgb(50, 49, 63)" stroke="none" stroke-width="1px">40</text><text x="185.625" y="0" dx="0em" dy="0.95em" style="text-anchor: middle; visibility: inherit; font-family: Roboto, sans-serif; font-size: 12px; font-weight: 200;" fill="rgb(50, 49, 63)" stroke="none" stroke-width="1px">50</text><text x="216.5625" y="0" dx="0em" dy="0.95em" style="text-anchor: middle; visibility: inherit; font-family: Roboto, sans-serif; font-size: 12px; font-weight: 200;" fill="rgb(50, 49, 63)" stroke="none" stroke-width="1px">60</text><text x="247.5" y="0" dx="0em" dy="0.95em" style="text-anchor: middle; visibility: inherit; font-family: Roboto, sans-serif; font-size: 12px; font-weight: 200;" fill="rgb(50, 49, 63)" stroke="none" stroke-width="1px">70</text><text x="278.4375" y="0" dx="0em" dy="0.95em" style="text-anchor: middle; visibility: hidden; font-family: Roboto, sans-serif; font-size: 12px; font-weight: 200;" fill="rgb(50, 49, 63)" stroke="none" stroke-width="1px">80</text></g><line x1="0" y1="0" x2="278.4375" y2="0" fill="rgb(0, 0, 0)" stroke="rgb(204, 204, 204)" stroke-width="1px"></line></g></g></g></g></svg>