<svg viewBox="0 0 330 200" xmlns="http://www.w3.org/2000/svg"><g><g><g><g><g><line x1="51.5625" y1="178" x2="46.5625" y2="178" style="visibility: inherit;" fill="rgb(0, 0, 0)" stroke="rgb(204, 204, 204)" stroke-width="1px"></line><line x1="51.5625" y1="165.28571428571428" x2="46.5625" y2="165.28571428571428" style="visibility: inherit;" fill="rgb(0, 0, 0)" stroke="rgb(204, 204, 204)" stroke-width="1px"></line><line x1="51.5625" y1="152.57142857142856" x2="46.5625" y2="152.57142857142856" style="visibility: inherit;" fill="rgb(0, 0, 0)" stroke="rgb(204, 204, 204)" stroke-width="1px"></line><line x1="51.5625" y1="139.8571428571429" x2="46.5625" y2="139.8571428571429" style="visibility: inherit;" fill="rgb(0, 0, 0)" stroke="rgb(204, 204, 204)" stroke-width="1px"></line><line x1="51.5625" y1="127.14285714285717" x2="46.5625" y2="127.14285714285717" style="visibility: inherit;" fill="rgb(0, 0, 0)" stroke="rgb(204, 204, 204)" stroke-width="1px"></line><line x1="51.5625" y1="114.42857142857146" x2="46.5625" y2="114.42857142857146" style="visibility: inherit;" fill="rgb(0, 0, 0)" stroke="rgb(204, 204, 204)" stroke-width="1px"></line><line x1="51.5625" y1="101.71428571428572" x2="46.5625" y2="101.71428571428572" style="visibility: inherit;" fill="rgb(0, 0, 0)" stroke="rgb(204, 204, 204)" stroke-width="1px"></line><line x1="51.5625" y1="89" x2="46.5625" y2="89" style="visibility: inherit;" fill="rgb(0, 0, 0)" stroke="rgb(204, 204, 204)" stroke-width="1px"></line><line x1="51.5625" y1="76.28571428571428" x2="46.5625" y2="76.28571428571428" style="visibility: inherit;" fill="rgb(0, 0, 0)" stroke="rgb(204, 204, 204)" stroke-width="1px"></line><line x1="51.5625" y1="63.57142857142862" x2="46.5625" y2="63.57142857142862" style="visibility: inherit;" fill="rgb(0, 0, 0)" stroke="rgb(204, 204, 204)" stroke-width="1px"></line><line x1="51.5625" y1="50.8571428571429" x2="46.5625" y2="50.8571428571429" style="visibility: inherit;" fill="rgb(0, 0, 0)" stroke="rgb(204, 204, 204)" stroke-width="1px"></line><line x1="51.5625" y1="38.14285714285717" x2="46.5625" y2="38.14285714285717" style="visibility: inherit;" fill="rgb(0, 0, 0)" stroke="rgb(204, 204, 204)" stroke-width="1px"></line><line x1="51.5625" y1="25.428571428571455" x2="46.5625" y2="25.428571428571455" style="visibility: inherit;" fill="rgb(0, 0, 0)" stroke="rgb(204, 204, 204)" stroke-width="1px"></line><line x1="51.5625" y1="12.714285714285728" x2="46.5625" y2="12.714285714285728" style="visibility: inherit;" fill="rgb(0, 0, 0)" stroke="rgb(204, 204, 204)" stroke-width="1px"></line><line x1="51.5625" y1="0" x2="46.5625" y2="0" style="visibility: inherit;" fill="rgb(0, 0, 0)" stroke="rgb(204, 204, 204)" stroke-width="1px"></line></g><g transform="translate(41.5625, 0)"><text x="0" y="178" dx="0em" dy="0.3em" style="text-anchor: end; visibility: hidden; font-family: Roboto, sans-serif; font-size: 12px; font-weight: 200;" fill="rgb(50, 49, 63)" stroke="none" stroke-width="1px">0.76</text><text x="0" y="165.28571428571428" dx="0em" dy="0.3em" style="text-anchor: end; visibility: inherit; font-family: Roboto, sans-serif; font-size: 12px; font-weight: 200;" fill="rgb(50, 49, 63)" stroke="none" stroke-width="1px">0.78</text><text x="0" y="152.57142857142856" dx="0em" dy="0.3em" style="text-anchor: end; visibility: hidden; font-family: Roboto, sans-serif; font-size: 12px; font-weight: 200;" fill="rgb(50, 49, 63)" stroke="none" stroke-width="1px">0.8</text><text x="0" y="139.8571428571429" dx="0em" dy="0.3em" style="text-anchor: end; visibility: inherit; font-family: Roboto, sans-serif; font-size: 12px; font-weight: 200;" fill="rgb(50, 49, 63)" stroke="none" stroke-width="1px">0.82</text><text x="0" y="127.14285714285717" dx="0em" dy="0.3em" style="text-anchor: end; visibility: hidden; font-family: Roboto, sans-serif; font-size: 12px; font-weight: 200;" fill="rgb(50, 49, 63)" stroke="none" stroke-width="1px">0.84</text><text x="0" y="114.42857142857146" dx="0em" dy="0.3em" style="text-anchor: end; visibility: inherit; font-family: Roboto, sans-serif; font-size: 12px; font-weight: 200;" fill="rgb(50, 49, 63)" stroke="none" stroke-width="1px">0.86</text><text x="0" y="101.71428571428572" dx="0em" dy="0.3em" style="text-anchor: end; visibility: hidden; font-family: Roboto, sans-serif; font-size: 12px; font-weight: 200;" fill="rgb(50, 49, 63)" stroke="none" stroke-width="1px">0.88</text><text x="0" y="89" dx="0em" dy="0.3em" style="text-anchor: end; visibility: inherit; font-family: Roboto, sans-serif; font-size: 12px; font-weight: 200;" fill="rgb(50, 49, 63)" stroke="none" stroke-width="1px">0.9</text><text x="0" y="76.28571428571428" dx="0em" dy="0.3em" style="text-anchor: end; visibility: hidden; font-family: Roboto, sans-serif; font-size: 12px; font-weight: 200;" fill="rgb(50, 49, 63)" stroke="none" stroke-width="1px">0.92</text><text x="0" y="63.57142857142862" dx="0em" dy="0.3em" style="text-anchor: end; visibility: inherit; font-family: Roboto, sans-serif; font-size: 12px; font-weight: 200;" fill="rgb(50, 49, 63)" stroke="none" stroke-width="1px">0.94</text><text x="0" y="50.8571428571429" dx="0em" dy="0.3em" style="text-anchor: end; visibility: hidden; font-family: Roboto, sans-serif; font-size: 12px; font-weight: 200;" fill="rgb(50, 49, 63)" stroke="none" stroke-width="1px">0.96</text><text x="0" y="38.14285714285717" dx="0em" dy="0.3em" style="text-anchor: end; visibility: inherit; font-family: Roboto, sans-serif; font-size: 12px; font-weight: 200;" fill="rgb(50, 49, 63)" stroke="none" stroke-width="1px">0.98</text><text x="0" y="25.428571428571455" dx="0em" dy="0.3em" style="text-anchor: end; visibility: hidden; font-family: Roboto, sans-serif; font-size: 12px; font-weight: 200;" fill="rgb(50, 49, 63)" stroke="none" stroke-width="1px">1</text><text x="0" y="12.714285714285728" dx="0em" dy="0.3em" style="text-anchor: end; visibility: inherit; font-family: Roboto, sans-serif; font-size: 12px; font-weight: 200;" fill="rgb(50, 49, 63)" stroke="none" stroke-width="1px">1.02</text><text x="0" y="0" dx="0em" dy="0.3em" style="text-anchor: end; visibility: hidden; font-family: Roboto, sans-serif; font-size: 12px; font-weight: 200;" fill="rgb(50, 49, 63)" stroke="none" stroke-width="1px">1.04</text></g><line x1="51.5625" y1="0" x2="51.5625" y2="178" fill="rgb(0, 0, 0)" stroke="rgb(204, 204, 204)" stroke-width="1px"></line></g></g><g transform="translate(51, 0)" clip-path="url(#clip_0)"><clipPath id="clip_0"><rect width="278" height="178"></rect></clipPath><g><g><g><line x1="0" y1="0" x2="0" y2="178" fill="rgb(0, 0, 0)" stroke="rgb(60, 60, 60)" stroke-width="1px" opacity="0.25"></line><line x1="30.9375" y1="0" x2="30.9375" y2="178" fill="rgb(0, 0, 0)" stroke="rgb(60, 60, 60)" stroke-width="1px" opacity="0.25"></line><line x1="61.875" y1="0" x2="61.875" y2="178" fill="rgb(0, 0, 0)" stroke="rgb(60, 60, 60)" stroke-width="1px" opacity="0.25"></line><line x1="92.8125" y1="0" x2="92.8125" y2="178" fill="rgb(0, 0, 0)" stroke="rgb(60, 60, 60)" stroke-width="1px" opacity="0.25"></line><line x1="123.75" y1="0" x2="123.75" y2="178" fill="rgb(0, 0, 0)" stroke="rgb(60, 60, 60)" stroke-width="1px" opacity="0.25"></line><line x1="154.6875" y1="0" x2="154.6875" y2="178" fill="rgb(0, 0, 0)" stroke="rgb(60, 60, 60)" stroke-width="1px" opacity="0.25"></line><line x1="185.625" y1="0" x2="185.625" y2="178" fill="rgb(0, 0, 0)" stroke="rgb(60, 60, 60)" stroke-width="1px" opacity="0.25"></line><line x1="216.5625" y1="0" x2="216.5625" y2="178" fill="rgb(0, 0, 0)" stroke="rgb(60, 60, 60)" stroke-width="1px" opacity="0.25"></line><line x1="247.5" y1="0" x2="247.5" y2="178" fill="rgb(0, 0, 0)" stroke="rgb(60, 60, 60)" stroke-width="1px" opacity="0.25"></line><line x1="278.4375" y1="0" x2="278.4375" y2="178" fill="rgb(0, 0, 0)" stroke="rgb(60, 60, 60)" stroke-width="1px" opacity="0.25"></line></g><g><line x1="0" y1="178" x2="278.4375" y2="178" fill="rgb(0, 0, 0)" stroke="rgb(60, 60, 60)" stroke-width="1px" opacity="0.25"></line><line x1="0" y1="165.28571428571428" x2="278.4375" y2="165.28571428571428" fill="rgb(0, 0, 0)" stroke="rgb(60, 60, 60)" stroke-width="1px" opacity="0.25"></line><line x1="0" y1="152.57142857142856" x2="278.4375" y2="152.57142857142856" fill="rgb(0, 0, 0)" stroke="rgb(60, 60, 60)" stroke-width="1px" opacity="0.25"></line><line x1="0" y1="139.8571428571429" x2="278.4375" y2="139.8571428571429" fill="rgb(0, 0, 0)" stroke="rgb(60, 60, 60)" stroke-width="1px" opacity="0.25"></line><line x1="0" y1="127.14285714285717" x2="278.4375" y2="127.14285714285717" fill="rgb(0, 0, 0)" stroke="rgb(60, 60, 60)" stroke-width="1px" opacity="0.25"></line><line x1="0" y1="114.42857142857146" x2="278.4375" y2="114.42857142857146" fill="rgb(0, 0, 0)" stroke="rgb(60, 60, 60)" stroke-width="1px" opacity="0.25"></line><line x1="0" y1="101.71428571428572" x2="278.4375" y2="101.71428571428572" fill="rgb(0, 0, 0)" stroke="rgb(60, 60, 60)" stroke-width="1px" opacity="0.25"></line><line x1="0" y1="89" x2="278.4375" y2="89" fill="rgb(0, 0, 0)" stroke="rgb(60, 60, 60)" stroke-width="1px" opacity="0.25"></line><line x1="0" y1="76.28571428571428" x2="278.4375" y2="76.28571428571428" fill="rgb(0, 0, 0)" stroke="rgb(60, 60, 60)" stroke-width="1px" opacity="0.25"></line><line x1="0" y1="63.57142857142862" x2="278.4375" y2="63.57142857142862" fill="rgb(0, 0, 0)" stroke="rgb(60, 60, 60)" stroke-width="1px" opacity="0.25"></line><line x1="0" y1="50.8571428571429" x2="278.4375" y2="50.8571428571429" fill="rgb(0, 0, 0)" stroke="rgb(60, 60, 60)" stroke-width="1px" opacity="0.25"></line><line x1="0" y1="38.14285714285717" x2="278.4375" y2="38.14285714285717" fill="rgb(0, 0, 0)" stroke="rgb(60, 60, 60)" stroke-width="1px" opacity="0.25"></line><line x1="0" y1="25.428571428571455" x2="278.4375" y2="25.428571428571455" fill="rgb(0, 0, 0)" stroke="rgb(60, 60, 60)" stroke-width="1px" opacity="0.25"></line><line x1="0" y1="12.714285714285728" x2="278.4375" y2="12.714285714285728" fill="rgb(0, 0, 0)" stroke="rgb(60, 60, 60)" stroke-width="1px" opacity="0.25"></line><line x1="0" y1="0" x2="278.4375" y2="0" fill="rgb(0, 0, 0)" stroke="rgb(60, 60, 60)" stroke-width="1px" opacity="0.25"></line></g></g></g><g><g><line x1="0" y1="661.1428571428571" x2="278.4375" y2="661.1428571428571" fill="rgb(0, 0, 0)" stroke="rgb(153, 153, 153)" stroke-width="1.5px"></line></g></g><g><g><line x1="30.9375" y1="0" x2="30.9375" y2="178" fill="rgb(0, 0, 0)" stroke="rgb(153, 153, 153)" stroke-width="1.5px"></line></g></g><g><g><g><g><g><path stroke="rgb(238, 51, 119)" stroke-width="2px" d="M30.9375,145.6988457952227L34.03125,145.6988457952227L37.125,145.69884579522264L40.21874999999999,145.6988457952227L43.3125,145.6988457952227L46.40625,145.6988457952227L49.5,145.69884579522278L52.59375,145.69884579522284L55.6875,145.69884579522278L58.78125,145.69884579522278L61.875,145.69884579522278L64.96875,145.69884579522278L68.0625,145.69884579522278L71.15625,145.69884579522278L74.25,145.69884579522284L77.34375,145.69884579522278L80.43749999999999,145.69884579522278L83.53125,145.69884579522278L86.625,145.69884579522278L89.71875,145.6988457952227L92.8125,145.69884579522278L95.90625,145.69884579522264L99,145.6988457952227L102.09374999999999,145.69884579522278L105.1875,145.6988457952227L108.28125,145.69884579522278L111.375,145.69884579522278L114.46875,145.69884579522278L117.5625,145.69884579522278L120.65625,145.69884579522278L123.75,145.6988457952227L126.84375,145.69884579522278L129.9375,145.6988457952227L133.03125,145.6988457952227L136.125,145.6988457952227L139.21875,145.69884579522278L142.3125,145.69884579522278L145.40625,131.95366503516277L148.5,116.83397382027403L151.59375,94.01699354211377L154.6875,80.3268053947381L157.78125,72.11269251334L160.87499999999997,67.18422478703101L163.96875,64.22714415215627L167.0625,62.45289577155936L170.15625,61.38834674331928L173.25,60.74961732641772L176.34375,60.36637967629196L179.4375,60.13643708622212L182.53125,59.99847153218206L185.625,59.91569219975894L188.71875,52.9934266674696L191.8125,41.967484571891084L194.90625,35.35191931455634L198,31.3825801601599L201.09375,29.00097666752358L204.18749999999997,27.572014571942415L207.28125,26.714637314593887L210.375,26.200210960184883L213.46875000000003,25.8915551475395L216.5625,25.706361659952258L219.65625,25.59524556739997L222.75,25.528575911868586L225.84375,25.48857411854975L228.9375,32.337155818764344L232.03125,36.446304838893L235.125,38.91179425097028L238.21875,40.39108789821665L241.3125,34.40608131035855L244.40625,30.815077357643645L247.5,28.66047498601475L250.59375,34.24029633924332L253.6875,37.58818915118037L256.78125,39.59692483834276L259.875,40.802166250640084L262.96875,41.525311098018484" style="fill: none;" fill="none"></path></g><g><path stroke="rgb(51, 187, 238)" stroke-width="2px" d="M30.9375,149.03966569900513L34.03125,149.0396656990052L37.125,149.03966569900513L40.21874999999999,149.03966569900513L43.3125,149.03966569900513L46.40625,149.03966569900507L49.5,149.03966569900513L52.59375,149.03966569900513L55.6875,149.03966569900513L58.78125,149.0396656990052L61.875,149.0396656990052L64.96875,149.03966569900513L68.0625,149.03966569900513L71.15625,149.03966569900513L74.25,149.03966569900513L77.34375,149.03966569900513L80.43749999999999,149.0396656990052L83.53125,149.0396656990053L86.625,149.0396656990052L89.71875,149.03966569900513L92.8125,149.0396656990052L95.90625,149.0396656990052L99,149.0396656990052L102.09374999999999,149.0396656990052L105.1875,149.03966569900513L108.28125,149.0396656990052L111.375,149.03966569900513L114.46875,149.03966569900513L117.5625,149.03966569900513L120.65625,149.03966569900513L123.75,149.03966569900513L126.84375,149.03966569900513L129.9375,149.03966569900507L133.03125,149.0396656990052L136.125,149.0396656990052L139.21875,149.0396656990052L142.3125,146.6851773116312L145.40625,145.27248428853247L148.5,142.0703649433724L151.59375,137.79460496489196L154.6875,135.22914898146178L157.78125,133.68987539272047L160.87499999999997,132.76631123994977L163.96875,132.21217274845804L167.0625,131.8796896536245L170.15625,131.68019979674642L173.25,131.56050588262758L176.34375,131.48868953415916L179.4375,131.44559972507918L182.53125,126.71073878076851L185.625,121.51533384139252L188.71875,120.75257925059263L191.8125,120.2949264961142L194.90625,120.02033484342768L198,119.85557985181588L201.09375,117.40223848404514L204.18749999999997,118.28472203618668L207.28125,118.8142121674714L210.375,119.13190624624225L213.46875000000003,119.32252269350478L216.5625,119.43689256186222L219.65625,119.50551448287669L222.75,119.54668763548533L225.84375,119.57139152705047L228.9375,117.23172548918694L232.03125,118.18241423927151L235.125,118.75282748932231L238.21875,121.44957896876511L241.3125,120.71312632701853L244.40625,120.27125474197034L247.5,120.00613179094157L250.59375,119.84705802032434L253.6875,117.39712538515121L256.78125,120.63615770626255L259.875,127.28856900114442L262.96875,131.28001577807353" style="fill: none;" fill="none"></path></g></g></g></g><g opacity="0.2"><g><g><g><path stroke="rgb(238, 51, 119)" stroke-width="2px" d="M30.9375,145.6988457952227L34.03125,145.6988457952227L37.125,145.6988457952227L40.21874999999999,145.6988457952227L43.3125,145.6988457952227L46.40625,145.6988457952227L49.5,145.6988457952227L52.59375,145.6988457952227L55.6875,145.6988457952227L58.78125,145.6988457952227L61.875,145.6988457952227L64.96875,145.6988457952227L68.0625,145.6988457952227L71.15625,145.6988457952227L74.25,145.6988457952227L77.34375,145.6988457952227L80.43749999999999,145.6988457952227L83.53125,145.6988457952227L86.625,145.6988457952227L89.71875,145.6988457952227L92.8125,145.6988457952227L95.90625,145.6988457952227L99,145.6988457952227L102.09374999999999,145.6988457952227L105.1875,145.6988457952227L108.28125,145.6988457952227L111.375,145.6988457952227L114.46875,145.6988457952227L117.5625,145.6988457952227L120.65625,145.6988457952227L123.75,145.6988457952227L126.84375,145.6988457952227L129.9375,145.6988457952227L133.03125,145.6988457952227L136.125,145.6988457952227L139.21875,145.6988457952227L142.3125,145.6988457952227L145.40625,111.33589402266912L148.5,94.15443708215442L151.59375,59.791523201125024L154.6875,59.791523201125024L157.78125,59.791523201125024L160.87499999999997,59.791523201125024L163.96875,59.791523201125024L167.0625,59.791523201125024L170.15625,59.791523201125024L173.25,59.791523201125024L176.34375,59.791523201125024L179.4375,59.791523201125024L182.53125,59.791523201125024L185.625,59.791523201125024L188.71875,42.610028369086145L191.8125,25.428571428571455L194.90625,25.428571428571455L198,25.428571428571455L201.09375,25.428571428571455L204.18749999999997,25.428571428571455L207.28125,25.428571428571455L210.375,25.428571428571455L213.46875000000003,25.428571428571455L216.5625,25.428571428571455L219.65625,25.428571428571455L222.75,25.428571428571455L225.84375,25.428571428571455L228.9375,42.610028369086145L232.03125,42.610028369086145L235.125,42.610028369086145L238.21875,42.610028369086145L241.3125,25.428571428571455L244.40625,25.428571428571455L247.5,25.428571428571455L250.59375,42.610028369086145L253.6875,42.610028369086145L256.78125,42.610028369086145L259.875,42.610028369086145L262.96875,42.610028369086145" style="fill: none;" fill="none"></path></g><g><path stroke="rgb(51, 187, 238)" stroke-width="2px" d="M30.9375,149.03966569900513L34.03125,149.03966569900513L37.125,149.03966569900513L40.21874999999999,149.03966569900513L43.3125,149.03966569900513L46.40625,149.03966569900513L49.5,149.03966569900513L52.59375,149.03966569900513L55.6875,149.03966569900513L58.78125,149.03966569900513L61.875,149.03966569900513L64.96875,149.03966569900513L68.0625,149.03966569900513L71.15625,149.03966569900513L74.25,149.03966569900513L77.34375,149.03966569900513L80.43749999999999,149.03966569900513L83.53125,149.03966569900513L86.625,149.03966569900513L89.71875,149.03966569900513L92.8125,149.03966569900513L95.90625,149.03966569900513L99,149.03966569900513L102.09374999999999,149.03966569900513L105.1875,149.03966569900513L108.28125,149.03966569900513L111.375,149.03966569900513L114.46875,149.03966569900513L117.5625,149.03966569900513L120.65625,149.03966569900513L123.75,149.03966569900513L126.84375,149.03966569900513L129.9375,149.03966569900513L133.03125,149.03966569900513L136.125,149.03966569900513L139.21875,149.03966569900513L142.3125,143.1534447669983L145.40625,143.1534447669983L148.5,137.26718594346727L151.59375,131.38096501146043L154.6875,131.38096501146043L157.78125,131.38096501146043L160.87499999999997,131.38096501146043L163.96875,131.38096501146043L167.0625,131.38096501146043L170.15625,131.38096501146043L173.25,131.38096501146043L176.34375,131.38096501146043L179.4375,131.38096501146043L182.53125,119.60844736439843L185.625,113.7222264323916L188.71875,119.60844736439843L191.8125,119.60844736439843L194.90625,119.60844736439843L198,119.60844736439843L201.09375,113.7222264323916L204.18749999999997,119.60844736439843L207.28125,119.60844736439843L210.375,119.60844736439843L213.46875000000003,119.60844736439843L216.5625,119.60844736439843L219.65625,119.60844736439843L222.75,119.60844736439843L225.84375,119.60844736439843L228.9375,113.7222264323916L232.03125,119.60844736439843L235.125,119.60844736439843L238.21875,125.49470618792944L241.3125,119.60844736439843L244.40625,119.60844736439843L247.5,119.60844736439843L250.59375,119.60844736439843L253.6875,113.7222264323916L256.78125,125.49470618792944L259.875,137.26718594346727L262.96875,137.26718594346727" style="fill: none;" fill="none"></path></g></g></g></g></g></g><g transform="translate(51, 178)" clip-path="url(#clip_1)"><clipPath id="clip_1"><rect width="278" height="22"></rect></clipPath><g><g><line x1="0" y1="0" x2="0" y2="5" style="visibility: inherit;" fill="rgb(0, 0, 0)" stroke="rgb(204, 204, 204)" stroke-width="1px"></line><line x1="30.9375" y1="0" x2="30.9375" y2="5" style="visibility: inherit;" fill="rgb(0, 0, 0)" stroke="rgb(204, 204, 204)" stroke-width="1px"></line><line x1="61.875" y1="0" x2="61.875" y2="5" style="visibility: inherit;" fill="rgb(0, 0, 0)" stroke="rgb(204, 204, 204)" stroke-width="1px"></line><line x1="92.8125" y1="0" x2="92.8125" y2="5" style="visibility: inherit;" fill="rgb(0, 0, 0)" stroke="rgb(204, 204, 204)" stroke-width="1px"></line><line x1="123.75" y1="0" x2="123.75" y2="5" style="visibility: inherit;" fill="rgb(0, 0, 0)" stroke="rgb(204, 204, 204)" stroke-width="1px"></line><line x1="154.6875" y1="0" x2="154.6875" y2="5" style="visibility: inherit;" fill="rgb(0, 0, 0)" stroke="rgb(204, 204, 204)" stroke-width="1px"></line><line x1="185.625" y1="0" x2="185.625" y2="5" style="visibility: inherit;" fill="rgb(0, 0, 0)" stroke="rgb(204, 204, 204)" stroke-width="1px"></line><line x1="216.5625" y1="0" x2="216.5625" y2="5" style="visibility: inherit;" fill="rgb(0, 0, 0)" stroke="rgb(204, 204, 204)" stroke-width="1px"></line><line x1="247.5" y1="0" x2="247.5" y2="5" style="visibility: inherit;" fill="rgb(0, 0, 0)" stroke="rgb(204, 204, 204)" stroke-width="1px"></line><line x1="278.4375" y1="0" x2="278.4375" y2="5" style="visibility: inherit;" fill="rgb(0, 0, 0)" stroke="rgb(204, 204, 204)" stroke-width="1px"></line></g><g transform="translate(0, 8)"><text x="0" y="0" dx="0em" dy="0.95em" style="text-anchor: middle; visibility: hidden; font-family: Roboto, sans-serif; font-size: 12px; font-weight: 200;" fill="rgb(50, 49, 63)" stroke="none" stroke-width="1px">-10</text><text x="30.9375" y="0" dx="0em" dy="0.95em" style="text-anchor: middle; visibility: inherit; font-family: Roboto, sans-serif; font-size: 12px; font-weight: 200;" fill="rgb(50, 49, 63)" stroke="none" stroke-width="1px">0</text><text x="61.875" y="0" dx="0em" dy="0.95em" style="text-anchor: middle; visibility: inherit; font-family: Roboto, sans-serif; font-size: 12px; font-weight: 200;" fill="rgb(50, 49, 63)" stroke="none" stroke-width="1px">10</text><text x="92.8125" y="0" dx="0em" dy="0.95em" style="text-anchor: middle; visibility: inherit; font-family: Roboto, sans-serif; font-size: 12px; font-weight: 200;" fill="rgb(50, 49, 63)" stroke="none" stroke-width="1px">20</text><text x="123.75" y="0" dx="0em" dy="0.95em" style="text-anchor: middle; visibility: inherit; font-family: Roboto, sans-serif; font-size: 12px; font-weight: 200;" fill="rgb(50, 49, 63)" stroke="none" stroke-width="1px">30</text><text x="154.6875" y="0" dx="0em" dy="0.95em" style="text-anchor: middle; visibility: inherit; font-family: Roboto, sans-serif; font-size: 12px; font-weight: 200;" fill="rgb(50, 49, 63)" stroke="none" stroke-width="1px">40</text><text x="185.625" y="0" dx="0em" dy="0.95em" style="text-anchor: middle; visibility: inherit; font-family: Roboto, sans-serif; font-size: 12px; font-weight: 200;" fill="rgb(50, 49, 63)" stroke="none" stroke-width="1px">50</text><text x="216.5625" y="0" dx="0em" dy="0.95em" style="text-anchor: middle; visibility: inherit; font-family: Roboto, sans-serif; font-size: 12px; font-weight: 200;" fill="rgb(50, 49, 63)" stroke="none" stroke-width="1px">60</text><text x="247.5" y="0" dx="0em" dy="0.95em" style="text-anchor: middle; visibility: inherit; font-family: Roboto, sans-serif; font-size: 12px; font-weight: 200;" fill="rgb(50, 49, 63)" stroke="none" stroke-width="1px">70</text><text x="278.4375" y="0" dx="0em" dy="0.95em" style="text-anchor: middle; visibility: hidden; font-family: Roboto, sans-serif; font-size: 12px; font-weight: 200;" fill="rgb(50, 49, 63)" stroke="none" stroke-width="1px">80</text></g><line x1="0" y1="0" x2="278.4375" y2="0" fill="rgb(0, 0, 0)" stroke="rgb(204, 204, 204)" stroke-width="1px"></line></g></g></g></g></svg>