<svg viewBox="0 0 330 200" xmlns="http://www.w3.org/2000/svg"><g><g><g><g><g><line x1="61.953125" y1="178" x2="56.953125" y2="178" style="visibility: inherit;" fill="rgb(0, 0, 0)" stroke="rgb(204, 204, 204)" stroke-width="1px"></line><line x1="61.953125" y1="163.16666666666666" x2="56.953125" y2="163.16666666666666" style="visibility: inherit;" fill="rgb(0, 0, 0)" stroke="rgb(204, 204, 204)" stroke-width="1px"></line><line x1="61.953125" y1="148.33333333333334" x2="56.953125" y2="148.33333333333334" style="visibility: inherit;" fill="rgb(0, 0, 0)" stroke="rgb(204, 204, 204)" stroke-width="1px"></line><line x1="61.953125" y1="133.5" x2="56.953125" y2="133.5" style="visibility: inherit;" fill="rgb(0, 0, 0)" stroke="rgb(204, 204, 204)" stroke-width="1px"></line><line x1="61.953125" y1="118.66666666666669" x2="56.953125" y2="118.66666666666669" style="visibility: inherit;" fill="rgb(0, 0, 0)" stroke="rgb(204, 204, 204)" stroke-width="1px"></line><line x1="61.953125" y1="103.83333333333334" x2="56.953125" y2="103.83333333333334" style="visibility: inherit;" fill="rgb(0, 0, 0)" stroke="rgb(204, 204, 204)" stroke-width="1px"></line><line x1="61.953125" y1="89.00000000000001" x2="56.953125" y2="89.00000000000001" style="visibility: inherit;" fill="rgb(0, 0, 0)" stroke="rgb(204, 204, 204)" stroke-width="1px"></line><line x1="61.953125" y1="74.16666666666669" x2="56.953125" y2="74.16666666666669" style="visibility: inherit;" fill="rgb(0, 0, 0)" stroke="rgb(204, 204, 204)" stroke-width="1px"></line><line x1="61.953125" y1="59.33333333333336" x2="56.953125" y2="59.33333333333336" style="visibility: inherit;" fill="rgb(0, 0, 0)" stroke="rgb(204, 204, 204)" stroke-width="1px"></line><line x1="61.953125" y1="44.50000000000002" x2="56.953125" y2="44.50000000000002" style="visibility: inherit;" fill="rgb(0, 0, 0)" stroke="rgb(204, 204, 204)" stroke-width="1px"></line><line x1="61.953125" y1="29.66666666666668" x2="56.953125" y2="29.66666666666668" style="visibility: inherit;" fill="rgb(0, 0, 0)" stroke="rgb(204, 204, 204)" stroke-width="1px"></line><line x1="61.953125" y1="14.83333333333334" x2="56.953125" y2="14.83333333333334" style="visibility: inherit;" fill="rgb(0, 0, 0)" stroke="rgb(204, 204, 204)" stroke-width="1px"></line><line x1="61.953125" y1="0" x2="56.953125" y2="0" style="visibility: inherit;" fill="rgb(0, 0, 0)" stroke="rgb(204, 204, 204)" stroke-width="1px"></line></g><g transform="translate(51.953125, 0)"><text x="0" y="178" dx="0em" dy="0.3em" style="text-anchor: end; visibility: hidden; font-family: Roboto, sans-serif; font-size: 12px; font-weight: 200;" fill="rgb(50, 49, 63)" stroke="none" stroke-width="1px">-0.05</text><text x="0" y="163.16666666666666" dx="0em" dy="0.3em" style="text-anchor: end; visibility: inherit; font-family: Roboto, sans-serif; font-size: 12px; font-weight: 200;" fill="rgb(50, 49, 63)" stroke="none" stroke-width="1px">0</text><text x="0" y="148.33333333333334" dx="0em" dy="0.3em" style="text-anchor: end; visibility: hidden; font-family: Roboto, sans-serif; font-size: 12px; font-weight: 200;" fill="rgb(50, 49, 63)" stroke="none" stroke-width="1px">0.05</text><text x="0" y="133.5" dx="0em" dy="0.3em" style="text-anchor: end; visibility: inherit; font-family: Roboto, sans-serif; font-size: 12px; font-weight: 200;" fill="rgb(50, 49, 63)" stroke="none" stroke-width="1px">0.1</text><text x="0" y="118.66666666666669" dx="0em" dy="0.3em" style="text-anchor: end; visibility: hidden; font-family: Roboto, sans-serif; font-size: 12px; font-weight: 200;" fill="rgb(50, 49, 63)" stroke="none" stroke-width="1px">0.15</text><text x="0" y="103.83333333333334" dx="0em" dy="0.3em" style="text-anchor: end; visibility: inherit; font-family: Roboto, sans-serif; font-size: 12px; font-weight: 200;" fill="rgb(50, 49, 63)" stroke="none" stroke-width="1px">0.2</text><text x="0" y="89.00000000000001" dx="0em" dy="0.3em" style="text-anchor: end; visibility: hidden; font-family: Roboto, sans-serif; font-size: 12px; font-weight: 200;" fill="rgb(50, 49, 63)" stroke="none" stroke-width="1px">0.25</text><text x="0" y="74.16666666666669" dx="0em" dy="0.3em" style="text-anchor: end; visibility: inherit; font-family: Roboto, sans-serif; font-size: 12px; font-weight: 200;" fill="rgb(50, 49, 63)" stroke="none" stroke-width="1px">0.3</text><text x="0" y="59.33333333333336" dx="0em" dy="0.3em" style="text-anchor: end; visibility: hidden; font-family: Roboto, sans-serif; font-size: 12px; font-weight: 200;" fill="rgb(50, 49, 63)" stroke="none" stroke-width="1px">0.35</text><text x="0" y="44.50000000000002" dx="0em" dy="0.3em" style="text-anchor: end; visibility: inherit; font-family: Roboto, sans-serif; font-size: 12px; font-weight: 200;" fill="rgb(50, 49, 63)" stroke="none" stroke-width="1px">0.4</text><text x="0" y="29.66666666666668" dx="0em" dy="0.3em" style="text-anchor: end; visibility: hidden; font-family: Roboto, sans-serif; font-size: 12px; font-weight: 200;" fill="rgb(50, 49, 63)" stroke="none" stroke-width="1px">0.45</text><text x="0" y="14.83333333333334" dx="0em" dy="0.3em" style="text-anchor: end; visibility: inherit; font-family: Roboto, sans-serif; font-size: 12px; font-weight: 200;" fill="rgb(50, 49, 63)" stroke="none" stroke-width="1px">0.5</text><text x="0" y="0" dx="0em" dy="0.3em" style="text-anchor: end; visibility: hidden; font-family: Roboto, sans-serif; font-size: 12px; font-weight: 200;" fill="rgb(50, 49, 63)" stroke="none" stroke-width="1px">0.55</text></g><line x1="61.953125" y1="0" x2="61.953125" y2="178" fill="rgb(0, 0, 0)" stroke="rgb(204, 204, 204)" stroke-width="1px"></line></g></g><g transform="translate(61, 0)" clip-path="url(#clip_0)"><clipPath id="clip_0"><rect width="268" height="178"></rect></clipPath><g><g><g><line x1="0" y1="0" x2="0" y2="178" fill="rgb(0, 0, 0)" stroke="rgb(60, 60, 60)" stroke-width="1px" opacity="0.25"></line><line x1="29.78298611111111" y1="0" x2="29.78298611111111" y2="178" fill="rgb(0, 0, 0)" stroke="rgb(60, 60, 60)" stroke-width="1px" opacity="0.25"></line><line x1="59.56597222222222" y1="0" x2="59.56597222222222" y2="178" fill="rgb(0, 0, 0)" stroke="rgb(60, 60, 60)" stroke-width="1px" opacity="0.25"></line><line x1="89.34895833333333" y1="0" x2="89.34895833333333" y2="178" fill="rgb(0, 0, 0)" stroke="rgb(60, 60, 60)" stroke-width="1px" opacity="0.25"></line><line x1="119.13194444444444" y1="0" x2="119.13194444444444" y2="178" fill="rgb(0, 0, 0)" stroke="rgb(60, 60, 60)" stroke-width="1px" opacity="0.25"></line><line x1="148.91493055555557" y1="0" x2="148.91493055555557" y2="178" fill="rgb(0, 0, 0)" stroke="rgb(60, 60, 60)" stroke-width="1px" opacity="0.25"></line><line x1="178.69791666666666" y1="0" x2="178.69791666666666" y2="178" fill="rgb(0, 0, 0)" stroke="rgb(60, 60, 60)" stroke-width="1px" opacity="0.25"></line><line x1="208.48090277777777" y1="0" x2="208.48090277777777" y2="178" fill="rgb(0, 0, 0)" stroke="rgb(60, 60, 60)" stroke-width="1px" opacity="0.25"></line><line x1="238.26388888888889" y1="0" x2="238.26388888888889" y2="178" fill="rgb(0, 0, 0)" stroke="rgb(60, 60, 60)" stroke-width="1px" opacity="0.25"></line><line x1="268.046875" y1="0" x2="268.046875" y2="178" fill="rgb(0, 0, 0)" stroke="rgb(60, 60, 60)" stroke-width="1px" opacity="0.25"></line></g><g><line x1="0" y1="178" x2="268.046875" y2="178" fill="rgb(0, 0, 0)" stroke="rgb(60, 60, 60)" stroke-width="1px" opacity="0.25"></line><line x1="0" y1="163.16666666666666" x2="268.046875" y2="163.16666666666666" fill="rgb(0, 0, 0)" stroke="rgb(60, 60, 60)" stroke-width="1px" opacity="0.25"></line><line x1="0" y1="148.33333333333334" x2="268.046875" y2="148.33333333333334" fill="rgb(0, 0, 0)" stroke="rgb(60, 60, 60)" stroke-width="1px" opacity="0.25"></line><line x1="0" y1="133.5" x2="268.046875" y2="133.5" fill="rgb(0, 0, 0)" stroke="rgb(60, 60, 60)" stroke-width="1px" opacity="0.25"></line><line x1="0" y1="118.66666666666669" x2="268.046875" y2="118.66666666666669" fill="rgb(0, 0, 0)" stroke="rgb(60, 60, 60)" stroke-width="1px" opacity="0.25"></line><line x1="0" y1="103.83333333333334" x2="268.046875" y2="103.83333333333334" fill="rgb(0, 0, 0)" stroke="rgb(60, 60, 60)" stroke-width="1px" opacity="0.25"></line><line x1="0" y1="89.00000000000001" x2="268.046875" y2="89.00000000000001" fill="rgb(0, 0, 0)" stroke="rgb(60, 60, 60)" stroke-width="1px" opacity="0.25"></line><line x1="0" y1="74.16666666666669" x2="268.046875" y2="74.16666666666669" fill="rgb(0, 0, 0)" stroke="rgb(60, 60, 60)" stroke-width="1px" opacity="0.25"></line><line x1="0" y1="59.33333333333336" x2="268.046875" y2="59.33333333333336" fill="rgb(0, 0, 0)" stroke="rgb(60, 60, 60)" stroke-width="1px" opacity="0.25"></line><line x1="0" y1="44.50000000000002" x2="268.046875" y2="44.50000000000002" fill="rgb(0, 0, 0)" stroke="rgb(60, 60, 60)" stroke-width="1px" opacity="0.25"></line><line x1="0" y1="29.66666666666668" x2="268.046875" y2="29.66666666666668" fill="rgb(0, 0, 0)" stroke="rgb(60, 60, 60)" stroke-width="1px" opacity="0.25"></line><line x1="0" y1="14.83333333333334" x2="268.046875" y2="14.83333333333334" fill="rgb(0, 0, 0)" stroke="rgb(60, 60, 60)" stroke-width="1px" opacity="0.25"></line><line x1="0" y1="0" x2="268.046875" y2="0" fill="rgb(0, 0, 0)" stroke="rgb(60, 60, 60)" stroke-width="1px" opacity="0.25"></line></g></g></g><g><g><line x1="0" y1="163.16666666666666" x2="268.046875" y2="163.16666666666666" fill="rgb(0, 0, 0)" stroke="rgb(153, 153, 153)" stroke-width="1.5px"></line></g></g><g><g><line x1="29.78298611111111" y1="0" x2="29.78298611111111" y2="178" fill="rgb(0, 0, 0)" stroke="rgb(153, 153, 153)" stroke-width="1.5px"></line></g></g><g><g><g><g><g><path stroke="rgb(238, 51, 119)" stroke-width="2px" d="M29.78298611111111,18.793739020824454L32.76128472222222,20.462655415137615L35.739583333333336,22.18462445419663L38.71788194444444,23.604192230777432L41.69618055555556,24.996818953494696L44.674479166666664,26.490443740756305L47.65277777777778,28.091157163284837L50.631076388888886,29.722208721047505L53.609375,31.44245831571873L56.587673611111114,33.159831807863945L59.56597222222222,34.900043165535514L62.544270833333336,36.6871401405894L65.52256944444444,38.61089329023802L68.50086805555556,40.60608770924306L71.47916666666667,42.68782324393764L74.45746527777779,44.7510502105741L77.43576388888889,46.8414857048361L80.4140625,48.961074583446255L83.39236111111111,51.40752679248534L86.37065972222223,53.83541000772124L89.34895833333333,55.985352565196074L92.32725694444444,57.981481040777325L95.30555555555556,59.98506907130292L98.28385416666666,61.753054132048646L101.26215277777777,63.77237987227411L104.24045138888889,65.98184764404161L107.21875,67.58277526052464L110.1970486111111,69.12665902941305L113.17534722222223,70.68794678777026L116.15364583333334,72.59873607556526L119.13194444444444,74.49572740206841L122.11024305555556,76.2170731456708L125.08854166666667,77.70564179962022L128.06684027777777,78.95981440965608L131.04513888888889,79.63002968603723L134.0234375,80.30346468651126L137.00173611111111,81.77140247675558L139.98003472222223,83.6263127863904L142.95833333333334,85.86528341516987L145.93663194444443,87.83335354121436L148.91493055555557,89.64283722103872L151.89322916666666,91.55259305406865L154.87152777777777,93.27554305545122L157.84982638888889,94.71053377505149L160.828125,96.14452408795167L163.80642361111111,97.64200691219337L166.78472222222223,99.12601361579985L169.76302083333331,100.51073075878126L172.74131944444446,101.61066715449088L175.71961805555554,102.56638648429289L178.69791666666666,103.90566514921106L181.6762152777778,104.9056607464497L184.65451388888889,106.10621249156672L187.6328125,107.40751962747797L190.61111111111111,108.71488620968718L193.58940972222223,109.99761203606211L196.56770833333331,111.40634669271711L199.54600694444446,112.79553774639547L202.52430555555554,113.89730971839784L205.50260416666669,115.00175981394509L208.48090277777777,116.06101418339452L211.45920138888889,117.12055224658994L214.4375,117.79204544116229L217.41579861111111,118.0339756370932L220.3940972222222,118.28890272148553L223.37239583333334,118.48321706554157L226.35069444444446,118.59052224855144L229.32899305555554,119.39281197329673L232.30729166666669,120.75045079751996L235.28559027777777,122.19692401149382L238.26388888888889,123.32523183857506L241.2421875,123.4970798264053L244.22048611111111,123.49954923610525L247.19878472222223,122.71007436486468L250.17708333333334,122.14454367144337L253.15538194444443,122.37740242709775" style="fill: none;" fill="none"></path></g><g><path stroke="rgb(51, 187, 238)" stroke-width="2px" d="M29.78298611111111,15.126335859298726L32.76128472222222,16.444300167262575L35.739583333333336,17.553325874464885L38.71788194444444,18.59531260617811L41.69618055555556,19.647662421108926L44.674479166666664,20.66752231165614L47.65277777777778,21.64141147137445L50.631076388888886,22.628742087472393L53.609375,23.6875396253053L56.587673611111114,24.735645317589253L59.56597222222222,25.79096125025012L62.544270833333336,26.894431712459205L65.52256944444444,28.058758850968875L68.50086805555556,29.187416704046644L71.47916666666667,30.416808381241292L74.45746527777779,31.69216150676314L77.43576388888889,33.104507081142074L80.4140625,34.51751355747108L83.39236111111111,36.09093292188022L86.37065972222223,37.7842802205728L89.34895833333333,39.449710306258986L92.32725694444444,41.13029002829137L95.30555555555556,42.626433440020584L98.28385416666666,43.93358533744992L101.26215277777777,45.274462187714605L104.24045138888889,46.47867593611299L107.21875,47.686982812050466L110.1970486111111,48.87563894959954L113.17534722222223,49.905366959733406L116.15364583333334,51.04142732059638L119.13194444444444,52.03633033102523L122.11024305555556,53.03390573771288L125.08854166666667,53.95371398139291L128.06684027777777,54.89378393487387L131.04513888888889,55.843779362456964L134.0234375,56.541587247029355L137.00173611111111,57.32631824516643L139.98003472222223,58.29224446637511L142.95833333333334,59.29210409877786L145.93663194444443,60.17487606340291L148.91493055555557,60.99124672240114L151.89322916666666,62.030230472346034L154.87152777777777,62.95624264298389L157.84982638888889,63.822075432004596L160.828125,64.6756934715972L163.80642361111111,65.46639882690667L166.78472222222223,66.30609734359722L169.76302083333331,67.03840891225794L172.74131944444446,67.82799134078887L175.71961805555554,68.49949716781086L178.69791666666666,69.05934887283026L181.6762152777778,69.76355186990892L184.65451388888889,70.38152421251243L187.6328125,71.05788255176202L190.61111111111111,71.69968394701475L193.58940972222223,72.31228823024928L196.56770833333331,72.93447123304362L199.54600694444446,73.46101941070181L202.52430555555554,73.96979596655308L205.50260416666669,74.37943233514277L208.48090277777777,74.86849289813311L211.45920138888889,75.21589687076411L214.4375,75.62623691523396L217.41579861111111,76.00312678792672L220.3940972222222,76.38240713742532L223.37239583333334,76.60475894729589L226.35069444444446,76.78398240161118L229.32899305555554,77.09797981114494L232.30729166666669,77.56675179043201L235.28559027777777,77.69467757883938L238.26388888888889,77.42717188245024L241.2421875,77.5407009779173L244.22048611111111,78.03790710719971L247.19878472222223,78.52688224128417L250.17708333333334,78.52214034603952L253.15538194444443,78.42600829724624" style="fill: none;" fill="none"></path></g></g></g></g><g opacity="0.2"><g><g><g><path stroke="rgb(238, 51, 119)" stroke-width="2px" d="M29.78298611111111,18.793739020824454L32.76128472222222,21.46400525172552L35.739583333333336,23.837714731693268L38.71788194444444,25.273603936036434L41.69618055555556,26.81503240267437L44.674479166666664,28.556664526462555L47.65277777777778,30.38020296891533L50.631076388888886,32.100297550360395L53.609375,33.97949232657753L56.587673611111114,35.709931294123365L59.56597222222222,37.49457661310835L62.544270833333336,39.35806030035021L65.52256944444444,41.49024162689848L68.50086805555556,43.594970544179304L71.47916666666667,45.80797954400383L74.45746527777779,47.84443551301958L77.43576388888889,49.97625434398653L80.4140625,52.139919737974814L83.39236111111111,55.07683241367342L86.37065972222223,57.477012912432365L89.34895833333333,59.210148493448905L92.32725694444444,60.97560807069145L95.30555555555556,62.990411559740714L98.28385416666666,64.40501077969871L101.26215277777777,66.80135413010917L104.24045138888889,69.29603987932207L107.21875,69.98416258891426L110.1970486111111,71.44248231252037L113.17534722222223,73.0298769871394L116.15364583333334,75.46491895119351L119.13194444444444,77.34121376276018L122.11024305555556,78.79909141858421L125.08854166666667,79.93849460283917L128.06684027777777,80.84107323487602L131.04513888888889,80.63535257180534L134.0234375,81.31361716985704L137.00173611111111,83.97330913941067L139.98003472222223,86.40867823362352L142.95833333333334,89.22373934586845L145.93663194444443,90.78545872370404L148.91493055555557,92.35706273714703L151.89322916666666,94.41722680131596L154.87152777777777,95.85996805628143L157.84982638888889,96.86301985383035L160.828125,98.29550955692929L163.80642361111111,99.88823114832245L166.78472222222223,101.35202367107075L169.76302083333331,102.5878064731757L172.74131944444446,103.26057174801826L175.71961805555554,103.99996547897659L178.69791666666666,105.91458314657211L181.6762152777778,106.4056541423003L184.65451388888889,107.90704010923706L187.6328125,109.35948033134144L190.61111111111111,110.67593608299893L193.58940972222223,111.92170077562332L196.56770833333331,113.51944867769879L199.54600694444446,114.87932432691258L202.52430555555554,115.54996767640114L205.50260416666669,116.65843495726585L208.48090277777777,117.64989573756856L211.45920138888889,118.70985934138298L214.4375,118.79928523302078L217.41579861111111,118.3968709309896L220.3940972222222,118.67129334807396L223.37239583333334,118.77468858162564L226.35069444444446,118.75148002306622L229.32899305555554,120.59624656041466L232.30729166666669,122.78690903385481L235.28559027777777,124.36663383245468L238.26388888888889,125.01769357919693L241.2421875,123.75485180815062L244.22048611111111,123.50325335065526L247.19878472222223,121.52586205800377L250.17708333333334,121.29624763131142L253.15538194444443,122.7266905605793" style="fill: none;" fill="none"></path></g><g><path stroke="rgb(51, 187, 238)" stroke-width="2px" d="M29.78298611111111,15.126335859298726L32.76128472222222,17.235078752040884L35.739583333333336,18.61799055337908L38.71788194444444,19.820689002672843L41.69618055555556,21.02161033948263L44.674479166666664,22.0783556898435L47.65277777777778,23.03408855199814L50.631076388888886,24.068279604117087L53.609375,25.249060332775116L56.587673611111114,26.29196012020111L59.56597222222222,27.364363511403408L62.544270833333336,28.543632368246726L65.52256944444444,29.801447828610765L68.50086805555556,30.878192325433123L71.47916666666667,32.25945079326632L74.45746527777779,33.60429171721144L77.43576388888889,35.2224277853966L80.4140625,36.636664509773276L83.39236111111111,38.45082227389021L86.37065972222223,40.324146389961264L89.34895833333333,41.94776409864428L92.32725694444444,43.65110431114836L95.30555555555556,44.8706190188726L98.28385416666666,45.89429769913357L101.26215277777777,47.285767932732924L104.24045138888889,48.28499142328899L107.21875,49.499440034230574L110.1970486111111,50.65862133105598L113.17534722222223,51.44995802640917L116.15364583333334,52.74551723400753L119.13194444444444,53.528684516747816L122.11024305555556,54.530268649260215L125.08854166666667,55.333426237106345L128.06684027777777,56.30388879776003L131.04513888888889,57.268772463003806L134.0234375,57.58829905589424L137.00173611111111,58.50341473023098L139.98003472222223,59.74113378922146L142.95833333333334,60.79189354181292L145.93663194444443,61.499034007390364L148.91493055555557,62.21580270926159L151.89322916666666,63.58870609601341L154.87152777777777,64.34526089827222L157.84982638888889,65.12082461516064L160.828125,65.95612053076428L163.80642361111111,66.65245685974759L166.78472222222223,67.56564511855446L169.76302083333331,68.13687626520795L172.74131944444446,69.01236498355867L175.71961805555554,69.5067559083303L178.69791666666666,69.89912643035255L181.6762152777778,70.81985636552177L184.65451388888889,71.30848272641502L187.6328125,72.07242006063463L190.61111111111111,72.66238603989285L193.58940972222223,73.23119465510052L196.56770833333331,73.86774573723477L199.54600694444446,74.25084167718889L202.52430555555554,74.73296080032986L205.50260416666669,74.9938868880272L208.48090277777777,75.60208374261858L211.45920138888889,75.73700282971066L214.4375,76.2417469819387L217.41579861111111,76.5684615969658L220.3940972222222,76.95132766167325L223.37239583333334,76.93828666210176L226.35069444444446,77.05281758308412L229.32899305555554,77.56897592544557L232.30729166666669,78.26990975936256L235.28559027777777,77.88656626145047L238.26388888888889,77.02591333786648L241.2421875,77.71099462111793L244.22048611111111,78.78371630112332L247.19878472222223,79.26034494241081L250.17708333333334,78.51502750317258L253.15538194444443,78.28181022405626" style="fill: none;" fill="none"></path></g></g></g></g></g></g><g transform="translate(61, 178)" clip-path="url(#clip_1)"><clipPath id="clip_1"><rect width="268" height="22"></rect></clipPath><g><g><line x1="0" y1="0" x2="0" y2="5" style="visibility: inherit;" fill="rgb(0, 0, 0)" stroke="rgb(204, 204, 204)" stroke-width="1px"></line><line x1="29.78298611111111" y1="0" x2="29.78298611111111" y2="5" style="visibility: inherit;" fill="rgb(0, 0, 0)" stroke="rgb(204, 204, 204)" stroke-width="1px"></line><line x1="59.56597222222222" y1="0" x2="59.56597222222222" y2="5" style="visibility: inherit;" fill="rgb(0, 0, 0)" stroke="rgb(204, 204, 204)" stroke-width="1px"></line><line x1="89.34895833333333" y1="0" x2="89.34895833333333" y2="5" style="visibility: inherit;" fill="rgb(0, 0, 0)" stroke="rgb(204, 204, 204)" stroke-width="1px"></line><line x1="119.13194444444444" y1="0" x2="119.13194444444444" y2="5" style="visibility: inherit;" fill="rgb(0, 0, 0)" stroke="rgb(204, 204, 204)" stroke-width="1px"></line><line x1="148.91493055555557" y1="0" x2="148.91493055555557" y2="5" style="visibility: inherit;" fill="rgb(0, 0, 0)" stroke="rgb(204, 204, 204)" stroke-width="1px"></line><line x1="178.69791666666666" y1="0" x2="178.69791666666666" y2="5" style="visibility: inherit;" fill="rgb(0, 0, 0)" stroke="rgb(204, 204, 204)" stroke-width="1px"></line><line x1="208.48090277777777" y1="0" x2="208.48090277777777" y2="5" style="visibility: inherit;" fill="rgb(0, 0, 0)" stroke="rgb(204, 204, 204)" stroke-width="1px"></line><line x1="238.26388888888889" y1="0" x2="238.26388888888889" y2="5" style="visibility: inherit;" fill="rgb(0, 0, 0)" stroke="rgb(204, 204, 204)" stroke-width="1px"></line><line x1="268.046875" y1="0" x2="268.046875" y2="5" style="visibility: inherit;" fill="rgb(0, 0, 0)" stroke="rgb(204, 204, 204)" stroke-width="1px"></line></g><g transform="translate(0, 8)"><text x="0" y="0" dx="0em" dy="0.95em" style="text-anchor: middle; visibility: hidden; font-family: Roboto, sans-serif; font-size: 12px; font-weight: 200;" fill="rgb(50, 49, 63)" stroke="none" stroke-width="1px">-10</text><text x="29.78298611111111" y="0" dx="0em" dy="0.95em" style="text-anchor: middle; visibility: inherit; font-family: Roboto, sans-serif; font-size: 12px; font-weight: 200;" fill="rgb(50, 49, 63)" stroke="none" stroke-width="1px">0</text><text x="59.56597222222222" y="0" dx="0em" dy="0.95em" style="text-anchor: middle; visibility: inherit; font-family: Roboto, sans-serif; font-size: 12px; font-weight: 200;" fill="rgb(50, 49, 63)" stroke="none" stroke-width="1px">10</text><text x="89.34895833333333" y="0" dx="0em" dy="0.95em" style="text-anchor: middle; visibility: inherit; font-family: Roboto, sans-serif; font-size: 12px; font-weight: 200;" fill="rgb(50, 49, 63)" stroke="none" stroke-width="1px">20</text><text x="119.13194444444444" y="0" dx="0em" dy="0.95em" style="text-anchor: middle; visibility: inherit; font-family: Roboto, sans-serif; font-size: 12px; font-weight: 200;" fill="rgb(50, 49, 63)" stroke="none" stroke-width="1px">30</text><text x="148.91493055555557" y="0" dx="0em" dy="0.95em" style="text-anchor: middle; visibility: inherit; font-family: Roboto, sans-serif; font-size: 12px; font-weight: 200;" fill="rgb(50, 49, 63)" stroke="none" stroke-width="1px">40</text><text x="178.69791666666666" y="0" dx="0em" dy="0.95em" style="text-anchor: middle; visibility: inherit; font-family: Roboto, sans-serif; font-size: 12px; font-weight: 200;" fill="rgb(50, 49, 63)" stroke="none" stroke-width="1px">50</text><text x="208.48090277777777" y="0" dx="0em" dy="0.95em" style="text-anchor: middle; visibility: inherit; font-family: Roboto, sans-serif; font-size: 12px; font-weight: 200;" fill="rgb(50, 49, 63)" stroke="none" stroke-width="1px">60</text><text x="238.26388888888889" y="0" dx="0em" dy="0.95em" style="text-anchor: middle; visibility: inherit; font-family: Roboto, sans-serif; font-size: 12px; font-weight: 200;" fill="rgb(50, 49, 63)" stroke="none" stroke-width="1px">70</text><text x="268.046875" y="0" dx="0em" dy="0.95em" style="text-anchor: middle; visibility: hidden; font-family: Roboto, sans-serif; font-size: 12px; font-weight: 200;" fill="rgb(50, 49, 63)" stroke="none" stroke-width="1px">80</text></g><line x1="0" y1="0" x2="268.046875" y2="0" fill="rgb(0, 0, 0)" stroke="rgb(204, 204, 204)" stroke-width="1px"></line></g></g></g></g></svg>