<svg viewBox="0 0 330 200" xmlns="http://www.w3.org/2000/svg"><g><g><g><g><g><line x1="61.953125" y1="178" x2="56.953125" y2="178" style="visibility: inherit;" fill="rgb(0, 0, 0)" stroke="rgb(204, 204, 204)" stroke-width="1px"></line><line x1="61.953125" y1="163.16666666666666" x2="56.953125" y2="163.16666666666666" style="visibility: inherit;" fill="rgb(0, 0, 0)" stroke="rgb(204, 204, 204)" stroke-width="1px"></line><line x1="61.953125" y1="148.33333333333334" x2="56.953125" y2="148.33333333333334" style="visibility: inherit;" fill="rgb(0, 0, 0)" stroke="rgb(204, 204, 204)" stroke-width="1px"></line><line x1="61.953125" y1="133.5" x2="56.953125" y2="133.5" style="visibility: inherit;" fill="rgb(0, 0, 0)" stroke="rgb(204, 204, 204)" stroke-width="1px"></line><line x1="61.953125" y1="118.66666666666669" x2="56.953125" y2="118.66666666666669" style="visibility: inherit;" fill="rgb(0, 0, 0)" stroke="rgb(204, 204, 204)" stroke-width="1px"></line><line x1="61.953125" y1="103.83333333333334" x2="56.953125" y2="103.83333333333334" style="visibility: inherit;" fill="rgb(0, 0, 0)" stroke="rgb(204, 204, 204)" stroke-width="1px"></line><line x1="61.953125" y1="89.00000000000001" x2="56.953125" y2="89.00000000000001" style="visibility: inherit;" fill="rgb(0, 0, 0)" stroke="rgb(204, 204, 204)" stroke-width="1px"></line><line x1="61.953125" y1="74.16666666666669" x2="56.953125" y2="74.16666666666669" style="visibility: inherit;" fill="rgb(0, 0, 0)" stroke="rgb(204, 204, 204)" stroke-width="1px"></line><line x1="61.953125" y1="59.33333333333336" x2="56.953125" y2="59.33333333333336" style="visibility: inherit;" fill="rgb(0, 0, 0)" stroke="rgb(204, 204, 204)" stroke-width="1px"></line><line x1="61.953125" y1="44.50000000000002" x2="56.953125" y2="44.50000000000002" style="visibility: inherit;" fill="rgb(0, 0, 0)" stroke="rgb(204, 204, 204)" stroke-width="1px"></line><line x1="61.953125" y1="29.66666666666668" x2="56.953125" y2="29.66666666666668" style="visibility: inherit;" fill="rgb(0, 0, 0)" stroke="rgb(204, 204, 204)" stroke-width="1px"></line><line x1="61.953125" y1="14.83333333333334" x2="56.953125" y2="14.83333333333334" style="visibility: inherit;" fill="rgb(0, 0, 0)" stroke="rgb(204, 204, 204)" stroke-width="1px"></line><line x1="61.953125" y1="0" x2="56.953125" y2="0" style="visibility: inherit;" fill="rgb(0, 0, 0)" stroke="rgb(204, 204, 204)" stroke-width="1px"></line></g><g transform="translate(51.953125, 0)"><text x="0" y="178" dx="0em" dy="0.3em" style="text-anchor: end; visibility: hidden; font-family: Roboto, sans-serif; font-size: 12px; font-weight: 200;" fill="rgb(50, 49, 63)" stroke="none" stroke-width="1px">-0.05</text><text x="0" y="163.16666666666666" dx="0em" dy="0.3em" style="text-anchor: end; visibility: inherit; font-family: Roboto, sans-serif; font-size: 12px; font-weight: 200;" fill="rgb(50, 49, 63)" stroke="none" stroke-width="1px">0</text><text x="0" y="148.33333333333334" dx="0em" dy="0.3em" style="text-anchor: end; visibility: hidden; font-family: Roboto, sans-serif; font-size: 12px; font-weight: 200;" fill="rgb(50, 49, 63)" stroke="none" stroke-width="1px">0.05</text><text x="0" y="133.5" dx="0em" dy="0.3em" style="text-anchor: end; visibility: inherit; font-family: Roboto, sans-serif; font-size: 12px; font-weight: 200;" fill="rgb(50, 49, 63)" stroke="none" stroke-width="1px">0.1</text><text x="0" y="118.66666666666669" dx="0em" dy="0.3em" style="text-anchor: end; visibility: hidden; font-family: Roboto, sans-serif; font-size: 12px; font-weight: 200;" fill="rgb(50, 49, 63)" stroke="none" stroke-width="1px">0.15</text><text x="0" y="103.83333333333334" dx="0em" dy="0.3em" style="text-anchor: end; visibility: inherit; font-family: Roboto, sans-serif; font-size: 12px; font-weight: 200;" fill="rgb(50, 49, 63)" stroke="none" stroke-width="1px">0.2</text><text x="0" y="89.00000000000001" dx="0em" dy="0.3em" style="text-anchor: end; visibility: hidden; font-family: Roboto, sans-serif; font-size: 12px; font-weight: 200;" fill="rgb(50, 49, 63)" stroke="none" stroke-width="1px">0.25</text><text x="0" y="74.16666666666669" dx="0em" dy="0.3em" style="text-anchor: end; visibility: inherit; font-family: Roboto, sans-serif; font-size: 12px; font-weight: 200;" fill="rgb(50, 49, 63)" stroke="none" stroke-width="1px">0.3</text><text x="0" y="59.33333333333336" dx="0em" dy="0.3em" style="text-anchor: end; visibility: hidden; font-family: Roboto, sans-serif; font-size: 12px; font-weight: 200;" fill="rgb(50, 49, 63)" stroke="none" stroke-width="1px">0.35</text><text x="0" y="44.50000000000002" dx="0em" dy="0.3em" style="text-anchor: end; visibility: inherit; font-family: Roboto, sans-serif; font-size: 12px; font-weight: 200;" fill="rgb(50, 49, 63)" stroke="none" stroke-width="1px">0.4</text><text x="0" y="29.66666666666668" dx="0em" dy="0.3em" style="text-anchor: end; visibility: hidden; font-family: Roboto, sans-serif; font-size: 12px; font-weight: 200;" fill="rgb(50, 49, 63)" stroke="none" stroke-width="1px">0.45</text><text x="0" y="14.83333333333334" dx="0em" dy="0.3em" style="text-anchor: end; visibility: inherit; font-family: Roboto, sans-serif; font-size: 12px; font-weight: 200;" fill="rgb(50, 49, 63)" stroke="none" stroke-width="1px">0.5</text><text x="0" y="0" dx="0em" dy="0.3em" style="text-anchor: end; visibility: hidden; font-family: Roboto, sans-serif; font-size: 12px; font-weight: 200;" fill="rgb(50, 49, 63)" stroke="none" stroke-width="1px">0.55</text></g><line x1="61.953125" y1="0" x2="61.953125" y2="178" fill="rgb(0, 0, 0)" stroke="rgb(204, 204, 204)" stroke-width="1px"></line></g></g><g transform="translate(61, 0)" clip-path="url(#clip_0)"><clipPath id="clip_0"><rect width="268" height="178"></rect></clipPath><g><g><g><line x1="0" y1="0" x2="0" y2="178" fill="rgb(0, 0, 0)" stroke="rgb(60, 60, 60)" stroke-width="1px" opacity="0.25"></line><line x1="38.292410714285715" y1="0" x2="38.292410714285715" y2="178" fill="rgb(0, 0, 0)" stroke="rgb(60, 60, 60)" stroke-width="1px" opacity="0.25"></line><line x1="76.58482142857143" y1="0" x2="76.58482142857143" y2="178" fill="rgb(0, 0, 0)" stroke="rgb(60, 60, 60)" stroke-width="1px" opacity="0.25"></line><line x1="114.87723214285714" y1="0" x2="114.87723214285714" y2="178" fill="rgb(0, 0, 0)" stroke="rgb(60, 60, 60)" stroke-width="1px" opacity="0.25"></line><line x1="153.16964285714286" y1="0" x2="153.16964285714286" y2="178" fill="rgb(0, 0, 0)" stroke="rgb(60, 60, 60)" stroke-width="1px" opacity="0.25"></line><line x1="191.46205357142858" y1="0" x2="191.46205357142858" y2="178" fill="rgb(0, 0, 0)" stroke="rgb(60, 60, 60)" stroke-width="1px" opacity="0.25"></line><line x1="229.75446428571428" y1="0" x2="229.75446428571428" y2="178" fill="rgb(0, 0, 0)" stroke="rgb(60, 60, 60)" stroke-width="1px" opacity="0.25"></line><line x1="268.046875" y1="0" x2="268.046875" y2="178" fill="rgb(0, 0, 0)" stroke="rgb(60, 60, 60)" stroke-width="1px" opacity="0.25"></line></g><g><line x1="0" y1="178" x2="268.046875" y2="178" fill="rgb(0, 0, 0)" stroke="rgb(60, 60, 60)" stroke-width="1px" opacity="0.25"></line><line x1="0" y1="163.16666666666666" x2="268.046875" y2="163.16666666666666" fill="rgb(0, 0, 0)" stroke="rgb(60, 60, 60)" stroke-width="1px" opacity="0.25"></line><line x1="0" y1="148.33333333333334" x2="268.046875" y2="148.33333333333334" fill="rgb(0, 0, 0)" stroke="rgb(60, 60, 60)" stroke-width="1px" opacity="0.25"></line><line x1="0" y1="133.5" x2="268.046875" y2="133.5" fill="rgb(0, 0, 0)" stroke="rgb(60, 60, 60)" stroke-width="1px" opacity="0.25"></line><line x1="0" y1="118.66666666666669" x2="268.046875" y2="118.66666666666669" fill="rgb(0, 0, 0)" stroke="rgb(60, 60, 60)" stroke-width="1px" opacity="0.25"></line><line x1="0" y1="103.83333333333334" x2="268.046875" y2="103.83333333333334" fill="rgb(0, 0, 0)" stroke="rgb(60, 60, 60)" stroke-width="1px" opacity="0.25"></line><line x1="0" y1="89.00000000000001" x2="268.046875" y2="89.00000000000001" fill="rgb(0, 0, 0)" stroke="rgb(60, 60, 60)" stroke-width="1px" opacity="0.25"></line><line x1="0" y1="74.16666666666669" x2="268.046875" y2="74.16666666666669" fill="rgb(0, 0, 0)" stroke="rgb(60, 60, 60)" stroke-width="1px" opacity="0.25"></line><line x1="0" y1="59.33333333333336" x2="268.046875" y2="59.33333333333336" fill="rgb(0, 0, 0)" stroke="rgb(60, 60, 60)" stroke-width="1px" opacity="0.25"></line><line x1="0" y1="44.50000000000002" x2="268.046875" y2="44.50000000000002" fill="rgb(0, 0, 0)" stroke="rgb(60, 60, 60)" stroke-width="1px" opacity="0.25"></line><line x1="0" y1="29.66666666666668" x2="268.046875" y2="29.66666666666668" fill="rgb(0, 0, 0)" stroke="rgb(60, 60, 60)" stroke-width="1px" opacity="0.25"></line><line x1="0" y1="14.83333333333334" x2="268.046875" y2="14.83333333333334" fill="rgb(0, 0, 0)" stroke="rgb(60, 60, 60)" stroke-width="1px" opacity="0.25"></line><line x1="0" y1="0" x2="268.046875" y2="0" fill="rgb(0, 0, 0)" stroke="rgb(60, 60, 60)" stroke-width="1px" opacity="0.25"></line></g></g></g><g><g><line x1="0" y1="163.16666666666666" x2="268.046875" y2="163.16666666666666" fill="rgb(0, 0, 0)" stroke="rgb(153, 153, 153)" stroke-width="1.5px"></line></g></g><g><g><line x1="38.292410714285715" y1="0" x2="38.292410714285715" y2="178" fill="rgb(0, 0, 0)" stroke="rgb(153, 153, 153)" stroke-width="1.5px"></line></g></g><g><g><g><g><g><path stroke="rgb(0, 153, 136)" stroke-width="2px" d="M43.653348214285714,-1.112633721957073L44.419196428571425,2.706402339111145L45.18504464285714,7.410339538936519L45.950892857142854,12.614166206718757L46.71674107142857,17.833391757596235L47.48258928571428,23.578443110829273L48.2484375,28.798721120781455L49.01428571428571,32.773061213392L49.78013392857143,36.143785846599705L50.54598214285715,38.58850189940023L51.31183035714285,40.409287348217L52.07767857142857,42.60984086910937L52.84352678571429,45.06457358970128L53.609375,47.38208096673251L54.37522321428571,49.30599422806574L55.14107142857143,51.21555346818602L55.90691964285714,53.15145627788824L56.67276785714286,54.65747350736768L57.43861607142857,56.53084508432146L58.20446428571429,59.12474993821507L58.9703125,61.8919049405102L59.73616071428572,64.30203957567886L60.50200892857143,66.37993381189989L61.26785714285714,68.20123801012265L62.03370535714286,70.09690394416143L62.799553571428575,72.14811414190844L63.565401785714286,74.08444759259476L64.33125,76.09818652560946L65.09709821428571,78.08949813089698L65.86294642857143,80.08035013820131L66.62879464285714,81.95594986427136L67.39464285714286,83.80964642867161L68.16049107142857,85.550300851435L68.92633928571428,87.26955594854593L69.6921875,88.78661260024421L70.45803571428571,90.34576319311802L71.22388392857144,91.90086105684406L71.98973214285714,93.36988805877519L72.75558035714285,94.86514366763632L73.52142857142857,96.42604058846393L74.28727678571428,97.90660680455052L75.05312500000001,99.30204602355899L75.81897321428572,100.60272744264348L76.58482142857143,101.84793520152861L77.35066964285714,103.16521412639385L78.11651785714285,104.48027880495158L78.88236607142856,105.73855311178521L79.64821428571429,107.00167284311944L80.4140625,108.24668746333623L81.17991071428573,109.42413056179693L81.94575892857142,110.46010313601197L82.71160714285713,111.5268630832687L83.47745535714286,112.54776928724384L84.24330357142857,113.52316047689244L85.00915178571428,114.43643424078383L85.775,115.29151006041702L86.54084821428572,116.09686845242226L87.30669642857143,116.84521275579478L88.07254464285714,117.59824703426884L88.83839285714285,118.35845585440634L89.60424107142858,119.07755489215278L90.37008928571429,119.76415992417947L91.13593750000001,120.33081306997347L91.90178571428571,120.96767822891518L92.66763392857142,121.53801740799376L93.43348214285714,122.01747412042238L94.19933035714286,122.57675636146318L94.96517857142857,122.92068432371131L95.73102678571429,123.51811371207424L96.496875,124.09485026971612L97.26272321428571,124.63081513311134L98.02857142857142,125.0770288733582L98.79441964285714,125.5129586037759L99.56026785714286,125.84298832079355L100.32611607142857,126.14729692852845L101.0919642857143,126.58160521377933L101.8578125,127.05981838577874L102.6236607142857,127.48978616122736L103.38950892857143,127.86994817251562L104.15535714285714,128.23384860194486L104.92120535714285,128.5807731153772L105.68705357142858,128.73956918729576L106.45290178571429,128.81207238244951L107.21875,129.204295048761L107.98459821428571,129.59128265359857L108.75044642857142,129.92715602584L109.51629464285715,130.2755694476802L110.28214285714286,130.59327510921392L111.04799107142858,130.95310613867582L111.81383928571428,131.2605958959874L112.57968749999999,131.47496999590098L113.34553571428572,131.5434599754522L114.11138392857143,131.56353010360263L114.87723214285714,131.70949838334636L115.64308035714286,131.82842549348464L116.40892857142858,132.22931411463773L117.17477678571429,132.6517387286748L117.940625,133.00565074816896L118.70647321428571,133.20251939854356L119.47232142857143,133.11634692049822L120.23816964285714,133.3527098307816L121.00401785714286,133.69597609697627L121.76986607142857,133.97252524013626L122.53571428571428,134.23932221600597L123.3015625,134.45824846467886L124.06741071428571,134.516901746441L124.83325892857142,134.59026892088795L125.59910714285715,134.69276418349907L126.36495535714286,134.8853247129625L127.13080357142857,134.84797542474902L127.89665178571428,135.14462296872676L128.6625,135.35124510949458L129.4283482142857,135.4794489826298L130.19419642857142,135.57321939382174L130.96004464285713,135.78456343916983L131.72589285714287,135.97247601176062L132.49174107142858,136.13923804933683L133.2575892857143,136.27706731145494L134.0234375,136.27093665272938L134.7892857142857,136.35666823469168L135.55513392857142,136.43909967193545L136.32098214285713,136.64505406568173L137.08683035714287,136.56053920795355L137.85267857142856,136.80589369660518L138.6185267857143,136.9803757830018L139.384375,137.10397757869288L140.15022321428572,137.22420388727184L140.91607142857143,137.30126872818946L141.68191964285714,137.3343110253092L142.44776785714288,137.5103693467186L143.21361607142856,137.55320330630576L143.97946428571427,137.51345996759835L144.7453125,137.65774825634062L145.5111607142857,137.8070073252211L146.27700892857143,137.89579622101525L147.04285714285714,138.02273838610495L147.80870535714286,138.0185675912562L148.57455357142857,137.98812908292587L149.34040178571428,138.16563039041029L150.10625000000002,138.34314494341493L150.8720982142857,138.50045079992142L151.63794642857144,138.5725841582175L152.40379464285715,138.49172358276581L153.16964285714286,138.55048471030872L153.93549107142857,138.71197561027972L154.70133928571428,138.89741455874264L155.4671875,139.04324674424382L156.2330357142857,139.16106306403987L156.99888392857144,139.29452736510902L157.76473214285713,139.3970417698268L158.53058035714287,139.454678783022L159.29642857142858,139.5572801922973L160.0622767857143,139.70956041983064L160.828125,139.83366190734284L161.5939732142857,139.9221867442694L162.35982142857145,140.00338798089226L163.12566964285713,140.09344029221973L163.89151785714284,140.21179873025838L164.65736607142858,140.3073918776299L165.42321428571427,140.38379027783387L166.1890625,140.51314741575428L166.95491071428572,140.6322868935488L167.72075892857143,140.6850949847036L168.48660714285714,140.6974818124374L169.25245535714285,140.79257329785824L170.01830357142856,140.88175944378378L170.78415178571427,140.9580774082168L171.55,141.00111145218753L172.31584821428572,141.09850972557393L173.08169642857143,141.15909006594217L173.84754464285714,141.24985946654436L174.61339285714286,141.35113696916397L175.37924107142857,141.4701476692964L176.14508928571428,141.55542263983546L176.91093750000002,141.68156408627146L177.6767857142857,141.78110204751877L178.44263392857144,141.90329872736686L179.20848214285715,142.0144312133552L179.97433035714283,142.12943667075007L180.74017857142857,142.22208349844396L181.50602678571428,142.15453626676748L182.27187500000002,142.21925100464233L183.0377232142857,142.3889142281529L183.80357142857142,142.2952474717329L184.56941964285716,142.42949287080944L185.33526785714284,142.6325335561286L186.10111607142858,142.77058273905817L186.8669642857143,142.91274304998498L187.6328125,143.00002854156048L188.3986607142857,142.9843435014539L189.16450892857142,143.09774863274413L189.93035714285713,143.02669066320766L190.69620535714284,143.15743132907696L191.46205357142858,143.21688980149358L192.2279017857143,143.29504229398844L192.99375,143.33303850157426L193.75959821428572,143.4044539566638L194.52544642857143,143.5354595026852L195.29129464285714,143.5650693421452L196.05714285714285,143.7002245770825L196.8229910714286,143.82641040008863L197.58883928571427,143.88046057257017L198.3546875,143.99478196441905L199.12053571428572,144.08959472381935L199.8863839285714,144.1504335812958L200.65223214285714,144.12542493217578L201.41808035714286,144.26040273153816L202.1839285714286,144.36545646534782L202.94977678571428,144.46698573636863L203.715625,144.5544145459405L204.48147321428573,144.5505422286871L205.2473214285714,144.58594888146814L206.01316964285715,144.6364321203794L206.77901785714286,144.31460932841495L207.54486607142857,144.4575380054152L208.31071428571428,144.6146476040504L209.0765625,144.53950547398458L209.8424107142857,144.65103331737515L210.60825892857142,144.78251092850843L211.37410714285716,144.9026313675623L212.13995535714287,145.0078122975338L212.90580357142858,145.1014191118027L213.6716517857143,145.19667879087598L214.4375,145.29534520512544L215.2033482142857,145.39703351441457L215.96919642857142,145.5100646159059L216.73504464285716,145.57100470211145L217.50089285714284,145.61543844449145L218.26674107142858,145.638868058568L219.0325892857143,145.6569230038995L219.79843749999998,145.68170586202984L220.56428571428572,145.68133661632407L221.33013392857143,145.70162568778596L222.09598214285717,145.75826451852402L222.86183035714285,145.80796332661996L223.62767857142856,145.90315957370214L224.3935267857143,145.8187674462963L225.15937499999998,145.92088869195197L225.92522321428572,146.0553550440928L226.69107142857143,146.17074203901655L227.45691964285714,146.27271289177637L228.22276785714286,146.356443954793L228.98861607142857,146.40662600792692L229.75446428571428,146.43031774181472L230.5203125,146.39943391115474L231.28616071428573,146.4285001667202L232.05200892857144,146.47993670077287L232.81785714285715,146.51682621541318L233.58370535714286,146.56835831584152L234.34955357142857,146.6246986839073L235.11540178571428,146.6576090436914L235.88125,146.58585651209384L236.64709821428573,146.53112821473937L237.41294642857142,146.6686809581176L238.17879464285716,146.78306845058933L238.94464285714287,146.8627933108604L239.71049107142855,146.96378245714084L240.4763392857143,147.05566019771163L241.2421875,146.6732484864652L242.0080357142857,146.66941826745628L242.77388392857142,146.82046549243586L243.53973214285713,146.90327939523968L244.30558035714287,147.03495009124507L245.07142857142856,147.13705850768224L245.8372767857143,147.20160988943658L246.603125,147.2779368150843L247.36897321428572,147.36163542004107L248.13482142857143,147.40624695319937L248.90066964285714,147.47847302932942L249.66651785714285,147.59979120003823L250.43236607142856,147.67224966749137L251.1982142857143,147.72272312302144L251.96406249999998,147.72308981711916L252.72991071428572,147.7490399467662L253.49575892857143,147.81089938408425L254.26160714285714,147.85493650173916L255.02745535714286,147.82890168310666L255.79330357142857,147.87773162214836L256.5591517857143,147.98324428154356L257.325,148.0772915024757L258.0908482142857,148.11368443901537L258.8566964285714,148.1487968226385L259.6225446428571,148.12121469339402L260.38839285714283,148.0860154602568L261.1542410714286,148.05808896066588" style="fill: none;" fill="none"></path></g><g><path stroke="rgb(238, 51, 119)" stroke-width="2px" d="M44.419196428571425,-0.5967519761489979L45.18504464285714,3.468110950967681L45.950892857142854,7.923617358515016L46.71674107142857,12.668956975536117L47.48258928571428,17.621135674474004L48.2484375,22.27549558530332L49.01428571428571,26.29092236982369L49.78013392857143,29.910457038140294L50.54598214285715,33.38093186402755L51.31183035714285,36.32254832779064L52.07767857142857,39.09453901958506L52.84352678571429,41.67223688534079L53.609375,44.06408986788893L54.37522321428571,46.46632255352759L55.14107142857143,48.77973184416479L55.90691964285714,50.909088616776174L56.67276785714286,52.947730451311834L57.43861607142857,54.83445671543435L58.20446428571429,57.026375530519076L58.9703125,58.871610955078744L59.73616071428572,60.81010446190419L60.50200892857143,62.834511019736055L61.26785714285714,64.80343911018889L62.03370535714286,66.63872373186992L62.799553571428575,68.38699326171252L63.565401785714286,70.21563166406037L64.33125,71.97988082040108L65.09709821428571,73.74939907469867L65.86294642857143,75.45444949457352L66.62879464285714,77.07959374389087L67.39464285714286,78.71827000705525L68.16049107142857,80.3107300441579L68.92633928571428,81.84654557675813L69.6921875,83.40727905490021L70.45803571428571,84.83325085715711L71.22388392857144,86.23064635823295L71.98973214285714,87.61155033898876L72.75558035714285,88.87908194942747L73.52142857142857,90.19022639885569L74.28727678571428,91.32407243430195L75.05312500000001,92.48127216924546L75.81897321428572,93.72153864799539L76.58482142857143,94.80501208205709L77.35066964285714,95.8915938705219L78.11651785714285,96.95024176657463L78.88236607142856,97.81974587969233L79.64821428571429,98.53725785095887L80.4140625,99.53891307162917L81.17991071428573,100.61901749798288L81.94575892857142,101.53641437070759L82.71160714285713,102.23865326589663L83.47745535714286,102.99844900178707L84.24330357142857,103.7428057317404L85.00915178571428,104.41655242787608L85.775,105.02021722205566L86.54084821428572,105.61873846178108L87.30669642857143,106.13991679107063L88.07254464285714,106.60227080596435L88.83839285714285,107.15171935009728L89.60424107142858,107.55496977476935L90.37008928571429,107.94990731105403L91.13593750000001,108.18334036365269L91.90178571428571,108.52425634440851L92.66763392857142,109.03131645268442L93.43348214285714,109.4414507389838L94.19933035714286,109.68500268304992L94.96517857142857,109.82485295044172L95.73102678571429,110.26254818860762L96.496875,110.69459399793986L97.26272321428571,110.84948464561172L98.02857142857142,111.12910779513122L98.79441964285714,111.32058712758939L99.56026785714286,111.62179391931487L100.32611607142857,111.85644495895104L101.0919642857143,112.08688339239714L101.8578125,112.33892055340424L102.6236607142857,112.59091838988354L103.38950892857143,112.78887018040433L104.15535714285714,112.93461446250845L104.92120535714285,113.13996581406616L105.68705357142858,113.31243535382283L106.45290178571429,113.46429520747701L107.21875,113.47856736124541L107.98459821428571,113.71989879175614L108.75044642857142,113.96956143278635L109.51629464285715,114.17630618909253L110.28214285714286,114.32048834621462L111.04799107142858,114.4464442328188L111.81383928571428,114.47514797025362L112.57968749999999,114.74066553974215L113.34553571428572,114.93006321468391L114.11138392857143,115.04163294242882L114.87723214285714,115.07727638010421L115.64308035714286,114.93289763405465L116.40892857142858,115.06682684426234L117.17477678571429,115.36372685276305L117.940625,115.46055998311144L118.70647321428571,115.49779603027721L119.47232142857143,115.51065618878656L120.23816964285714,115.6978447303338L121.00401785714286,115.92977786055188L121.76986607142857,116.04188142214802L122.53571428571428,116.15002421932174L123.3015625,116.2164659762189L124.06741071428571,116.42952611429325L124.83325892857142,116.59327932029665L125.59910714285715,116.71242867209337L126.36495535714286,116.75872041959258L127.13080357142857,116.59087870624876L127.89665178571428,116.74505051040978L128.6625,116.9846118612945L129.4283482142857,117.14843269530097L130.19419642857142,117.27685123091834L130.96004464285713,117.44054410103497L131.72589285714287,117.57749380217119L132.49174107142858,117.58048397826826L133.2575892857143,117.66393507636194L134.0234375,117.70995462606315L134.7892857142857,117.79331287147579L135.55513392857142,117.9607392533738L136.32098214285713,118.01423333788625L137.08683035714287,117.85219306968477L137.85267857142856,117.68770741158424L138.6185267857143,117.95931144197999L139.384375,118.18395646198721L140.15022321428572,118.39573399891933L140.91607142857143,118.45547890268057L141.68191964285714,118.6380782024202L142.44776785714288,118.5893987355314L143.21361607142856,118.85160213734801L143.97946428571427,118.94736181910491L144.7453125,119.16394081045584L145.5111607142857,119.35922405518728L146.27700892857143,119.32126003939491L147.04285714285714,119.4342689381356L147.80870535714286,119.5983601768602L148.57455357142857,119.65836209613815L149.34040178571428,119.72594810659926L150.10625000000002,119.85959918778286L150.8720982142857,119.4194035578637L151.63794642857144,119.80275987280619L152.40379464285715,119.97622965590087L153.16964285714286,119.99844057251572L153.93549107142857,120.05528250668182L154.70133928571428,120.26253147125482L155.4671875,120.4849633129452L156.2330357142857,120.51930374813166L156.99888392857144,120.54668048766509L157.76473214285713,120.65017089693103L158.53058035714287,120.77279129494244L159.29642857142858,120.80252455593555L160.0622767857143,120.61778253071353L160.828125,120.78002380382723L161.5939732142857,121.0174457016689L162.35982142857145,121.14231161573149L163.12566964285713,121.23373267033864L163.89151785714284,121.26515040583911L164.65736607142858,121.3831603872031L165.42321428571427,121.42827693306904L166.1890625,121.50740653087796L166.95491071428572,121.53179066862722L167.72075892857143,121.65880008629597L168.48660714285714,121.594518364022L169.25245535714285,121.5218641363878L170.01830357142856,121.63596778730347L170.78415178571427,121.8554898438044L171.55,122.02986438694722L172.31584821428572,122.05588415636497L173.08169642857143,122.1232833745512L173.84754464285714,122.22027044787602L174.61339285714286,122.1961726583715L175.37924107142857,122.36647179351306L176.14508928571428,122.26578813767071L176.91093750000002,122.3950144130526L177.6767857142857,122.50803937982748L178.44263392857144,122.56206007682022L179.20848214285715,122.71438956985517L179.97433035714283,122.8305660489975L180.74017857142857,122.95146869046162L181.50602678571428,122.93920576029622L182.27187500000002,122.82865700396063L183.0377232142857,123.10840316577055L183.80357142857142,122.75809967893342L184.56941964285716,122.79901031878379L185.33526785714284,123.06805201506685L186.10111607142858,123.24703950168335L186.8669642857143,123.22819865434354L187.6328125,123.447934683297L188.3986607142857,123.37544549870525L189.16450892857142,123.54900196414015L189.93035714285713,123.01767047973964L190.69620535714284,123.16168295978999L191.46205357142858,123.50632522686023L192.2279017857143,123.66668286035679L192.99375,123.82285774614543L193.75959821428572,123.85639902074813L194.52544642857143,124.01338797084298L195.29129464285714,124.00997277461573L196.05714285714285,124.03745024818035L196.8229910714286,124.18208687753192L197.58883928571427,124.13721576482482L198.3546875,124.21907890528695L199.12053571428572,124.39656796866808L199.8863839285714,124.38554210750752L200.65223214285714,124.43189338418938L201.41808035714286,124.19537590885021L202.1839285714286,124.43583637243822L202.94977678571428,124.58205774883218L203.715625,124.3851555076825L204.48147321428573,124.37227227017806L205.2473214285714,124.44951836501872L206.01316964285715,124.84858660043466L206.77901785714286,124.21886569743069L207.54486607142857,124.15352556597023L208.31071428571428,124.6234102814843L209.0765625,124.50800351517098L209.8424107142857,124.62923585305631L210.60825892857142,124.74354554174356L211.37410714285716,124.92732891415365L212.13995535714287,125.04607072457556L212.90580357142858,125.14431377441616L213.6716517857143,125.26998177880604L214.4375,125.36152336029942L215.2033482142857,125.45633696930847L215.96919642857142,125.54261556913798L216.73504464285716,125.35939541051991L217.50089285714284,125.43467556987332L218.26674107142858,125.56936769617074L219.0325892857143,125.61007504621631L219.79843749999998,125.6263353484441L220.56428571428572,125.77950715964451L221.33013392857143,125.81599793401608L222.09598214285717,125.79326477190207L222.86183035714285,125.75720319672635L223.62767857142856,125.8412239880813L224.3935267857143,125.51624841678854L225.15937499999998,125.49811671091348L225.92522321428572,125.6674156740103L226.69107142857143,125.91784457890951L227.45691964285714,125.92061042703449L228.22276785714286,125.99211399307205L228.98861607142857,126.07038774421028L229.75446428571428,126.18949568865824L230.5203125,126.21726293920356L231.28616071428573,126.2560178372793L232.05200892857144,126.39175492327608L232.81785714285715,126.4716039625875L233.58370535714286,126.34540587433608L234.34955357142857,126.43594871422707L235.11540178571428,126.51846508062516L235.88125,126.58690512702844L236.64709821428573,126.45833802139352L237.41294642857142,126.28700195500606L238.17879464285716,126.42163492093098L238.94464285714287,126.49244253545768L239.71049107142855,126.52088437900802L240.4763392857143,126.3947902545881L241.2421875,125.61180941416134L242.0080357142857,125.59825254372743L242.77388392857142,125.81906090513063L243.53973214285713,126.16430607240513L244.30558035714287,126.57687765042652L245.07142857142856,126.75972839800916L245.8372767857143,126.76679335996549L246.603125,126.72878215093436L247.36897321428572,126.91178980695621L248.13482142857143,126.95160534517417L248.90066964285714,127.10181642097103L249.66651785714285,127.10037668261053L250.43236607142856,127.10926131832474L251.1982142857143,127.06705566701021L251.96406249999998,126.96239437137083L252.72991071428572,127.1654819139284L253.49575892857143,126.91568893920038L254.26160714285714,127.08878876008981L255.02745535714286,127.19396070980068L255.79330357142857,127.30602995957754L256.5591517857143,127.21369034492466L257.325,127.20645958648223L258.0908482142857,127.4013478187686L258.8566964285714,127.4232123133321L259.6225446428571,127.53746462484872L260.38839285714283,127.58459517531004L261.1542410714286,127.5951651543721" style="fill: none;" fill="none"></path></g></g></g></g><g opacity="0.2"><g><g><g><path stroke="rgb(0, 153, 136)" stroke-width="2px" d="M42.121651785714285,-3.7735471725463867L42.8875,0.4233559370041091L43.653348214285714,4.623954733212796L44.419196428571425,8.338738719622308L45.18504464285714,14.395138065020257L45.950892857142854,20.37270788351696L46.71674107142857,25.633827288945522L47.48258928571428,32.177261551221235L48.2484375,36.61891106764479L49.01428571428571,38.72989966471992L49.78013392857143,41.19749550024672L50.54598214285715,42.25454145669939L51.31183035714285,43.14000322421394L52.07767857142857,45.91033591826759L52.84352678571429,48.74644829829536L53.609375,50.858214934666975L54.37522321428571,52.19180081288021L55.14107142857143,54.07985462745033L55.90691964285714,56.05528755982719L56.67276785714286,56.91648864746096L57.43861607142857,59.34089446067812L58.20446428571429,63.01560058196388L58.9703125,66.04263319571815L59.73616071428572,67.91723930835725L60.50200892857143,69.49677401781084L61.26785714285714,70.9331937034925L62.03370535714286,72.94040246804558L62.799553571428575,75.22492919365567L63.565401785714286,76.9889476299286L64.33125,79.11879483858746L65.09709821428571,81.07646548748018L65.86294642857143,83.06662811835609L66.62879464285714,84.76934943596524L67.39464285714286,86.59019126494728L68.16049107142857,88.16128247976305L68.92633928571428,89.84843859076501L69.6921875,91.06219757596654L70.45803571428571,92.6844890813033L71.22388392857144,94.23350785175961L71.98973214285714,95.57342856129013L72.75558035714285,97.10802708069485L73.52142857142857,98.76738596955937L74.28727678571428,100.12745612859726L75.05312500000001,101.39520485202473L75.81897321428572,102.55374957124394L76.58482142857143,103.71574683984123L77.35066964285714,105.14113251368207L78.11651785714285,106.45287582278252L78.88236607142856,107.62596457203232L79.64821428571429,108.89635244011879L80.4140625,110.11420939366025L81.17991071428573,111.1902952094873L81.94575892857142,112.01406199733418L82.71160714285713,113.1270030041536L83.47745535714286,114.0791285932064L84.24330357142857,114.98624726136528L85.00915178571428,115.80634488662086L85.775,116.57412378986679L86.54084821428572,117.30490604043007L87.30669642857143,117.96772921085358L88.07254464285714,118.72779845197998L88.83839285714285,119.49876908461255L89.60424107142858,120.15620344877243L90.37008928571429,120.79406747221947L91.13593750000001,121.18079278866452L91.90178571428571,121.92297596732777L92.66763392857142,122.3935261766116L93.43348214285714,122.7366591890653L94.19933035714286,123.41567972302437L94.96517857142857,123.4365762670835L95.73102678571429,124.4142577946186L96.496875,124.95995510617894L97.26272321428571,125.43476242820424L98.02857142857142,125.74634948372841L98.79441964285714,126.16685319940251L99.56026785714286,126.33803289632004L100.32611607142857,126.6037598401308L101.0919642857143,127.23306764165562L101.8578125,127.77713814377785L102.6236607142857,128.13473782440028L103.38950892857143,128.44019118944806L104.15535714285714,128.77969924608868L104.92120535714285,129.1011598855257L105.68705357142858,128.97776329517365L106.45290178571429,128.92082717518014L107.21875,129.79262904822826L107.98459821428571,130.1717640608549L108.75044642857142,130.43096608420214L109.51629464285715,130.79818958044052L110.28214285714286,131.06983360151452L111.04799107142858,131.49285268286866L111.81383928571428,131.72183053195477L112.57968749999999,131.79653114577135L113.34553571428572,131.6461949447791L114.11138392857143,131.5936352958282L114.87723214285714,131.928450802962L115.64308035714286,132.00681615869206L116.40892857142858,132.83064704636735L117.17477678571429,133.28537564973038L117.940625,133.5365187774102L118.70647321428571,133.49782237410545L119.47232142857143,132.98708820343018L120.23816964285714,133.70725419620675L121.00401785714286,134.21087549626827L121.76986607142857,134.38734895487627L122.53571428571428,134.63951767981052L123.3015625,134.78663783768815L124.06741071428571,134.60488166908425L124.83325892857142,134.7003196825584L125.59910714285715,134.8465070774158L126.36495535714286,135.17416550715765L127.13080357142857,134.79195149242878L127.89665178571428,135.58959428469342L128.6625,135.6611783206463L129.4283482142857,135.67175479233265L130.19419642857142,135.71387501060963L130.96004464285713,136.10157950719199L131.72589285714287,136.2543448706468L132.49174107142858,136.38938110570115L133.2575892857143,136.48381120463213L134.0234375,136.26174066464108L134.7892857142857,136.4852656076352L135.55513392857142,136.56274682780108L136.32098214285713,136.9539856563012L137.08683035714287,136.4337669213613L137.85267857142856,137.1739254295826L138.6185267857143,137.2420989125967L139.384375,137.28938027222952L140.15022321428572,137.40454335014027L140.91607142857143,137.41686598956585L141.68191964285714,137.38387447098893L142.44776785714288,137.77445682883263L143.21361607142856,137.61745424568653L143.97946428571427,137.4538449595372L144.7453125,137.87418068945408L145.5111607142857,138.03089592854184L146.27700892857143,138.0289795647065L147.04285714285714,138.21315163373947L147.80870535714286,138.012311398983L148.57455357142857,137.94247132043046L149.34040178571428,138.4318823516369L150.10625000000002,138.6094167729219L150.8720982142857,138.7364095846812L151.63794642857144,138.68078419566154L152.40379464285715,138.37043271958828L153.16964285714286,138.6386264016231L153.93549107142857,138.95421196023625L154.70133928571428,139.17557298143706L155.4671875,139.2619950224956L156.2330357142857,139.33778754373392L156.99888392857144,139.4947238167127L157.76473214285713,139.55081337690353L158.53058035714287,139.5411343028148L159.29642857142858,139.71118230621022L160.0622767857143,139.93798076113066L160.828125,140.01981413861117L161.5939732142857,140.05497399965924L162.35982142857145,140.12518983582657L163.12566964285713,140.2285187592109L163.89151785714284,140.3893363873164L164.65736607142858,140.45078159868717L165.42321428571427,140.49838787813982L166.1890625,140.7071831226349L166.95491071428572,140.81099611024064L167.72075892857143,140.76430712143582L168.48660714285714,140.71606205403805L169.25245535714285,140.93521052598953L170.01830357142856,141.01553866267204L170.78415178571427,141.07255435486636L171.55,141.06566251814365L172.31584821428572,141.2446071356535L173.08169642857143,141.24996057649454L173.84754464285714,141.38601356744766L174.61339285714286,141.50305322309336L175.37924107142857,141.64866371949515L176.14508928571428,141.683335095644L176.91093750000002,141.8707762559255L177.6767857142857,141.93040898938975L178.44263392857144,142.08659374713898L179.20848214285715,142.1811299423377L179.97433035714283,142.30194485684237L180.74017857142857,142.36105373998484L181.50602678571428,142.05321541925272L182.27187500000002,142.31632311145466L183.0377232142857,142.64340906341872L183.80357142857142,142.1547473371029L184.56941964285716,142.63086096942425L185.33526785714284,142.9370945841074L186.10111607142858,142.97765651345253L186.8669642857143,143.12598351637524L187.6328125,143.1309567789237L188.3986607142857,142.96081594129404L189.16450892857142,143.2678563296795L189.93035714285713,142.920103708903L190.69620535714284,143.35354232788086L191.46205357142858,143.30607751011848L192.2279017857143,143.41227103273076L192.99375,143.390032812953L193.75959821428572,143.51157713929814L194.52544642857143,143.73196782171726L195.29129464285714,143.60948410133523L196.05714285714285,143.9029574294885L196.8229910714286,144.01568913459778L197.58883928571427,143.96153583129248L198.3546875,144.1662640521924L199.12053571428572,144.2318138629198L199.8863839285714,144.2416918675105L200.65223214285714,144.0879119584958L201.41808035714286,144.46286943058175L202.1839285714286,144.5230370660623L202.94977678571428,144.61927964289984L203.715625,144.68555776029825L204.48147321428573,144.544733752807L205.2473214285714,144.63905886063975L206.01316964285715,144.71215697874626L206.77901785714286,143.8318751404683L207.54486607142857,144.6719310209155L208.31071428571428,144.8503120020032L209.0765625,144.42679227888584L209.8424107142857,144.81832508246106L210.60825892857142,144.97972734520835L211.37410714285716,145.08281202614307L212.13995535714287,145.16558369249105L212.90580357142858,145.24182933320603L213.6716517857143,145.3395683094859L214.4375,145.44334482649964L215.2033482142857,145.54956597834826L215.96919642857142,145.67961126814288L216.73504464285716,145.6624148314198L217.50089285714284,145.68208905806145L218.26674107142858,145.67401247968277L219.0325892857143,145.68400542189679L219.79843749999998,145.7188801492254L220.56428571428572,145.6807827477654L221.33013392857143,145.7320592949788L222.09598214285717,145.84322276463112L222.86183035714285,145.88251153876385L223.62767857142856,146.04595394432545L224.3935267857143,145.6921792551875L225.15937499999998,146.07407056043547L225.92522321428572,146.2570545723041L226.69107142857143,146.3438225314021L227.45691964285714,146.42566917091608L228.22276785714286,146.48204054931801L228.98861607142857,146.48189908762774L229.75446428571428,146.46585534264645L230.5203125,146.3531081651648L231.28616071428573,146.47209955006838L232.05200892857144,146.5570915018519L232.81785714285715,146.57216048737368L233.58370535714286,146.64565646648407L234.34955357142857,146.70920923600596L235.11540178571428,146.70697458336753L235.88125,146.47822771469754L236.64709821428573,146.4490357687076L237.41294642857142,146.87501007318497L238.17879464285716,146.9546496892969L238.94464285714287,146.98238060126704L239.71049107142855,147.11526617656153L240.4763392857143,147.19347680856785L241.2421875,146.09963091959557L242.0080357142857,146.6636729389429L242.77388392857142,147.0470363299052L243.53973214285713,147.02750024944544L244.30558035714287,147.23245613525313L245.07142857142856,147.29022113233805L245.8372767857143,147.29843696206808L246.603125,147.3924272035559L247.36897321428572,147.4871833274762L248.13482142857143,147.47316425293684L248.90066964285714,147.5868121435245L249.66651785714285,147.78176845610142L250.43236607142856,147.78093736867112L251.1982142857143,147.79843330631655L251.96406249999998,147.72363985826573L252.72991071428572,147.78796514123678L253.49575892857143,147.90368854006132L254.26160714285714,147.92099217822155L255.02745535714286,147.78984945515793L255.79330357142857,147.95097653071088L256.5591517857143,148.1415132706364L257.325,148.21836233387393L258.0908482142857,148.16827384382486L258.8566964285714,148.2014653980732L259.6225446428571,148.0798414995273L260.38839285714283,148.03321661055088L261.1542410714286,148.01619921127957" style="fill: none;" fill="none"></path></g><g><path stroke="rgb(238, 51, 119)" stroke-width="2px" d="M42.8875,-3.083178758621216L43.653348214285714,0.7953117688496973L44.419196428571425,4.849161744117756L45.18504464285714,9.503958662350978L45.950892857142854,14.566465854644795L46.71674107142857,19.76114247242611L47.48258928571428,25.033234000205994L48.2484375,29.2479170759519L49.01428571428571,32.309342563152335L49.78013392857143,35.33720626433693L50.54598214285715,38.58517551422121L51.31183035714285,40.734226147333814L52.07767857142857,43.25210277239485L52.84352678571429,45.53854807217918L53.609375,47.6517381668091L54.37522321428571,50.06959253549578L55.14107142857143,52.24980010588966L55.90691964285714,54.1030985514323L56.67276785714286,56.00567871332171L57.43861607142857,57.66453806559246L58.20446428571429,60.31424814462664L58.9703125,61.6394612590472L59.73616071428572,63.71784293651583L60.50200892857143,65.87111973762514L61.26785714285714,67.75683059295021L62.03370535714286,69.39165029923123L62.799553571428575,71.00939734776817L63.565401785714286,72.95858913660051L64.33125,74.62625447909039L65.09709821428571,76.40367641051613L65.86294642857143,78.01202509800595L66.62879464285714,79.51731010278068L67.39464285714286,81.17628439267479L68.16049107142857,82.69942009449007L68.92633928571428,84.15026887257896L69.6921875,85.74837927023572L70.45803571428571,86.9722085595131L71.22388392857144,88.3267396092415L71.98973214285714,89.68290630976361L72.75558035714285,90.78037936488789L73.52142857142857,92.15694307287536L74.28727678571428,93.0248414874077L75.05312500000001,94.21707177162172L75.81897321428572,95.58193836609524L76.58482142857143,96.43022223313652L77.35066964285714,97.52146655321123L78.11651785714285,98.53821361064912L78.88236607142856,99.12400204936665L79.64821428571429,99.61352580785753L80.4140625,101.04139590263367L81.17991071428573,102.23917413751286L81.94575892857142,102.91250967979431L82.71160714285713,103.29201160868011L83.47745535714286,104.13814260562263L84.24330357142857,104.85934082667035L85.00915178571428,105.42717247207962L85.775,105.92571441332501L86.54084821428572,106.51652032136917L87.30669642857143,106.92168428500496L88.07254464285714,107.29580182830495L88.83839285714285,107.97589216629666L89.60424107142858,108.1598454117775L90.37008928571429,108.54231361548108L91.13593750000001,108.53348994255066L91.90178571428571,109.03563031554222L92.66763392857142,109.79190661509834L93.43348214285714,110.05665216843289L94.19933035714286,110.05033059914909L94.96517857142857,110.03462835152946L95.73102678571429,110.91909104585648L96.496875,111.34266271193825L97.26272321428571,111.08182061711949L98.02857142857142,111.54854251941047L98.79441964285714,111.60780612627667L99.56026785714286,112.07360410690308L100.32611607142857,112.2084215184053L101.0919642857143,112.4325410425663L101.8578125,112.7169762949149L102.6236607142857,112.96891514460248L103.38950892857143,113.08579786618553L104.15535714285714,113.15323088566464L104.92120535714285,113.44799284140271L105.68705357142858,113.57113966345787L106.45290178571429,113.6920849879583L107.21875,113.49997559189796L107.98459821428571,114.08189593752228L108.75044642857142,114.34405539433163L109.51629464285715,114.48642332355183L110.28214285714286,114.53676158189774L111.04799107142858,114.63537806272507L111.81383928571428,114.51820357640587L112.57968749999999,115.13894189397496L113.34553571428572,115.21415972709656L114.11138392857143,115.20898753404617L114.87723214285714,115.13074153661728L115.64308035714286,114.71632951498032L116.40892857142858,115.2677206595739L117.17477678571429,115.80907686551414L117.940625,115.60580967863403L118.70647321428571,115.55365010102592L119.47232142857143,115.52994642655057L120.23816964285714,115.97862754265469L121.00401785714286,116.27767755587898L121.76986607142857,116.21003676454228L122.53571428571428,116.31223841508232L123.3015625,116.31612861156464L124.06741071428571,116.7491163214048L124.83325892857142,116.83890912930173L125.59910714285715,116.89115269978844L126.36495535714286,116.82815804084144L127.13080357142857,116.33911613623303L127.89665178571428,116.9763082166513L128.6625,117.34395388762158L129.4283482142857,117.3941639463107L130.19419642857142,117.46947903434437L130.96004464285713,117.68608340620995L131.72589285714287,117.7829183538755L132.49174107142858,117.58496924241386L133.2575892857143,117.7891117235025L134.0234375,117.77898395061493L134.7892857142857,117.9183502395948L135.55513392857142,118.21187882622085L136.32098214285713,118.09447446465492L137.08683035714287,117.60913266738258L137.85267857142856,117.44097892443341L138.6185267857143,118.36671748757362L139.384375,118.52092399199806L140.15022321428572,118.71340030431747L140.91607142857143,118.54509625832242L141.68191964285714,118.91197715202969L142.44776785714288,118.51637953519821L143.21361607142856,119.2449072400729L143.97946428571427,119.09100134174031L144.7453125,119.48880929748219L145.5111607142857,119.65214892228447L146.27700892857143,119.2643140157064L147.04285714285714,119.60378228624664L147.80870535714286,119.8444970349471L148.57455357142857,119.74836497505508L149.34040178571428,119.82732712229095L150.10625000000002,120.06007580955826L150.8720982142857,118.759110112985L151.63794642857144,120.37779434521995L152.40379464285715,120.2364343305429L153.16964285714286,120.03175694743794L153.93549107142857,120.14054540793103L154.70133928571428,120.57340491811436L155.4671875,120.8186110754808L156.2330357142857,120.57081440091133L156.99888392857144,120.58774559696518L157.76473214285713,120.80540651082993L158.53058035714287,120.95672189195953L159.29642857142858,120.84712444742523L160.0622767857143,120.34066949288052L160.828125,121.02338571349782L161.5939732142857,121.3735785484314L162.35982142857145,121.32961048682533L163.12566964285713,121.37086425224942L163.89151785714284,121.31227700908981L164.65736607142858,121.56017535924911L165.42321428571427,121.49595175186795L166.1890625,121.62610092759132L166.95491071428572,121.56836687525116L167.72075892857143,121.84931421279907L168.48660714285714,121.49809578061104L169.25245535714285,121.41288279493652L170.01830357142856,121.80712326367698L170.78415178571427,122.18477292855583L171.55,122.29142620166145L172.31584821428572,122.09491381049156L173.08169642857143,122.22438220183057L173.84754464285714,122.36575105786324L174.61339285714286,122.16002597411476L175.37924107142857,122.62192049622536L176.14508928571428,122.11476265390716L176.91093750000002,122.58885382612547L177.6767857142857,122.67757682998976L178.44263392857144,122.64309112230939L179.20848214285715,122.94288380940756L179.97433035714283,123.00483076771101L180.74017857142857,123.13282265265784L181.50602678571428,122.92081136504811L182.27187500000002,122.66283386945724L183.0377232142857,123.52802240848541L183.80357142857142,122.23264444867772L184.56941964285716,122.86037627855939L185.33526785714284,123.47161455949148L186.10111607142858,123.51552073160809L186.8669642857143,123.19993738333386L187.6328125,123.77753872672719L188.3986607142857,123.26671172181767L189.16450892857142,123.80933666229248L189.93035714285713,122.22067325313888L190.69620535714284,123.37770167986554L191.46205357142858,124.02328862746558L192.2279017857143,123.90721931060156L192.99375,124.05712007482848L193.75959821428572,123.90671093265217L194.52544642857143,124.2488713959853L195.29129464285714,124.00484998027486L196.05714285714285,124.07866645852727L196.8229910714286,124.39904182155928L197.58883928571427,124.06990909576416L198.3546875,124.34187361598015L199.12053571428572,124.66280156373978L199.8863839285714,124.36900331576666L200.65223214285714,124.50142029921216L201.41808035714286,123.84059969584149L202.1839285714286,124.79652706782025L202.94977678571428,124.80138981342316L203.715625,124.08980214595795L204.48147321428573,124.35294741392136L205.2473214285714,124.56538750727972L206.01316964285715,125.44718895355862L206.77901785714286,123.27428434292477L207.54486607142857,124.05551536877951L208.31071428571428,125.3282373547554L209.0765625,124.33489336570105L209.8424107142857,124.81108435988426L210.60825892857142,124.91501007477444L211.37410714285716,125.20300397276878L212.13995535714287,125.22418344020844L212.90580357142858,125.29167834917706L213.6716517857143,125.45848378539085L214.4375,125.4988357325395L215.2033482142857,125.59855738282204L215.96919642857142,125.67203346888226L216.73504464285716,125.08456517259282L217.50089285714284,125.5475958089034L218.26674107142858,125.77140588561696L219.0325892857143,125.67113607128462L219.79843749999998,125.6507258017858L220.56428571428572,126.00926487644514L221.33013392857143,125.87073409557343L222.09598214285717,125.75916502873105L222.86183035714285,125.70311083396277L223.62767857142856,125.96725517511368L224.3935267857143,125.02878505984944L225.15937499999998,125.47091915210089L225.92522321428572,125.92136411865553L226.69107142857143,126.29348793625832L227.45691964285714,125.92475919922194L228.22276785714286,126.09936934212845L228.98861607142857,126.18779837091765L229.75446428571428,126.36815760533017L230.5203125,126.25891381502151L231.28616071428573,126.31415018439293L232.05200892857144,126.59536055227122L232.81785714285715,126.59137752155465L233.58370535714286,126.15610874195895L234.34955357142857,126.57176297406357L235.11540178571428,126.64223963022232L235.88125,126.68956519663334L236.64709821428573,126.26548736294112L237.41294642857142,126.02999785542488L238.17879464285716,126.62358436981839L238.94464285714287,126.59865395724773L239.71049107142855,126.56354714433354L240.4763392857143,126.2056490679582L241.2421875,124.43733815352124L242.0080357142857,125.57791723807654L242.77388392857142,126.15027344723543L243.53973214285713,126.6821738233169L244.30558035714287,127.19573501745862L245.07142857142856,127.03400451938313L245.8372767857143,126.77739080290002L246.603125,126.67176533738774L247.36897321428572,127.18630129098892L248.13482142857143,127.0113286525011L248.90066964285714,127.32713303466639L249.66651785714285,127.09821707506975L250.43236607142856,127.12258827189606L251.1982142857143,127.00374719003838L251.96406249999998,126.80540242791176L252.72991071428572,127.47011322776478L253.49575892857143,126.54099947710833L254.26160714285714,127.34843849142393L255.02745535714286,127.35171863436699L255.79330357142857,127.47413383424282L256.5591517857143,127.07518092294535L257.325,127.19561344881853L258.0908482142857,127.69368016719818L258.8566964285714,127.45600905517739L259.6225446428571,127.70884309212369L260.38839285714283,127.65529100100201L261.1542410714286,127.61102012296519" style="fill: none;" fill="none"></path></g></g></g></g></g></g><g transform="translate(61, 178)" clip-path="url(#clip_1)"><clipPath id="clip_1"><rect width="268" height="22"></rect></clipPath><g><g><line x1="0" y1="0" x2="0" y2="5" style="visibility: inherit;" fill="rgb(0, 0, 0)" stroke="rgb(204, 204, 204)" stroke-width="1px"></line><line x1="38.292410714285715" y1="0" x2="38.292410714285715" y2="5" style="visibility: inherit;" fill="rgb(0, 0, 0)" stroke="rgb(204, 204, 204)" stroke-width="1px"></line><line x1="76.58482142857143" y1="0" x2="76.58482142857143" y2="5" style="visibility: inherit;" fill="rgb(0, 0, 0)" stroke="rgb(204, 204, 204)" stroke-width="1px"></line><line x1="114.87723214285714" y1="0" x2="114.87723214285714" y2="5" style="visibility: inherit;" fill="rgb(0, 0, 0)" stroke="rgb(204, 204, 204)" stroke-width="1px"></line><line x1="153.16964285714286" y1="0" x2="153.16964285714286" y2="5" style="visibility: inherit;" fill="rgb(0, 0, 0)" stroke="rgb(204, 204, 204)" stroke-width="1px"></line><line x1="191.46205357142858" y1="0" x2="191.46205357142858" y2="5" style="visibility: inherit;" fill="rgb(0, 0, 0)" stroke="rgb(204, 204, 204)" stroke-width="1px"></line><line x1="229.75446428571428" y1="0" x2="229.75446428571428" y2="5" style="visibility: inherit;" fill="rgb(0, 0, 0)" stroke="rgb(204, 204, 204)" stroke-width="1px"></line><line x1="268.046875" y1="0" x2="268.046875" y2="5" style="visibility: inherit;" fill="rgb(0, 0, 0)" stroke="rgb(204, 204, 204)" stroke-width="1px"></line></g><g transform="translate(0, 8)"><text x="0" y="0" dx="0em" dy="0.95em" style="text-anchor: middle; visibility: hidden; font-family: Roboto, sans-serif; font-size: 12px; font-weight: 200;" fill="rgb(50, 49, 63)" stroke="none" stroke-width="1px">-50</text><text x="38.292410714285715" y="0" dx="0em" dy="0.95em" style="text-anchor: middle; visibility: inherit; font-family: Roboto, sans-serif; font-size: 12px; font-weight: 200;" fill="rgb(50, 49, 63)" stroke="none" stroke-width="1px">0</text><text x="76.58482142857143" y="0" dx="0em" dy="0.95em" style="text-anchor: middle; visibility: inherit; font-family: Roboto, sans-serif; font-size: 12px; font-weight: 200;" fill="rgb(50, 49, 63)" stroke="none" stroke-width="1px">50</text><text x="114.87723214285714" y="0" dx="0em" dy="0.95em" style="text-anchor: middle; visibility: inherit; font-family: Roboto, sans-serif; font-size: 12px; font-weight: 200;" fill="rgb(50, 49, 63)" stroke="none" stroke-width="1px">100</text><text x="153.16964285714286" y="0" dx="0em" dy="0.95em" style="text-anchor: middle; visibility: inherit; font-family: Roboto, sans-serif; font-size: 12px; font-weight: 200;" fill="rgb(50, 49, 63)" stroke="none" stroke-width="1px">150</text><text x="191.46205357142858" y="0" dx="0em" dy="0.95em" style="text-anchor: middle; visibility: inherit; font-family: Roboto, sans-serif; font-size: 12px; font-weight: 200;" fill="rgb(50, 49, 63)" stroke="none" stroke-width="1px">200</text><text x="229.75446428571428" y="0" dx="0em" dy="0.95em" style="text-anchor: middle; visibility: inherit; font-family: Roboto, sans-serif; font-size: 12px; font-weight: 200;" fill="rgb(50, 49, 63)" stroke="none" stroke-width="1px">250</text><text x="268.046875" y="0" dx="0em" dy="0.95em" style="text-anchor: middle; visibility: hidden; font-family: Roboto, sans-serif; font-size: 12px; font-weight: 200;" fill="rgb(50, 49, 63)" stroke="none" stroke-width="1px">300</text></g><line x1="0" y1="0" x2="268.046875" y2="0" fill="rgb(0, 0, 0)" stroke="rgb(204, 204, 204)" stroke-width="1px"></line></g></g></g></g></svg>