<svg viewBox="0 0 330 200" xmlns="http://www.w3.org/2000/svg"><g><g><g><g><g><line x1="51.5625" y1="178" x2="46.5625" y2="178" style="visibility: inherit;" fill="rgb(0, 0, 0)" stroke="rgb(204, 204, 204)" stroke-width="1px"></line><line x1="51.5625" y1="155.75" x2="46.5625" y2="155.75" style="visibility: inherit;" fill="rgb(0, 0, 0)" stroke="rgb(204, 204, 204)" stroke-width="1px"></line><line x1="51.5625" y1="133.5" x2="46.5625" y2="133.5" style="visibility: inherit;" fill="rgb(0, 0, 0)" stroke="rgb(204, 204, 204)" stroke-width="1px"></line><line x1="51.5625" y1="111.24999999999999" x2="46.5625" y2="111.24999999999999" style="visibility: inherit;" fill="rgb(0, 0, 0)" stroke="rgb(204, 204, 204)" stroke-width="1px"></line><line x1="51.5625" y1="88.99999999999999" x2="46.5625" y2="88.99999999999999" style="visibility: inherit;" fill="rgb(0, 0, 0)" stroke="rgb(204, 204, 204)" stroke-width="1px"></line><line x1="51.5625" y1="66.75" x2="46.5625" y2="66.75" style="visibility: inherit;" fill="rgb(0, 0, 0)" stroke="rgb(204, 204, 204)" stroke-width="1px"></line><line x1="51.5625" y1="44.5" x2="46.5625" y2="44.5" style="visibility: inherit;" fill="rgb(0, 0, 0)" stroke="rgb(204, 204, 204)" stroke-width="1px"></line><line x1="51.5625" y1="22.25" x2="46.5625" y2="22.25" style="visibility: inherit;" fill="rgb(0, 0, 0)" stroke="rgb(204, 204, 204)" stroke-width="1px"></line><line x1="51.5625" y1="0" x2="46.5625" y2="0" style="visibility: inherit;" fill="rgb(0, 0, 0)" stroke="rgb(204, 204, 204)" stroke-width="1px"></line></g><g transform="translate(41.5625, 0)"><text x="0" y="178" dx="0em" dy="0.3em" style="text-anchor: end; visibility: hidden; font-family: Roboto, sans-serif; font-size: 12px; font-weight: 200;" fill="rgb(50, 49, 63)" stroke="none" stroke-width="1px">-0.1</text><text x="0" y="155.75" dx="0em" dy="0.3em" style="text-anchor: end; visibility: inherit; font-family: Roboto, sans-serif; font-size: 12px; font-weight: 200;" fill="rgb(50, 49, 63)" stroke="none" stroke-width="1px">0</text><text x="0" y="133.5" dx="0em" dy="0.3em" style="text-anchor: end; visibility: hidden; font-family: Roboto, sans-serif; font-size: 12px; font-weight: 200;" fill="rgb(50, 49, 63)" stroke="none" stroke-width="1px">0.1</text><text x="0" y="111.24999999999999" dx="0em" dy="0.3em" style="text-anchor: end; visibility: inherit; font-family: Roboto, sans-serif; font-size: 12px; font-weight: 200;" fill="rgb(50, 49, 63)" stroke="none" stroke-width="1px">0.2</text><text x="0" y="88.99999999999999" dx="0em" dy="0.3em" style="text-anchor: end; visibility: hidden; font-family: Roboto, sans-serif; font-size: 12px; font-weight: 200;" fill="rgb(50, 49, 63)" stroke="none" stroke-width="1px">0.3</text><text x="0" y="66.75" dx="0em" dy="0.3em" style="text-anchor: end; visibility: inherit; font-family: Roboto, sans-serif; font-size: 12px; font-weight: 200;" fill="rgb(50, 49, 63)" stroke="none" stroke-width="1px">0.4</text><text x="0" y="44.5" dx="0em" dy="0.3em" style="text-anchor: end; visibility: hidden; font-family: Roboto, sans-serif; font-size: 12px; font-weight: 200;" fill="rgb(50, 49, 63)" stroke="none" stroke-width="1px">0.5</text><text x="0" y="22.25" dx="0em" dy="0.3em" style="text-anchor: end; visibility: inherit; font-family: Roboto, sans-serif; font-size: 12px; font-weight: 200;" fill="rgb(50, 49, 63)" stroke="none" stroke-width="1px">0.6</text><text x="0" y="0" dx="0em" dy="0.3em" style="text-anchor: end; visibility: hidden; font-family: Roboto, sans-serif; font-size: 12px; font-weight: 200;" fill="rgb(50, 49, 63)" stroke="none" stroke-width="1px">0.7</text></g><line x1="51.5625" y1="0" x2="51.5625" y2="178" fill="rgb(0, 0, 0)" stroke="rgb(204, 204, 204)" stroke-width="1px"></line></g></g><g transform="translate(51, 0)" clip-path="url(#clip_0)"><clipPath id="clip_0"><rect width="278" height="178"></rect></clipPath><g><g><g><line x1="0" y1="0" x2="0" y2="178" fill="rgb(0, 0, 0)" stroke="rgb(60, 60, 60)" stroke-width="1px" opacity="0.25"></line><line x1="19.888392857142858" y1="0" x2="19.888392857142858" y2="178" fill="rgb(0, 0, 0)" stroke="rgb(60, 60, 60)" stroke-width="1px" opacity="0.25"></line><line x1="39.776785714285715" y1="0" x2="39.776785714285715" y2="178" fill="rgb(0, 0, 0)" stroke="rgb(60, 60, 60)" stroke-width="1px" opacity="0.25"></line><line x1="59.66517857142857" y1="0" x2="59.66517857142857" y2="178" fill="rgb(0, 0, 0)" stroke="rgb(60, 60, 60)" stroke-width="1px" opacity="0.25"></line><line x1="79.55357142857143" y1="0" x2="79.55357142857143" y2="178" fill="rgb(0, 0, 0)" stroke="rgb(60, 60, 60)" stroke-width="1px" opacity="0.25"></line><line x1="99.44196428571429" y1="0" x2="99.44196428571429" y2="178" fill="rgb(0, 0, 0)" stroke="rgb(60, 60, 60)" stroke-width="1px" opacity="0.25"></line><line x1="119.33035714285714" y1="0" x2="119.33035714285714" y2="178" fill="rgb(0, 0, 0)" stroke="rgb(60, 60, 60)" stroke-width="1px" opacity="0.25"></line><line x1="139.21875" y1="0" x2="139.21875" y2="178" fill="rgb(0, 0, 0)" stroke="rgb(60, 60, 60)" stroke-width="1px" opacity="0.25"></line><line x1="159.10714285714286" y1="0" x2="159.10714285714286" y2="178" fill="rgb(0, 0, 0)" stroke="rgb(60, 60, 60)" stroke-width="1px" opacity="0.25"></line><line x1="178.99553571428572" y1="0" x2="178.99553571428572" y2="178" fill="rgb(0, 0, 0)" stroke="rgb(60, 60, 60)" stroke-width="1px" opacity="0.25"></line><line x1="198.88392857142858" y1="0" x2="198.88392857142858" y2="178" fill="rgb(0, 0, 0)" stroke="rgb(60, 60, 60)" stroke-width="1px" opacity="0.25"></line><line x1="218.77232142857142" y1="0" x2="218.77232142857142" y2="178" fill="rgb(0, 0, 0)" stroke="rgb(60, 60, 60)" stroke-width="1px" opacity="0.25"></line><line x1="238.66071428571428" y1="0" x2="238.66071428571428" y2="178" fill="rgb(0, 0, 0)" stroke="rgb(60, 60, 60)" stroke-width="1px" opacity="0.25"></line><line x1="258.54910714285717" y1="0" x2="258.54910714285717" y2="178" fill="rgb(0, 0, 0)" stroke="rgb(60, 60, 60)" stroke-width="1px" opacity="0.25"></line><line x1="278.4375" y1="0" x2="278.4375" y2="178" fill="rgb(0, 0, 0)" stroke="rgb(60, 60, 60)" stroke-width="1px" opacity="0.25"></line></g><g><line x1="0" y1="178" x2="278.4375" y2="178" fill="rgb(0, 0, 0)" stroke="rgb(60, 60, 60)" stroke-width="1px" opacity="0.25"></line><line x1="0" y1="155.75" x2="278.4375" y2="155.75" fill="rgb(0, 0, 0)" stroke="rgb(60, 60, 60)" stroke-width="1px" opacity="0.25"></line><line x1="0" y1="133.5" x2="278.4375" y2="133.5" fill="rgb(0, 0, 0)" stroke="rgb(60, 60, 60)" stroke-width="1px" opacity="0.25"></line><line x1="0" y1="111.24999999999999" x2="278.4375" y2="111.24999999999999" fill="rgb(0, 0, 0)" stroke="rgb(60, 60, 60)" stroke-width="1px" opacity="0.25"></line><line x1="0" y1="88.99999999999999" x2="278.4375" y2="88.99999999999999" fill="rgb(0, 0, 0)" stroke="rgb(60, 60, 60)" stroke-width="1px" opacity="0.25"></line><line x1="0" y1="66.75" x2="278.4375" y2="66.75" fill="rgb(0, 0, 0)" stroke="rgb(60, 60, 60)" stroke-width="1px" opacity="0.25"></line><line x1="0" y1="44.5" x2="278.4375" y2="44.5" fill="rgb(0, 0, 0)" stroke="rgb(60, 60, 60)" stroke-width="1px" opacity="0.25"></line><line x1="0" y1="22.25" x2="278.4375" y2="22.25" fill="rgb(0, 0, 0)" stroke="rgb(60, 60, 60)" stroke-width="1px" opacity="0.25"></line><line x1="0" y1="0" x2="278.4375" y2="0" fill="rgb(0, 0, 0)" stroke="rgb(60, 60, 60)" stroke-width="1px" opacity="0.25"></line></g></g></g><g><g><line x1="0" y1="155.75" x2="278.4375" y2="155.75" fill="rgb(0, 0, 0)" stroke="rgb(153, 153, 153)" stroke-width="1.5px"></line></g></g><g><g><line x1="19.888392857142858" y1="0" x2="19.888392857142858" y2="178" fill="rgb(0, 0, 0)" stroke="rgb(153, 153, 153)" stroke-width="1.5px"></line></g></g><g><g><g><g><g><path stroke="rgb(255, 112, 67)" stroke-width="2px" d="M19.888392857142858,4.015295475721359L23.866071428571427,4.890341021120548L27.84375,6.460313736784208L31.82142857142857,8.912222100860046L35.79910714285714,11.861896987345213L39.776785714285715,15.663163140284063L43.754464285714285,19.683400929954498L47.732142857142854,23.581913288834002L51.70982142857143,26.850669247442113L55.6875,30.196766953318424L59.66517857142857,33.91052167581045L63.64285714285714,38.32323764664193L67.62053571428571,42.67701564319623L71.59821428571428,47.19140262734731L75.57589285714285,49.00190919185867L79.55357142857143,49.62954255142509L83.53125,51.614074870278735L87.50892857142857,53.91816206944667L91.48660714285714,56.31467942376309L95.46428571428571,57.904609499191494L99.44196428571429,59.894405406984525L103.41964285714286,62.482301401720214L107.39732142857143,64.66072753109174L111.375,66.0766248323402L115.35267857142858,67.63684678897363L119.33035714285714,67.97939932262746L123.30803571428571,68.49683524827014L127.28571428571428,70.97874888996026L131.26339285714286,72.63349917239559L135.24107142857142,74.99139709568718L139.21875,77.46908233425127L143.19642857142856,79.03548031912032L147.17410714285714,80.6269172466725L151.1517857142857,83.38426216020287L155.12946428571428,85.37899140910594L159.10714285714286,86.44539683605238L163.08482142857144,86.93819065723814L167.0625,87.87989242923646L171.04017857142858,89.56854988744007L175.01785714285714,91.86479835584834L178.99553571428572,93.50417817888064L182.97321428571428,94.34247805669953L186.95089285714283,93.48391927452958L190.92857142857142,94.5653816473693L194.90625,95.38686443648595L198.88392857142858,96.56432171043265L202.86160714285714,97.62811238994114L206.83928571428572,98.69394945164876L210.81696428571428,99.71346730031168L214.79464285714286,100.843361464376L218.77232142857142,100.72099922730554L222.75,99.99258861919445L226.72767857142858,99.7622549175032L230.70535714285717,101.59500904016734L234.68303571428572,104.32506142636134L238.66071428571428,106.35190782892778L242.63839285714286,106.0046155509237L246.61607142857142,104.41713326018333L250.59375,103.74967018271249L254.57142857142856,103.62704917791345L258.54910714285717,104.56842927934444" style="fill: none;" fill="none"></path></g><g><path stroke="rgb(187, 187, 187)" stroke-width="2px" d="M19.888392857142858,19.1921543776989L23.866071428571427,20.939891457557678L27.84375,22.63173447944681L31.82142857142857,24.519505662186187L35.79910714285714,26.61120127535461L39.776785714285715,28.826794802038137L43.754464285714285,31.12567461966124L47.732142857142854,33.45308318921381L51.70982142857143,36.02288329757729L55.6875,38.77546806962817L59.66517857142857,41.73801920479987L63.64285714285714,44.91208367967917L67.62053571428571,48.29578089243937L71.59821428571428,51.455094908539465L75.57589285714285,54.58782395439903L79.55357142857143,57.371435362554855L83.53125,59.91250163084359L87.50892857142857,62.31289645393715L91.48660714285714,64.54107128258585L95.46428571428571,66.65143096838052L99.44196428571429,68.77633555479572L103.41964285714286,70.83385667359833L107.39732142857143,72.8129600665808L111.375,74.72170834072291L115.35267857142858,76.61592963835946L119.33035714285714,78.49173637232748L123.30803571428571,80.29969126255077L127.28571428571428,81.98496295154564L131.26339285714286,83.77277413998334L135.24107142857142,85.62601615030243L139.21875,87.31579327370538L143.19642857142856,88.94804420221037L147.17410714285714,90.5183323486356L151.1517857142857,92.03676443061819L155.12946428571428,93.43612377522895L159.10714285714286,94.84048450057932L163.08482142857144,96.17949618968669L167.0625,97.51448263469314L171.04017857142858,98.80298154487963L175.01785714285714,100.01024538401072L178.99553571428572,101.07444727281631L182.97321428571428,102.17136661379614L186.95089285714283,103.03689133054615L190.92857142857142,104.12794568513819L194.90625,105.15170577998664L198.88392857142858,106.19302451221108L202.86160714285714,107.16977685757931L206.83928571428572,108.07802273673937L210.81696428571428,108.95013269391714L214.79464285714286,109.76802932982544L218.77232142857142,110.69377924958262L222.75,111.5027303186642L226.72767857142858,112.18749165461105L230.70535714285717,113.09204621866823L234.68303571428572,113.99641869518503L238.66071428571428,114.64933322997919L242.63839285714286,115.3902858801607L246.61607142857142,116.04568932103662L250.59375,116.74348337440229L254.57142857142856,117.37753788225972L258.54910714285717,117.9314406370707" style="fill: none;" fill="none"></path></g></g></g></g><g opacity="0.2"><g><g><g><path stroke="rgb(255, 112, 67)" stroke-width="2px" d="M19.888392857142858,4.015295475721359L23.866071428571427,5.415368348360062L27.84375,7.967487543821335L31.82142857142857,11.795666337013245L35.79910714285714,15.712992519140244L39.776785714285715,20.921682685613632L43.754464285714285,25.432405292987823L47.732142857142854,29.26598173379898L51.70982142857143,31.67144936323166L55.6875,35.165332078933716L59.66517857142857,39.447470277547836L63.64285714285714,44.91829779744148L67.62053571428571,49.19346679747105L71.59821428571428,53.954138949513435L75.57589285714285,51.71554085612297L79.55357142857143,50.57054993510246L83.53125,54.59003356099129L87.50892857142857,57.37370786070824L91.48660714285714,59.909090369939804L95.46428571428571,60.2893592864275L99.44196428571429,62.87899014353752L103.41964285714286,66.36406023800373L107.39732142857143,67.92832371592522L111.375,68.20045401155949L115.35267857142858,69.97716863453388L119.33035714285714,68.49322666227818L123.30803571428571,69.27298781275749L127.28571428571428,74.70161554217339L131.26339285714286,75.11562307178974L135.24107142857142,78.52824267745018L139.21875,81.18560937047005L143.19642857142856,81.38507698476315L147.17410714285714,83.01407244801521L151.1517857142857,87.52027933299541L155.12946428571428,88.37108519673347L159.10714285714286,88.04500494897366L163.08482142857144,87.67738138139248L167.0625,89.29244507849216L171.04017857142858,92.10153606534004L175.01785714285714,95.30917105078697L178.99553571428572,95.96324791014194L182.97321428571428,95.59992787241936L186.95089285714283,92.19608110189438L190.92857142857142,96.18757520616055L194.90625,96.61908861994743L198.88392857142858,98.33050762116909L202.86160714285714,99.22379840910435L206.83928571428572,100.29270504415035L210.81696428571428,101.24274407327175L214.79464285714286,102.5382027104497L218.77232142857142,100.53745587170124L222.75,98.89997270703316L226.72767857142858,99.41675436496735L230.70535714285717,104.34414022415876L234.68303571428572,108.42014000564814L238.66071428571428,109.3921774327755L242.63839285714286,105.48367713391781L246.61607142857142,102.03590982407331L250.59375,102.74847556650639L254.57142857142856,103.44311767071486L258.54910714285717,105.9804994314909" style="fill: none;" fill="none"></path></g><g><path stroke="rgb(187, 187, 187)" stroke-width="2px" d="M19.888392857142858,19.1921543776989L23.866071428571427,21.988533705472946L27.84375,24.255903780460358L31.82142857142857,26.739524573087692L35.79910714285714,29.342119067907333L39.776785714285715,31.891758263111115L43.754464285714285,34.41310954093933L47.732142857142854,36.8464672267437L51.70982142857143,39.812839299440384L55.6875,42.86273565888405L59.66517857142857,46.15497578680515L63.64285714285714,49.65590727329254L67.62053571428571,53.360278353095055L71.59821428571428,56.187876507639885L75.57589285714285,59.28323511779308L79.55357142857143,61.54488925635815L83.53125,63.72302573919296L87.50892857142857,65.91287922859192L91.48660714285714,67.88299408555031L95.46428571428571,69.81677760183811L99.44196428571429,71.96357589960098L103.41964285714286,73.92007064819336L107.39732142857143,75.7815760821104L111.375,77.58480814099312L115.35267857142858,79.45724812150002L119.33035714285714,81.30543847382069L123.30803571428571,83.01161897182465L127.28571428571428,84.51286789774895L131.26339285714286,86.4544892758131L135.24107142857142,88.40587814152241L139.21875,89.85045839846134L143.19642857142856,91.39642027020454L147.17410714285714,92.87376438081264L151.1517857142857,94.31441244482994L155.12946428571428,95.53516273200512L159.10714285714286,96.947025552392L163.08482142857144,98.188013702631L167.0625,99.51696228981018L171.04017857142858,100.73572990298271L175.01785714285714,101.82114113867283L178.99553571428572,102.6707501038909L182.97321428571428,103.81674562394619L186.95089285714283,104.33517840504646L190.92857142857142,105.76452721655369L194.90625,106.68734592199326L198.88392857142858,107.75500261038542L202.86160714285714,108.63490537554026L206.83928571428572,109.4403915554285L210.81696428571428,110.25829762965441L214.79464285714286,110.99487428367138L218.77232142857142,112.08240412920713L222.75,112.71615692228079L226.72767857142858,113.21463365852833L230.70535714285717,114.44887806475163L234.68303571428572,115.35297740995884L238.66071428571428,115.62870503216982L242.63839285714286,116.50171485543251L246.61607142857142,117.02879448235035L250.59375,117.79017445445061L254.57142857142856,118.32861964404583L258.54910714285717,118.76229476928711" style="fill: none;" fill="none"></path></g></g></g></g></g></g><g transform="translate(51, 178)" clip-path="url(#clip_1)"><clipPath id="clip_1"><rect width="278" height="22"></rect></clipPath><g><g><line x1="0" y1="0" x2="0" y2="5" style="visibility: inherit;" fill="rgb(0, 0, 0)" stroke="rgb(204, 204, 204)" stroke-width="1px"></line><line x1="19.888392857142858" y1="0" x2="19.888392857142858" y2="5" style="visibility: inherit;" fill="rgb(0, 0, 0)" stroke="rgb(204, 204, 204)" stroke-width="1px"></line><line x1="39.776785714285715" y1="0" x2="39.776785714285715" y2="5" style="visibility: inherit;" fill="rgb(0, 0, 0)" stroke="rgb(204, 204, 204)" stroke-width="1px"></line><line x1="59.66517857142857" y1="0" x2="59.66517857142857" y2="5" style="visibility: inherit;" fill="rgb(0, 0, 0)" stroke="rgb(204, 204, 204)" stroke-width="1px"></line><line x1="79.55357142857143" y1="0" x2="79.55357142857143" y2="5" style="visibility: inherit;" fill="rgb(0, 0, 0)" stroke="rgb(204, 204, 204)" stroke-width="1px"></line><line x1="99.44196428571429" y1="0" x2="99.44196428571429" y2="5" style="visibility: inherit;" fill="rgb(0, 0, 0)" stroke="rgb(204, 204, 204)" stroke-width="1px"></line><line x1="119.33035714285714" y1="0" x2="119.33035714285714" y2="5" style="visibility: inherit;" fill="rgb(0, 0, 0)" stroke="rgb(204, 204, 204)" stroke-width="1px"></line><line x1="139.21875" y1="0" x2="139.21875" y2="5" style="visibility: inherit;" fill="rgb(0, 0, 0)" stroke="rgb(204, 204, 204)" stroke-width="1px"></line><line x1="159.10714285714286" y1="0" x2="159.10714285714286" y2="5" style="visibility: inherit;" fill="rgb(0, 0, 0)" stroke="rgb(204, 204, 204)" stroke-width="1px"></line><line x1="178.99553571428572" y1="0" x2="178.99553571428572" y2="5" style="visibility: inherit;" fill="rgb(0, 0, 0)" stroke="rgb(204, 204, 204)" stroke-width="1px"></line><line x1="198.88392857142858" y1="0" x2="198.88392857142858" y2="5" style="visibility: inherit;" fill="rgb(0, 0, 0)" stroke="rgb(204, 204, 204)" stroke-width="1px"></line><line x1="218.77232142857142" y1="0" x2="218.77232142857142" y2="5" style="visibility: inherit;" fill="rgb(0, 0, 0)" stroke="rgb(204, 204, 204)" stroke-width="1px"></line><line x1="238.66071428571428" y1="0" x2="238.66071428571428" y2="5" style="visibility: inherit;" fill="rgb(0, 0, 0)" stroke="rgb(204, 204, 204)" stroke-width="1px"></line><line x1="258.54910714285717" y1="0" x2="258.54910714285717" y2="5" style="visibility: inherit;" fill="rgb(0, 0, 0)" stroke="rgb(204, 204, 204)" stroke-width="1px"></line><line x1="278.4375" y1="0" x2="278.4375" y2="5" style="visibility: inherit;" fill="rgb(0, 0, 0)" stroke="rgb(204, 204, 204)" stroke-width="1px"></line></g><g transform="translate(0, 8)"><text x="0" y="0" dx="0em" dy="0.95em" style="text-anchor: middle; visibility: hidden; font-family: Roboto, sans-serif; font-size: 12px; font-weight: 200;" fill="rgb(50, 49, 63)" stroke="none" stroke-width="1px">-5</text><text x="19.888392857142858" y="0" dx="0em" dy="0.95em" style="text-anchor: middle; visibility: inherit; font-family: Roboto, sans-serif; font-size: 12px; font-weight: 200;" fill="rgb(50, 49, 63)" stroke="none" stroke-width="1px">0</text><text x="39.776785714285715" y="0" dx="0em" dy="0.95em" style="text-anchor: middle; visibility: inherit; font-family: Roboto, sans-serif; font-size: 12px; font-weight: 200;" fill="rgb(50, 49, 63)" stroke="none" stroke-width="1px">5</text><text x="59.66517857142857" y="0" dx="0em" dy="0.95em" style="text-anchor: middle; visibility: inherit; font-family: Roboto, sans-serif; font-size: 12px; font-weight: 200;" fill="rgb(50, 49, 63)" stroke="none" stroke-width="1px">10</text><text x="79.55357142857143" y="0" dx="0em" dy="0.95em" style="text-anchor: middle; visibility: inherit; font-family: Roboto, sans-serif; font-size: 12px; font-weight: 200;" fill="rgb(50, 49, 63)" stroke="none" stroke-width="1px">15</text><text x="99.44196428571429" y="0" dx="0em" dy="0.95em" style="text-anchor: middle; visibility: inherit; font-family: Roboto, sans-serif; font-size: 12px; font-weight: 200;" fill="rgb(50, 49, 63)" stroke="none" stroke-width="1px">20</text><text x="119.33035714285714" y="0" dx="0em" dy="0.95em" style="text-anchor: middle; visibility: inherit; font-family: Roboto, sans-serif; font-size: 12px; font-weight: 200;" fill="rgb(50, 49, 63)" stroke="none" stroke-width="1px">25</text><text x="139.21875" y="0" dx="0em" dy="0.95em" style="text-anchor: middle; visibility: inherit; font-family: Roboto, sans-serif; font-size: 12px; font-weight: 200;" fill="rgb(50, 49, 63)" stroke="none" stroke-width="1px">30</text><text x="159.10714285714286" y="0" dx="0em" dy="0.95em" style="text-anchor: middle; visibility: inherit; font-family: Roboto, sans-serif; font-size: 12px; font-weight: 200;" fill="rgb(50, 49, 63)" stroke="none" stroke-width="1px">35</text><text x="178.99553571428572" y="0" dx="0em" dy="0.95em" style="text-anchor: middle; visibility: inherit; font-family: Roboto, sans-serif; font-size: 12px; font-weight: 200;" fill="rgb(50, 49, 63)" stroke="none" stroke-width="1px">40</text><text x="198.88392857142858" y="0" dx="0em" dy="0.95em" style="text-anchor: middle; visibility: inherit; font-family: Roboto, sans-serif; font-size: 12px; font-weight: 200;" fill="rgb(50, 49, 63)" stroke="none" stroke-width="1px">45</text><text x="218.77232142857142" y="0" dx="0em" dy="0.95em" style="text-anchor: middle; visibility: inherit; font-family: Roboto, sans-serif; font-size: 12px; font-weight: 200;" fill="rgb(50, 49, 63)" stroke="none" stroke-width="1px">50</text><text x="238.66071428571428" y="0" dx="0em" dy="0.95em" style="text-anchor: middle; visibility: inherit; font-family: Roboto, sans-serif; font-size: 12px; font-weight: 200;" fill="rgb(50, 49, 63)" stroke="none" stroke-width="1px">55</text><text x="258.54910714285717" y="0" dx="0em" dy="0.95em" style="text-anchor: middle; visibility: inherit; font-family: Roboto, sans-serif; font-size: 12px; font-weight: 200;" fill="rgb(50, 49, 63)" stroke="none" stroke-width="1px">60</text><text x="278.4375" y="0" dx="0em" dy="0.95em" style="text-anchor: middle; visibility: hidden; font-family: Roboto, sans-serif; font-size: 12px; font-weight: 200;" fill="rgb(50, 49, 63)" stroke="none" stroke-width="1px">65</text></g><line x1="0" y1="0" x2="278.4375" y2="0" fill="rgb(0, 0, 0)" stroke="rgb(204, 204, 204)" stroke-width="1px"></line></g></g></g></g></svg>