<svg viewBox="0 0 330 200" xmlns="http://www.w3.org/2000/svg"><g><g><g><g><g><line x1="51.5625" y1="178" x2="46.5625" y2="178" style="visibility: inherit;" fill="rgb(0, 0, 0)" stroke="rgb(204, 204, 204)" stroke-width="1px"></line><line x1="51.5625" y1="160.20000000000002" x2="46.5625" y2="160.20000000000002" style="visibility: inherit;" fill="rgb(0, 0, 0)" stroke="rgb(204, 204, 204)" stroke-width="1px"></line><line x1="51.5625" y1="142.4" x2="46.5625" y2="142.4" style="visibility: inherit;" fill="rgb(0, 0, 0)" stroke="rgb(204, 204, 204)" stroke-width="1px"></line><line x1="51.5625" y1="124.60000000000004" x2="46.5625" y2="124.60000000000004" style="visibility: inherit;" fill="rgb(0, 0, 0)" stroke="rgb(204, 204, 204)" stroke-width="1px"></line><line x1="51.5625" y1="106.80000000000001" x2="46.5625" y2="106.80000000000001" style="visibility: inherit;" fill="rgb(0, 0, 0)" stroke="rgb(204, 204, 204)" stroke-width="1px"></line><line x1="51.5625" y1="89" x2="46.5625" y2="89" style="visibility: inherit;" fill="rgb(0, 0, 0)" stroke="rgb(204, 204, 204)" stroke-width="1px"></line><line x1="51.5625" y1="71.20000000000002" x2="46.5625" y2="71.20000000000002" style="visibility: inherit;" fill="rgb(0, 0, 0)" stroke="rgb(204, 204, 204)" stroke-width="1px"></line><line x1="51.5625" y1="53.400000000000006" x2="46.5625" y2="53.400000000000006" style="visibility: inherit;" fill="rgb(0, 0, 0)" stroke="rgb(204, 204, 204)" stroke-width="1px"></line><line x1="51.5625" y1="35.60000000000003" x2="46.5625" y2="35.60000000000003" style="visibility: inherit;" fill="rgb(0, 0, 0)" stroke="rgb(204, 204, 204)" stroke-width="1px"></line><line x1="51.5625" y1="17.800000000000015" x2="46.5625" y2="17.800000000000015" style="visibility: inherit;" fill="rgb(0, 0, 0)" stroke="rgb(204, 204, 204)" stroke-width="1px"></line><line x1="51.5625" y1="0" x2="46.5625" y2="0" style="visibility: inherit;" fill="rgb(0, 0, 0)" stroke="rgb(204, 204, 204)" stroke-width="1px"></line></g><g transform="translate(41.5625, 0)"><text x="0" y="178" dx="0em" dy="0.3em" style="text-anchor: end; visibility: hidden; font-family: Roboto, sans-serif; font-size: 12px; font-weight: 200;" fill="rgb(50, 49, 63)" stroke="none" stroke-width="1px">0.55</text><text x="0" y="160.20000000000002" dx="0em" dy="0.3em" style="text-anchor: end; visibility: inherit; font-family: Roboto, sans-serif; font-size: 12px; font-weight: 200;" fill="rgb(50, 49, 63)" stroke="none" stroke-width="1px">0.6</text><text x="0" y="142.4" dx="0em" dy="0.3em" style="text-anchor: end; visibility: hidden; font-family: Roboto, sans-serif; font-size: 12px; font-weight: 200;" fill="rgb(50, 49, 63)" stroke="none" stroke-width="1px">0.65</text><text x="0" y="124.60000000000004" dx="0em" dy="0.3em" style="text-anchor: end; visibility: inherit; font-family: Roboto, sans-serif; font-size: 12px; font-weight: 200;" fill="rgb(50, 49, 63)" stroke="none" stroke-width="1px">0.7</text><text x="0" y="106.80000000000001" dx="0em" dy="0.3em" style="text-anchor: end; visibility: hidden; font-family: Roboto, sans-serif; font-size: 12px; font-weight: 200;" fill="rgb(50, 49, 63)" stroke="none" stroke-width="1px">0.75</text><text x="0" y="89" dx="0em" dy="0.3em" style="text-anchor: end; visibility: inherit; font-family: Roboto, sans-serif; font-size: 12px; font-weight: 200;" fill="rgb(50, 49, 63)" stroke="none" stroke-width="1px">0.8</text><text x="0" y="71.20000000000002" dx="0em" dy="0.3em" style="text-anchor: end; visibility: hidden; font-family: Roboto, sans-serif; font-size: 12px; font-weight: 200;" fill="rgb(50, 49, 63)" stroke="none" stroke-width="1px">0.85</text><text x="0" y="53.400000000000006" dx="0em" dy="0.3em" style="text-anchor: end; visibility: inherit; font-family: Roboto, sans-serif; font-size: 12px; font-weight: 200;" fill="rgb(50, 49, 63)" stroke="none" stroke-width="1px">0.9</text><text x="0" y="35.60000000000003" dx="0em" dy="0.3em" style="text-anchor: end; visibility: hidden; font-family: Roboto, sans-serif; font-size: 12px; font-weight: 200;" fill="rgb(50, 49, 63)" stroke="none" stroke-width="1px">0.95</text><text x="0" y="17.800000000000015" dx="0em" dy="0.3em" style="text-anchor: end; visibility: inherit; font-family: Roboto, sans-serif; font-size: 12px; font-weight: 200;" fill="rgb(50, 49, 63)" stroke="none" stroke-width="1px">1</text><text x="0" y="0" dx="0em" dy="0.3em" style="text-anchor: end; visibility: hidden; font-family: Roboto, sans-serif; font-size: 12px; font-weight: 200;" fill="rgb(50, 49, 63)" stroke="none" stroke-width="1px">1.05</text></g><line x1="51.5625" y1="0" x2="51.5625" y2="178" fill="rgb(0, 0, 0)" stroke="rgb(204, 204, 204)" stroke-width="1px"></line></g></g><g transform="translate(51, 0)" clip-path="url(#clip_0)"><clipPath id="clip_0"><rect width="278" height="178"></rect></clipPath><g><g><g><line x1="0" y1="0" x2="0" y2="178" fill="rgb(0, 0, 0)" stroke="rgb(60, 60, 60)" stroke-width="1px" opacity="0.25"></line><line x1="30.9375" y1="0" x2="30.9375" y2="178" fill="rgb(0, 0, 0)" stroke="rgb(60, 60, 60)" stroke-width="1px" opacity="0.25"></line><line x1="61.875" y1="0" x2="61.875" y2="178" fill="rgb(0, 0, 0)" stroke="rgb(60, 60, 60)" stroke-width="1px" opacity="0.25"></line><line x1="92.8125" y1="0" x2="92.8125" y2="178" fill="rgb(0, 0, 0)" stroke="rgb(60, 60, 60)" stroke-width="1px" opacity="0.25"></line><line x1="123.75" y1="0" x2="123.75" y2="178" fill="rgb(0, 0, 0)" stroke="rgb(60, 60, 60)" stroke-width="1px" opacity="0.25"></line><line x1="154.6875" y1="0" x2="154.6875" y2="178" fill="rgb(0, 0, 0)" stroke="rgb(60, 60, 60)" stroke-width="1px" opacity="0.25"></line><line x1="185.625" y1="0" x2="185.625" y2="178" fill="rgb(0, 0, 0)" stroke="rgb(60, 60, 60)" stroke-width="1px" opacity="0.25"></line><line x1="216.5625" y1="0" x2="216.5625" y2="178" fill="rgb(0, 0, 0)" stroke="rgb(60, 60, 60)" stroke-width="1px" opacity="0.25"></line><line x1="247.5" y1="0" x2="247.5" y2="178" fill="rgb(0, 0, 0)" stroke="rgb(60, 60, 60)" stroke-width="1px" opacity="0.25"></line><line x1="278.4375" y1="0" x2="278.4375" y2="178" fill="rgb(0, 0, 0)" stroke="rgb(60, 60, 60)" stroke-width="1px" opacity="0.25"></line></g><g><line x1="0" y1="178" x2="278.4375" y2="178" fill="rgb(0, 0, 0)" stroke="rgb(60, 60, 60)" stroke-width="1px" opacity="0.25"></line><line x1="0" y1="160.20000000000002" x2="278.4375" y2="160.20000000000002" fill="rgb(0, 0, 0)" stroke="rgb(60, 60, 60)" stroke-width="1px" opacity="0.25"></line><line x1="0" y1="142.4" x2="278.4375" y2="142.4" fill="rgb(0, 0, 0)" stroke="rgb(60, 60, 60)" stroke-width="1px" opacity="0.25"></line><line x1="0" y1="124.60000000000004" x2="278.4375" y2="124.60000000000004" fill="rgb(0, 0, 0)" stroke="rgb(60, 60, 60)" stroke-width="1px" opacity="0.25"></line><line x1="0" y1="106.80000000000001" x2="278.4375" y2="106.80000000000001" fill="rgb(0, 0, 0)" stroke="rgb(60, 60, 60)" stroke-width="1px" opacity="0.25"></line><line x1="0" y1="89" x2="278.4375" y2="89" fill="rgb(0, 0, 0)" stroke="rgb(60, 60, 60)" stroke-width="1px" opacity="0.25"></line><line x1="0" y1="71.20000000000002" x2="278.4375" y2="71.20000000000002" fill="rgb(0, 0, 0)" stroke="rgb(60, 60, 60)" stroke-width="1px" opacity="0.25"></line><line x1="0" y1="53.400000000000006" x2="278.4375" y2="53.400000000000006" fill="rgb(0, 0, 0)" stroke="rgb(60, 60, 60)" stroke-width="1px" opacity="0.25"></line><line x1="0" y1="35.60000000000003" x2="278.4375" y2="35.60000000000003" fill="rgb(0, 0, 0)" stroke="rgb(60, 60, 60)" stroke-width="1px" opacity="0.25"></line><line x1="0" y1="17.800000000000015" x2="278.4375" y2="17.800000000000015" fill="rgb(0, 0, 0)" stroke="rgb(60, 60, 60)" stroke-width="1px" opacity="0.25"></line><line x1="0" y1="0" x2="278.4375" y2="0" fill="rgb(0, 0, 0)" stroke="rgb(60, 60, 60)" stroke-width="1px" opacity="0.25"></line></g></g></g><g><g><line x1="0" y1="373.8" x2="278.4375" y2="373.8" fill="rgb(0, 0, 0)" stroke="rgb(153, 153, 153)" stroke-width="1.5px"></line></g></g><g><g><line x1="30.9375" y1="0" x2="30.9375" y2="178" fill="rgb(0, 0, 0)" stroke="rgb(153, 153, 153)" stroke-width="1.5px"></line></g></g><g><g><g><g><g><path stroke="rgb(204, 51, 17)" stroke-width="2px" d="M30.9375,130.2210481643677L34.03125,130.2210481643677L37.125,130.22104816436766L40.21874999999999,130.2210481643677L43.3125,130.22104816436774L46.40625,130.22104816436766L49.5,130.2210481643677L52.59375,130.2210481643677L55.6875,118.86449546219043L58.78125,112.12425607652698L61.875,108.10629103634962L64.96875,101.94931557431171L68.0625,98.26371904766788L71.15625,99.80575428093164L74.25,93.23194239517183L77.34375,89.2896340028296L80.43749999999999,86.92496087578351L83.53125,85.50641319208172L86.625,84.65537679076996L89.71875,84.14478814078485L92.8125,80.09099358945348L95.90625,77.65877377325397L99,76.19946237220273L102.09374999999999,75.32388290736579L105.1875,74.79853788372198L108.28125,74.48333182542278L111.375,74.29420853456134L114.46875,74.18073468392669L117.5625,74.11265041814349L120.65625,66.57706450278076L123.75,69.5504487289446L126.84375,71.33447901222523L129.9375,64.91016301837756L133.03125,61.055573618404175L136.125,54.995448883301414L139.21875,47.61200296888225L142.3125,43.18193546897055L145.40625,48.018637217158144L148.5,50.92065825457657L151.59375,52.66187087288967L154.6875,53.70659844238794L157.78125,50.5860638803678L160.87499999999997,44.96637204165544L163.96875,41.594556939466514L167.0625,43.318838980295894L170.15625,48.10077930629195L173.25,50.96994350169874L176.34375,52.69144201887403L179.4375,49.97697002772458L182.53125,44.600915731648655L185.625,41.375283154030974L188.71875,43.18727470886065L191.8125,44.27446964175499L194.90625,44.92678660149052L198,41.57080567594958L201.09375,39.557217120626376L204.18749999999997,38.34906398743296L207.28125,37.62417210751704L210.375,37.18923697956756L213.46875000000003,40.675647004177506L216.5625,42.767493018943334L219.65625,40.275229526423345L222.75,38.7798714309114L225.84375,37.8826565736042L228.9375,37.34432765921993L232.03125,40.768701411968735L235.125,42.82332566361807L238.21875,44.05610021460764L241.3125,41.048393843821955L244.40625,39.243770021350535L247.5,38.160995727867686L250.59375,37.511331151778016L253.6875,40.868903507503525L256.78125,42.88344692093893L259.875,44.09217296900016L262.96875,41.070037496457466" style="fill: none;" fill="none"></path></g><g><path stroke="rgb(0, 119, 187)" stroke-width="2px" d="M30.9375,152.50270729064943L34.03125,152.50270729064948L37.125,152.50270729064948L40.21874999999999,152.50270729064948L43.3125,152.50270729064948L46.40625,152.5027072906494L49.5,152.50270729064943L52.59375,152.50270729064943L55.6875,147.31892979632823L58.78125,142.9516142280499L61.875,140.34818721771416L64.96875,134.93514680262643L68.0625,117.56470677594474L71.15625,103.30530914771515L74.25,92.18985427210444L77.34375,82.95743037431286L80.43749999999999,78.70275103473493L83.53125,74.86738348038133L86.625,71.28345195894869L89.71875,67.85030379688571L92.8125,63.22467471233715L95.90625,60.44936220466873L99,60.0670903285124L102.09374999999999,58.55484093789577L105.1875,57.6474958895319L108.28125,57.103090511465645L111.375,56.776447878966366L114.46875,55.29757960739284L117.5625,54.410259225674224L120.65625,52.59498480404708L123.75,51.50582040790914L126.84375,53.418086303338825L129.9375,54.56544574319452L133.03125,52.688097062080864L136.125,52.84457002811592L139.21875,52.938453806015396L142.3125,51.71190194597093L145.40625,50.97597083480227L148.5,51.81729429093329L151.59375,51.03920624347225L154.6875,50.57235341566131L157.78125,49.00935960037191L160.87499999999997,49.354445430275206L163.96875,49.561496928153396L167.0625,49.68572782685737L170.15625,49.760266366071484L173.25,49.80498948959697L176.34375,48.54894124545726L179.4375,49.07819441723391L182.53125,49.395746320295316L185.625,49.58627746213053L188.71875,49.700596147231074L191.8125,49.76918735829111L194.90625,49.810342084927136L198,49.83503492090868L201.09375,48.566968504272026L204.18749999999997,49.08901077251573L207.28125,49.402236133461884L210.375,49.590171350029564L213.46875000000003,49.70293247997012L216.5625,49.7705891579345L219.65625,49.811183164713114L222.75,49.83553956878028L225.84375,49.85015341122057L228.9375,49.85892171668476L232.03125,51.1470648181883L235.125,50.637068560865416L238.21875,50.33107080647168L241.3125,48.86459003561029L244.40625,49.26758369131857L247.5,50.79226200296864L250.59375,50.42418687173362L253.6875,50.20334179299257L256.78125,50.07083474574796L259.875,49.99133051740118L262.96875,51.226510098618164" style="fill: none;" fill="none"></path></g></g></g></g><g opacity="0.2"><g><g><g><path stroke="rgb(204, 51, 17)" stroke-width="2px" d="M30.9375,130.2210481643677L34.03125,130.2210481643677L37.125,130.2210481643677L40.21874999999999,130.2210481643677L43.3125,130.2210481643677L46.40625,130.2210481643677L49.5,130.2210481643677L52.59375,130.2210481643677L55.6875,102.11578612327577L58.78125,102.11578612327577L61.875,102.11578612327577L64.96875,92.74735836982728L68.0625,92.74735836982728L71.15625,102.11578612327577L74.25,83.37895183563234L77.34375,83.37895183563234L80.43749999999999,83.37895183563234L83.53125,83.37895183563234L86.625,83.37895183563234L89.71875,83.37895183563234L92.8125,74.01052408218385L95.90625,74.01052408218385L99,74.01052408218385L102.09374999999999,74.01052408218385L105.1875,74.01052408218385L108.28125,74.01052408218385L111.375,74.01052408218385L114.46875,74.01052408218385L117.5625,74.01052408218385L120.65625,55.273689794540424L123.75,74.01052408218385L126.84375,74.01052408218385L129.9375,55.273689794540424L133.03125,55.273689794540424L136.125,45.90526204109194L139.21875,36.53683428764345L142.3125,36.53683428764345L145.40625,55.273689794540424L148.5,55.273689794540424L151.59375,55.273689794540424L154.6875,55.273689794540424L157.78125,45.90526204109194L160.87499999999997,36.53683428764345L163.96875,36.53683428764345L167.0625,45.90526204109194L170.15625,55.273689794540424L173.25,55.273689794540424L176.34375,55.273689794540424L179.4375,45.90526204109194L182.53125,36.53683428764345L185.625,36.53683428764345L188.71875,45.90526204109194L191.8125,45.90526204109194L194.90625,45.90526204109194L198,36.53683428764345L201.09375,36.53683428764345L204.18749999999997,36.53683428764345L207.28125,36.53683428764345L210.375,36.53683428764345L213.46875000000003,45.90526204109194L216.5625,45.90526204109194L219.65625,36.53683428764345L222.75,36.53683428764345L225.84375,36.53683428764345L228.9375,36.53683428764345L232.03125,45.90526204109194L235.125,45.90526204109194L238.21875,45.90526204109194L241.3125,36.53683428764345L244.40625,36.53683428764345L247.5,36.53683428764345L250.59375,36.53683428764345L253.6875,45.90526204109194L256.78125,45.90526204109194L259.875,45.90526204109194L262.96875,36.53683428764345" style="fill: none;" fill="none"></path></g><g><path stroke="rgb(0, 119, 187)" stroke-width="2px" d="M30.9375,152.50270729064943L34.03125,152.50270729064943L37.125,152.50270729064943L40.21874999999999,152.50270729064943L43.3125,152.50270729064943L46.40625,152.50270729064943L49.5,152.50270729064943L52.59375,152.50270729064943L55.6875,139.6738648891449L58.78125,136.46665959358216L61.875,136.46665959358216L64.96875,126.84504370689393L68.0625,91.5657642364502L71.15625,81.94414834976197L74.25,75.52973775863649L77.34375,69.11530594825746L80.43749999999999,72.32253246307374L83.53125,69.11530594825746L86.625,65.90810065269471L89.71875,62.70089535713198L92.8125,56.28648476600649L95.90625,56.28648476600649L99,59.49369006156923L102.09374999999999,56.28648476600649L105.1875,56.28648476600649L108.28125,56.28648476600649L111.375,56.28648476600649L114.46875,53.079279470443744L117.5625,53.079279470443744L120.65625,49.872074174881L123.75,49.872074174881L126.84375,56.28648476600649L129.9375,56.28648476600649L133.03125,49.872074174881L136.125,53.079279470443744L139.21875,53.079279470443744L142.3125,49.872074174881L145.40625,49.872074174881L148.5,53.079279470443744L151.59375,49.872074174881L154.6875,49.872074174881L157.78125,46.664868879318256L160.87499999999997,49.872074174881L163.96875,49.872074174881L167.0625,49.872074174881L170.15625,49.872074174881L173.25,49.872074174881L176.34375,46.664868879318256L179.4375,49.872074174881L182.53125,49.872074174881L185.625,49.872074174881L188.71875,49.872074174881L191.8125,49.872074174881L194.90625,49.872074174881L198,49.872074174881L201.09375,46.664868879318256L204.18749999999997,49.872074174881L207.28125,49.872074174881L210.375,49.872074174881L213.46875000000003,49.872074174881L216.5625,49.872074174881L219.65625,49.872074174881L222.75,49.872074174881L225.84375,49.872074174881L228.9375,49.872074174881L232.03125,53.079279470443744L235.125,49.872074174881L238.21875,49.872074174881L241.3125,46.664868879318256L244.40625,49.872074174881L247.5,53.079279470443744L250.59375,49.872074174881L253.6875,49.872074174881L256.78125,49.872074174881L259.875,49.872074174881L262.96875,53.079279470443744" style="fill: none;" fill="none"></path></g></g></g></g></g></g><g transform="translate(51, 178)" clip-path="url(#clip_1)"><clipPath id="clip_1"><rect width="278" height="22"></rect></clipPath><g><g><line x1="0" y1="0" x2="0" y2="5" style="visibility: inherit;" fill="rgb(0, 0, 0)" stroke="rgb(204, 204, 204)" stroke-width="1px"></line><line x1="30.9375" y1="0" x2="30.9375" y2="5" style="visibility: inherit;" fill="rgb(0, 0, 0)" stroke="rgb(204, 204, 204)" stroke-width="1px"></line><line x1="61.875" y1="0" x2="61.875" y2="5" style="visibility: inherit;" fill="rgb(0, 0, 0)" stroke="rgb(204, 204, 204)" stroke-width="1px"></line><line x1="92.8125" y1="0" x2="92.8125" y2="5" style="visibility: inherit;" fill="rgb(0, 0, 0)" stroke="rgb(204, 204, 204)" stroke-width="1px"></line><line x1="123.75" y1="0" x2="123.75" y2="5" style="visibility: inherit;" fill="rgb(0, 0, 0)" stroke="rgb(204, 204, 204)" stroke-width="1px"></line><line x1="154.6875" y1="0" x2="154.6875" y2="5" style="visibility: inherit;" fill="rgb(0, 0, 0)" stroke="rgb(204, 204, 204)" stroke-width="1px"></line><line x1="185.625" y1="0" x2="185.625" y2="5" style="visibility: inherit;" fill="rgb(0, 0, 0)" stroke="rgb(204, 204, 204)" stroke-width="1px"></line><line x1="216.5625" y1="0" x2="216.5625" y2="5" style="visibility: inherit;" fill="rgb(0, 0, 0)" stroke="rgb(204, 204, 204)" stroke-width="1px"></line><line x1="247.5" y1="0" x2="247.5" y2="5" style="visibility: inherit;" fill="rgb(0, 0, 0)" stroke="rgb(204, 204, 204)" stroke-width="1px"></line><line x1="278.4375" y1="0" x2="278.4375" y2="5" style="visibility: inherit;" fill="rgb(0, 0, 0)" stroke="rgb(204, 204, 204)" stroke-width="1px"></line></g><g transform="translate(0, 8)"><text x="0" y="0" dx="0em" dy="0.95em" style="text-anchor: middle; visibility: hidden; font-family: Roboto, sans-serif; font-size: 12px; font-weight: 200;" fill="rgb(50, 49, 63)" stroke="none" stroke-width="1px">-10</text><text x="30.9375" y="0" dx="0em" dy="0.95em" style="text-anchor: middle; visibility: inherit; font-family: Roboto, sans-serif; font-size: 12px; font-weight: 200;" fill="rgb(50, 49, 63)" stroke="none" stroke-width="1px">0</text><text x="61.875" y="0" dx="0em" dy="0.95em" style="text-anchor: middle; visibility: inherit; font-family: Roboto, sans-serif; font-size: 12px; font-weight: 200;" fill="rgb(50, 49, 63)" stroke="none" stroke-width="1px">10</text><text x="92.8125" y="0" dx="0em" dy="0.95em" style="text-anchor: middle; visibility: inherit; font-family: Roboto, sans-serif; font-size: 12px; font-weight: 200;" fill="rgb(50, 49, 63)" stroke="none" stroke-width="1px">20</text><text x="123.75" y="0" dx="0em" dy="0.95em" style="text-anchor: middle; visibility: inherit; font-family: Roboto, sans-serif; font-size: 12px; font-weight: 200;" fill="rgb(50, 49, 63)" stroke="none" stroke-width="1px">30</text><text x="154.6875" y="0" dx="0em" dy="0.95em" style="text-anchor: middle; visibility: inherit; font-family: Roboto, sans-serif; font-size: 12px; font-weight: 200;" fill="rgb(50, 49, 63)" stroke="none" stroke-width="1px">40</text><text x="185.625" y="0" dx="0em" dy="0.95em" style="text-anchor: middle; visibility: inherit; font-family: Roboto, sans-serif; font-size: 12px; font-weight: 200;" fill="rgb(50, 49, 63)" stroke="none" stroke-width="1px">50</text><text x="216.5625" y="0" dx="0em" dy="0.95em" style="text-anchor: middle; visibility: inherit; font-family: Roboto, sans-serif; font-size: 12px; font-weight: 200;" fill="rgb(50, 49, 63)" stroke="none" stroke-width="1px">60</text><text x="247.5" y="0" dx="0em" dy="0.95em" style="text-anchor: middle; visibility: inherit; font-family: Roboto, sans-serif; font-size: 12px; font-weight: 200;" fill="rgb(50, 49, 63)" stroke="none" stroke-width="1px">70</text><text x="278.4375" y="0" dx="0em" dy="0.95em" style="text-anchor: middle; visibility: hidden; font-family: Roboto, sans-serif; font-size: 12px; font-weight: 200;" fill="rgb(50, 49, 63)" stroke="none" stroke-width="1px">80</text></g><line x1="0" y1="0" x2="278.4375" y2="0" fill="rgb(0, 0, 0)" stroke="rgb(204, 204, 204)" stroke-width="1px"></line></g></g></g></g></svg>