<svg viewBox="0 0 330 200" xmlns="http://www.w3.org/2000/svg"><g><g><g><g><g><line x1="51.5625" y1="178" x2="46.5625" y2="178" style="visibility: inherit;" fill="rgb(0, 0, 0)" stroke="rgb(204, 204, 204)" stroke-width="1px"></line><line x1="51.5625" y1="155.74999999999997" x2="46.5625" y2="155.74999999999997" style="visibility: inherit;" fill="rgb(0, 0, 0)" stroke="rgb(204, 204, 204)" stroke-width="1px"></line><line x1="51.5625" y1="133.5" x2="46.5625" y2="133.5" style="visibility: inherit;" fill="rgb(0, 0, 0)" stroke="rgb(204, 204, 204)" stroke-width="1px"></line><line x1="51.5625" y1="111.25" x2="46.5625" y2="111.25" style="visibility: inherit;" fill="rgb(0, 0, 0)" stroke="rgb(204, 204, 204)" stroke-width="1px"></line><line x1="51.5625" y1="88.99999999999999" x2="46.5625" y2="88.99999999999999" style="visibility: inherit;" fill="rgb(0, 0, 0)" stroke="rgb(204, 204, 204)" stroke-width="1px"></line><line x1="51.5625" y1="66.75" x2="46.5625" y2="66.75" style="visibility: inherit;" fill="rgb(0, 0, 0)" stroke="rgb(204, 204, 204)" stroke-width="1px"></line><line x1="51.5625" y1="44.49999999999998" x2="46.5625" y2="44.49999999999998" style="visibility: inherit;" fill="rgb(0, 0, 0)" stroke="rgb(204, 204, 204)" stroke-width="1px"></line><line x1="51.5625" y1="22.25000000000002" x2="46.5625" y2="22.25000000000002" style="visibility: inherit;" fill="rgb(0, 0, 0)" stroke="rgb(204, 204, 204)" stroke-width="1px"></line><line x1="51.5625" y1="0" x2="46.5625" y2="0" style="visibility: inherit;" fill="rgb(0, 0, 0)" stroke="rgb(204, 204, 204)" stroke-width="1px"></line></g><g transform="translate(41.5625, 0)"><text x="0" y="178" dx="0em" dy="0.3em" style="text-anchor: end; visibility: hidden; font-family: Roboto, sans-serif; font-size: 12px; font-weight: 200;" fill="rgb(50, 49, 63)" stroke="none" stroke-width="1px">0.6</text><text x="0" y="155.74999999999997" dx="0em" dy="0.3em" style="text-anchor: end; visibility: inherit; font-family: Roboto, sans-serif; font-size: 12px; font-weight: 200;" fill="rgb(50, 49, 63)" stroke="none" stroke-width="1px">0.65</text><text x="0" y="133.5" dx="0em" dy="0.3em" style="text-anchor: end; visibility: hidden; font-family: Roboto, sans-serif; font-size: 12px; font-weight: 200;" fill="rgb(50, 49, 63)" stroke="none" stroke-width="1px">0.7</text><text x="0" y="111.25" dx="0em" dy="0.3em" style="text-anchor: end; visibility: inherit; font-family: Roboto, sans-serif; font-size: 12px; font-weight: 200;" fill="rgb(50, 49, 63)" stroke="none" stroke-width="1px">0.75</text><text x="0" y="88.99999999999999" dx="0em" dy="0.3em" style="text-anchor: end; visibility: hidden; font-family: Roboto, sans-serif; font-size: 12px; font-weight: 200;" fill="rgb(50, 49, 63)" stroke="none" stroke-width="1px">0.8</text><text x="0" y="66.75" dx="0em" dy="0.3em" style="text-anchor: end; visibility: inherit; font-family: Roboto, sans-serif; font-size: 12px; font-weight: 200;" fill="rgb(50, 49, 63)" stroke="none" stroke-width="1px">0.85</text><text x="0" y="44.49999999999998" dx="0em" dy="0.3em" style="text-anchor: end; visibility: hidden; font-family: Roboto, sans-serif; font-size: 12px; font-weight: 200;" fill="rgb(50, 49, 63)" stroke="none" stroke-width="1px">0.9</text><text x="0" y="22.25000000000002" dx="0em" dy="0.3em" style="text-anchor: end; visibility: inherit; font-family: Roboto, sans-serif; font-size: 12px; font-weight: 200;" fill="rgb(50, 49, 63)" stroke="none" stroke-width="1px">0.95</text><text x="0" y="0" dx="0em" dy="0.3em" style="text-anchor: end; visibility: hidden; font-family: Roboto, sans-serif; font-size: 12px; font-weight: 200;" fill="rgb(50, 49, 63)" stroke="none" stroke-width="1px">1</text></g><line x1="51.5625" y1="0" x2="51.5625" y2="178" fill="rgb(0, 0, 0)" stroke="rgb(204, 204, 204)" stroke-width="1px"></line></g></g><g transform="translate(51, 0)" clip-path="url(#clip_0)"><clipPath id="clip_0"><rect width="278" height="178"></rect></clipPath><g><g><g><line x1="0" y1="0" x2="0" y2="178" fill="rgb(0, 0, 0)" stroke="rgb(60, 60, 60)" stroke-width="1px" opacity="0.25"></line><line x1="27.84375" y1="0" x2="27.84375" y2="178" fill="rgb(0, 0, 0)" stroke="rgb(60, 60, 60)" stroke-width="1px" opacity="0.25"></line><line x1="55.6875" y1="0" x2="55.6875" y2="178" fill="rgb(0, 0, 0)" stroke="rgb(60, 60, 60)" stroke-width="1px" opacity="0.25"></line><line x1="83.53125" y1="0" x2="83.53125" y2="178" fill="rgb(0, 0, 0)" stroke="rgb(60, 60, 60)" stroke-width="1px" opacity="0.25"></line><line x1="111.375" y1="0" x2="111.375" y2="178" fill="rgb(0, 0, 0)" stroke="rgb(60, 60, 60)" stroke-width="1px" opacity="0.25"></line><line x1="139.21875" y1="0" x2="139.21875" y2="178" fill="rgb(0, 0, 0)" stroke="rgb(60, 60, 60)" stroke-width="1px" opacity="0.25"></line><line x1="167.0625" y1="0" x2="167.0625" y2="178" fill="rgb(0, 0, 0)" stroke="rgb(60, 60, 60)" stroke-width="1px" opacity="0.25"></line><line x1="194.90625" y1="0" x2="194.90625" y2="178" fill="rgb(0, 0, 0)" stroke="rgb(60, 60, 60)" stroke-width="1px" opacity="0.25"></line><line x1="222.75" y1="0" x2="222.75" y2="178" fill="rgb(0, 0, 0)" stroke="rgb(60, 60, 60)" stroke-width="1px" opacity="0.25"></line><line x1="250.59375" y1="0" x2="250.59375" y2="178" fill="rgb(0, 0, 0)" stroke="rgb(60, 60, 60)" stroke-width="1px" opacity="0.25"></line><line x1="278.4375" y1="0" x2="278.4375" y2="178" fill="rgb(0, 0, 0)" stroke="rgb(60, 60, 60)" stroke-width="1px" opacity="0.25"></line></g><g><line x1="0" y1="178" x2="278.4375" y2="178" fill="rgb(0, 0, 0)" stroke="rgb(60, 60, 60)" stroke-width="1px" opacity="0.25"></line><line x1="0" y1="155.74999999999997" x2="278.4375" y2="155.74999999999997" fill="rgb(0, 0, 0)" stroke="rgb(60, 60, 60)" stroke-width="1px" opacity="0.25"></line><line x1="0" y1="133.5" x2="278.4375" y2="133.5" fill="rgb(0, 0, 0)" stroke="rgb(60, 60, 60)" stroke-width="1px" opacity="0.25"></line><line x1="0" y1="111.25" x2="278.4375" y2="111.25" fill="rgb(0, 0, 0)" stroke="rgb(60, 60, 60)" stroke-width="1px" opacity="0.25"></line><line x1="0" y1="88.99999999999999" x2="278.4375" y2="88.99999999999999" fill="rgb(0, 0, 0)" stroke="rgb(60, 60, 60)" stroke-width="1px" opacity="0.25"></line><line x1="0" y1="66.75" x2="278.4375" y2="66.75" fill="rgb(0, 0, 0)" stroke="rgb(60, 60, 60)" stroke-width="1px" opacity="0.25"></line><line x1="0" y1="44.49999999999998" x2="278.4375" y2="44.49999999999998" fill="rgb(0, 0, 0)" stroke="rgb(60, 60, 60)" stroke-width="1px" opacity="0.25"></line><line x1="0" y1="22.25000000000002" x2="278.4375" y2="22.25000000000002" fill="rgb(0, 0, 0)" stroke="rgb(60, 60, 60)" stroke-width="1px" opacity="0.25"></line><line x1="0" y1="0" x2="278.4375" y2="0" fill="rgb(0, 0, 0)" stroke="rgb(60, 60, 60)" stroke-width="1px" opacity="0.25"></line></g></g></g><g><g><line x1="0" y1="445" x2="278.4375" y2="445" fill="rgb(0, 0, 0)" stroke="rgb(153, 153, 153)" stroke-width="1.5px"></line></g></g><g><g><line x1="27.84375" y1="0" x2="27.84375" y2="178" fill="rgb(0, 0, 0)" stroke="rgb(153, 153, 153)" stroke-width="1.5px"></line></g></g><g><g><g><g><g><path stroke="rgb(187, 187, 187)" stroke-width="2px" d="M27.84375,135.9722340106964L30.628125,135.9722340106964L33.4125,135.9722340106964L36.196875,135.9722340106964L38.98125,135.97223401069635L41.765625,135.97223401069635L44.550000000000004,135.9722340106964L47.334375,135.97223401069635L50.11875,135.97223401069635L52.903125,135.97223401069635L55.6875,135.97223401069635L58.471875,135.9722340106963L61.25625,135.9722340106963L64.040625,135.97223401069635L66.825,135.9722340106964L69.609375,135.9722340106964L72.39375,135.9722340106964L75.17812500000001,135.9722340106964L77.9625,135.9722340106964L80.74687499999999,135.9722340106964L83.53125,135.9722340106964L86.315625,135.97223401069635L89.10000000000001,135.9722340106964L91.884375,135.9722340106964L94.66875,135.97223401069635L97.453125,135.97223401069635L100.2375,135.97223401069635L103.021875,135.97223401069635L105.80625,135.9722340106964L108.590625,135.97223401069635L111.375,135.9722340106964L114.159375,135.9722340106964L116.94375,135.97223401069635L119.72812499999999,135.9722340106964L122.5125,135.9722340106964L125.296875,126.08334030441956L128.08125,105.3166742573429L130.865625,92.85667471134825L133.65,85.38067501336201L136.434375,80.89507520523001L139.21875,78.20371532418835L142.003125,76.58889939694485L144.7875,70.67556303752912L147.571875,57.238667616980685L150.35625000000002,54.12097716879473L153.140625,52.25036290009052L155.925,56.072441141266985L158.709375,58.36568808588131L161.49374999999998,54.79718945041108L164.278125,47.711643466980455L167.0625,38.515879684422295L169.84687499999998,32.99842141491587L172.63125,29.687946453222235L175.415625,27.701661476209885L178.20000000000002,26.509890490003727L180.984375,25.794827898280502L183.76875,25.365790343246747L186.55312500000002,25.108367810226554L189.3375,24.953914290414495L192.121875,24.8612421785273L194.90625,24.80563891139498L197.69062499999998,24.772276951115547L200.475,24.75225977494791L203.259375,24.74024946924733L206.04375,24.733043285826962L208.828125,24.728719575774683L211.6125,24.726125349743395L214.396875,24.724568814124538L217.18125,24.723634892753342L219.96562500000002,24.72307453993053L222.75,24.722738328236897L225.534375,24.722536601220725L228.31875,24.722415565010934L231.10312499999998,24.72234294328512L233.8875,24.722299370249637L236.671875,24.722273226428307L239.45624999999998,24.72225754013551L242.240625,24.72224812835983L245.025,24.722242481294444L247.80937500000002,24.72223909305521L250.59375,24.72223706011173" style="fill: none;" fill="none"></path></g><g><path stroke="rgb(0, 153, 136)" stroke-width="2px" d="M27.84375,96.55659526586527L30.628125,96.55659526586527L33.4125,96.55659526586533L36.196875,96.55659526586533L38.98125,96.55659526586527L41.765625,96.55659526586527L44.550000000000004,96.55659526586533L47.334375,96.55659526586527L50.11875,96.55659526586527L52.903125,96.55659526586527L55.6875,96.55659526586533L58.471875,96.55659526586527L61.25625,96.55659526586527L64.040625,96.55659526586527L66.825,96.55659526586527L69.609375,96.55659526586533L72.39375,96.55659526586527L75.17812500000001,96.55659526586527L77.9625,96.55659526586527L80.74687499999999,96.55659526586527L83.53125,96.55659526586533L86.315625,96.55659526586527L89.10000000000001,96.55659526586527L91.884375,96.55659526586527L94.66875,96.55659526586527L97.453125,96.55659526586527L100.2375,96.55659526586527L103.021875,96.55659526586527L105.80625,96.55659526586533L108.590625,96.55659526586527L111.375,96.55659526586527L114.159375,96.55659526586527L116.94375,96.55659526586521L119.72812499999999,96.55659526586527L122.5125,94.8773565599732L125.296875,93.86981335491292L128.08125,89.90678884444002L130.865625,87.52897415385277L133.65,86.10228534515117L136.434375,85.24627206196443L139.21875,84.73266409278474L142.003125,84.42449931154061L144.7875,80.88111247824288L147.571875,77.07584170160322L150.35625000000002,71.43418066238902L153.140625,68.04918403923587L155.925,66.01818606547909L158.709375,68.15808585465226L161.49374999999998,69.44202572812546L164.278125,66.8538910788679L167.0625,66.98025957598651L169.84687499999998,65.37683138760077L172.63125,66.09402376122686L175.415625,66.52433918540171L178.20000000000002,66.7825284399064L180.984375,66.93744199260905L183.76875,67.03039012423062L186.55312500000002,67.08615900320349L189.3375,67.11962033058725L192.121875,68.8189464136692L194.90625,69.83854206351833L197.69062499999998,72.12953813045272L200.475,71.82489709358836L203.259375,71.64211247146979L206.04375,71.53244169819867L208.828125,71.46663923423593L211.6125,71.42715775585836L214.396875,68.04497029552854L217.18125,67.69490710598232L219.96562500000002,69.16411847890613L222.75,71.72488397968532L225.534375,71.58210460312796L228.31875,71.49643697719357L231.10312499999998,71.44503640163293L233.8875,71.41419605629653L236.671875,68.03719327579144L239.45624999999998,66.01099160748842L242.240625,66.47451989315819L245.025,70.11112482823653L247.80937500000002,70.61384911225869L250.59375,70.91548368267199" style="fill: none;" fill="none"></path></g></g></g></g><g opacity="0.2"><g><g><g><path stroke="rgb(187, 187, 187)" stroke-width="2px" d="M27.84375,135.9722340106964L30.628125,135.9722340106964L33.4125,135.9722340106964L36.196875,135.9722340106964L38.98125,135.9722340106964L41.765625,135.9722340106964L44.550000000000004,135.9722340106964L47.334375,135.9722340106964L50.11875,135.9722340106964L52.903125,135.9722340106964L55.6875,135.9722340106964L58.471875,135.9722340106964L61.25625,135.9722340106964L64.040625,135.9722340106964L66.825,135.9722340106964L69.609375,135.9722340106964L72.39375,135.9722340106964L75.17812500000001,135.9722340106964L77.9625,135.9722340106964L80.74687499999999,135.9722340106964L83.53125,135.9722340106964L86.315625,135.9722340106964L89.10000000000001,135.9722340106964L91.884375,135.9722340106964L94.66875,135.9722340106964L97.453125,135.9722340106964L100.2375,135.9722340106964L103.021875,135.9722340106964L105.80625,135.9722340106964L108.590625,135.9722340106964L111.375,135.9722340106964L114.159375,135.9722340106964L116.94375,135.9722340106964L119.72812499999999,135.9722340106964L122.5125,135.9722340106964L125.296875,111.25L128.08125,74.16667550802231L130.865625,74.16667550802231L133.65,74.16667550802231L136.434375,74.16667550802231L139.21875,74.16667550802231L142.003125,74.16667550802231L144.7875,61.8055585026741L147.571875,37.08332449197769L150.35625000000002,49.4444414973259L153.140625,49.4444414973259L155.925,61.8055585026741L158.709375,61.8055585026741L161.49374999999998,49.4444414973259L164.278125,37.08332449197769L167.0625,24.72223401069641L169.84687499999998,24.72223401069641L172.63125,24.72223401069641L175.415625,24.72223401069641L178.20000000000002,24.72223401069641L180.984375,24.72223401069641L183.76875,24.72223401069641L186.55312500000002,24.72223401069641L189.3375,24.72223401069641L192.121875,24.72223401069641L194.90625,24.72223401069641L197.69062499999998,24.72223401069641L200.475,24.72223401069641L203.259375,24.72223401069641L206.04375,24.72223401069641L208.828125,24.72223401069641L211.6125,24.72223401069641L214.396875,24.72223401069641L217.18125,24.72223401069641L219.96562500000002,24.72223401069641L222.75,24.72223401069641L225.534375,24.72223401069641L228.31875,24.72223401069641L231.10312499999998,24.72223401069641L233.8875,24.72223401069641L236.671875,24.72223401069641L239.45624999999998,24.72223401069641L242.240625,24.72223401069641L245.025,24.72223401069641L247.80937500000002,24.72223401069641L250.59375,24.72223401069641" style="fill: none;" fill="none"></path></g><g><path stroke="rgb(0, 153, 136)" stroke-width="2px" d="M27.84375,96.55659526586533L30.628125,96.55659526586533L33.4125,96.55659526586533L36.196875,96.55659526586533L38.98125,96.55659526586533L41.765625,96.55659526586533L44.550000000000004,96.55659526586533L47.334375,96.55659526586533L50.11875,96.55659526586533L52.903125,96.55659526586533L55.6875,96.55659526586533L58.471875,96.55659526586533L61.25625,96.55659526586533L64.040625,96.55659526586533L66.825,96.55659526586533L69.609375,96.55659526586533L72.39375,96.55659526586533L75.17812500000001,96.55659526586533L77.9625,96.55659526586533L80.74687499999999,96.55659526586533L83.53125,96.55659526586533L86.315625,96.55659526586533L89.10000000000001,96.55659526586533L91.884375,96.55659526586533L94.66875,96.55659526586533L97.453125,96.55659526586533L100.2375,96.55659526586533L103.021875,96.55659526586533L105.80625,96.55659526586533L108.590625,96.55659526586533L111.375,96.55659526586533L114.159375,96.55659526586533L116.94375,96.55659526586533L119.72812499999999,96.55659526586533L122.5125,92.35849857330322L125.296875,92.35849857330322L128.08125,83.96225214004517L130.865625,83.96225214004517L133.65,83.96225214004517L136.434375,83.96225214004517L139.21875,83.96225214004517L142.003125,83.96225214004517L144.7875,75.56603223085403L147.571875,71.36793553829193L150.35625000000002,62.971689105033875L153.140625,62.971689105033875L155.925,62.971689105033875L158.709375,71.36793553829193L161.49374999999998,71.36793553829193L164.278125,62.971689105033875L167.0625,67.1698123216629L169.84687499999998,62.971689105033875L172.63125,67.1698123216629L175.415625,67.1698123216629L178.20000000000002,67.1698123216629L180.984375,67.1698123216629L183.76875,67.1698123216629L186.55312500000002,67.1698123216629L189.3375,67.1698123216629L192.121875,71.36793553829193L194.90625,71.36793553829193L197.69062499999998,75.56603223085403L200.475,71.36793553829193L203.259375,71.36793553829193L206.04375,71.36793553829193L208.828125,71.36793553829193L211.6125,71.36793553829193L214.396875,62.971689105033875L217.18125,67.1698123216629L219.96562500000002,71.36793553829193L222.75,75.56603223085403L225.534375,71.36793553829193L228.31875,71.36793553829193L231.10312499999998,71.36793553829193L233.8875,71.36793553829193L236.671875,62.971689105033875L239.45624999999998,62.971689105033875L242.240625,67.1698123216629L245.025,75.56603223085403L247.80937500000002,71.36793553829193L250.59375,71.36793553829193" style="fill: none;" fill="none"></path></g></g></g></g></g></g><g transform="translate(51, 178)" clip-path="url(#clip_1)"><clipPath id="clip_1"><rect width="278" height="22"></rect></clipPath><g><g><line x1="0" y1="0" x2="0" y2="5" style="visibility: inherit;" fill="rgb(0, 0, 0)" stroke="rgb(204, 204, 204)" stroke-width="1px"></line><line x1="27.84375" y1="0" x2="27.84375" y2="5" style="visibility: inherit;" fill="rgb(0, 0, 0)" stroke="rgb(204, 204, 204)" stroke-width="1px"></line><line x1="55.6875" y1="0" x2="55.6875" y2="5" style="visibility: inherit;" fill="rgb(0, 0, 0)" stroke="rgb(204, 204, 204)" stroke-width="1px"></line><line x1="83.53125" y1="0" x2="83.53125" y2="5" style="visibility: inherit;" fill="rgb(0, 0, 0)" stroke="rgb(204, 204, 204)" stroke-width="1px"></line><line x1="111.375" y1="0" x2="111.375" y2="5" style="visibility: inherit;" fill="rgb(0, 0, 0)" stroke="rgb(204, 204, 204)" stroke-width="1px"></line><line x1="139.21875" y1="0" x2="139.21875" y2="5" style="visibility: inherit;" fill="rgb(0, 0, 0)" stroke="rgb(204, 204, 204)" stroke-width="1px"></line><line x1="167.0625" y1="0" x2="167.0625" y2="5" style="visibility: inherit;" fill="rgb(0, 0, 0)" stroke="rgb(204, 204, 204)" stroke-width="1px"></line><line x1="194.90625" y1="0" x2="194.90625" y2="5" style="visibility: inherit;" fill="rgb(0, 0, 0)" stroke="rgb(204, 204, 204)" stroke-width="1px"></line><line x1="222.75" y1="0" x2="222.75" y2="5" style="visibility: inherit;" fill="rgb(0, 0, 0)" stroke="rgb(204, 204, 204)" stroke-width="1px"></line><line x1="250.59375" y1="0" x2="250.59375" y2="5" style="visibility: inherit;" fill="rgb(0, 0, 0)" stroke="rgb(204, 204, 204)" stroke-width="1px"></line><line x1="278.4375" y1="0" x2="278.4375" y2="5" style="visibility: inherit;" fill="rgb(0, 0, 0)" stroke="rgb(204, 204, 204)" stroke-width="1px"></line></g><g transform="translate(0, 8)"><text x="0" y="0" dx="0em" dy="0.95em" style="text-anchor: middle; visibility: hidden; font-family: Roboto, sans-serif; font-size: 12px; font-weight: 200;" fill="rgb(50, 49, 63)" stroke="none" stroke-width="1px">-10</text><text x="27.84375" y="0" dx="0em" dy="0.95em" style="text-anchor: middle; visibility: inherit; font-family: Roboto, sans-serif; font-size: 12px; font-weight: 200;" fill="rgb(50, 49, 63)" stroke="none" stroke-width="1px">0</text><text x="55.6875" y="0" dx="0em" dy="0.95em" style="text-anchor: middle; visibility: inherit; font-family: Roboto, sans-serif; font-size: 12px; font-weight: 200;" fill="rgb(50, 49, 63)" stroke="none" stroke-width="1px">10</text><text x="83.53125" y="0" dx="0em" dy="0.95em" style="text-anchor: middle; visibility: inherit; font-family: Roboto, sans-serif; font-size: 12px; font-weight: 200;" fill="rgb(50, 49, 63)" stroke="none" stroke-width="1px">20</text><text x="111.375" y="0" dx="0em" dy="0.95em" style="text-anchor: middle; visibility: inherit; font-family: Roboto, sans-serif; font-size: 12px; font-weight: 200;" fill="rgb(50, 49, 63)" stroke="none" stroke-width="1px">30</text><text x="139.21875" y="0" dx="0em" dy="0.95em" style="text-anchor: middle; visibility: inherit; font-family: Roboto, sans-serif; font-size: 12px; font-weight: 200;" fill="rgb(50, 49, 63)" stroke="none" stroke-width="1px">40</text><text x="167.0625" y="0" dx="0em" dy="0.95em" style="text-anchor: middle; visibility: inherit; font-family: Roboto, sans-serif; font-size: 12px; font-weight: 200;" fill="rgb(50, 49, 63)" stroke="none" stroke-width="1px">50</text><text x="194.90625" y="0" dx="0em" dy="0.95em" style="text-anchor: middle; visibility: inherit; font-family: Roboto, sans-serif; font-size: 12px; font-weight: 200;" fill="rgb(50, 49, 63)" stroke="none" stroke-width="1px">60</text><text x="222.75" y="0" dx="0em" dy="0.95em" style="text-anchor: middle; visibility: inherit; font-family: Roboto, sans-serif; font-size: 12px; font-weight: 200;" fill="rgb(50, 49, 63)" stroke="none" stroke-width="1px">70</text><text x="250.59375" y="0" dx="0em" dy="0.95em" style="text-anchor: middle; visibility: inherit; font-family: Roboto, sans-serif; font-size: 12px; font-weight: 200;" fill="rgb(50, 49, 63)" stroke="none" stroke-width="1px">80</text><text x="278.4375" y="0" dx="0em" dy="0.95em" style="text-anchor: middle; visibility: hidden; font-family: Roboto, sans-serif; font-size: 12px; font-weight: 200;" fill="rgb(50, 49, 63)" stroke="none" stroke-width="1px">90</text></g><line x1="0" y1="0" x2="278.4375" y2="0" fill="rgb(0, 0, 0)" stroke="rgb(204, 204, 204)" stroke-width="1px"></line></g></g></g></g></svg>