<svg viewBox="0 0 330 200" xmlns="http://www.w3.org/2000/svg"><g><g><g><g><g><line x1="51.5625" y1="178" x2="46.5625" y2="178" style="visibility: inherit;" fill="rgb(0, 0, 0)" stroke="rgb(204, 204, 204)" stroke-width="1px"></line><line x1="51.5625" y1="155.75" x2="46.5625" y2="155.75" style="visibility: inherit;" fill="rgb(0, 0, 0)" stroke="rgb(204, 204, 204)" stroke-width="1px"></line><line x1="51.5625" y1="133.5" x2="46.5625" y2="133.5" style="visibility: inherit;" fill="rgb(0, 0, 0)" stroke="rgb(204, 204, 204)" stroke-width="1px"></line><line x1="51.5625" y1="111.24999999999999" x2="46.5625" y2="111.24999999999999" style="visibility: inherit;" fill="rgb(0, 0, 0)" stroke="rgb(204, 204, 204)" stroke-width="1px"></line><line x1="51.5625" y1="88.99999999999999" x2="46.5625" y2="88.99999999999999" style="visibility: inherit;" fill="rgb(0, 0, 0)" stroke="rgb(204, 204, 204)" stroke-width="1px"></line><line x1="51.5625" y1="66.75" x2="46.5625" y2="66.75" style="visibility: inherit;" fill="rgb(0, 0, 0)" stroke="rgb(204, 204, 204)" stroke-width="1px"></line><line x1="51.5625" y1="44.5" x2="46.5625" y2="44.5" style="visibility: inherit;" fill="rgb(0, 0, 0)" stroke="rgb(204, 204, 204)" stroke-width="1px"></line><line x1="51.5625" y1="22.25" x2="46.5625" y2="22.25" style="visibility: inherit;" fill="rgb(0, 0, 0)" stroke="rgb(204, 204, 204)" stroke-width="1px"></line><line x1="51.5625" y1="0" x2="46.5625" y2="0" style="visibility: inherit;" fill="rgb(0, 0, 0)" stroke="rgb(204, 204, 204)" stroke-width="1px"></line></g><g transform="translate(41.5625, 0)"><text x="0" y="178" dx="0em" dy="0.3em" style="text-anchor: end; visibility: hidden; font-family: Roboto, sans-serif; font-size: 12px; font-weight: 200;" fill="rgb(50, 49, 63)" stroke="none" stroke-width="1px">-0.1</text><text x="0" y="155.75" dx="0em" dy="0.3em" style="text-anchor: end; visibility: inherit; font-family: Roboto, sans-serif; font-size: 12px; font-weight: 200;" fill="rgb(50, 49, 63)" stroke="none" stroke-width="1px">0</text><text x="0" y="133.5" dx="0em" dy="0.3em" style="text-anchor: end; visibility: hidden; font-family: Roboto, sans-serif; font-size: 12px; font-weight: 200;" fill="rgb(50, 49, 63)" stroke="none" stroke-width="1px">0.1</text><text x="0" y="111.24999999999999" dx="0em" dy="0.3em" style="text-anchor: end; visibility: inherit; font-family: Roboto, sans-serif; font-size: 12px; font-weight: 200;" fill="rgb(50, 49, 63)" stroke="none" stroke-width="1px">0.2</text><text x="0" y="88.99999999999999" dx="0em" dy="0.3em" style="text-anchor: end; visibility: hidden; font-family: Roboto, sans-serif; font-size: 12px; font-weight: 200;" fill="rgb(50, 49, 63)" stroke="none" stroke-width="1px">0.3</text><text x="0" y="66.75" dx="0em" dy="0.3em" style="text-anchor: end; visibility: inherit; font-family: Roboto, sans-serif; font-size: 12px; font-weight: 200;" fill="rgb(50, 49, 63)" stroke="none" stroke-width="1px">0.4</text><text x="0" y="44.5" dx="0em" dy="0.3em" style="text-anchor: end; visibility: hidden; font-family: Roboto, sans-serif; font-size: 12px; font-weight: 200;" fill="rgb(50, 49, 63)" stroke="none" stroke-width="1px">0.5</text><text x="0" y="22.25" dx="0em" dy="0.3em" style="text-anchor: end; visibility: inherit; font-family: Roboto, sans-serif; font-size: 12px; font-weight: 200;" fill="rgb(50, 49, 63)" stroke="none" stroke-width="1px">0.6</text><text x="0" y="0" dx="0em" dy="0.3em" style="text-anchor: end; visibility: hidden; font-family: Roboto, sans-serif; font-size: 12px; font-weight: 200;" fill="rgb(50, 49, 63)" stroke="none" stroke-width="1px">0.7</text></g><line x1="51.5625" y1="0" x2="51.5625" y2="178" fill="rgb(0, 0, 0)" stroke="rgb(204, 204, 204)" stroke-width="1px"></line></g></g><g transform="translate(51, 0)" clip-path="url(#clip_0)"><clipPath id="clip_0"><rect width="278" height="178"></rect></clipPath><g><g><g><line x1="0" y1="0" x2="0" y2="178" fill="rgb(0, 0, 0)" stroke="rgb(60, 60, 60)" stroke-width="1px" opacity="0.25"></line><line x1="27.84375" y1="0" x2="27.84375" y2="178" fill="rgb(0, 0, 0)" stroke="rgb(60, 60, 60)" stroke-width="1px" opacity="0.25"></line><line x1="55.6875" y1="0" x2="55.6875" y2="178" fill="rgb(0, 0, 0)" stroke="rgb(60, 60, 60)" stroke-width="1px" opacity="0.25"></line><line x1="83.53125" y1="0" x2="83.53125" y2="178" fill="rgb(0, 0, 0)" stroke="rgb(60, 60, 60)" stroke-width="1px" opacity="0.25"></line><line x1="111.375" y1="0" x2="111.375" y2="178" fill="rgb(0, 0, 0)" stroke="rgb(60, 60, 60)" stroke-width="1px" opacity="0.25"></line><line x1="139.21875" y1="0" x2="139.21875" y2="178" fill="rgb(0, 0, 0)" stroke="rgb(60, 60, 60)" stroke-width="1px" opacity="0.25"></line><line x1="167.0625" y1="0" x2="167.0625" y2="178" fill="rgb(0, 0, 0)" stroke="rgb(60, 60, 60)" stroke-width="1px" opacity="0.25"></line><line x1="194.90625" y1="0" x2="194.90625" y2="178" fill="rgb(0, 0, 0)" stroke="rgb(60, 60, 60)" stroke-width="1px" opacity="0.25"></line><line x1="222.75" y1="0" x2="222.75" y2="178" fill="rgb(0, 0, 0)" stroke="rgb(60, 60, 60)" stroke-width="1px" opacity="0.25"></line><line x1="250.59375" y1="0" x2="250.59375" y2="178" fill="rgb(0, 0, 0)" stroke="rgb(60, 60, 60)" stroke-width="1px" opacity="0.25"></line><line x1="278.4375" y1="0" x2="278.4375" y2="178" fill="rgb(0, 0, 0)" stroke="rgb(60, 60, 60)" stroke-width="1px" opacity="0.25"></line></g><g><line x1="0" y1="178" x2="278.4375" y2="178" fill="rgb(0, 0, 0)" stroke="rgb(60, 60, 60)" stroke-width="1px" opacity="0.25"></line><line x1="0" y1="155.75" x2="278.4375" y2="155.75" fill="rgb(0, 0, 0)" stroke="rgb(60, 60, 60)" stroke-width="1px" opacity="0.25"></line><line x1="0" y1="133.5" x2="278.4375" y2="133.5" fill="rgb(0, 0, 0)" stroke="rgb(60, 60, 60)" stroke-width="1px" opacity="0.25"></line><line x1="0" y1="111.24999999999999" x2="278.4375" y2="111.24999999999999" fill="rgb(0, 0, 0)" stroke="rgb(60, 60, 60)" stroke-width="1px" opacity="0.25"></line><line x1="0" y1="88.99999999999999" x2="278.4375" y2="88.99999999999999" fill="rgb(0, 0, 0)" stroke="rgb(60, 60, 60)" stroke-width="1px" opacity="0.25"></line><line x1="0" y1="66.75" x2="278.4375" y2="66.75" fill="rgb(0, 0, 0)" stroke="rgb(60, 60, 60)" stroke-width="1px" opacity="0.25"></line><line x1="0" y1="44.5" x2="278.4375" y2="44.5" fill="rgb(0, 0, 0)" stroke="rgb(60, 60, 60)" stroke-width="1px" opacity="0.25"></line><line x1="0" y1="22.25" x2="278.4375" y2="22.25" fill="rgb(0, 0, 0)" stroke="rgb(60, 60, 60)" stroke-width="1px" opacity="0.25"></line><line x1="0" y1="0" x2="278.4375" y2="0" fill="rgb(0, 0, 0)" stroke="rgb(60, 60, 60)" stroke-width="1px" opacity="0.25"></line></g></g></g><g><g><line x1="0" y1="155.75" x2="278.4375" y2="155.75" fill="rgb(0, 0, 0)" stroke="rgb(153, 153, 153)" stroke-width="1.5px"></line></g></g><g><g><line x1="27.84375" y1="0" x2="27.84375" y2="178" fill="rgb(0, 0, 0)" stroke="rgb(153, 153, 153)" stroke-width="1.5px"></line></g></g><g><g><g><g><g><path stroke="rgb(187, 187, 187)" stroke-width="2px" d="M27.84375,11.945726245641708L30.628125,12.516101438552141L33.4125,13.09652431339634L36.196875,14.084784245337637L38.98125,15.454416744168004L41.765625,17.049946415513165L44.550000000000004,18.736971699620714L47.334375,20.439572955169922L50.11875,22.096287018723L52.903125,23.564188404315697L55.6875,24.886673154748355L58.471875,26.27405829492302L61.25625,27.828311959302738L64.040625,29.42732667686092L66.825,31.193233224428695L69.609375,33.07333346073651L72.39375,35.05861092934276L75.17812500000001,37.088322588508376L77.9625,39.049426447994826L80.74687499999999,41.21788950295314L83.53125,43.54148954946379L86.315625,45.780698111780765L89.10000000000001,48.00973326842358L91.884375,50.15078104106096L94.66875,52.09804525003254L97.453125,53.834987015238035L100.2375,55.62304218473266L103.021875,57.58092441903802L105.80625,59.488250640940414L108.590625,61.50598550217784L111.375,63.4906913432189L114.159375,65.23444868451632L116.94375,66.505006435545L119.72812499999999,67.66324989122568L122.5125,69.08498191370288L125.296875,70.56934961141576L128.08125,71.9921915408298L130.865625,73.09231588511817L133.65,74.38484890909362L136.434375,76.50585241393475L139.21875,78.86766532417559L142.003125,81.11009450279155L144.7875,83.20275354161173L147.571875,85.23737937708763L150.35625000000002,87.01014988738883L153.140625,88.51132667740761L155.925,89.26894601991972L158.709375,89.87937304266393L161.49374999999998,91.1180270367318L164.278125,92.80358770213617L167.0625,94.53000764085947L169.84687499999998,96.06108515283375L172.63125,97.5904270817122L175.415625,98.97450835164223L178.20000000000002,100.23383801374415L180.984375,101.38910045143156L183.76875,102.39592357227939L186.55312500000002,103.34271634667968L189.3375,104.17500885158697L192.121875,105.10505695539669L194.90625,106.2021437132237L197.69062499999998,106.74068204426037L200.475,107.22173066355745L203.259375,107.66928010832048L206.04375,108.39141243190036L208.828125,109.3011317043928L211.6125,110.40567814942764L214.396875,111.42215882323126L217.18125,112.00868748177253L219.96562500000002,112.4089421364615L222.75,112.46612395840583L225.534375,112.18079947827874L228.31875,112.40498579382071L231.10312499999998,112.63396172129612L233.8875,113.58562419655026L236.671875,114.39394974912466L239.45624999999998,114.78574348810469L242.240625,114.82234146489594L245.025,114.45834722694094L247.80937500000002,113.7876821880122L250.59375,113.38203794506667" style="fill: none;" fill="none"></path></g><g><path stroke="rgb(0, 153, 136)" stroke-width="2px" d="M27.84375,37.71893662214279L30.628125,38.68295383453369L33.4125,39.40436785683339L36.196875,40.25745340820183L38.98125,41.13444486159075L41.765625,42.0479106392179L44.550000000000004,42.87750501401488L47.334375,43.68504986312068L50.11875,44.515998152724286L52.903125,45.37657203964686L55.6875,46.214856962180065L58.471875,47.111905480725966L61.25625,48.05982685111207L64.040625,49.03595121661264L66.825,49.897625608679604L69.609375,50.955683515168325L72.39375,52.123949123835644L75.17812500000001,53.388807172617504L77.9625,54.71872182905909L80.74687499999999,56.18489848835055L83.53125,57.731192953942816L86.315625,59.19797180154339L89.10000000000001,60.54379039524395L91.884375,61.77476796571471L94.66875,62.964041044263915L97.453125,63.96551400783709L100.2375,64.98923849552898L103.021875,65.9329944653704L105.80625,66.9404491681547L108.590625,67.92603554452867L111.375,68.86268288475031L114.159375,69.81953502510811L116.94375,70.68760985594608L119.72812499999999,71.48202396202245L122.5125,72.19160677084135L125.296875,73.00582793651698L128.08125,73.84080208042631L130.865625,74.67840349806052L133.65,75.38621553419392L136.434375,76.33754871399235L139.21875,77.333685906202L142.003125,78.10708485966614L144.7875,78.75574765179819L147.571875,79.46895537135003L150.35625000000002,80.19898382049637L153.140625,81.17182421822558L155.925,82.04990316119624L158.709375,82.54602504783095L161.49374999999998,83.11533645400112L164.278125,83.85940479403564L167.0625,84.5196801731966L169.84687499999998,85.21775028765298L172.63125,85.81595605409305L175.415625,86.52093371031454L178.20000000000002,87.23894219564109L180.984375,87.9251501796648L183.76875,88.50911960828348L186.55312500000002,89.06095155375036L189.3375,89.54228834090733L192.121875,89.9358392583019L194.90625,90.25684947530547L197.69062499999998,90.6134141252048L200.475,91.07877985034031L203.259375,91.47799416419053L206.04375,91.7400257708799L208.828125,92.17238949073379L211.6125,92.50401684244292L214.396875,92.57877839565167L217.18125,92.83378550982411L219.96562500000002,93.1736491774078L222.75,93.48830535737014L225.534375,93.68858929113945L228.31875,93.69190787456276L231.10312499999998,93.87214871157313L233.8875,94.17018961852254L236.671875,94.27965372768321L239.45624999999998,94.41760231833027L242.240625,94.6473360227368L245.025,94.87256774108538L247.80937500000002,94.99822707057555L250.59375,94.9555428271327" style="fill: none;" fill="none"></path></g></g></g></g><g opacity="0.2"><g><g><g><path stroke="rgb(187, 187, 187)" stroke-width="2px" d="M27.84375,11.945726245641708L30.628125,12.8583265542984L33.4125,13.653730273246765L36.196875,15.246977925300598L38.98125,17.242608934640884L41.765625,19.257138341665268L44.550000000000004,21.149444848299026L47.334375,22.921981930732727L50.11875,24.539618462324142L52.903125,25.743850886821747L55.6875,26.85840544104576L58.471875,28.347585916519165L61.25625,30.15461754798889L64.040625,31.822716116905212L66.825,33.84001728892326L69.609375,35.892157822847366L72.39375,38.035687029361725L75.17812500000001,40.13237473368645L77.9625,41.99078348278999L80.74687499999999,44.47038587927818L83.53125,47.02676218748093L86.315625,49.13943727314472L89.10000000000001,51.353241994977L91.884375,53.362327337265015L94.66875,55.01892772316933L97.453125,56.44039225578308L100.2375,58.30512036383152L103.021875,60.51774476468563L105.80625,62.349238216876984L108.590625,64.53258667886257L111.375,66.46774944663048L114.159375,67.85008434951305L116.94375,68.41084291040897L119.72812499999999,69.4006149917841L122.5125,71.21757988631725L125.296875,72.79590111970901L128.08125,74.12645441293716L130.865625,74.74250239133835L133.65,76.32364843785763L136.434375,79.68735766410828L139.21875,82.4103846848011L142.003125,84.47373826801777L144.7875,86.34174209833145L147.571875,88.28931812942028L150.35625000000002,89.66930565237999L153.140625,90.76309186220169L155.925,90.40537503361702L158.709375,90.79501357674599L161.49374999999998,92.97600802779198L164.278125,95.33192870020866L167.0625,97.11963754892349L169.84687499999998,98.357701420784L172.63125,99.88443997502327L175.415625,101.05063025653362L178.20000000000002,102.12283250689507L180.984375,103.12199410796165L183.76875,103.90615825355053L186.55312500000002,104.7629055082798L189.3375,105.42344760894775L192.121875,106.50012911111116L194.90625,107.84777384996414L197.69062499999998,107.54848954081535L200.475,107.94330359250307L203.259375,108.34060427546501L206.04375,109.47461091727018L208.828125,110.66571061313152L211.6125,112.06249781697989L214.396875,112.94687983393669L217.18125,112.88848046958447L219.96562500000002,113.00932411849499L222.75,112.55189669132233L225.534375,111.75281275808811L228.31875,112.74126526713371L231.10312499999998,112.97742561250925L233.8875,115.01311790943146L236.671875,115.60643807798624L239.45624999999998,115.37343409657478L242.240625,114.8772384300828L245.025,113.91235587000847L247.80937500000002,112.78168462961912L250.59375,112.77357158064842" style="fill: none;" fill="none"></path></g><g><path stroke="rgb(0, 153, 136)" stroke-width="2px" d="M27.84375,37.71893662214279L30.628125,39.26136416196823L33.4125,40.09692531824112L36.196875,41.2606820166111L38.98125,42.2794449031353L41.765625,43.31156265735626L44.550000000000004,44.0638382434845L47.334375,44.86245800554752L50.11875,45.741485476493835L52.903125,46.65442396700382L55.6875,47.464681163430214L58.471875,48.45259656012058L61.25625,49.478613778948784L64.040625,50.498225435614586L66.825,51.18912433087826L69.609375,52.54202415049076L72.39375,53.875853165984154L75.17812500000001,55.28577309846878L77.9625,56.713391214609146L80.74687499999999,58.38402946293354L83.53125,60.05054984986782L86.315625,61.398091807961464L89.10000000000001,62.562491714954376L91.884375,63.621219739317894L94.66875,64.74794220924377L97.453125,65.4677191823721L100.2375,66.52482260763645L103.021875,67.34862697124481L105.80625,68.45163029432297L108.590625,69.40441456437111L111.375,70.26765358448029L114.159375,71.25481304526329L116.94375,71.98972199857235L119.72812499999999,72.67364506423473L122.5125,73.25598095357418L125.296875,74.22715966403484L128.08125,75.09326328337193L130.865625,75.93480561673641L133.65,76.44793358445168L136.434375,77.76454848051071L139.21875,78.82789169251919L142.003125,79.26718328893185L144.7875,79.72874183952808L147.571875,80.53876695036888L150.35625000000002,81.29402649402618L153.140625,82.6310848146677L155.925,83.3670215755701L158.709375,83.29020787775517L161.49374999999998,83.96930356323719L164.278125,84.97550730407238L167.0625,85.51009324193001L169.84687499999998,86.26485545933247L172.63125,86.71326470375061L175.415625,87.57840019464493L178.20000000000002,88.31595492362976L180.984375,88.95446215569973L183.76875,89.38507375121117L186.55312500000002,89.88869947195053L189.3375,90.26429352164268L192.121875,90.52616563439369L194.90625,90.73836480081081L197.69062499999998,91.14826110005379L200.475,91.7768284380436L203.259375,92.0768156349659L206.04375,92.13307318091393L208.828125,92.82093507051468L211.6125,93.00145787000656L214.396875,92.69092072546482L217.18125,93.21629618108273L219.96562500000002,93.68344467878342L222.75,93.96028962731361L225.534375,93.98901519179344L228.31875,93.69688574969769L231.10312499999998,94.1425099670887L233.8875,94.61725097894669L236.671875,94.44384989142418L239.45624999999998,94.62452520430088L242.240625,94.99193657934666L245.025,95.21041531860828L247.80937500000002,95.18671606481075L250.59375,94.89151646196842" style="fill: none;" fill="none"></path></g></g></g></g></g></g><g transform="translate(51, 178)" clip-path="url(#clip_1)"><clipPath id="clip_1"><rect width="278" height="22"></rect></clipPath><g><g><line x1="0" y1="0" x2="0" y2="5" style="visibility: inherit;" fill="rgb(0, 0, 0)" stroke="rgb(204, 204, 204)" stroke-width="1px"></line><line x1="27.84375" y1="0" x2="27.84375" y2="5" style="visibility: inherit;" fill="rgb(0, 0, 0)" stroke="rgb(204, 204, 204)" stroke-width="1px"></line><line x1="55.6875" y1="0" x2="55.6875" y2="5" style="visibility: inherit;" fill="rgb(0, 0, 0)" stroke="rgb(204, 204, 204)" stroke-width="1px"></line><line x1="83.53125" y1="0" x2="83.53125" y2="5" style="visibility: inherit;" fill="rgb(0, 0, 0)" stroke="rgb(204, 204, 204)" stroke-width="1px"></line><line x1="111.375" y1="0" x2="111.375" y2="5" style="visibility: inherit;" fill="rgb(0, 0, 0)" stroke="rgb(204, 204, 204)" stroke-width="1px"></line><line x1="139.21875" y1="0" x2="139.21875" y2="5" style="visibility: inherit;" fill="rgb(0, 0, 0)" stroke="rgb(204, 204, 204)" stroke-width="1px"></line><line x1="167.0625" y1="0" x2="167.0625" y2="5" style="visibility: inherit;" fill="rgb(0, 0, 0)" stroke="rgb(204, 204, 204)" stroke-width="1px"></line><line x1="194.90625" y1="0" x2="194.90625" y2="5" style="visibility: inherit;" fill="rgb(0, 0, 0)" stroke="rgb(204, 204, 204)" stroke-width="1px"></line><line x1="222.75" y1="0" x2="222.75" y2="5" style="visibility: inherit;" fill="rgb(0, 0, 0)" stroke="rgb(204, 204, 204)" stroke-width="1px"></line><line x1="250.59375" y1="0" x2="250.59375" y2="5" style="visibility: inherit;" fill="rgb(0, 0, 0)" stroke="rgb(204, 204, 204)" stroke-width="1px"></line><line x1="278.4375" y1="0" x2="278.4375" y2="5" style="visibility: inherit;" fill="rgb(0, 0, 0)" stroke="rgb(204, 204, 204)" stroke-width="1px"></line></g><g transform="translate(0, 8)"><text x="0" y="0" dx="0em" dy="0.95em" style="text-anchor: middle; visibility: hidden; font-family: Roboto, sans-serif; font-size: 12px; font-weight: 200;" fill="rgb(50, 49, 63)" stroke="none" stroke-width="1px">-10</text><text x="27.84375" y="0" dx="0em" dy="0.95em" style="text-anchor: middle; visibility: inherit; font-family: Roboto, sans-serif; font-size: 12px; font-weight: 200;" fill="rgb(50, 49, 63)" stroke="none" stroke-width="1px">0</text><text x="55.6875" y="0" dx="0em" dy="0.95em" style="text-anchor: middle; visibility: inherit; font-family: Roboto, sans-serif; font-size: 12px; font-weight: 200;" fill="rgb(50, 49, 63)" stroke="none" stroke-width="1px">10</text><text x="83.53125" y="0" dx="0em" dy="0.95em" style="text-anchor: middle; visibility: inherit; font-family: Roboto, sans-serif; font-size: 12px; font-weight: 200;" fill="rgb(50, 49, 63)" stroke="none" stroke-width="1px">20</text><text x="111.375" y="0" dx="0em" dy="0.95em" style="text-anchor: middle; visibility: inherit; font-family: Roboto, sans-serif; font-size: 12px; font-weight: 200;" fill="rgb(50, 49, 63)" stroke="none" stroke-width="1px">30</text><text x="139.21875" y="0" dx="0em" dy="0.95em" style="text-anchor: middle; visibility: inherit; font-family: Roboto, sans-serif; font-size: 12px; font-weight: 200;" fill="rgb(50, 49, 63)" stroke="none" stroke-width="1px">40</text><text x="167.0625" y="0" dx="0em" dy="0.95em" style="text-anchor: middle; visibility: inherit; font-family: Roboto, sans-serif; font-size: 12px; font-weight: 200;" fill="rgb(50, 49, 63)" stroke="none" stroke-width="1px">50</text><text x="194.90625" y="0" dx="0em" dy="0.95em" style="text-anchor: middle; visibility: inherit; font-family: Roboto, sans-serif; font-size: 12px; font-weight: 200;" fill="rgb(50, 49, 63)" stroke="none" stroke-width="1px">60</text><text x="222.75" y="0" dx="0em" dy="0.95em" style="text-anchor: middle; visibility: inherit; font-family: Roboto, sans-serif; font-size: 12px; font-weight: 200;" fill="rgb(50, 49, 63)" stroke="none" stroke-width="1px">70</text><text x="250.59375" y="0" dx="0em" dy="0.95em" style="text-anchor: middle; visibility: inherit; font-family: Roboto, sans-serif; font-size: 12px; font-weight: 200;" fill="rgb(50, 49, 63)" stroke="none" stroke-width="1px">80</text><text x="278.4375" y="0" dx="0em" dy="0.95em" style="text-anchor: middle; visibility: hidden; font-family: Roboto, sans-serif; font-size: 12px; font-weight: 200;" fill="rgb(50, 49, 63)" stroke="none" stroke-width="1px">90</text></g><line x1="0" y1="0" x2="278.4375" y2="0" fill="rgb(0, 0, 0)" stroke="rgb(204, 204, 204)" stroke-width="1px"></line></g></g></g></g></svg>