<svg viewBox="0 0 330 200" xmlns="http://www.w3.org/2000/svg"><g><g><g><g><g><line x1="51.5625" y1="178" x2="46.5625" y2="178" style="visibility: inherit;" fill="rgb(0, 0, 0)" stroke="rgb(204, 204, 204)" stroke-width="1px"></line><line x1="51.5625" y1="161.8181818181818" x2="46.5625" y2="161.8181818181818" style="visibility: inherit;" fill="rgb(0, 0, 0)" stroke="rgb(204, 204, 204)" stroke-width="1px"></line><line x1="51.5625" y1="145.63636363636365" x2="46.5625" y2="145.63636363636365" style="visibility: inherit;" fill="rgb(0, 0, 0)" stroke="rgb(204, 204, 204)" stroke-width="1px"></line><line x1="51.5625" y1="129.45454545454547" x2="46.5625" y2="129.45454545454547" style="visibility: inherit;" fill="rgb(0, 0, 0)" stroke="rgb(204, 204, 204)" stroke-width="1px"></line><line x1="51.5625" y1="113.2727272727273" x2="46.5625" y2="113.2727272727273" style="visibility: inherit;" fill="rgb(0, 0, 0)" stroke="rgb(204, 204, 204)" stroke-width="1px"></line><line x1="51.5625" y1="97.09090909090908" x2="46.5625" y2="97.09090909090908" style="visibility: inherit;" fill="rgb(0, 0, 0)" stroke="rgb(204, 204, 204)" stroke-width="1px"></line><line x1="51.5625" y1="80.90909090909089" x2="46.5625" y2="80.90909090909089" style="visibility: inherit;" fill="rgb(0, 0, 0)" stroke="rgb(204, 204, 204)" stroke-width="1px"></line><line x1="51.5625" y1="64.72727272727275" x2="46.5625" y2="64.72727272727275" style="visibility: inherit;" fill="rgb(0, 0, 0)" stroke="rgb(204, 204, 204)" stroke-width="1px"></line><line x1="51.5625" y1="48.54545454545454" x2="46.5625" y2="48.54545454545454" style="visibility: inherit;" fill="rgb(0, 0, 0)" stroke="rgb(204, 204, 204)" stroke-width="1px"></line><line x1="51.5625" y1="32.363636363636395" x2="46.5625" y2="32.363636363636395" style="visibility: inherit;" fill="rgb(0, 0, 0)" stroke="rgb(204, 204, 204)" stroke-width="1px"></line><line x1="51.5625" y1="16.181818181818187" x2="46.5625" y2="16.181818181818187" style="visibility: inherit;" fill="rgb(0, 0, 0)" stroke="rgb(204, 204, 204)" stroke-width="1px"></line><line x1="51.5625" y1="0" x2="46.5625" y2="0" style="visibility: inherit;" fill="rgb(0, 0, 0)" stroke="rgb(204, 204, 204)" stroke-width="1px"></line></g><g transform="translate(41.5625, 0)"><text x="0" y="178" dx="0em" dy="0.3em" style="text-anchor: end; visibility: hidden; font-family: Roboto, sans-serif; font-size: 12px; font-weight: 200;" fill="rgb(50, 49, 63)" stroke="none" stroke-width="1px">0.5</text><text x="0" y="161.8181818181818" dx="0em" dy="0.3em" style="text-anchor: end; visibility: inherit; font-family: Roboto, sans-serif; font-size: 12px; font-weight: 200;" fill="rgb(50, 49, 63)" stroke="none" stroke-width="1px">0.55</text><text x="0" y="145.63636363636365" dx="0em" dy="0.3em" style="text-anchor: end; visibility: hidden; font-family: Roboto, sans-serif; font-size: 12px; font-weight: 200;" fill="rgb(50, 49, 63)" stroke="none" stroke-width="1px">0.6</text><text x="0" y="129.45454545454547" dx="0em" dy="0.3em" style="text-anchor: end; visibility: inherit; font-family: Roboto, sans-serif; font-size: 12px; font-weight: 200;" fill="rgb(50, 49, 63)" stroke="none" stroke-width="1px">0.65</text><text x="0" y="113.2727272727273" dx="0em" dy="0.3em" style="text-anchor: end; visibility: hidden; font-family: Roboto, sans-serif; font-size: 12px; font-weight: 200;" fill="rgb(50, 49, 63)" stroke="none" stroke-width="1px">0.7</text><text x="0" y="97.09090909090908" dx="0em" dy="0.3em" style="text-anchor: end; visibility: inherit; font-family: Roboto, sans-serif; font-size: 12px; font-weight: 200;" fill="rgb(50, 49, 63)" stroke="none" stroke-width="1px">0.75</text><text x="0" y="80.90909090909089" dx="0em" dy="0.3em" style="text-anchor: end; visibility: hidden; font-family: Roboto, sans-serif; font-size: 12px; font-weight: 200;" fill="rgb(50, 49, 63)" stroke="none" stroke-width="1px">0.8</text><text x="0" y="64.72727272727275" dx="0em" dy="0.3em" style="text-anchor: end; visibility: inherit; font-family: Roboto, sans-serif; font-size: 12px; font-weight: 200;" fill="rgb(50, 49, 63)" stroke="none" stroke-width="1px">0.85</text><text x="0" y="48.54545454545454" dx="0em" dy="0.3em" style="text-anchor: end; visibility: hidden; font-family: Roboto, sans-serif; font-size: 12px; font-weight: 200;" fill="rgb(50, 49, 63)" stroke="none" stroke-width="1px">0.9</text><text x="0" y="32.363636363636395" dx="0em" dy="0.3em" style="text-anchor: end; visibility: inherit; font-family: Roboto, sans-serif; font-size: 12px; font-weight: 200;" fill="rgb(50, 49, 63)" stroke="none" stroke-width="1px">0.95</text><text x="0" y="16.181818181818187" dx="0em" dy="0.3em" style="text-anchor: end; visibility: hidden; font-family: Roboto, sans-serif; font-size: 12px; font-weight: 200;" fill="rgb(50, 49, 63)" stroke="none" stroke-width="1px">1</text><text x="0" y="0" dx="0em" dy="0.3em" style="text-anchor: end; visibility: hidden; font-family: Roboto, sans-serif; font-size: 12px; font-weight: 200;" fill="rgb(50, 49, 63)" stroke="none" stroke-width="1px">1.05</text></g><line x1="51.5625" y1="0" x2="51.5625" y2="178" fill="rgb(0, 0, 0)" stroke="rgb(204, 204, 204)" stroke-width="1px"></line></g></g><g transform="translate(51, 0)" clip-path="url(#clip_0)"><clipPath id="clip_0"><rect width="278" height="178"></rect></clipPath><g><g><g><line x1="0" y1="0" x2="0" y2="178" fill="rgb(0, 0, 0)" stroke="rgb(60, 60, 60)" stroke-width="1px" opacity="0.25"></line><line x1="19.888392857142858" y1="0" x2="19.888392857142858" y2="178" fill="rgb(0, 0, 0)" stroke="rgb(60, 60, 60)" stroke-width="1px" opacity="0.25"></line><line x1="39.776785714285715" y1="0" x2="39.776785714285715" y2="178" fill="rgb(0, 0, 0)" stroke="rgb(60, 60, 60)" stroke-width="1px" opacity="0.25"></line><line x1="59.66517857142857" y1="0" x2="59.66517857142857" y2="178" fill="rgb(0, 0, 0)" stroke="rgb(60, 60, 60)" stroke-width="1px" opacity="0.25"></line><line x1="79.55357142857143" y1="0" x2="79.55357142857143" y2="178" fill="rgb(0, 0, 0)" stroke="rgb(60, 60, 60)" stroke-width="1px" opacity="0.25"></line><line x1="99.44196428571429" y1="0" x2="99.44196428571429" y2="178" fill="rgb(0, 0, 0)" stroke="rgb(60, 60, 60)" stroke-width="1px" opacity="0.25"></line><line x1="119.33035714285714" y1="0" x2="119.33035714285714" y2="178" fill="rgb(0, 0, 0)" stroke="rgb(60, 60, 60)" stroke-width="1px" opacity="0.25"></line><line x1="139.21875" y1="0" x2="139.21875" y2="178" fill="rgb(0, 0, 0)" stroke="rgb(60, 60, 60)" stroke-width="1px" opacity="0.25"></line><line x1="159.10714285714286" y1="0" x2="159.10714285714286" y2="178" fill="rgb(0, 0, 0)" stroke="rgb(60, 60, 60)" stroke-width="1px" opacity="0.25"></line><line x1="178.99553571428572" y1="0" x2="178.99553571428572" y2="178" fill="rgb(0, 0, 0)" stroke="rgb(60, 60, 60)" stroke-width="1px" opacity="0.25"></line><line x1="198.88392857142858" y1="0" x2="198.88392857142858" y2="178" fill="rgb(0, 0, 0)" stroke="rgb(60, 60, 60)" stroke-width="1px" opacity="0.25"></line><line x1="218.77232142857142" y1="0" x2="218.77232142857142" y2="178" fill="rgb(0, 0, 0)" stroke="rgb(60, 60, 60)" stroke-width="1px" opacity="0.25"></line><line x1="238.66071428571428" y1="0" x2="238.66071428571428" y2="178" fill="rgb(0, 0, 0)" stroke="rgb(60, 60, 60)" stroke-width="1px" opacity="0.25"></line><line x1="258.54910714285717" y1="0" x2="258.54910714285717" y2="178" fill="rgb(0, 0, 0)" stroke="rgb(60, 60, 60)" stroke-width="1px" opacity="0.25"></line><line x1="278.4375" y1="0" x2="278.4375" y2="178" fill="rgb(0, 0, 0)" stroke="rgb(60, 60, 60)" stroke-width="1px" opacity="0.25"></line></g><g><line x1="0" y1="178" x2="278.4375" y2="178" fill="rgb(0, 0, 0)" stroke="rgb(60, 60, 60)" stroke-width="1px" opacity="0.25"></line><line x1="0" y1="161.8181818181818" x2="278.4375" y2="161.8181818181818" fill="rgb(0, 0, 0)" stroke="rgb(60, 60, 60)" stroke-width="1px" opacity="0.25"></line><line x1="0" y1="145.63636363636365" x2="278.4375" y2="145.63636363636365" fill="rgb(0, 0, 0)" stroke="rgb(60, 60, 60)" stroke-width="1px" opacity="0.25"></line><line x1="0" y1="129.45454545454547" x2="278.4375" y2="129.45454545454547" fill="rgb(0, 0, 0)" stroke="rgb(60, 60, 60)" stroke-width="1px" opacity="0.25"></line><line x1="0" y1="113.2727272727273" x2="278.4375" y2="113.2727272727273" fill="rgb(0, 0, 0)" stroke="rgb(60, 60, 60)" stroke-width="1px" opacity="0.25"></line><line x1="0" y1="97.09090909090908" x2="278.4375" y2="97.09090909090908" fill="rgb(0, 0, 0)" stroke="rgb(60, 60, 60)" stroke-width="1px" opacity="0.25"></line><line x1="0" y1="80.90909090909089" x2="278.4375" y2="80.90909090909089" fill="rgb(0, 0, 0)" stroke="rgb(60, 60, 60)" stroke-width="1px" opacity="0.25"></line><line x1="0" y1="64.72727272727275" x2="278.4375" y2="64.72727272727275" fill="rgb(0, 0, 0)" stroke="rgb(60, 60, 60)" stroke-width="1px" opacity="0.25"></line><line x1="0" y1="48.54545454545454" x2="278.4375" y2="48.54545454545454" fill="rgb(0, 0, 0)" stroke="rgb(60, 60, 60)" stroke-width="1px" opacity="0.25"></line><line x1="0" y1="32.363636363636395" x2="278.4375" y2="32.363636363636395" fill="rgb(0, 0, 0)" stroke="rgb(60, 60, 60)" stroke-width="1px" opacity="0.25"></line><line x1="0" y1="16.181818181818187" x2="278.4375" y2="16.181818181818187" fill="rgb(0, 0, 0)" stroke="rgb(60, 60, 60)" stroke-width="1px" opacity="0.25"></line><line x1="0" y1="0" x2="278.4375" y2="0" fill="rgb(0, 0, 0)" stroke="rgb(60, 60, 60)" stroke-width="1px" opacity="0.25"></line></g></g></g><g><g><line x1="0" y1="339.8181818181818" x2="278.4375" y2="339.8181818181818" fill="rgb(0, 0, 0)" stroke="rgb(153, 153, 153)" stroke-width="1.5px"></line></g></g><g><g><line x1="19.888392857142858" y1="0" x2="19.888392857142858" y2="178" fill="rgb(0, 0, 0)" stroke="rgb(153, 153, 153)" stroke-width="1.5px"></line></g></g><g><g><g><g><g><path stroke="rgb(255, 112, 67)" stroke-width="2px" d="M39.776785714285715,185.86026107892138L43.754464285714285,170.02723251619295L47.732142857142854,132.34759488563074L51.70982142857143,106.61458668250052L55.6875,91.34176226553767L59.66517857142857,82.23738613571517L63.64285714285714,76.79594603569566L67.62053571428571,66.53197480483807L71.59821428571428,60.38217828845337L75.57589285714285,63.696224372737795L79.55357142857143,65.68365448447923L83.53125,66.87575365821363L87.50892857142857,64.09175150731575L91.48660714285714,62.421531183412576L95.46428571428571,64.91836918335953L99.44196428571429,62.91755967388165L103.41964285714286,58.21828659388019L107.39732142857143,55.398762331877045L111.375,57.205848017312675L115.35267857142858,58.29009394845538L119.33035714285714,62.43942263202855L123.30803571428571,64.92901531224996L127.28571428571428,62.923990011600914L131.26339285714286,61.720975619227374L135.24107142857142,60.99916726748877L139.21875,57.06731248113914L143.19642857142856,58.20696963491029L147.17410714285714,55.39199428870971L151.1517857142857,50.20423965343355L155.12946428571428,47.09158696739444L159.10714285714286,48.72276483944552L163.08482142857144,53.2002409869022L167.0625,52.38795723130938L171.04017857142858,51.900586979884L175.01785714285714,44.610625993687385L178.99553571428572,40.236649408206134L182.97321428571428,41.111032874187416L186.95089285714283,48.63320178220971L190.92857142857142,49.647733711685795L194.90625,50.25645286925895L198.88392857142858,47.12291495020294L202.86160714285714,45.24279219889442L206.83928571428572,44.114718548154315L210.81696428571428,43.437874357726486L214.79464285714286,39.53299843010613L218.77232142857142,44.18761170027045L222.75,50.479149075705905L226.72767857142858,54.254071500955504L230.70535714285717,46.02271671606652L234.68303571428572,41.08390384513868L238.66071428571428,38.12061612258387L242.63839285714286,36.34264348905178L246.61607142857142,45.77216814895771L250.59375,51.42988294490042L254.57142857142856,54.82451182246582L258.54910714285717,49.86375032232234" style="fill: none;" fill="none"></path></g><g><path stroke="rgb(187, 187, 187)" stroke-width="2px" d="M19.888392857142858,142.69420996579257L23.866071428571427,142.69420996579257L27.84375,142.69420996579257L31.82142857142857,142.69420996579262L35.79910714285714,142.69420996579262L39.776785714285715,136.5219448558661L43.754464285714285,119.68991216875769L47.732142857142854,100.32169530697264L51.70982142857143,82.96688068831374L55.6875,71.48258896070632L59.66517857142857,61.093179712269645L63.64285714285714,48.986581295556405L67.62053571428571,38.20431041957334L71.59821428571428,37.632882118092475L75.57589285714285,34.93548789437126L79.55357142857143,32.14067280455446L83.53125,30.464288442846456L87.50892857142857,28.281653815531676L91.48660714285714,26.972214915486138L95.46428571428571,27.363511771710417L99.44196428571429,26.42138881382339L103.41964285714286,24.679254394334325L107.39732142857143,24.81085609400094L111.375,24.889816448646748L115.35267857142858,24.937192421981205L119.33035714285714,26.14248602518507L123.30803571428571,28.04252045755522L127.28571428571428,28.00568076789578L131.26339285714286,26.80671043707096L135.24107142857142,26.08732852130793L139.21875,25.6556994736335L143.19642857142856,25.396722081670898L147.17410714285714,25.24133565968444L151.1517857142857,27.501828358353684L155.12946428571428,30.0349823381277L159.10714285714286,30.37801630419207L163.08482142857144,29.40697829249147L167.0625,27.647489387063473L171.04017857142858,26.591796047988005L175.01785714285714,28.312104528869643L178.99553571428572,30.521147998662336L182.97321428571428,30.66971569704611L186.95089285714283,30.75885631603061L190.92857142857142,29.63548230540945L194.90625,27.7845918011552L198.88392857142858,26.6740574987258L202.86160714285714,27.18460301524027L206.83928571428572,27.490930325136706L210.81696428571428,28.85158509287757L214.79464285714286,29.66797795351036L218.77232142857142,28.98095528808859L222.75,27.391875590950466L226.72767857142858,26.438427772670515L230.70535714285717,24.689500699910884L234.68303571428572,25.993868935933033L238.66071428571428,27.953348259337787L242.63839285714286,29.129035853380163L246.61607142857142,27.4807239301298L250.59375,25.314878394388078L254.57142857142856,24.015371072943168L258.54910714285717,23.235666680076253" style="fill: none;" fill="none"></path></g></g></g></g><g opacity="0.2"><g><g><g><path stroke="rgb(255, 112, 67)" stroke-width="2px" d="M35.79910714285714,191.12039494514465L39.776785714285715,164.8796146999706L43.754464285714285,147.38574834303424L47.732142857142854,77.41032149574976L51.70982142857143,68.6633979623968L55.6875,68.6633979623968L59.66517857142857,68.6633979623968L63.64285714285714,68.6633979623968L67.62053571428571,51.16953160546044L71.59821428571428,51.16953160546044L75.57589285714285,68.6633979623968L79.55357142857143,68.6633979623968L83.53125,68.6633979623968L87.50892857142857,59.916455138813376L91.48660714285714,59.916455138813376L95.46428571428571,68.6633979623968L99.44196428571429,59.916455138813376L103.41964285714286,51.16953160546044L107.39732142857143,51.16953160546044L111.375,59.916455138813376L115.35267857142858,59.916455138813376L119.33035714285714,68.6633979623968L123.30803571428571,68.6633979623968L127.28571428571428,59.916455138813376L131.26339285714286,59.916455138813376L135.24107142857142,59.916455138813376L139.21875,51.16953160546044L143.19642857142856,59.916455138813376L147.17410714285714,51.16953160546044L151.1517857142857,42.422608072107494L155.12946428571428,42.422608072107494L159.10714285714286,51.16953160546044L163.08482142857144,59.916455138813376L167.0625,51.16953160546044L171.04017857142858,51.16953160546044L175.01785714285714,33.67568453875456L178.99553571428572,33.67568453875456L182.97321428571428,42.422608072107494L186.95089285714283,59.916455138813376L190.92857142857142,51.16953160546044L194.90625,51.16953160546044L198.88392857142858,42.422608072107494L202.86160714285714,42.422608072107494L206.83928571428572,42.422608072107494L210.81696428571428,42.422608072107494L214.79464285714286,33.67568453875456L218.77232142857142,51.16953160546044L222.75,59.916455138813376L226.72767857142858,59.916455138813376L230.70535714285717,33.67568453875456L234.68303571428572,33.67568453875456L238.66071428571428,33.67568453875456L242.63839285714286,33.67568453875456L246.61607142857142,59.916455138813376L250.59375,59.916455138813376L254.57142857142856,59.916455138813376L258.54910714285717,42.422608072107494" style="fill: none;" fill="none"></path></g><g><path stroke="rgb(187, 187, 187)" stroke-width="2px" d="M19.888392857142858,142.69420996579257L23.866071428571427,142.69420996579257L27.84375,142.69420996579257L31.82142857142857,142.69420996579257L35.79910714285714,142.69420996579257L39.776785714285715,127.98348019339822L43.754464285714285,95.61983611366968L47.732142857142854,72.0826491876082L51.70982142857143,57.37190012498337L55.6875,54.42975417050449L59.66517857142857,45.603297016837395L63.64285714285714,30.89256724444304L67.62053571428571,22.066110090775926L71.59821428571428,36.77685915340078L75.57589285714285,30.89256724444304L79.55357142857143,27.950421289964158L83.53125,27.950421289964158L87.50892857142857,25.008256045254807L91.48660714285714,25.008256045254807L95.46428571428571,27.950421289964158L99.44196428571429,25.008256045254807L103.41964285714286,22.066110090775926L107.39732142857143,25.008256045254807L111.375,25.008256045254807L115.35267857142858,25.008256045254807L119.33035714285714,27.950421289964158L123.30803571428571,30.89256724444304L127.28571428571428,27.950421289964158L131.26339285714286,25.008256045254807L135.24107142857142,25.008256045254807L139.21875,25.008256045254807L143.19642857142856,25.008256045254807L147.17410714285714,25.008256045254807L151.1517857142857,30.89256724444304L155.12946428571428,33.8347131989219L159.10714285714286,30.89256724444304L163.08482142857144,27.950421289964158L167.0625,25.008256045254807L171.04017857142858,25.008256045254807L175.01785714285714,30.89256724444304L178.99553571428572,33.8347131989219L182.97321428571428,30.89256724444304L186.95089285714283,30.89256724444304L190.92857142857142,27.950421289964158L194.90625,25.008256045254807L198.88392857142858,25.008256045254807L202.86160714285714,27.950421289964158L206.83928571428572,27.950421289964158L210.81696428571428,30.89256724444304L214.79464285714286,30.89256724444304L218.77232142857142,27.950421289964158L222.75,25.008256045254807L226.72767857142858,25.008256045254807L230.70535714285717,22.066110090775926L234.68303571428572,27.950421289964158L238.66071428571428,30.89256724444304L242.63839285714286,30.89256724444304L246.61607142857142,25.008256045254807L250.59375,22.066110090775926L254.57142857142856,22.066110090775926L258.54910714285717,22.066110090775926" style="fill: none;" fill="none"></path></g></g></g></g></g></g><g transform="translate(51, 178)" clip-path="url(#clip_1)"><clipPath id="clip_1"><rect width="278" height="22"></rect></clipPath><g><g><line x1="0" y1="0" x2="0" y2="5" style="visibility: inherit;" fill="rgb(0, 0, 0)" stroke="rgb(204, 204, 204)" stroke-width="1px"></line><line x1="19.888392857142858" y1="0" x2="19.888392857142858" y2="5" style="visibility: inherit;" fill="rgb(0, 0, 0)" stroke="rgb(204, 204, 204)" stroke-width="1px"></line><line x1="39.776785714285715" y1="0" x2="39.776785714285715" y2="5" style="visibility: inherit;" fill="rgb(0, 0, 0)" stroke="rgb(204, 204, 204)" stroke-width="1px"></line><line x1="59.66517857142857" y1="0" x2="59.66517857142857" y2="5" style="visibility: inherit;" fill="rgb(0, 0, 0)" stroke="rgb(204, 204, 204)" stroke-width="1px"></line><line x1="79.55357142857143" y1="0" x2="79.55357142857143" y2="5" style="visibility: inherit;" fill="rgb(0, 0, 0)" stroke="rgb(204, 204, 204)" stroke-width="1px"></line><line x1="99.44196428571429" y1="0" x2="99.44196428571429" y2="5" style="visibility: inherit;" fill="rgb(0, 0, 0)" stroke="rgb(204, 204, 204)" stroke-width="1px"></line><line x1="119.33035714285714" y1="0" x2="119.33035714285714" y2="5" style="visibility: inherit;" fill="rgb(0, 0, 0)" stroke="rgb(204, 204, 204)" stroke-width="1px"></line><line x1="139.21875" y1="0" x2="139.21875" y2="5" style="visibility: inherit;" fill="rgb(0, 0, 0)" stroke="rgb(204, 204, 204)" stroke-width="1px"></line><line x1="159.10714285714286" y1="0" x2="159.10714285714286" y2="5" style="visibility: inherit;" fill="rgb(0, 0, 0)" stroke="rgb(204, 204, 204)" stroke-width="1px"></line><line x1="178.99553571428572" y1="0" x2="178.99553571428572" y2="5" style="visibility: inherit;" fill="rgb(0, 0, 0)" stroke="rgb(204, 204, 204)" stroke-width="1px"></line><line x1="198.88392857142858" y1="0" x2="198.88392857142858" y2="5" style="visibility: inherit;" fill="rgb(0, 0, 0)" stroke="rgb(204, 204, 204)" stroke-width="1px"></line><line x1="218.77232142857142" y1="0" x2="218.77232142857142" y2="5" style="visibility: inherit;" fill="rgb(0, 0, 0)" stroke="rgb(204, 204, 204)" stroke-width="1px"></line><line x1="238.66071428571428" y1="0" x2="238.66071428571428" y2="5" style="visibility: inherit;" fill="rgb(0, 0, 0)" stroke="rgb(204, 204, 204)" stroke-width="1px"></line><line x1="258.54910714285717" y1="0" x2="258.54910714285717" y2="5" style="visibility: inherit;" fill="rgb(0, 0, 0)" stroke="rgb(204, 204, 204)" stroke-width="1px"></line><line x1="278.4375" y1="0" x2="278.4375" y2="5" style="visibility: inherit;" fill="rgb(0, 0, 0)" stroke="rgb(204, 204, 204)" stroke-width="1px"></line></g><g transform="translate(0, 8)"><text x="0" y="0" dx="0em" dy="0.95em" style="text-anchor: middle; visibility: hidden; font-family: Roboto, sans-serif; font-size: 12px; font-weight: 200;" fill="rgb(50, 49, 63)" stroke="none" stroke-width="1px">-5</text><text x="19.888392857142858" y="0" dx="0em" dy="0.95em" style="text-anchor: middle; visibility: inherit; font-family: Roboto, sans-serif; font-size: 12px; font-weight: 200;" fill="rgb(50, 49, 63)" stroke="none" stroke-width="1px">0</text><text x="39.776785714285715" y="0" dx="0em" dy="0.95em" style="text-anchor: middle; visibility: inherit; font-family: Roboto, sans-serif; font-size: 12px; font-weight: 200;" fill="rgb(50, 49, 63)" stroke="none" stroke-width="1px">5</text><text x="59.66517857142857" y="0" dx="0em" dy="0.95em" style="text-anchor: middle; visibility: inherit; font-family: Roboto, sans-serif; font-size: 12px; font-weight: 200;" fill="rgb(50, 49, 63)" stroke="none" stroke-width="1px">10</text><text x="79.55357142857143" y="0" dx="0em" dy="0.95em" style="text-anchor: middle; visibility: inherit; font-family: Roboto, sans-serif; font-size: 12px; font-weight: 200;" fill="rgb(50, 49, 63)" stroke="none" stroke-width="1px">15</text><text x="99.44196428571429" y="0" dx="0em" dy="0.95em" style="text-anchor: middle; visibility: inherit; font-family: Roboto, sans-serif; font-size: 12px; font-weight: 200;" fill="rgb(50, 49, 63)" stroke="none" stroke-width="1px">20</text><text x="119.33035714285714" y="0" dx="0em" dy="0.95em" style="text-anchor: middle; visibility: inherit; font-family: Roboto, sans-serif; font-size: 12px; font-weight: 200;" fill="rgb(50, 49, 63)" stroke="none" stroke-width="1px">25</text><text x="139.21875" y="0" dx="0em" dy="0.95em" style="text-anchor: middle; visibility: inherit; font-family: Roboto, sans-serif; font-size: 12px; font-weight: 200;" fill="rgb(50, 49, 63)" stroke="none" stroke-width="1px">30</text><text x="159.10714285714286" y="0" dx="0em" dy="0.95em" style="text-anchor: middle; visibility: inherit; font-family: Roboto, sans-serif; font-size: 12px; font-weight: 200;" fill="rgb(50, 49, 63)" stroke="none" stroke-width="1px">35</text><text x="178.99553571428572" y="0" dx="0em" dy="0.95em" style="text-anchor: middle; visibility: inherit; font-family: Roboto, sans-serif; font-size: 12px; font-weight: 200;" fill="rgb(50, 49, 63)" stroke="none" stroke-width="1px">40</text><text x="198.88392857142858" y="0" dx="0em" dy="0.95em" style="text-anchor: middle; visibility: inherit; font-family: Roboto, sans-serif; font-size: 12px; font-weight: 200;" fill="rgb(50, 49, 63)" stroke="none" stroke-width="1px">45</text><text x="218.77232142857142" y="0" dx="0em" dy="0.95em" style="text-anchor: middle; visibility: inherit; font-family: Roboto, sans-serif; font-size: 12px; font-weight: 200;" fill="rgb(50, 49, 63)" stroke="none" stroke-width="1px">50</text><text x="238.66071428571428" y="0" dx="0em" dy="0.95em" style="text-anchor: middle; visibility: inherit; font-family: Roboto, sans-serif; font-size: 12px; font-weight: 200;" fill="rgb(50, 49, 63)" stroke="none" stroke-width="1px">55</text><text x="258.54910714285717" y="0" dx="0em" dy="0.95em" style="text-anchor: middle; visibility: inherit; font-family: Roboto, sans-serif; font-size: 12px; font-weight: 200;" fill="rgb(50, 49, 63)" stroke="none" stroke-width="1px">60</text><text x="278.4375" y="0" dx="0em" dy="0.95em" style="text-anchor: middle; visibility: hidden; font-family: Roboto, sans-serif; font-size: 12px; font-weight: 200;" fill="rgb(50, 49, 63)" stroke="none" stroke-width="1px">65</text></g><line x1="0" y1="0" x2="278.4375" y2="0" fill="rgb(0, 0, 0)" stroke="rgb(204, 204, 204)" stroke-width="1px"></line></g></g></g></g></svg>