<svg viewBox="0 0 330 200" xmlns="http://www.w3.org/2000/svg"><g><g><g><g><g><line x1="51.5625" y1="178" x2="46.5625" y2="178" style="visibility: inherit;" fill="rgb(0, 0, 0)" stroke="rgb(204, 204, 204)" stroke-width="1px"></line><line x1="51.5625" y1="160.2" x2="46.5625" y2="160.2" style="visibility: inherit;" fill="rgb(0, 0, 0)" stroke="rgb(204, 204, 204)" stroke-width="1px"></line><line x1="51.5625" y1="142.39999999999998" x2="46.5625" y2="142.39999999999998" style="visibility: inherit;" fill="rgb(0, 0, 0)" stroke="rgb(204, 204, 204)" stroke-width="1px"></line><line x1="51.5625" y1="124.60000000000015" x2="46.5625" y2="124.60000000000015" style="visibility: inherit;" fill="rgb(0, 0, 0)" stroke="rgb(204, 204, 204)" stroke-width="1px"></line><line x1="51.5625" y1="106.80000000000011" x2="46.5625" y2="106.80000000000011" style="visibility: inherit;" fill="rgb(0, 0, 0)" stroke="rgb(204, 204, 204)" stroke-width="1px"></line><line x1="51.5625" y1="89.0000000000001" x2="46.5625" y2="89.0000000000001" style="visibility: inherit;" fill="rgb(0, 0, 0)" stroke="rgb(204, 204, 204)" stroke-width="1px"></line><line x1="51.5625" y1="71.20000000000009" x2="46.5625" y2="71.20000000000009" style="visibility: inherit;" fill="rgb(0, 0, 0)" stroke="rgb(204, 204, 204)" stroke-width="1px"></line><line x1="51.5625" y1="53.40000000000007" x2="46.5625" y2="53.40000000000007" style="visibility: inherit;" fill="rgb(0, 0, 0)" stroke="rgb(204, 204, 204)" stroke-width="1px"></line><line x1="51.5625" y1="35.60000000000003" x2="46.5625" y2="35.60000000000003" style="visibility: inherit;" fill="rgb(0, 0, 0)" stroke="rgb(204, 204, 204)" stroke-width="1px"></line><line x1="51.5625" y1="17.800000000000015" x2="46.5625" y2="17.800000000000015" style="visibility: inherit;" fill="rgb(0, 0, 0)" stroke="rgb(204, 204, 204)" stroke-width="1px"></line><line x1="51.5625" y1="0" x2="46.5625" y2="0" style="visibility: inherit;" fill="rgb(0, 0, 0)" stroke="rgb(204, 204, 204)" stroke-width="1px"></line></g><g transform="translate(41.5625, 0)"><text x="0" y="178" dx="0em" dy="0.3em" style="text-anchor: end; visibility: hidden; font-family: Roboto, sans-serif; font-size: 12px; font-weight: 200;" fill="rgb(50, 49, 63)" stroke="none" stroke-width="1px">0.91</text><text x="0" y="160.2" dx="0em" dy="0.3em" style="text-anchor: end; visibility: inherit; font-family: Roboto, sans-serif; font-size: 12px; font-weight: 200;" fill="rgb(50, 49, 63)" stroke="none" stroke-width="1px">0.92</text><text x="0" y="142.39999999999998" dx="0em" dy="0.3em" style="text-anchor: end; visibility: hidden; font-family: Roboto, sans-serif; font-size: 12px; font-weight: 200;" fill="rgb(50, 49, 63)" stroke="none" stroke-width="1px">0.93</text><text x="0" y="124.60000000000015" dx="0em" dy="0.3em" style="text-anchor: end; visibility: inherit; font-family: Roboto, sans-serif; font-size: 12px; font-weight: 200;" fill="rgb(50, 49, 63)" stroke="none" stroke-width="1px">0.94</text><text x="0" y="106.80000000000011" dx="0em" dy="0.3em" style="text-anchor: end; visibility: hidden; font-family: Roboto, sans-serif; font-size: 12px; font-weight: 200;" fill="rgb(50, 49, 63)" stroke="none" stroke-width="1px">0.95</text><text x="0" y="89.0000000000001" dx="0em" dy="0.3em" style="text-anchor: end; visibility: inherit; font-family: Roboto, sans-serif; font-size: 12px; font-weight: 200;" fill="rgb(50, 49, 63)" stroke="none" stroke-width="1px">0.96</text><text x="0" y="71.20000000000009" dx="0em" dy="0.3em" style="text-anchor: end; visibility: hidden; font-family: Roboto, sans-serif; font-size: 12px; font-weight: 200;" fill="rgb(50, 49, 63)" stroke="none" stroke-width="1px">0.97</text><text x="0" y="53.40000000000007" dx="0em" dy="0.3em" style="text-anchor: end; visibility: inherit; font-family: Roboto, sans-serif; font-size: 12px; font-weight: 200;" fill="rgb(50, 49, 63)" stroke="none" stroke-width="1px">0.98</text><text x="0" y="35.60000000000003" dx="0em" dy="0.3em" style="text-anchor: end; visibility: hidden; font-family: Roboto, sans-serif; font-size: 12px; font-weight: 200;" fill="rgb(50, 49, 63)" stroke="none" stroke-width="1px">0.99</text><text x="0" y="17.800000000000015" dx="0em" dy="0.3em" style="text-anchor: end; visibility: inherit; font-family: Roboto, sans-serif; font-size: 12px; font-weight: 200;" fill="rgb(50, 49, 63)" stroke="none" stroke-width="1px">1</text><text x="0" y="0" dx="0em" dy="0.3em" style="text-anchor: end; visibility: hidden; font-family: Roboto, sans-serif; font-size: 12px; font-weight: 200;" fill="rgb(50, 49, 63)" stroke="none" stroke-width="1px">1.01</text></g><line x1="51.5625" y1="0" x2="51.5625" y2="178" fill="rgb(0, 0, 0)" stroke="rgb(204, 204, 204)" stroke-width="1px"></line></g></g><g transform="translate(51, 0)" clip-path="url(#clip_0)"><clipPath id="clip_0"><rect width="278" height="178"></rect></clipPath><g><g><g><line x1="0" y1="0" x2="0" y2="178" fill="rgb(0, 0, 0)" stroke="rgb(60, 60, 60)" stroke-width="1px" opacity="0.25"></line><line x1="39.776785714285715" y1="0" x2="39.776785714285715" y2="178" fill="rgb(0, 0, 0)" stroke="rgb(60, 60, 60)" stroke-width="1px" opacity="0.25"></line><line x1="79.55357142857143" y1="0" x2="79.55357142857143" y2="178" fill="rgb(0, 0, 0)" stroke="rgb(60, 60, 60)" stroke-width="1px" opacity="0.25"></line><line x1="119.33035714285714" y1="0" x2="119.33035714285714" y2="178" fill="rgb(0, 0, 0)" stroke="rgb(60, 60, 60)" stroke-width="1px" opacity="0.25"></line><line x1="159.10714285714286" y1="0" x2="159.10714285714286" y2="178" fill="rgb(0, 0, 0)" stroke="rgb(60, 60, 60)" stroke-width="1px" opacity="0.25"></line><line x1="198.88392857142858" y1="0" x2="198.88392857142858" y2="178" fill="rgb(0, 0, 0)" stroke="rgb(60, 60, 60)" stroke-width="1px" opacity="0.25"></line><line x1="238.66071428571428" y1="0" x2="238.66071428571428" y2="178" fill="rgb(0, 0, 0)" stroke="rgb(60, 60, 60)" stroke-width="1px" opacity="0.25"></line><line x1="278.4375" y1="0" x2="278.4375" y2="178" fill="rgb(0, 0, 0)" stroke="rgb(60, 60, 60)" stroke-width="1px" opacity="0.25"></line></g><g><line x1="0" y1="178" x2="278.4375" y2="178" fill="rgb(0, 0, 0)" stroke="rgb(60, 60, 60)" stroke-width="1px" opacity="0.25"></line><line x1="0" y1="160.2" x2="278.4375" y2="160.2" fill="rgb(0, 0, 0)" stroke="rgb(60, 60, 60)" stroke-width="1px" opacity="0.25"></line><line x1="0" y1="142.39999999999998" x2="278.4375" y2="142.39999999999998" fill="rgb(0, 0, 0)" stroke="rgb(60, 60, 60)" stroke-width="1px" opacity="0.25"></line><line x1="0" y1="124.60000000000015" x2="278.4375" y2="124.60000000000015" fill="rgb(0, 0, 0)" stroke="rgb(60, 60, 60)" stroke-width="1px" opacity="0.25"></line><line x1="0" y1="106.80000000000011" x2="278.4375" y2="106.80000000000011" fill="rgb(0, 0, 0)" stroke="rgb(60, 60, 60)" stroke-width="1px" opacity="0.25"></line><line x1="0" y1="89.0000000000001" x2="278.4375" y2="89.0000000000001" fill="rgb(0, 0, 0)" stroke="rgb(60, 60, 60)" stroke-width="1px" opacity="0.25"></line><line x1="0" y1="71.20000000000009" x2="278.4375" y2="71.20000000000009" fill="rgb(0, 0, 0)" stroke="rgb(60, 60, 60)" stroke-width="1px" opacity="0.25"></line><line x1="0" y1="53.40000000000007" x2="278.4375" y2="53.40000000000007" fill="rgb(0, 0, 0)" stroke="rgb(60, 60, 60)" stroke-width="1px" opacity="0.25"></line><line x1="0" y1="35.60000000000003" x2="278.4375" y2="35.60000000000003" fill="rgb(0, 0, 0)" stroke="rgb(60, 60, 60)" stroke-width="1px" opacity="0.25"></line><line x1="0" y1="17.800000000000015" x2="278.4375" y2="17.800000000000015" fill="rgb(0, 0, 0)" stroke="rgb(60, 60, 60)" stroke-width="1px" opacity="0.25"></line><line x1="0" y1="0" x2="278.4375" y2="0" fill="rgb(0, 0, 0)" stroke="rgb(60, 60, 60)" stroke-width="1px" opacity="0.25"></line></g></g></g><g><g><line x1="0" y1="1797.8000000000006" x2="278.4375" y2="1797.8000000000006" fill="rgb(0, 0, 0)" stroke="rgb(153, 153, 153)" stroke-width="1.5px"></line></g></g><g><g><line x1="39.776785714285715" y1="0" x2="39.776785714285715" y2="178" fill="rgb(0, 0, 0)" stroke="rgb(153, 153, 153)" stroke-width="1.5px"></line></g></g><g><g><g><g><g><path stroke="rgb(0, 153, 136)" stroke-width="2px" d="M39.776785714285715,63.44102292060855L40.57232142857143,63.44102292060855L41.36785714285715,63.44102292060836L42.16339285714286,63.44102292060855L42.95892857142857,63.44102292060855L43.754464285714285,63.44102292060855L44.550000000000004,63.44102292060855L45.34553571428572,63.44102292060875L46.14107142857142,63.44102292060875L46.93660714285714,63.44102292060855L47.732142857142854,81.76390697276774L48.527678571428574,74.4187645756785L49.32321428571428,88.30220982492278L50.11875,96.62066291767226L50.91428571428571,83.34256375599726L51.70982142857143,75.37970101074363L52.50535714285714,70.6034213100905L53.300892857142856,67.7381709595963L54.09642857142857,66.01920699725802L54.89196428571429,64.98789566022171L55.6875,64.36913299061032L56.48303571428571,63.99788407616804L57.278571428571425,63.77513785485009L58.074107142857144,63.641491247884986L58.86964285714286,63.56130368899859L59.66517857142857,63.51319129957171L60.46071428571428,63.4843239184408L61.25625,63.46700350867165L62.051785714285714,63.45661126961722L62.847321428571426,63.45037592863532L63.64285714285714,63.44663472492851L64.43839285714286,63.4443900030218L65.23392857142858,63.443043169992194L66.02946428571428,63.44223507021574L66.825,63.4417502103646L67.62053571428571,63.44145929445938L68.41607142857143,63.44128474491779L69.21160714285715,63.44118001519366L70.00714285714287,63.44111717735958L70.80267857142857,63.441079474659126L71.59821428571428,63.44105685303898L72.39375,63.44104328006673L73.18928571428572,63.44103513628346L73.98482142857144,63.4410302500135L74.78035714285714,63.441027318251564L75.57589285714285,63.44102555919436L76.37142857142858,63.44102450375992L77.16696428571429,63.44102387049926L77.9625,63.441023490542975L78.75803571428571,63.44102326256909L79.55357142857143,63.44102312578484L80.34910714285715,63.44102304371437L81.14464285714286,63.44102299447188L81.94017857142856,63.44102296492675L82.7357142857143,63.44102294719947L83.53125,63.44102293656299L84.32678571428572,63.441022930181255L85.12232142857142,63.441022926352176L85.91785714285714,63.44102292405485L86.71339285714286,63.441022922676254L87.50892857142857,63.44102292184921L88.30446428571427,63.44102292135299L89.10000000000001,63.44102292105518L89.89553571428571,63.44102292087653L90.69107142857143,63.44102292076942L91.48660714285714,63.441022920704995L92.28214285714284,63.441022920666455L93.07767857142858,63.441022920643334L93.87321428571428,63.44102292062951L94.66875,63.44102292062101L95.46428571428571,63.441022920616064L96.25982142857143,63.4410229206131L97.05535714285715,63.441022920611125L97.85089285714285,63.44102292061014L98.64642857142856,63.44102292060954L99.44196428571429,63.44102292060915L100.2375,63.44102292060895L101.03303571428572,63.44102292060875L101.82857142857142,63.44102292060875L102.62410714285714,63.44102292060875L103.41964285714286,63.44102292060875L104.21517857142857,63.44102292060875L105.01071428571429,63.44102292060875L105.80625,63.44102292060875L106.60178571428571,63.44102292060875L107.39732142857143,63.44102292060875L108.19285714285714,63.44102292060875L108.98839285714286,63.44102292060875L109.78392857142858,63.44102292060875L110.57946428571428,63.44102292060875L111.375,63.44102292060875L112.17053571428572,63.44102292060875L112.96607142857142,63.44102292060875L113.76160714285714,63.44102292060875L114.55714285714285,63.44102292060875L115.35267857142858,63.44102292060875L116.14821428571429,63.44102292060875L116.94375,63.44102292060875L117.73928571428571,63.44102292060875L118.53482142857143,63.44102292060875L119.33035714285714,63.44102292060875L120.12589285714286,63.44102292060875L120.92142857142856,63.44102292060875L121.7169642857143,63.44102292060875L122.5125,63.44102292060875L123.30803571428571,63.44102292060875L124.10357142857143,63.44102292060875L124.89910714285715,63.44102292060875L125.69464285714285,63.44102292060875L126.49017857142857,63.44102292060875L127.28571428571428,63.44102292060875L128.08125,63.44102292060875L128.87678571428572,63.44102292060875L129.67232142857142,63.44102292060875L130.46785714285716,63.44102292060875L131.26339285714286,63.44102292060875L132.05892857142857,63.44102292060875L132.8544642857143,63.44102292060875L133.65,63.44102292060875L134.4455357142857,63.44102292060875L135.24107142857142,63.44102292060875L136.03660714285712,63.44102292060875L136.83214285714286,63.44102292060875L137.62767857142856,63.44102292060875L138.4232142857143,63.44102292060875L139.21875,63.44102292060875L140.01428571428573,63.44102292060875L140.8098214285714,63.44102292060875L141.60535714285714,63.44102292060875L142.40089285714288,63.44102292060875L143.19642857142856,63.44102292060875L143.9919642857143,63.44102292060875L144.7875,63.44102292060875L145.58303571428573,63.44102292060875L146.37857142857143,63.44102292060875L147.17410714285714,63.44102292060875L147.96964285714287,63.44102292060875L148.76517857142855,63.44102292060875L149.56071428571428,63.44102292060875L150.35625000000002,63.44102292060875L151.1517857142857,63.44102292060875L151.94732142857143,63.44102292060875L152.74285714285716,63.44102292060875L153.53839285714284,63.44102292060875L154.33392857142857,63.44102292060875L155.12946428571428,63.44102292060875L155.925,63.44102292060875L156.72053571428572,63.44102292060875L157.51607142857142,63.44102292060875L158.31160714285716,63.44102292060875L159.10714285714286,63.44102292060875L159.90267857142857,63.44102292060875L160.6982142857143,63.44102292060875L161.49374999999998,63.44102292060875L162.2892857142857,63.44102292060875L163.08482142857144,63.44102292060875L163.88035714285712,63.44102292060875L164.67589285714286,63.44102292060875L165.4714285714286,63.44102292060875L166.2669642857143,63.44102292060875L167.0625,63.44102292060875L167.8580357142857,63.44102292060875L168.65357142857144,63.44102292060875L169.44910714285714,63.44102292060875L170.24464285714285,63.44102292060875L171.04017857142858,63.44102292060875L171.8357142857143,63.44102292060875L172.63125,63.44102292060875L173.42678571428573,63.44102292060875L174.2223214285714,63.44102292060875L175.01785714285714,63.44102292060875L175.81339285714287,63.44102292060875L176.60892857142855,63.44102292060875L177.40446428571428,63.44102292060875L178.20000000000002,63.44102292060875L178.99553571428572,63.44102292060875L179.79107142857143,63.44102292060875L180.58660714285713,63.44102292060875L181.38214285714287,63.44102292060875L182.17767857142857,63.44102292060875L182.97321428571428,63.44102292060875L183.76875,63.44102292060875L184.5642857142857,63.44102292060875L185.35982142857142,63.44102292060875L186.15535714285716,63.44102292060875L186.95089285714283,63.44102292060875L187.74642857142857,63.44102292060875L188.5419642857143,63.44102292060875L189.3375,63.44102292060875L190.1330357142857,63.44102292060875L190.92857142857142,63.44102292060875L191.72410714285715,63.44102292060875L192.51964285714286,63.44102292060875L193.31517857142856,63.44102292060875L194.1107142857143,63.44102292060875L194.90625,63.44102292060875L195.7017857142857,45.184613752365344L196.49732142857144,52.48717741966267L197.29285714285712,56.868715620041066L198.08839285714285,59.49763854026806L198.88392857142858,61.07499229240418L199.6794642857143,62.02140454368601L200.475,62.58925189445495L201.27053571428573,62.92996030491635L202.06607142857143,63.13438535119323L202.86160714285714,63.25704037895928L203.65714285714284,63.33063339561891L204.45267857142858,63.37478920561485L205.24821428571428,63.401282691612295L206.04375,63.417178783210716L206.83928571428572,63.42671643816981L207.63482142857143,63.432439031145314L208.43035714285713,63.435872586930685L209.22589285714287,63.437932720401875L210.02142857142857,63.43916880048462L210.81696428571428,63.439910448534235L211.6125,63.44035543736405L212.40803571428572,63.440622430661925L213.20357142857142,63.440782626640576L213.99910714285716,63.44087874422769L214.79464285714286,45.18452724653655L215.59017857142857,34.230716347922005L216.38571428571427,45.9148389769966L217.18125,52.9253125544413L217.9767857142857,57.13159670090828L218.77232142857142,59.65536718878831L219.56785714285715,61.16962948151645L220.36339285714288,62.07818685715329L221.15892857142856,62.6233212825354L221.9544642857143,62.950401937764624L222.75,63.14665033090212L223.5455357142857,63.26439936678477L224.34107142857144,63.33504878831428L225.13660714285714,63.37743844123192L225.93214285714285,45.14646306473908L226.72767857142858,52.464287007086796L227.5232142857143,56.8549813724955L228.31875,59.48939799174068L229.1142857142857,42.81363879504436L229.90982142857143,32.808183277026544L230.70535714285717,26.804909966216012L231.50089285714284,23.202945979729574L232.29642857142858,39.29817675608108L233.0919642857143,48.955315221892164L233.8875,54.74959830137876L234.68303571428572,58.22616814907064L235.47857142857143,60.312110057685764L236.27410714285713,61.563675202854924L237.06964285714287,44.05820512171291L237.86517857142857,33.55492307302771L238.66071428571428,45.509363012059985L239.45624999999998,52.682026975479374L240.25178571428572,56.985625353531006L241.04732142857145,41.311375212118676L241.84285714285713,31.90682512727125L242.63839285714286,26.264095076362835L243.4339285714286,22.878457045817708L244.22946428571427,39.103483395734L245.025,48.838499205683874L245.8205357142857,54.67950869165379L246.61607142857142,39.927705214992265L247.41160714285715,31.076623128995326L248.20714285714286,25.765973877397283L249.00267857142856,22.579584326438336L249.7982142857143,20.66775059586297L250.59375,37.77705952576112L251.3892857142857,48.04264488370003L252.1848214285714,54.20199609846336L252.98035714285714,57.897606827321475L253.77589285714288,41.85856409639288L254.57142857142856,32.23513845783573L255.3669642857143,26.461083074701367L256.1625,22.996649844820865L256.9580357142857,20.917989906892487L257.75357142857143,37.927203112378905L258.54910714285717,29.876321867427272L259.34464285714284,25.04579312045629L260.1401785714286,22.14747587227374L260.9357142857143,20.40848552336429L261.73125,19.365091314018542L262.5267857142857,18.739054788411092L263.32232142857146,18.363432873046662L264.11785714285713,18.138059723827922L264.91339285714287,36.25924500254025L265.7089285714286,28.875547001524115L266.5044642857143,24.445328200914474L267.3,21.787196920548613L268.0955357142857,20.192318152329175L268.8910714285714,19.23539089139755L269.68660714285716,36.91764370308202L270.48214285714283,47.52699539009273L271.27767857142857,53.89260640229906" style="fill: none;" fill="none"></path></g><g><path stroke="rgb(238, 51, 119)" stroke-width="2px" d="M40.57232142857143,220.95221831202494L41.36785714285715,172.58263891473095L42.16339285714286,158.35629800347732L42.95892857142857,144.38663487450938L43.754464285714285,136.73408042147628L44.550000000000004,132.37763267456958L45.34553571428572,129.843147056108L46.14107142857142,134.6043183068709L46.93660714285714,131.20115040653212L47.732142857142854,129.17246731873294L48.527678571428574,127.95997814355226L49.32321428571428,127.23417601551184L50.11875,126.79930190117406L50.91428571428571,126.53859563786564L51.70982142857143,126.38225035332778L52.50535714285714,126.28847141568683L53.300892857142856,132.42415442585L54.09642857142857,136.10516539823607L54.89196428571429,132.12209068875097L55.6875,129.73233906671888L56.48303571428571,128.29852164521347L57.278571428571425,133.62960352503006L58.074107142857144,136.82822570804683L58.86964285714286,138.74738931780246L59.66517857142857,133.7075620709889L60.46071428571428,136.87498892116122L61.25625,138.77544295649182L62.051785714285714,133.7244009901374L62.847321428571426,130.69377700142186L63.64285714285714,135.06671521763582L64.43839285714286,137.69047777613503L65.23392857142858,139.26473517759203L66.02946428571428,140.20928957035497L66.825,140.77602218869268L67.62053571428571,141.1160617534603L68.41607142857143,141.32008549007588L69.21160714285715,141.4424997312371L70.00714285714287,141.515948275643L70.80267857142857,141.56001740218187L71.59821428571428,141.58645887806762L72.39375,141.60232376358533L73.18928571428572,141.611842694891L73.98482142857144,141.6175540536726L74.78035714285714,141.62098086894096L75.57589285714285,141.6230369581021L76.37142857142858,141.62427061159835L77.16696428571429,141.62501080369609L77.9625,141.62545491895494L78.75803571428571,141.62572138811004L79.55357142857143,141.6258812696032L80.34910714285715,141.6259771984991L81.14464285714286,141.62603475583643L81.94017857142856,141.62606929023897L82.7357142857143,141.62609001088055L83.53125,141.6261024432652L84.32678571428572,141.6261099026964L85.12232142857142,141.62611437835494L85.91785714285714,141.62611706375012L86.71339285714286,141.6261186749874L87.50892857142857,141.62611964172953L88.30446428571427,141.62612022177495L89.10000000000001,141.62612056980223L89.89553571428571,141.62612077861846L90.69107142857143,141.62612090390815L91.48660714285714,141.6261209790819L92.28214285714284,141.6261210241864L93.07767857142858,141.62612105124884L93.87321428571428,141.62612106748648L94.66875,141.62612107722893L95.46428571428571,141.6261210830745L96.25982142857143,141.62612108658186L97.05535714285715,141.62612108868612L97.85089285714285,141.62612108994892L98.64642857142856,141.6261210907064L99.44196428571429,141.6261210911609L100.2375,141.62612109143365L101.03303571428572,141.62612109159727L101.82857142857142,135.43480973229L102.62410714285714,131.72002291670566L103.41964285714286,135.68246218676043L104.21517857142857,138.0599257487933L105.01071428571429,139.48640388601305L105.80625,140.34229076834487L106.60178571428571,140.85582289774402L107.39732142857143,134.97263081597802L108.19285714285714,131.44271556691828L108.98839285714286,129.3247664174827L109.78392857142858,134.24530828722683L110.57946428571428,137.1976334090733L111.375,138.96902848218113L112.17053571428572,140.0318655260459L112.96607142857142,140.66956775236469L113.76160714285714,141.052189088156L114.55714285714285,141.28176188963073L115.35267857142858,141.41950557051553L116.14821428571429,135.31084041964067L116.94375,137.83695268852162L117.73928571428571,139.35262004985006L118.53482142857143,140.26202046664707L119.33035714285714,140.80766071672528L120.12589285714286,141.1350448667723L120.92142857142856,141.3314753568004L121.7169642857143,141.44933365081732L122.5125,135.328737267822L123.30803571428571,137.84769079743023L124.10357142857143,139.35906291519524L124.89910714285715,140.2658861858543L125.69464285714285,140.8099801482497L126.49017857142857,141.13643652568697L127.28571428571428,135.1409989927436L128.08125,131.5437364729777L128.87678571428572,135.5766903205238L129.67232142857142,137.99646262905145L130.46785714285716,139.44832601416792L131.26339285714286,140.31944404523787L132.05892857142857,140.8421148638799L132.8544642857143,141.15571735506504L133.65,141.3438788497762L134.4455357142857,141.45677574660286L135.24107142857142,141.52451388469882L136.03660714285712,141.5651567675564L136.83214285714286,141.58954249727097L137.62767857142856,135.41286257569402L138.4232142857143,131.7068546227479L139.21875,135.67456121038578L140.01428571428573,138.05518516296868L140.8098214285714,139.48355953451824L141.60535714285714,140.34058415744815L142.40089285714288,140.8547989312061L143.19642857142856,134.97201643605501L143.9919642857143,131.44234693896442L144.7875,129.32454524071036L145.58303571428573,128.05386422175772L146.37857142857143,127.29145561038635L147.17410714285714,133.02532180296896L147.96964285714287,136.4656415185185L148.76517857142855,132.33852198844255L149.56071428571428,136.0535616298026L150.35625000000002,138.28258541461864L151.1517857142857,133.42868832610276L151.94732142857143,124.3250387135877L152.74285714285716,118.86284894607874L153.53839285714284,121.77684644497873L154.33392857142857,129.71655630372427L155.12946428571428,134.48038221897173L155.925,131.14736640871456L156.72053571428572,122.95624556315478L157.51607142857142,118.04157305581907L158.31160714285716,121.28408091082309L159.10714285714286,129.42089698323093L159.90267857142857,134.30298662667573L160.6982142857143,131.04092905333692L161.49374999999998,129.08369450933355L162.2892857142857,121.71804242352626L163.08482142857144,117.29865117204196L163.88035714285712,114.64701642115115L164.67589285714286,119.24734693002225L165.4714285714286,122.00754523534499L166.2669642857143,123.6636642185384L167.0625,118.46602424904925L167.8580357142857,121.53875162676111L168.65357142857144,123.3823880533884L169.44910714285714,124.48856990936451L170.24464285714285,125.1522790229502L171.04017857142858,125.55050449110152L171.8357142857143,125.78943977199263L172.63125,125.93280094052707L173.42678571428573,126.01881764164764L174.2223214285714,126.07042766232016L175.01785714285714,126.10139367472381L175.81339285714287,126.11997328216577L176.60892857142855,119.93980968722568L177.40446428571428,116.2317115302613L178.20000000000002,114.00685263608267L178.99553571428572,112.67193729957549L179.79107142857143,111.87098809767141L180.58660714285713,111.39041857652906L181.38214285714287,117.293388223249L182.17767857142857,120.83517001128112L182.97321428571428,116.76892772469488L183.76875,114.32918235274282L184.5642857142857,112.86533512957158L185.35982142857142,118.17833815507467L186.15535714285716,115.17482861097093L186.95089285714283,113.3727228845086L187.74642857142857,112.29145944863129L188.5419642857143,111.64270138710467L189.3375,111.25344655018884L190.1330357142857,111.01989364803926L190.92857142857142,110.87976190674951L191.72410714285715,116.98699422138144L192.51964285714286,120.65133361016044L193.31517857142856,116.6586258840223L194.1107142857143,114.2630012483395L194.90625,112.82562646692959L195.7017857142857,111.96320159808397L196.49732142857144,111.44574667677651L197.29285714285712,117.3265850833973L198.08839285714285,120.85508812737011L198.88392857142858,116.78087859434804L199.6794642857143,114.33635287453471L200.475,112.86963744264695L201.27053571428573,111.98960818351438L202.06607142857143,111.46159062803483L202.86160714285714,117.33609145415247L203.65714285714284,120.86079194982312L204.45267857142858,116.78430088782L205.24821428571428,114.3384062506179L206.04375,112.87086946829677L206.83928571428572,111.99034739890404L207.63482142857143,111.46203415726848L208.43035714285713,117.33635757169273L209.22589285714287,120.8609516203472L210.02142857142857,116.78439669013453L210.81696428571428,114.3384637320066L211.6125,112.87090395713001L212.40803571428572,111.99036809220414L213.20357142857142,117.6533579326542L213.99910714285716,114.85984047751865L214.79464285714286,106.9924186450317L215.59017857142857,108.46327690494513L216.38571428571427,109.34579186089296L217.18125,109.8753008344619L217.9767857142857,116.38431757800872L218.77232142857142,114.09841626473127L219.56785714285715,112.72687547676482L220.36339285714288,111.90395100398493L221.15892857142856,111.41019632031717L221.9544642857143,111.11394351011648L222.75,110.93619182399577L223.5455357142857,110.8295408123235L224.34107142857144,110.7655502053203L225.13660714285714,110.7271558411183L225.93214285714285,110.70411922259717L226.72767857142858,110.69029725148451L227.5232142857143,110.68200406881658L228.31875,110.67702815921591L229.1142857142857,110.67404261345567L229.90982142857143,104.48093992659396L230.70535714285717,106.95638967388254L231.50089285714284,102.25034816284992L232.29642857142858,99.42672325623036L233.0919642857143,110.11517103106961L233.8875,110.33692833656765L234.68303571428572,110.46998271986655L235.47857142857143,110.54981534984597L236.27410714285713,110.59771492783347L237.06964285714287,110.62645467462612L237.86517857142857,104.45238716329608L238.66071428571428,106.93925801590389L239.45624999999998,108.4313805274682L240.25178571428572,109.32665403440689L241.04732142857145,109.8638181385701L241.84285714285713,103.99480524166258L242.63839285714286,106.6647088629235L243.4339285714286,108.26665103567998L244.22946428571427,109.22781633933418L245.025,109.80451552152655L245.8205357142857,116.34184639024767L246.61607142857142,120.26424491148025L247.41160714285715,116.42637266481435L248.20714285714286,114.12364931681466L249.00267857142856,112.74201530801493L249.7982142857143,111.91303490273508L250.59375,117.60695801897278L251.3892857142857,127.2146232481207L252.1848214285714,126.78791102620411L252.98035714285714,120.34057233364851L253.77589285714288,116.47216911811523L254.57142857142856,107.95981582938957L255.3669642857143,109.04371521555963L256.1625,103.50274348785629L256.9580357142857,100.17816045123418L257.75357142857143,98.18341062926095L258.54910714285717,103.1778720954825L259.34464285714284,106.17454897521537L260.1401785714286,107.97255510305511L260.9357142857143,109.0513587797591L261.73125,115.88995234518688L262.5267857142857,113.80179712503809L263.32232142857146,112.54890399294898L264.11785714285713,111.79716811369536L264.91339285714287,111.34612658614326L265.7089285714286,111.07550166961191L266.5044642857143,110.91312671969311L267.3,110.81570174974198L268.0955357142857,110.75724676777139L268.8910714285714,110.7221737785888L269.68660714285716,104.50981862567376L270.48214285714283,106.97371689333025L271.27767857142857,108.45205585392428" style="fill: none;" fill="none"></path></g></g></g></g><g opacity="0.2"><g><g><g><path stroke="rgb(0, 153, 136)" stroke-width="2px" d="M39.776785714285715,63.44102292060855L40.57232142857143,63.44102292060855L41.36785714285715,63.44102292060855L42.16339285714286,63.44102292060855L42.95892857142857,63.44102292060855L43.754464285714285,63.44102292060855L44.550000000000004,63.44102292060855L45.34553571428572,63.44102292060855L46.14107142857142,63.44102292060855L46.93660714285714,63.44102292060855L47.732142857142854,109.08204584121708L48.527678571428574,63.44102292060855L49.32321428571428,109.08204584121708L50.11875,109.08204584121708L50.91428571428571,63.44102292060855L51.70982142857143,63.44102292060855L52.50535714285714,63.44102292060855L53.300892857142856,63.44102292060855L54.09642857142857,63.44102292060855L54.89196428571429,63.44102292060855L55.6875,63.44102292060855L56.48303571428571,63.44102292060855L57.278571428571425,63.44102292060855L58.074107142857144,63.44102292060855L58.86964285714286,63.44102292060855L59.66517857142857,63.44102292060855L60.46071428571428,63.44102292060855L61.25625,63.44102292060855L62.051785714285714,63.44102292060855L62.847321428571426,63.44102292060855L63.64285714285714,63.44102292060855L64.43839285714286,63.44102292060855L65.23392857142858,63.44102292060855L66.02946428571428,63.44102292060855L66.825,63.44102292060855L67.62053571428571,63.44102292060855L68.41607142857143,63.44102292060855L69.21160714285715,63.44102292060855L70.00714285714287,63.44102292060855L70.80267857142857,63.44102292060855L71.59821428571428,63.44102292060855L72.39375,63.44102292060855L73.18928571428572,63.44102292060855L73.98482142857144,63.44102292060855L74.78035714285714,63.44102292060855L75.57589285714285,63.44102292060855L76.37142857142858,63.44102292060855L77.16696428571429,63.44102292060855L77.9625,63.44102292060855L78.75803571428571,63.44102292060855L79.55357142857143,63.44102292060855L80.34910714285715,63.44102292060855L81.14464285714286,63.44102292060855L81.94017857142856,63.44102292060855L82.7357142857143,63.44102292060855L83.53125,63.44102292060855L84.32678571428572,63.44102292060855L85.12232142857142,63.44102292060855L85.91785714285714,63.44102292060855L86.71339285714286,63.44102292060855L87.50892857142857,63.44102292060855L88.30446428571427,63.44102292060855L89.10000000000001,63.44102292060855L89.89553571428571,63.44102292060855L90.69107142857143,63.44102292060855L91.48660714285714,63.44102292060855L92.28214285714284,63.44102292060855L93.07767857142858,63.44102292060855L93.87321428571428,63.44102292060855L94.66875,63.44102292060855L95.46428571428571,63.44102292060855L96.25982142857143,63.44102292060855L97.05535714285715,63.44102292060855L97.85089285714285,63.44102292060855L98.64642857142856,63.44102292060855L99.44196428571429,63.44102292060855L100.2375,63.44102292060855L101.03303571428572,63.44102292060855L101.82857142857142,63.44102292060855L102.62410714285714,63.44102292060855L103.41964285714286,63.44102292060855L104.21517857142857,63.44102292060855L105.01071428571429,63.44102292060855L105.80625,63.44102292060855L106.60178571428571,63.44102292060855L107.39732142857143,63.44102292060855L108.19285714285714,63.44102292060855L108.98839285714286,63.44102292060855L109.78392857142858,63.44102292060855L110.57946428571428,63.44102292060855L111.375,63.44102292060855L112.17053571428572,63.44102292060855L112.96607142857142,63.44102292060855L113.76160714285714,63.44102292060855L114.55714285714285,63.44102292060855L115.35267857142858,63.44102292060855L116.14821428571429,63.44102292060855L116.94375,63.44102292060855L117.73928571428571,63.44102292060855L118.53482142857143,63.44102292060855L119.33035714285714,63.44102292060855L120.12589285714286,63.44102292060855L120.92142857142856,63.44102292060855L121.7169642857143,63.44102292060855L122.5125,63.44102292060855L123.30803571428571,63.44102292060855L124.10357142857143,63.44102292060855L124.89910714285715,63.44102292060855L125.69464285714285,63.44102292060855L126.49017857142857,63.44102292060855L127.28571428571428,63.44102292060855L128.08125,63.44102292060855L128.87678571428572,63.44102292060855L129.67232142857142,63.44102292060855L130.46785714285716,63.44102292060855L131.26339285714286,63.44102292060855L132.05892857142857,63.44102292060855L132.8544642857143,63.44102292060855L133.65,63.44102292060855L134.4455357142857,63.44102292060855L135.24107142857142,63.44102292060855L136.03660714285712,63.44102292060855L136.83214285714286,63.44102292060855L137.62767857142856,63.44102292060855L138.4232142857143,63.44102292060855L139.21875,63.44102292060855L140.01428571428573,63.44102292060855L140.8098214285714,63.44102292060855L141.60535714285714,63.44102292060855L142.40089285714288,63.44102292060855L143.19642857142856,63.44102292060855L143.9919642857143,63.44102292060855L144.7875,63.44102292060855L145.58303571428573,63.44102292060855L146.37857142857143,63.44102292060855L147.17410714285714,63.44102292060855L147.96964285714287,63.44102292060855L148.76517857142855,63.44102292060855L149.56071428571428,63.44102292060855L150.35625000000002,63.44102292060855L151.1517857142857,63.44102292060855L151.94732142857143,63.44102292060855L152.74285714285716,63.44102292060855L153.53839285714284,63.44102292060855L154.33392857142857,63.44102292060855L155.12946428571428,63.44102292060855L155.925,63.44102292060855L156.72053571428572,63.44102292060855L157.51607142857142,63.44102292060855L158.31160714285716,63.44102292060855L159.10714285714286,63.44102292060855L159.90267857142857,63.44102292060855L160.6982142857143,63.44102292060855L161.49374999999998,63.44102292060855L162.2892857142857,63.44102292060855L163.08482142857144,63.44102292060855L163.88035714285712,63.44102292060855L164.67589285714286,63.44102292060855L165.4714285714286,63.44102292060855L166.2669642857143,63.44102292060855L167.0625,63.44102292060855L167.8580357142857,63.44102292060855L168.65357142857144,63.44102292060855L169.44910714285714,63.44102292060855L170.24464285714285,63.44102292060855L171.04017857142858,63.44102292060855L171.8357142857143,63.44102292060855L172.63125,63.44102292060855L173.42678571428573,63.44102292060855L174.2223214285714,63.44102292060855L175.01785714285714,63.44102292060855L175.81339285714287,63.44102292060855L176.60892857142855,63.44102292060855L177.40446428571428,63.44102292060855L178.20000000000002,63.44102292060855L178.99553571428572,63.44102292060855L179.79107142857143,63.44102292060855L180.58660714285713,63.44102292060855L181.38214285714287,63.44102292060855L182.17767857142857,63.44102292060855L182.97321428571428,63.44102292060855L183.76875,63.44102292060855L184.5642857142857,63.44102292060855L185.35982142857142,63.44102292060855L186.15535714285716,63.44102292060855L186.95089285714283,63.44102292060855L187.74642857142857,63.44102292060855L188.5419642857143,63.44102292060855L189.3375,63.44102292060855L190.1330357142857,63.44102292060855L190.92857142857142,63.44102292060855L191.72410714285715,63.44102292060855L192.51964285714286,63.44102292060855L193.31517857142856,63.44102292060855L194.1107142857143,63.44102292060855L194.90625,63.44102292060855L195.7017857142857,17.800000000000015L196.49732142857144,63.44102292060855L197.29285714285712,63.44102292060855L198.08839285714285,63.44102292060855L198.88392857142858,63.44102292060855L199.6794642857143,63.44102292060855L200.475,63.44102292060855L201.27053571428573,63.44102292060855L202.06607142857143,63.44102292060855L202.86160714285714,63.44102292060855L203.65714285714284,63.44102292060855L204.45267857142858,63.44102292060855L205.24821428571428,63.44102292060855L206.04375,63.44102292060855L206.83928571428572,63.44102292060855L207.63482142857143,63.44102292060855L208.43035714285713,63.44102292060855L209.22589285714287,63.44102292060855L210.02142857142857,63.44102292060855L210.81696428571428,63.44102292060855L211.6125,63.44102292060855L212.40803571428572,63.44102292060855L213.20357142857142,63.44102292060855L213.99910714285716,63.44102292060855L214.79464285714286,17.800000000000015L215.59017857142857,17.800000000000015L216.38571428571427,63.44102292060855L217.18125,63.44102292060855L217.9767857142857,63.44102292060855L218.77232142857142,63.44102292060855L219.56785714285715,63.44102292060855L220.36339285714288,63.44102292060855L221.15892857142856,63.44102292060855L221.9544642857143,63.44102292060855L222.75,63.44102292060855L223.5455357142857,63.44102292060855L224.34107142857144,63.44102292060855L225.13660714285714,63.44102292060855L225.93214285714285,17.800000000000015L226.72767857142858,63.44102292060855L227.5232142857143,63.44102292060855L228.31875,63.44102292060855L229.1142857142857,17.800000000000015L229.90982142857143,17.800000000000015L230.70535714285717,17.800000000000015L231.50089285714284,17.800000000000015L232.29642857142858,63.44102292060855L233.0919642857143,63.44102292060855L233.8875,63.44102292060855L234.68303571428572,63.44102292060855L235.47857142857143,63.44102292060855L236.27410714285713,63.44102292060855L237.06964285714287,17.800000000000015L237.86517857142857,17.800000000000015L238.66071428571428,63.44102292060855L239.45624999999998,63.44102292060855L240.25178571428572,63.44102292060855L241.04732142857145,17.800000000000015L241.84285714285713,17.800000000000015L242.63839285714286,17.800000000000015L243.4339285714286,17.800000000000015L244.22946428571427,63.44102292060855L245.025,63.44102292060855L245.8205357142857,63.44102292060855L246.61607142857142,17.800000000000015L247.41160714285715,17.800000000000015L248.20714285714286,17.800000000000015L249.00267857142856,17.800000000000015L249.7982142857143,17.800000000000015L250.59375,63.44102292060855L251.3892857142857,63.44102292060855L252.1848214285714,63.44102292060855L252.98035714285714,63.44102292060855L253.77589285714288,17.800000000000015L254.57142857142856,17.800000000000015L255.3669642857143,17.800000000000015L256.1625,17.800000000000015L256.9580357142857,17.800000000000015L257.75357142857143,63.44102292060855L258.54910714285717,17.800000000000015L259.34464285714284,17.800000000000015L260.1401785714286,17.800000000000015L260.9357142857143,17.800000000000015L261.73125,17.800000000000015L262.5267857142857,17.800000000000015L263.32232142857146,17.800000000000015L264.11785714285713,17.800000000000015L264.91339285714287,63.44102292060855L265.7089285714286,17.800000000000015L266.5044642857143,17.800000000000015L267.3,17.800000000000015L268.0955357142857,17.800000000000015L268.8910714285714,17.800000000000015L269.68660714285716,63.44102292060855L270.48214285714283,63.44102292060855L271.27767857142857,63.44102292060855" style="fill: none;" fill="none"></path></g><g><path stroke="rgb(238, 51, 119)" stroke-width="2px" d="M39.776785714285715,327.36524968147285L40.57232142857143,157.1043994903565L41.36785714285715,126.14784269332891L42.16339285714286,141.62612109184272L42.95892857142857,126.14784269332891L43.754464285714285,126.14784269332891L44.550000000000004,126.14784269332891L45.34553571428572,126.14784269332891L46.14107142857142,141.62612109184272L46.93660714285714,126.14784269332891L47.732142857142854,126.14784269332891L48.527678571428574,126.14784269332891L49.32321428571428,126.14784269332891L50.11875,126.14784269332891L50.91428571428571,126.14784269332891L51.70982142857143,126.14784269332891L52.50535714285714,126.14784269332891L53.300892857142856,141.62612109184272L54.09642857142857,141.62612109184272L54.89196428571429,126.14784269332891L55.6875,126.14784269332891L56.48303571428571,126.14784269332891L57.278571428571425,141.62612109184272L58.074107142857144,141.62612109184272L58.86964285714286,141.62612109184272L59.66517857142857,126.14784269332891L60.46071428571428,141.62612109184272L61.25625,141.62612109184272L62.051785714285714,126.14784269332891L62.847321428571426,126.14784269332891L63.64285714285714,141.62612109184272L64.43839285714286,141.62612109184272L65.23392857142858,141.62612109184272L66.02946428571428,141.62612109184272L66.825,141.62612109184272L67.62053571428571,141.62612109184272L68.41607142857143,141.62612109184272L69.21160714285715,141.62612109184272L70.00714285714287,141.62612109184272L70.80267857142857,141.62612109184272L71.59821428571428,141.62612109184272L72.39375,141.62612109184272L73.18928571428572,141.62612109184272L73.98482142857144,141.62612109184272L74.78035714285714,141.62612109184272L75.57589285714285,141.62612109184272L76.37142857142858,141.62612109184272L77.16696428571429,141.62612109184272L77.9625,141.62612109184272L78.75803571428571,141.62612109184272L79.55357142857143,141.62612109184272L80.34910714285715,141.62612109184272L81.14464285714286,141.62612109184272L81.94017857142856,141.62612109184272L82.7357142857143,141.62612109184272L83.53125,141.62612109184272L84.32678571428572,141.62612109184272L85.12232142857142,141.62612109184272L85.91785714285714,141.62612109184272L86.71339285714286,141.62612109184272L87.50892857142857,141.62612109184272L88.30446428571427,141.62612109184272L89.10000000000001,141.62612109184272L89.89553571428571,141.62612109184272L90.69107142857143,141.62612109184272L91.48660714285714,141.62612109184272L92.28214285714284,141.62612109184272L93.07767857142858,141.62612109184272L93.87321428571428,141.62612109184272L94.66875,141.62612109184272L95.46428571428571,141.62612109184272L96.25982142857143,141.62612109184272L97.05535714285715,141.62612109184272L97.85089285714285,141.62612109184272L98.64642857142856,141.62612109184272L99.44196428571429,141.62612109184272L100.2375,141.62612109184272L101.03303571428572,141.62612109184272L101.82857142857142,126.14784269332891L102.62410714285714,126.14784269332891L103.41964285714286,141.62612109184272L104.21517857142857,141.62612109184272L105.01071428571429,141.62612109184272L105.80625,141.62612109184272L106.60178571428571,141.62612109184272L107.39732142857143,126.14784269332891L108.19285714285714,126.14784269332891L108.98839285714286,126.14784269332891L109.78392857142858,141.62612109184272L110.57946428571428,141.62612109184272L111.375,141.62612109184272L112.17053571428572,141.62612109184272L112.96607142857142,141.62612109184272L113.76160714285714,141.62612109184272L114.55714285714285,141.62612109184272L115.35267857142858,141.62612109184272L116.14821428571429,126.14784269332891L116.94375,141.62612109184272L117.73928571428571,141.62612109184272L118.53482142857143,141.62612109184272L119.33035714285714,141.62612109184272L120.12589285714286,141.62612109184272L120.92142857142856,141.62612109184272L121.7169642857143,141.62612109184272L122.5125,126.14784269332891L123.30803571428571,141.62612109184272L124.10357142857143,141.62612109184272L124.89910714285715,141.62612109184272L125.69464285714285,141.62612109184272L126.49017857142857,141.62612109184272L127.28571428571428,126.14784269332891L128.08125,126.14784269332891L128.87678571428572,141.62612109184272L129.67232142857142,141.62612109184272L130.46785714285716,141.62612109184272L131.26339285714286,141.62612109184272L132.05892857142857,141.62612109184272L132.8544642857143,141.62612109184272L133.65,141.62612109184272L134.4455357142857,141.62612109184272L135.24107142857142,141.62612109184272L136.03660714285712,141.62612109184272L136.83214285714286,141.62612109184272L137.62767857142856,126.14784269332891L138.4232142857143,126.14784269332891L139.21875,141.62612109184272L140.01428571428573,141.62612109184272L140.8098214285714,141.62612109184272L141.60535714285714,141.62612109184272L142.40089285714288,141.62612109184272L143.19642857142856,126.14784269332891L143.9919642857143,126.14784269332891L144.7875,126.14784269332891L145.58303571428573,126.14784269332891L146.37857142857143,126.14784269332891L147.17410714285714,141.62612109184272L147.96964285714287,141.62612109184272L148.76517857142855,126.14784269332891L149.56071428571428,141.62612109184272L150.35625000000002,141.62612109184272L151.1517857142857,126.14784269332891L151.94732142857143,110.6695642948151L152.74285714285716,110.6695642948151L153.53839285714284,126.14784269332891L154.33392857142857,141.62612109184272L155.12946428571428,141.62612109184272L155.925,126.14784269332891L156.72053571428572,110.6695642948151L157.51607142857142,110.6695642948151L158.31160714285716,126.14784269332891L159.10714285714286,141.62612109184272L159.90267857142857,141.62612109184272L160.6982142857143,126.14784269332891L161.49374999999998,126.14784269332891L162.2892857142857,110.6695642948151L163.08482142857144,110.6695642948151L163.88035714285712,110.6695642948151L164.67589285714286,126.14784269332891L165.4714285714286,126.14784269332891L166.2669642857143,126.14784269332891L167.0625,110.6695642948151L167.8580357142857,126.14784269332891L168.65357142857144,126.14784269332891L169.44910714285714,126.14784269332891L170.24464285714285,126.14784269332891L171.04017857142858,126.14784269332891L171.8357142857143,126.14784269332891L172.63125,126.14784269332891L173.42678571428573,126.14784269332891L174.2223214285714,126.14784269332891L175.01785714285714,126.14784269332891L175.81339285714287,126.14784269332891L176.60892857142855,110.6695642948151L177.40446428571428,110.6695642948151L178.20000000000002,110.6695642948151L178.99553571428572,110.6695642948151L179.79107142857143,110.6695642948151L180.58660714285713,110.6695642948151L181.38214285714287,126.14784269332891L182.17767857142857,126.14784269332891L182.97321428571428,110.6695642948151L183.76875,110.6695642948151L184.5642857142857,110.6695642948151L185.35982142857142,126.14784269332891L186.15535714285716,110.6695642948151L186.95089285714283,110.6695642948151L187.74642857142857,110.6695642948151L188.5419642857143,110.6695642948151L189.3375,110.6695642948151L190.1330357142857,110.6695642948151L190.92857142857142,110.6695642948151L191.72410714285715,126.14784269332891L192.51964285714286,126.14784269332891L193.31517857142856,110.6695642948151L194.1107142857143,110.6695642948151L194.90625,110.6695642948151L195.7017857142857,110.6695642948151L196.49732142857144,110.6695642948151L197.29285714285712,126.14784269332891L198.08839285714285,126.14784269332891L198.88392857142858,110.6695642948151L199.6794642857143,110.6695642948151L200.475,110.6695642948151L201.27053571428573,110.6695642948151L202.06607142857143,110.6695642948151L202.86160714285714,126.14784269332891L203.65714285714284,126.14784269332891L204.45267857142858,110.6695642948151L205.24821428571428,110.6695642948151L206.04375,110.6695642948151L206.83928571428572,110.6695642948151L207.63482142857143,110.6695642948151L208.43035714285713,126.14784269332891L209.22589285714287,126.14784269332891L210.02142857142857,110.6695642948151L210.81696428571428,110.6695642948151L211.6125,110.6695642948151L212.40803571428572,110.6695642948151L213.20357142857142,126.14784269332891L213.99910714285716,110.6695642948151L214.79464285714286,95.19128589630131L215.59017857142857,110.6695642948151L216.38571428571427,110.6695642948151L217.18125,110.6695642948151L217.9767857142857,126.14784269332891L218.77232142857142,110.6695642948151L219.56785714285715,110.6695642948151L220.36339285714288,110.6695642948151L221.15892857142856,110.6695642948151L221.9544642857143,110.6695642948151L222.75,110.6695642948151L223.5455357142857,110.6695642948151L224.34107142857144,110.6695642948151L225.13660714285714,110.6695642948151L225.93214285714285,110.6695642948151L226.72767857142858,110.6695642948151L227.5232142857143,110.6695642948151L228.31875,110.6695642948151L229.1142857142857,110.6695642948151L229.90982142857143,95.19128589630131L230.70535714285717,110.6695642948151L231.50089285714284,95.19128589630131L232.29642857142858,95.19128589630131L233.0919642857143,126.14784269332891L233.8875,110.6695642948151L234.68303571428572,110.6695642948151L235.47857142857143,110.6695642948151L236.27410714285713,110.6695642948151L237.06964285714287,110.6695642948151L237.86517857142857,95.19128589630131L238.66071428571428,110.6695642948151L239.45624999999998,110.6695642948151L240.25178571428572,110.6695642948151L241.04732142857145,110.6695642948151L241.84285714285713,95.19128589630131L242.63839285714286,110.6695642948151L243.4339285714286,110.6695642948151L244.22946428571427,110.6695642948151L245.025,110.6695642948151L245.8205357142857,126.14784269332891L246.61607142857142,126.14784269332891L247.41160714285715,110.6695642948151L248.20714285714286,110.6695642948151L249.00267857142856,110.6695642948151L249.7982142857143,110.6695642948151L250.59375,126.14784269332891L251.3892857142857,141.62612109184272L252.1848214285714,126.14784269332891L252.98035714285714,110.6695642948151L253.77589285714288,110.6695642948151L254.57142857142856,95.19128589630131L255.3669642857143,110.6695642948151L256.1625,95.19128589630131L256.9580357142857,95.19128589630131L257.75357142857143,95.19128589630131L258.54910714285717,110.6695642948151L259.34464285714284,110.6695642948151L260.1401785714286,110.6695642948151L260.9357142857143,110.6695642948151L261.73125,126.14784269332891L262.5267857142857,110.6695642948151L263.32232142857146,110.6695642948151L264.11785714285713,110.6695642948151L264.91339285714287,110.6695642948151L265.7089285714286,110.6695642948151L266.5044642857143,110.6695642948151L267.3,110.6695642948151L268.0955357142857,110.6695642948151L268.8910714285714,110.6695642948151L269.68660714285716,95.19128589630131L270.48214285714283,110.6695642948151L271.27767857142857,110.6695642948151" style="fill: none;" fill="none"></path></g></g></g></g></g></g><g transform="translate(51, 178)" clip-path="url(#clip_1)"><clipPath id="clip_1"><rect width="278" height="22"></rect></clipPath><g><g><line x1="0" y1="0" x2="0" y2="5" style="visibility: inherit;" fill="rgb(0, 0, 0)" stroke="rgb(204, 204, 204)" stroke-width="1px"></line><line x1="39.776785714285715" y1="0" x2="39.776785714285715" y2="5" style="visibility: inherit;" fill="rgb(0, 0, 0)" stroke="rgb(204, 204, 204)" stroke-width="1px"></line><line x1="79.55357142857143" y1="0" x2="79.55357142857143" y2="5" style="visibility: inherit;" fill="rgb(0, 0, 0)" stroke="rgb(204, 204, 204)" stroke-width="1px"></line><line x1="119.33035714285714" y1="0" x2="119.33035714285714" y2="5" style="visibility: inherit;" fill="rgb(0, 0, 0)" stroke="rgb(204, 204, 204)" stroke-width="1px"></line><line x1="159.10714285714286" y1="0" x2="159.10714285714286" y2="5" style="visibility: inherit;" fill="rgb(0, 0, 0)" stroke="rgb(204, 204, 204)" stroke-width="1px"></line><line x1="198.88392857142858" y1="0" x2="198.88392857142858" y2="5" style="visibility: inherit;" fill="rgb(0, 0, 0)" stroke="rgb(204, 204, 204)" stroke-width="1px"></line><line x1="238.66071428571428" y1="0" x2="238.66071428571428" y2="5" style="visibility: inherit;" fill="rgb(0, 0, 0)" stroke="rgb(204, 204, 204)" stroke-width="1px"></line><line x1="278.4375" y1="0" x2="278.4375" y2="5" style="visibility: inherit;" fill="rgb(0, 0, 0)" stroke="rgb(204, 204, 204)" stroke-width="1px"></line></g><g transform="translate(0, 8)"><text x="0" y="0" dx="0em" dy="0.95em" style="text-anchor: middle; visibility: hidden; font-family: Roboto, sans-serif; font-size: 12px; font-weight: 200;" fill="rgb(50, 49, 63)" stroke="none" stroke-width="1px">-50</text><text x="39.776785714285715" y="0" dx="0em" dy="0.95em" style="text-anchor: middle; visibility: inherit; font-family: Roboto, sans-serif; font-size: 12px; font-weight: 200;" fill="rgb(50, 49, 63)" stroke="none" stroke-width="1px">0</text><text x="79.55357142857143" y="0" dx="0em" dy="0.95em" style="text-anchor: middle; visibility: inherit; font-family: Roboto, sans-serif; font-size: 12px; font-weight: 200;" fill="rgb(50, 49, 63)" stroke="none" stroke-width="1px">50</text><text x="119.33035714285714" y="0" dx="0em" dy="0.95em" style="text-anchor: middle; visibility: inherit; font-family: Roboto, sans-serif; font-size: 12px; font-weight: 200;" fill="rgb(50, 49, 63)" stroke="none" stroke-width="1px">100</text><text x="159.10714285714286" y="0" dx="0em" dy="0.95em" style="text-anchor: middle; visibility: inherit; font-family: Roboto, sans-serif; font-size: 12px; font-weight: 200;" fill="rgb(50, 49, 63)" stroke="none" stroke-width="1px">150</text><text x="198.88392857142858" y="0" dx="0em" dy="0.95em" style="text-anchor: middle; visibility: inherit; font-family: Roboto, sans-serif; font-size: 12px; font-weight: 200;" fill="rgb(50, 49, 63)" stroke="none" stroke-width="1px">200</text><text x="238.66071428571428" y="0" dx="0em" dy="0.95em" style="text-anchor: middle; visibility: inherit; font-family: Roboto, sans-serif; font-size: 12px; font-weight: 200;" fill="rgb(50, 49, 63)" stroke="none" stroke-width="1px">250</text><text x="278.4375" y="0" dx="0em" dy="0.95em" style="text-anchor: middle; visibility: hidden; font-family: Roboto, sans-serif; font-size: 12px; font-weight: 200;" fill="rgb(50, 49, 63)" stroke="none" stroke-width="1px">300</text></g><line x1="0" y1="0" x2="278.4375" y2="0" fill="rgb(0, 0, 0)" stroke="rgb(204, 204, 204)" stroke-width="1px"></line></g></g></g></g></svg>