<svg xmlns="http://www.w3.org/2000/svg" width="1920" height="891" style="cursor: move;"><g transform="translate(-1229.8366130976428,-564.8741691199695) scale(2.2973967099940733)"><path class="link" marker-end="" d="M825,295.5, 921,330" style="stroke-width: 0.71; stroke-opacity: 0.42; stroke: rgb(80, 80, 80);"></path><path class="link" marker-end="" d="M825,295.5, 921,354" style="stroke-width: 0.71; stroke-opacity: 0.42; stroke: rgb(80, 80, 80);"></path><path class="link" marker-end="" d="M825,314.5, 921,330" style="stroke-width: 0.71; stroke-opacity: 0.42; stroke: rgb(80, 80, 80);"></path><path class="link" marker-end="" d="M825,314.5, 921,354" style="stroke-width: 0.71; stroke-opacity: 0.42; stroke: rgb(80, 80, 80);"></path><path class="link" marker-end="" d="M825,333.5, 921,330" style="stroke-width: 0.71; stroke-opacity: 0.42; stroke: rgb(80, 80, 80);"></path><path class="link" marker-end="" d="M825,333.5, 921,354" style="stroke-width: 0.71; stroke-opacity: 0.42; stroke: rgb(80, 80, 80);"></path><path class="link" marker-end="" d="M825,352.5, 921,330" style="stroke-width: 0.71; stroke-opacity: 0.42; stroke: rgb(80, 80, 80);"></path><path class="link" marker-end="" d="M825,352.5, 921,354" style="stroke-width: 0.71; stroke-opacity: 0.42; stroke: rgb(80, 80, 80);"></path><path class="link" marker-end="" d="M825,371.5, 921,330" style="stroke-width: 0.71; stroke-opacity: 0.42; stroke: rgb(80, 80, 80);"></path><path class="link" marker-end="" d="M825,371.5, 921,354" style="stroke-width: 0.71; stroke-opacity: 0.42; stroke: rgb(80, 80, 80);"></path><path class="link" marker-end="" d="M825,390.5, 921,330" style="stroke-width: 0.71; stroke-opacity: 0.42; stroke: rgb(80, 80, 80);"></path><path class="link" marker-end="" d="M825,390.5, 921,354" style="stroke-width: 0.71; stroke-opacity: 0.42; stroke: rgb(80, 80, 80);"></path><path class="link" marker-end="" d="M825,409.5, 921,330" style="stroke-width: 0.71; stroke-opacity: 0.42; stroke: rgb(80, 80, 80);"></path><path class="link" marker-end="" d="M825,409.5, 921,354" style="stroke-width: 0.71; stroke-opacity: 0.42; stroke: rgb(80, 80, 80);"></path><path class="link" marker-end="" d="M825,428.5, 921,330" style="stroke-width: 0.71; stroke-opacity: 0.42; stroke: rgb(80, 80, 80);"></path><path class="link" marker-end="" d="M825,428.5, 921,354" style="stroke-width: 0.71; stroke-opacity: 0.42; stroke: rgb(80, 80, 80);"></path><path class="link" marker-end="" d="M825,447.5, 921,330" style="stroke-width: 0.71; stroke-opacity: 0.42; stroke: rgb(80, 80, 80);"></path><path class="link" marker-end="" d="M825,447.5, 921,354" style="stroke-width: 0.71; stroke-opacity: 0.42; stroke: rgb(80, 80, 80);"></path><path class="link" marker-end="" d="M825,466.5, 921,330" style="stroke-width: 0.71; stroke-opacity: 0.42; stroke: rgb(80, 80, 80);"></path><path class="link" marker-end="" d="M825,466.5, 921,354" style="stroke-width: 0.71; stroke-opacity: 0.42; stroke: rgb(80, 80, 80);"></path><path class="link" marker-end="" d="M921,330, 1017,380.5" style="stroke-width: 0.71; stroke-opacity: 0.42; stroke: rgb(80, 80, 80);"></path><path class="link" marker-end="" d="M921,330, 1017,403.5" style="stroke-width: 0.71; stroke-opacity: 0.42; stroke: rgb(80, 80, 80);"></path><path class="link" marker-end="" d="M921,330, 1017,426.5" style="stroke-width: 0.71; stroke-opacity: 0.42; stroke: rgb(80, 80, 80);"></path><path class="link" marker-end="" d="M921,330, 1017,449.5" style="stroke-width: 0.71; stroke-opacity: 0.42; stroke: rgb(80, 80, 80);"></path><path class="link" marker-end="" d="M921,330, 1017,472.5" style="stroke-width: 0.71; stroke-opacity: 0.42; stroke: rgb(80, 80, 80);"></path><path class="link" marker-end="" d="M921,354, 1017,380.5" style="stroke-width: 0.71; stroke-opacity: 0.42; stroke: rgb(80, 80, 80);"></path><path class="link" marker-end="" d="M921,354, 1017,403.5" style="stroke-width: 0.71; stroke-opacity: 0.42; stroke: rgb(80, 80, 80);"></path><path class="link" marker-end="" d="M921,354, 1017,426.5" style="stroke-width: 0.71; stroke-opacity: 0.42; stroke: rgb(80, 80, 80);"></path><path class="link" marker-end="" d="M921,354, 1017,449.5" style="stroke-width: 0.71; stroke-opacity: 0.42; stroke: rgb(80, 80, 80);"></path><path class="link" marker-end="" d="M921,354, 1017,472.5" style="stroke-width: 0.71; stroke-opacity: 0.42; stroke: rgb(80, 80, 80);"></path><path class="link" marker-end="" d="M825,295.5, 921,378" style="stroke-width: 0.71; stroke-opacity: 0.42; stroke: rgb(80, 80, 80);"></path><path class="link" marker-end="" d="M825,314.5, 921,378" style="stroke-width: 0.71; stroke-opacity: 0.42; stroke: rgb(80, 80, 80);"></path><path class="link" marker-end="" d="M825,333.5, 921,378" style="stroke-width: 0.71; stroke-opacity: 0.42; stroke: rgb(80, 80, 80);"></path><path class="link" marker-end="" d="M825,352.5, 921,378" style="stroke-width: 0.71; stroke-opacity: 0.42; stroke: rgb(80, 80, 80);"></path><path class="link" marker-end="" d="M825,371.5, 921,378" style="stroke-width: 0.71; stroke-opacity: 0.42; stroke: rgb(80, 80, 80);"></path><path class="link" marker-end="" d="M825,390.5, 921,378" style="stroke-width: 0.71; stroke-opacity: 0.42; stroke: rgb(80, 80, 80);"></path><path class="link" marker-end="" d="M825,409.5, 921,378" style="stroke-width: 0.71; stroke-opacity: 0.42; stroke: rgb(80, 80, 80);"></path><path class="link" marker-end="" d="M825,428.5, 921,378" style="stroke-width: 0.71; stroke-opacity: 0.42; stroke: rgb(80, 80, 80);"></path><path class="link" marker-end="" d="M825,447.5, 921,378" style="stroke-width: 0.71; stroke-opacity: 0.42; stroke: rgb(80, 80, 80);"></path><path class="link" marker-end="" d="M825,466.5, 921,378" style="stroke-width: 0.71; stroke-opacity: 0.42; stroke: rgb(80, 80, 80);"></path><path class="link" marker-end="" d="M921,378, 1017,380.5" style="stroke-width: 0.71; stroke-opacity: 0.42; stroke: rgb(80, 80, 80);"></path><path class="link" marker-end="" d="M921,378, 1017,403.5" style="stroke-width: 0.71; stroke-opacity: 0.42; stroke: rgb(80, 80, 80);"></path><path class="link" marker-end="" d="M921,378, 1017,426.5" style="stroke-width: 0.71; stroke-opacity: 0.42; stroke: rgb(80, 80, 80);"></path><path class="link" marker-end="" d="M921,378, 1017,449.5" style="stroke-width: 0.71; stroke-opacity: 0.42; stroke: rgb(80, 80, 80);"></path><path class="link" marker-end="" d="M921,378, 1017,472.5" style="stroke-width: 0.71; stroke-opacity: 0.42; stroke: rgb(80, 80, 80);"></path><path class="link" marker-end="" d="M825,295.5, 921,402" style="stroke-width: 0.71; stroke-opacity: 0.42; stroke: rgb(80, 80, 80);"></path><path class="link" marker-end="" d="M825,314.5, 921,402" style="stroke-width: 0.71; stroke-opacity: 0.42; stroke: rgb(80, 80, 80);"></path><path class="link" marker-end="" d="M825,333.5, 921,402" style="stroke-width: 0.71; stroke-opacity: 0.42; stroke: rgb(80, 80, 80);"></path><path class="link" marker-end="" d="M825,352.5, 921,402" style="stroke-width: 0.71; stroke-opacity: 0.42; stroke: rgb(80, 80, 80);"></path><path class="link" marker-end="" d="M825,371.5, 921,402" style="stroke-width: 0.71; stroke-opacity: 0.42; stroke: rgb(80, 80, 80);"></path><path class="link" marker-end="" d="M825,390.5, 921,402" style="stroke-width: 0.71; stroke-opacity: 0.42; stroke: rgb(80, 80, 80);"></path><path class="link" marker-end="" d="M825,409.5, 921,402" style="stroke-width: 0.71; stroke-opacity: 0.42; stroke: rgb(80, 80, 80);"></path><path class="link" marker-end="" d="M825,428.5, 921,402" style="stroke-width: 0.71; stroke-opacity: 0.42; stroke: rgb(80, 80, 80);"></path><path class="link" marker-end="" d="M825,447.5, 921,402" style="stroke-width: 0.71; stroke-opacity: 0.42; stroke: rgb(80, 80, 80);"></path><path class="link" marker-end="" d="M825,466.5, 921,402" style="stroke-width: 0.71; stroke-opacity: 0.42; stroke: rgb(80, 80, 80);"></path><path class="link" marker-end="" d="M921,402, 1017,380.5" style="stroke-width: 0.71; stroke-opacity: 0.42; stroke: rgb(80, 80, 80);"></path><path class="link" marker-end="" d="M921,402, 1017,403.5" style="stroke-width: 0.71; stroke-opacity: 0.42; stroke: rgb(80, 80, 80);"></path><path class="link" marker-end="" d="M921,402, 1017,426.5" style="stroke-width: 0.71; stroke-opacity: 0.42; stroke: rgb(80, 80, 80);"></path><path class="link" marker-end="" d="M921,402, 1017,449.5" style="stroke-width: 0.71; stroke-opacity: 0.42; stroke: rgb(80, 80, 80);"></path><path class="link" marker-end="" d="M921,402, 1017,472.5" style="stroke-width: 0.71; stroke-opacity: 0.42; stroke: rgb(80, 80, 80);"></path><path class="link" marker-end="" d="M825,295.5, 921,426" style="stroke-width: 0.71; stroke-opacity: 0.42; stroke: rgb(80, 80, 80);"></path><path class="link" marker-end="" d="M825,314.5, 921,426" style="stroke-width: 0.71; stroke-opacity: 0.42; stroke: rgb(80, 80, 80);"></path><path class="link" marker-end="" d="M825,333.5, 921,426" style="stroke-width: 0.71; stroke-opacity: 0.42; stroke: rgb(80, 80, 80);"></path><path class="link" marker-end="" d="M825,352.5, 921,426" style="stroke-width: 0.71; stroke-opacity: 0.42; stroke: rgb(80, 80, 80);"></path><path class="link" marker-end="" d="M825,371.5, 921,426" style="stroke-width: 0.71; stroke-opacity: 0.42; stroke: rgb(80, 80, 80);"></path><path class="link" marker-end="" d="M825,390.5, 921,426" style="stroke-width: 0.71; stroke-opacity: 0.42; stroke: rgb(80, 80, 80);"></path><path class="link" marker-end="" d="M825,409.5, 921,426" style="stroke-width: 0.71; stroke-opacity: 0.42; stroke: rgb(80, 80, 80);"></path><path class="link" marker-end="" d="M825,428.5, 921,426" style="stroke-width: 0.71; stroke-opacity: 0.42; stroke: rgb(80, 80, 80);"></path><path class="link" marker-end="" d="M825,447.5, 921,426" style="stroke-width: 0.71; stroke-opacity: 0.42; stroke: rgb(80, 80, 80);"></path><path class="link" marker-end="" d="M825,466.5, 921,426" style="stroke-width: 0.71; stroke-opacity: 0.42; stroke: rgb(80, 80, 80);"></path><path class="link" marker-end="" d="M921,426, 1017,380.5" style="stroke-width: 0.71; stroke-opacity: 0.42; stroke: rgb(80, 80, 80);"></path><path class="link" marker-end="" d="M921,426, 1017,403.5" style="stroke-width: 0.71; stroke-opacity: 0.42; stroke: rgb(80, 80, 80);"></path><path class="link" marker-end="" d="M921,426, 1017,426.5" style="stroke-width: 0.71; stroke-opacity: 0.42; stroke: rgb(80, 80, 80);"></path><path class="link" marker-end="" d="M921,426, 1017,449.5" style="stroke-width: 0.71; stroke-opacity: 0.42; stroke: rgb(80, 80, 80);"></path><path class="link" marker-end="" d="M921,426, 1017,472.5" style="stroke-width: 0.71; stroke-opacity: 0.42; stroke: rgb(80, 80, 80);"></path><path class="link" marker-end="" d="M825,295.5, 921,450" style="stroke-width: 0.71; stroke-opacity: 0.42; stroke: rgb(80, 80, 80);"></path><path class="link" marker-end="" d="M825,314.5, 921,450" style="stroke-width: 0.71; stroke-opacity: 0.42; stroke: rgb(80, 80, 80);"></path><path class="link" marker-end="" d="M825,333.5, 921,450" style="stroke-width: 0.71; stroke-opacity: 0.42; stroke: rgb(80, 80, 80);"></path><path class="link" marker-end="" d="M825,352.5, 921,450" style="stroke-width: 0.71; stroke-opacity: 0.42; stroke: rgb(80, 80, 80);"></path><path class="link" marker-end="" d="M825,371.5, 921,450" style="stroke-width: 0.71; stroke-opacity: 0.42; stroke: rgb(80, 80, 80);"></path><path class="link" marker-end="" d="M825,390.5, 921,450" style="stroke-width: 0.71; stroke-opacity: 0.42; stroke: rgb(80, 80, 80);"></path><path class="link" marker-end="" d="M825,409.5, 921,450" style="stroke-width: 0.71; stroke-opacity: 0.42; stroke: rgb(80, 80, 80);"></path><path class="link" marker-end="" d="M825,428.5, 921,450" style="stroke-width: 0.71; stroke-opacity: 0.42; stroke: rgb(80, 80, 80);"></path><path class="link" marker-end="" d="M825,447.5, 921,450" style="stroke-width: 0.71; stroke-opacity: 0.42; stroke: rgb(80, 80, 80);"></path><path class="link" marker-end="" d="M825,466.5, 921,450" style="stroke-width: 0.71; stroke-opacity: 0.42; stroke: rgb(80, 80, 80);"></path><path class="link" marker-end="" d="M921,450, 1017,380.5" style="stroke-width: 0.71; stroke-opacity: 0.42; stroke: rgb(80, 80, 80);"></path><path class="link" marker-end="" d="M921,450, 1017,403.5" style="stroke-width: 0.71; stroke-opacity: 0.42; stroke: rgb(80, 80, 80);"></path><path class="link" marker-end="" d="M921,450, 1017,426.5" style="stroke-width: 0.71; stroke-opacity: 0.42; stroke: rgb(80, 80, 80);"></path><path class="link" marker-end="" d="M921,450, 1017,449.5" style="stroke-width: 0.71; stroke-opacity: 0.42; stroke: rgb(80, 80, 80);"></path><path class="link" marker-end="" d="M921,450, 1017,472.5" style="stroke-width: 0.71; stroke-opacity: 0.42; stroke: rgb(80, 80, 80);"></path><path class="link" marker-end="" d="M825,485.5, 921,330" style="stroke-width: 0.71; stroke-opacity: 0.42; stroke: rgb(80, 80, 80);"></path><path class="link" marker-end="" d="M825,485.5, 921,354" style="stroke-width: 0.71; stroke-opacity: 0.42; stroke: rgb(80, 80, 80);"></path><path class="link" marker-end="" d="M825,485.5, 921,378" style="stroke-width: 0.71; stroke-opacity: 0.42; stroke: rgb(80, 80, 80);"></path><path class="link" marker-end="" d="M825,485.5, 921,402" style="stroke-width: 0.71; stroke-opacity: 0.42; stroke: rgb(80, 80, 80);"></path><path class="link" marker-end="" d="M825,485.5, 921,426" style="stroke-width: 0.71; stroke-opacity: 0.42; stroke: rgb(80, 80, 80);"></path><path class="link" marker-end="" d="M825,485.5, 921,450" style="stroke-width: 0.71; stroke-opacity: 0.42; stroke: rgb(80, 80, 80);"></path><path class="link" marker-end="" d="M825,504.5, 921,330" style="stroke-width: 0.71; stroke-opacity: 0.42; stroke: rgb(80, 80, 80);"></path><path class="link" marker-end="" d="M825,504.5, 921,354" style="stroke-width: 0.71; stroke-opacity: 0.42; stroke: rgb(80, 80, 80);"></path><path class="link" marker-end="" d="M825,504.5, 921,378" style="stroke-width: 0.71; stroke-opacity: 0.42; stroke: rgb(80, 80, 80);"></path><path class="link" marker-end="" d="M825,504.5, 921,402" style="stroke-width: 0.71; stroke-opacity: 0.42; stroke: rgb(80, 80, 80);"></path><path class="link" marker-end="" d="M825,504.5, 921,426" style="stroke-width: 0.71; stroke-opacity: 0.42; stroke: rgb(80, 80, 80);"></path><path class="link" marker-end="" d="M825,504.5, 921,450" style="stroke-width: 0.71; stroke-opacity: 0.42; stroke: rgb(80, 80, 80);"></path><path class="link" marker-end="" d="M825,523.5, 921,330" style="stroke-width: 0.71; stroke-opacity: 0.42; stroke: rgb(80, 80, 80);"></path><path class="link" marker-end="" d="M825,523.5, 921,354" style="stroke-width: 0.71; stroke-opacity: 0.42; stroke: rgb(80, 80, 80);"></path><path class="link" marker-end="" d="M825,523.5, 921,378" style="stroke-width: 0.71; stroke-opacity: 0.42; stroke: rgb(80, 80, 80);"></path><path class="link" marker-end="" d="M825,523.5, 921,402" style="stroke-width: 0.71; stroke-opacity: 0.42; stroke: rgb(80, 80, 80);"></path><path class="link" marker-end="" d="M825,523.5, 921,426" style="stroke-width: 0.71; stroke-opacity: 0.42; stroke: rgb(80, 80, 80);"></path><path class="link" marker-end="" d="M825,523.5, 921,450" style="stroke-width: 0.71; stroke-opacity: 0.42; stroke: rgb(80, 80, 80);"></path><path class="link" marker-end="" d="M825,542.5, 921,330" style="stroke-width: 0.71; stroke-opacity: 0.42; stroke: rgb(80, 80, 80);"></path><path class="link" marker-end="" d="M825,542.5, 921,354" style="stroke-width: 0.71; stroke-opacity: 0.42; stroke: rgb(80, 80, 80);"></path><path class="link" marker-end="" d="M825,542.5, 921,378" style="stroke-width: 0.71; stroke-opacity: 0.42; stroke: rgb(80, 80, 80);"></path><path class="link" marker-end="" d="M825,542.5, 921,402" style="stroke-width: 0.71; stroke-opacity: 0.42; stroke: rgb(80, 80, 80);"></path><path class="link" marker-end="" d="M825,542.5, 921,426" style="stroke-width: 0.71; stroke-opacity: 0.42; stroke: rgb(80, 80, 80);"></path><path class="link" marker-end="" d="M825,542.5, 921,450" style="stroke-width: 0.71; stroke-opacity: 0.42; stroke: rgb(80, 80, 80);"></path><path class="link" marker-end="" d="M825,295.5, 921,474" style="stroke-width: 0.71; stroke-opacity: 0.42; stroke: rgb(80, 80, 80);"></path><path class="link" marker-end="" d="M825,314.5, 921,474" style="stroke-width: 0.71; stroke-opacity: 0.42; stroke: rgb(80, 80, 80);"></path><path class="link" marker-end="" d="M825,333.5, 921,474" style="stroke-width: 0.71; stroke-opacity: 0.42; stroke: rgb(80, 80, 80);"></path><path class="link" marker-end="" d="M825,352.5, 921,474" style="stroke-width: 0.71; stroke-opacity: 0.42; stroke: rgb(80, 80, 80);"></path><path class="link" marker-end="" d="M825,371.5, 921,474" style="stroke-width: 0.71; stroke-opacity: 0.42; stroke: rgb(80, 80, 80);"></path><path class="link" marker-end="" d="M825,390.5, 921,474" style="stroke-width: 0.71; stroke-opacity: 0.42; stroke: rgb(80, 80, 80);"></path><path class="link" marker-end="" d="M825,409.5, 921,474" style="stroke-width: 0.71; stroke-opacity: 0.42; stroke: rgb(80, 80, 80);"></path><path class="link" marker-end="" d="M825,428.5, 921,474" style="stroke-width: 0.71; stroke-opacity: 0.42; stroke: rgb(80, 80, 80);"></path><path class="link" marker-end="" d="M825,447.5, 921,474" style="stroke-width: 0.71; stroke-opacity: 0.42; stroke: rgb(80, 80, 80);"></path><path class="link" marker-end="" d="M825,466.5, 921,474" style="stroke-width: 0.71; stroke-opacity: 0.42; stroke: rgb(80, 80, 80);"></path><path class="link" marker-end="" d="M825,485.5, 921,474" style="stroke-width: 0.71; stroke-opacity: 0.42; stroke: rgb(80, 80, 80);"></path><path class="link" marker-end="" d="M825,504.5, 921,474" style="stroke-width: 0.71; stroke-opacity: 0.42; stroke: rgb(80, 80, 80);"></path><path class="link" marker-end="" d="M825,523.5, 921,474" style="stroke-width: 0.71; stroke-opacity: 0.42; stroke: rgb(80, 80, 80);"></path><path class="link" marker-end="" d="M825,542.5, 921,474" style="stroke-width: 0.71; stroke-opacity: 0.42; stroke: rgb(80, 80, 80);"></path><path class="link" marker-end="" d="M921,474, 1017,380.5" style="stroke-width: 0.71; stroke-opacity: 0.42; stroke: rgb(80, 80, 80);"></path><path class="link" marker-end="" d="M921,474, 1017,403.5" style="stroke-width: 0.71; stroke-opacity: 0.42; stroke: rgb(80, 80, 80);"></path><path class="link" marker-end="" d="M921,474, 1017,426.5" style="stroke-width: 0.71; stroke-opacity: 0.42; stroke: rgb(80, 80, 80);"></path><path class="link" marker-end="" d="M921,474, 1017,449.5" style="stroke-width: 0.71; stroke-opacity: 0.42; stroke: rgb(80, 80, 80);"></path><path class="link" marker-end="" d="M921,474, 1017,472.5" style="stroke-width: 0.71; stroke-opacity: 0.42; stroke: rgb(80, 80, 80);"></path><path class="link" marker-end="" d="M825,295.5, 921,498" style="stroke-width: 0.71; stroke-opacity: 0.42; stroke: rgb(80, 80, 80);"></path><path class="link" marker-end="" d="M825,314.5, 921,498" style="stroke-width: 0.71; stroke-opacity: 0.42; stroke: rgb(80, 80, 80);"></path><path class="link" marker-end="" d="M825,333.5, 921,498" style="stroke-width: 0.71; stroke-opacity: 0.42; stroke: rgb(80, 80, 80);"></path><path class="link" marker-end="" d="M825,352.5, 921,498" style="stroke-width: 0.71; stroke-opacity: 0.42; stroke: rgb(80, 80, 80);"></path><path class="link" marker-end="" d="M825,371.5, 921,498" style="stroke-width: 0.71; stroke-opacity: 0.42; stroke: rgb(80, 80, 80);"></path><path class="link" marker-end="" d="M825,390.5, 921,498" style="stroke-width: 0.71; stroke-opacity: 0.42; stroke: rgb(80, 80, 80);"></path><path class="link" marker-end="" d="M825,409.5, 921,498" style="stroke-width: 0.71; stroke-opacity: 0.42; stroke: rgb(80, 80, 80);"></path><path class="link" marker-end="" d="M825,428.5, 921,498" style="stroke-width: 0.71; stroke-opacity: 0.42; stroke: rgb(80, 80, 80);"></path><path class="link" marker-end="" d="M825,447.5, 921,498" style="stroke-width: 0.71; stroke-opacity: 0.42; stroke: rgb(80, 80, 80);"></path><path class="link" marker-end="" d="M825,466.5, 921,498" style="stroke-width: 0.71; stroke-opacity: 0.42; stroke: rgb(80, 80, 80);"></path><path class="link" marker-end="" d="M825,485.5, 921,498" style="stroke-width: 0.71; stroke-opacity: 0.42; stroke: rgb(80, 80, 80);"></path><path class="link" marker-end="" d="M825,504.5, 921,498" style="stroke-width: 0.71; stroke-opacity: 0.42; stroke: rgb(80, 80, 80);"></path><path class="link" marker-end="" d="M825,523.5, 921,498" style="stroke-width: 0.71; stroke-opacity: 0.42; stroke: rgb(80, 80, 80);"></path><path class="link" marker-end="" d="M825,542.5, 921,498" style="stroke-width: 0.71; stroke-opacity: 0.42; stroke: rgb(80, 80, 80);"></path><path class="link" marker-end="" d="M921,498, 1017,380.5" style="stroke-width: 0.71; stroke-opacity: 0.42; stroke: rgb(80, 80, 80);"></path><path class="link" marker-end="" d="M921,498, 1017,403.5" style="stroke-width: 0.71; stroke-opacity: 0.42; stroke: rgb(80, 80, 80);"></path><path class="link" marker-end="" d="M921,498, 1017,426.5" style="stroke-width: 0.71; stroke-opacity: 0.42; stroke: rgb(80, 80, 80);"></path><path class="link" marker-end="" d="M921,498, 1017,449.5" style="stroke-width: 0.71; stroke-opacity: 0.42; stroke: rgb(80, 80, 80);"></path><path class="link" marker-end="" d="M921,498, 1017,472.5" style="stroke-width: 0.71; stroke-opacity: 0.42; stroke: rgb(80, 80, 80);"></path><path class="link" marker-end="" d="M825,295.5, 921,522" style="stroke-width: 0.71; stroke-opacity: 0.42; stroke: rgb(80, 80, 80);"></path><path class="link" marker-end="" d="M825,314.5, 921,522" style="stroke-width: 0.71; stroke-opacity: 0.42; stroke: rgb(80, 80, 80);"></path><path class="link" marker-end="" d="M825,333.5, 921,522" style="stroke-width: 0.71; stroke-opacity: 0.42; stroke: rgb(80, 80, 80);"></path><path class="link" marker-end="" d="M825,352.5, 921,522" style="stroke-width: 0.71; stroke-opacity: 0.42; stroke: rgb(80, 80, 80);"></path><path class="link" marker-end="" d="M825,371.5, 921,522" style="stroke-width: 0.71; stroke-opacity: 0.42; stroke: rgb(80, 80, 80);"></path><path class="link" marker-end="" d="M825,390.5, 921,522" style="stroke-width: 0.71; stroke-opacity: 0.42; stroke: rgb(80, 80, 80);"></path><path class="link" marker-end="" d="M825,409.5, 921,522" style="stroke-width: 0.71; stroke-opacity: 0.42; stroke: rgb(80, 80, 80);"></path><path class="link" marker-end="" d="M825,428.5, 921,522" style="stroke-width: 0.71; stroke-opacity: 0.42; stroke: rgb(80, 80, 80);"></path><path class="link" marker-end="" d="M825,447.5, 921,522" style="stroke-width: 0.71; stroke-opacity: 0.42; stroke: rgb(80, 80, 80);"></path><path class="link" marker-end="" d="M825,466.5, 921,522" style="stroke-width: 0.71; stroke-opacity: 0.42; stroke: rgb(80, 80, 80);"></path><path class="link" marker-end="" d="M825,485.5, 921,522" style="stroke-width: 0.71; stroke-opacity: 0.42; stroke: rgb(80, 80, 80);"></path><path class="link" marker-end="" d="M825,504.5, 921,522" style="stroke-width: 0.71; stroke-opacity: 0.42; stroke: rgb(80, 80, 80);"></path><path class="link" marker-end="" d="M825,523.5, 921,522" style="stroke-width: 0.71; stroke-opacity: 0.42; stroke: rgb(80, 80, 80);"></path><path class="link" marker-end="" d="M825,542.5, 921,522" style="stroke-width: 0.71; stroke-opacity: 0.42; stroke: rgb(80, 80, 80);"></path><path class="link" marker-end="" d="M921,522, 1017,380.5" style="stroke-width: 0.71; stroke-opacity: 0.42; stroke: rgb(80, 80, 80);"></path><path class="link" marker-end="" d="M921,522, 1017,403.5" style="stroke-width: 0.71; stroke-opacity: 0.42; stroke: rgb(80, 80, 80);"></path><path class="link" marker-end="" d="M921,522, 1017,426.5" style="stroke-width: 0.71; stroke-opacity: 0.42; stroke: rgb(80, 80, 80);"></path><path class="link" marker-end="" d="M921,522, 1017,449.5" style="stroke-width: 0.71; stroke-opacity: 0.42; stroke: rgb(80, 80, 80);"></path><path class="link" marker-end="" d="M921,522, 1017,472.5" style="stroke-width: 0.71; stroke-opacity: 0.42; stroke: rgb(80, 80, 80);"></path><path class="link" marker-end="" d="M825,295.5, 921,546" style="stroke-width: 0.71; stroke-opacity: 0.42; stroke: rgb(80, 80, 80);"></path><path class="link" marker-end="" d="M825,314.5, 921,546" style="stroke-width: 0.71; stroke-opacity: 0.42; stroke: rgb(80, 80, 80);"></path><path class="link" marker-end="" d="M825,333.5, 921,546" style="stroke-width: 0.71; stroke-opacity: 0.42; stroke: rgb(80, 80, 80);"></path><path class="link" marker-end="" d="M825,352.5, 921,546" style="stroke-width: 0.71; stroke-opacity: 0.42; stroke: rgb(80, 80, 80);"></path><path class="link" marker-end="" d="M825,371.5, 921,546" style="stroke-width: 0.71; stroke-opacity: 0.42; stroke: rgb(80, 80, 80);"></path><path class="link" marker-end="" d="M825,390.5, 921,546" style="stroke-width: 0.71; stroke-opacity: 0.42; stroke: rgb(80, 80, 80);"></path><path class="link" marker-end="" d="M825,409.5, 921,546" style="stroke-width: 0.71; stroke-opacity: 0.42; stroke: rgb(80, 80, 80);"></path><path class="link" marker-end="" d="M825,428.5, 921,546" style="stroke-width: 0.71; stroke-opacity: 0.42; stroke: rgb(80, 80, 80);"></path><path class="link" marker-end="" d="M825,447.5, 921,546" style="stroke-width: 0.71; stroke-opacity: 0.42; stroke: rgb(80, 80, 80);"></path><path class="link" marker-end="" d="M825,466.5, 921,546" style="stroke-width: 0.71; stroke-opacity: 0.42; stroke: rgb(80, 80, 80);"></path><path class="link" marker-end="" d="M825,485.5, 921,546" style="stroke-width: 0.71; stroke-opacity: 0.42; stroke: rgb(80, 80, 80);"></path><path class="link" marker-end="" d="M825,504.5, 921,546" style="stroke-width: 0.71; stroke-opacity: 0.42; stroke: rgb(80, 80, 80);"></path><path class="link" marker-end="" d="M825,523.5, 921,546" style="stroke-width: 0.71; stroke-opacity: 0.42; stroke: rgb(80, 80, 80);"></path><path class="link" marker-end="" d="M825,542.5, 921,546" style="stroke-width: 0.71; stroke-opacity: 0.42; stroke: rgb(80, 80, 80);"></path><path class="link" marker-end="" d="M921,546, 1017,380.5" style="stroke-width: 0.71; stroke-opacity: 0.42; stroke: rgb(80, 80, 80);"></path><path class="link" marker-end="" d="M921,546, 1017,403.5" style="stroke-width: 0.71; stroke-opacity: 0.42; stroke: rgb(80, 80, 80);"></path><path class="link" marker-end="" d="M921,546, 1017,426.5" style="stroke-width: 0.71; stroke-opacity: 0.42; stroke: rgb(80, 80, 80);"></path><path class="link" marker-end="" d="M921,546, 1017,449.5" style="stroke-width: 0.71; stroke-opacity: 0.42; stroke: rgb(80, 80, 80);"></path><path class="link" marker-end="" d="M921,546, 1017,472.5" style="stroke-width: 0.71; stroke-opacity: 0.42; stroke: rgb(80, 80, 80);"></path><path class="link" marker-end="" d="M921,330, 1017,495.5" style="stroke-width: 0.71; stroke-opacity: 0.42; stroke: rgb(80, 80, 80);"></path><path class="link" marker-end="" d="M921,354, 1017,495.5" style="stroke-width: 0.71; stroke-opacity: 0.42; stroke: rgb(80, 80, 80);"></path><path class="link" marker-end="" d="M921,378, 1017,495.5" style="stroke-width: 0.71; stroke-opacity: 0.42; stroke: rgb(80, 80, 80);"></path><path class="link" marker-end="" d="M921,402, 1017,495.5" style="stroke-width: 0.71; stroke-opacity: 0.42; stroke: rgb(80, 80, 80);"></path><path class="link" marker-end="" d="M921,426, 1017,495.5" style="stroke-width: 0.71; stroke-opacity: 0.42; stroke: rgb(80, 80, 80);"></path><path class="link" marker-end="" d="M921,450, 1017,495.5" style="stroke-width: 0.71; stroke-opacity: 0.42; stroke: rgb(80, 80, 80);"></path><path class="link" marker-end="" d="M921,474, 1017,495.5" style="stroke-width: 0.71; stroke-opacity: 0.42; stroke: rgb(80, 80, 80);"></path><path class="link" marker-end="" d="M921,498, 1017,495.5" style="stroke-width: 0.71; stroke-opacity: 0.42; stroke: rgb(80, 80, 80);"></path><path class="link" marker-end="" d="M921,522, 1017,495.5" style="stroke-width: 0.71; stroke-opacity: 0.42; stroke: rgb(80, 80, 80);"></path><path class="link" marker-end="" d="M921,546, 1017,495.5" style="stroke-width: 0.71; stroke-opacity: 0.42; stroke: rgb(80, 80, 80);"></path><path class="link" marker-end="" d="M1017,380.5, 1113,414" style="stroke-width: 0.71; stroke-opacity: 0.42; stroke: rgb(80, 80, 80);"></path><path class="link" marker-end="" d="M1017,403.5, 1113,414" style="stroke-width: 0.71; stroke-opacity: 0.42; stroke: rgb(80, 80, 80);"></path><path class="link" marker-end="" d="M1017,426.5, 1113,414" style="stroke-width: 0.71; stroke-opacity: 0.42; stroke: rgb(80, 80, 80);"></path><path class="link" marker-end="" d="M1017,449.5, 1113,414" style="stroke-width: 0.71; stroke-opacity: 0.42; stroke: rgb(80, 80, 80);"></path><path class="link" marker-end="" d="M1017,472.5, 1113,414" style="stroke-width: 0.71; stroke-opacity: 0.42; stroke: rgb(80, 80, 80);"></path><path class="link" marker-end="" d="M1017,495.5, 1113,414" style="stroke-width: 0.71; stroke-opacity: 0.42; stroke: rgb(80, 80, 80);"></path><path class="link" marker-end="" d="M1017,380.5, 1113,438" style="stroke-width: 0.71; stroke-opacity: 0.42; stroke: rgb(80, 80, 80);"></path><path class="link" marker-end="" d="M1017,403.5, 1113,438" style="stroke-width: 0.71; stroke-opacity: 0.42; stroke: rgb(80, 80, 80);"></path><path class="link" marker-end="" d="M1017,426.5, 1113,438" style="stroke-width: 0.71; stroke-opacity: 0.42; stroke: rgb(80, 80, 80);"></path><path class="link" marker-end="" d="M1017,449.5, 1113,438" style="stroke-width: 0.71; stroke-opacity: 0.42; stroke: rgb(80, 80, 80);"></path><path class="link" marker-end="" d="M1017,472.5, 1113,438" style="stroke-width: 0.71; stroke-opacity: 0.42; stroke: rgb(80, 80, 80);"></path><path class="link" marker-end="" d="M1017,495.5, 1113,438" style="stroke-width: 0.71; stroke-opacity: 0.42; stroke: rgb(80, 80, 80);"></path><path class="link" marker-end="" d="M1017,380.5, 1113,462" style="stroke-width: 0.71; stroke-opacity: 0.42; stroke: rgb(80, 80, 80);"></path><path class="link" marker-end="" d="M1017,403.5, 1113,462" style="stroke-width: 0.71; stroke-opacity: 0.42; stroke: rgb(80, 80, 80);"></path><path class="link" marker-end="" d="M1017,426.5, 1113,462" style="stroke-width: 0.71; stroke-opacity: 0.42; stroke: rgb(80, 80, 80);"></path><path class="link" marker-end="" d="M1017,449.5, 1113,462" style="stroke-width: 0.71; stroke-opacity: 0.42; stroke: rgb(80, 80, 80);"></path><path class="link" marker-end="" d="M1017,472.5, 1113,462" style="stroke-width: 0.71; stroke-opacity: 0.42; stroke: rgb(80, 80, 80);"></path><path class="link" marker-end="" d="M1017,495.5, 1113,462" style="stroke-width: 0.71; stroke-opacity: 0.42; stroke: rgb(80, 80, 80);"></path><path class="link" marker-end="" d="M1113,414, 1209,438" style="stroke-width: 0.71; stroke-opacity: 0.42; stroke: rgb(80, 80, 80);"></path><path class="link" marker-end="" d="M1113,438, 1209,438" style="stroke-width: 0.71; stroke-opacity: 0.42; stroke: rgb(80, 80, 80);"></path><path class="link" marker-end="" d="M1113,462, 1209,438" style="stroke-width: 0.71; stroke-opacity: 0.42; stroke: rgb(80, 80, 80);"></path><path class="link" marker-end="" d="M825,561.5, 921,330" style="stroke-width: 0.71; stroke-opacity: 0.42; stroke: rgb(80, 80, 80);"></path><path class="link" marker-end="" d="M825,561.5, 921,354" style="stroke-width: 0.71; stroke-opacity: 0.42; stroke: rgb(80, 80, 80);"></path><path class="link" marker-end="" d="M825,561.5, 921,378" style="stroke-width: 0.71; stroke-opacity: 0.42; stroke: rgb(80, 80, 80);"></path><path class="link" marker-end="" d="M825,561.5, 921,402" style="stroke-width: 0.71; stroke-opacity: 0.42; stroke: rgb(80, 80, 80);"></path><path class="link" marker-end="" d="M825,561.5, 921,426" style="stroke-width: 0.71; stroke-opacity: 0.42; stroke: rgb(80, 80, 80);"></path><path class="link" marker-end="" d="M825,561.5, 921,450" style="stroke-width: 0.71; stroke-opacity: 0.42; stroke: rgb(80, 80, 80);"></path><path class="link" marker-end="" d="M825,561.5, 921,474" style="stroke-width: 0.71; stroke-opacity: 0.42; stroke: rgb(80, 80, 80);"></path><path class="link" marker-end="" d="M825,561.5, 921,498" style="stroke-width: 0.71; stroke-opacity: 0.42; stroke: rgb(80, 80, 80);"></path><path class="link" marker-end="" d="M825,561.5, 921,522" style="stroke-width: 0.71; stroke-opacity: 0.42; stroke: rgb(80, 80, 80);"></path><path class="link" marker-end="" d="M825,561.5, 921,546" style="stroke-width: 0.71; stroke-opacity: 0.42; stroke: rgb(80, 80, 80);"></path><path class="link" marker-end="" d="M825,580.5, 921,330" style="stroke-width: 0.71; stroke-opacity: 0.42; stroke: rgb(80, 80, 80);"></path><path class="link" marker-end="" d="M825,580.5, 921,354" style="stroke-width: 0.71; stroke-opacity: 0.42; stroke: rgb(80, 80, 80);"></path><path class="link" marker-end="" d="M825,580.5, 921,378" style="stroke-width: 0.71; stroke-opacity: 0.42; stroke: rgb(80, 80, 80);"></path><path class="link" marker-end="" d="M825,580.5, 921,402" style="stroke-width: 0.71; stroke-opacity: 0.42; stroke: rgb(80, 80, 80);"></path><path class="link" marker-end="" d="M825,580.5, 921,426" style="stroke-width: 0.71; stroke-opacity: 0.42; stroke: rgb(80, 80, 80);"></path><path class="link" marker-end="" d="M825,580.5, 921,450" style="stroke-width: 0.71; stroke-opacity: 0.42; stroke: rgb(80, 80, 80);"></path><path class="link" marker-end="" d="M825,580.5, 921,474" style="stroke-width: 0.71; stroke-opacity: 0.42; stroke: rgb(80, 80, 80);"></path><path class="link" marker-end="" d="M825,580.5, 921,498" style="stroke-width: 0.71; stroke-opacity: 0.42; stroke: rgb(80, 80, 80);"></path><path class="link" marker-end="" d="M825,580.5, 921,522" style="stroke-width: 0.71; stroke-opacity: 0.42; stroke: rgb(80, 80, 80);"></path><path class="link" marker-end="" d="M825,580.5, 921,546" style="stroke-width: 0.71; stroke-opacity: 0.42; stroke: rgb(80, 80, 80);"></path><circle r="7.5" class="node" id="0_0" cx="825" cy="295.5" style="fill: rgb(255, 255, 255); stroke: rgb(51, 51, 51);"></circle><circle r="7.5" class="node" id="0_1" cx="825" cy="314.5" style="fill: rgb(255, 255, 255); stroke: rgb(51, 51, 51);"></circle><circle r="7.5" class="node" id="0_2" cx="825" cy="333.5" style="fill: rgb(255, 255, 255); stroke: rgb(51, 51, 51);"></circle><circle r="7.5" class="node" id="0_3" cx="825" cy="352.5" style="fill: rgb(255, 255, 255); stroke: rgb(51, 51, 51);"></circle><circle r="7.5" class="node" id="0_4" cx="825" cy="371.5" style="fill: rgb(255, 255, 255); stroke: rgb(51, 51, 51);"></circle><circle r="7.5" class="node" id="0_5" cx="825" cy="390.5" style="fill: rgb(255, 255, 255); stroke: rgb(51, 51, 51);"></circle><circle r="7.5" class="node" id="0_6" cx="825" cy="409.5" style="fill: rgb(255, 255, 255); stroke: rgb(51, 51, 51);"></circle><circle r="7.5" class="node" id="0_7" cx="825" cy="428.5" style="fill: rgb(255, 255, 255); stroke: rgb(51, 51, 51);"></circle><circle r="7.5" class="node" id="0_8" cx="825" cy="447.5" style="fill: rgb(255, 255, 255); stroke: rgb(51, 51, 51);"></circle><circle r="7.5" class="node" id="0_9" cx="825" cy="466.5" style="fill: rgb(255, 255, 255); stroke: rgb(51, 51, 51);"></circle><circle r="7.5" class="node" id="0_10" cx="825" cy="485.5" style="fill: rgb(255, 255, 255); stroke: rgb(51, 51, 51);"></circle><circle r="7.5" class="node" id="0_11" cx="825" cy="504.5" style="fill: rgb(255, 255, 255); stroke: rgb(51, 51, 51);"></circle><circle r="7.5" class="node" id="0_12" cx="825" cy="523.5" style="fill: rgb(255, 255, 255); stroke: rgb(51, 51, 51);"></circle><circle r="7.5" class="node" id="0_13" cx="825" cy="542.5" style="fill: rgb(255, 255, 255); stroke: rgb(51, 51, 51);"></circle><circle r="7.5" class="node" id="0_14" cx="825" cy="561.5" style="fill: rgb(255, 255, 255); stroke: rgb(51, 51, 51);"></circle><circle r="7.5" class="node" id="0_15" cx="825" cy="580.5" style="fill: rgb(255, 255, 255); stroke: rgb(51, 51, 51);"></circle><circle r="7.5" class="node" id="1_0" cx="921" cy="330" style="fill: rgb(255, 255, 255); stroke: rgb(51, 51, 51);"></circle><circle r="7.5" class="node" id="1_1" cx="921" cy="354" style="fill: rgb(255, 255, 255); stroke: rgb(51, 51, 51);"></circle><circle r="7.5" class="node" id="1_2" cx="921" cy="378" style="fill: rgb(255, 255, 255); stroke: rgb(51, 51, 51);"></circle><circle r="7.5" class="node" id="1_3" cx="921" cy="402" style="fill: rgb(255, 255, 255); stroke: rgb(51, 51, 51);"></circle><circle r="7.5" class="node" id="1_4" cx="921" cy="426" style="fill: rgb(255, 255, 255); stroke: rgb(51, 51, 51);"></circle><circle r="7.5" class="node" id="1_5" cx="921" cy="450" style="fill: rgb(255, 255, 255); stroke: rgb(51, 51, 51);"></circle><circle r="7.5" class="node" id="1_6" cx="921" cy="474" style="fill: rgb(255, 255, 255); stroke: rgb(51, 51, 51);"></circle><circle r="7.5" class="node" id="1_7" cx="921" cy="498" style="fill: rgb(255, 255, 255); stroke: rgb(51, 51, 51);"></circle><circle r="7.5" class="node" id="1_8" cx="921" cy="522" style="fill: rgb(255, 255, 255); stroke: rgb(51, 51, 51);"></circle><circle r="7.5" class="node" id="1_9" cx="921" cy="546" style="fill: rgb(255, 255, 255); stroke: rgb(51, 51, 51);"></circle><circle r="7.5" class="node" id="2_0" cx="1017" cy="380.5" style="fill: rgb(255, 255, 255); stroke: rgb(51, 51, 51);"></circle><circle r="7.5" class="node" id="2_1" cx="1017" cy="403.5" style="fill: rgb(255, 255, 255); stroke: rgb(51, 51, 51);"></circle><circle r="7.5" class="node" id="2_2" cx="1017" cy="426.5" style="fill: rgb(255, 255, 255); stroke: rgb(51, 51, 51);"></circle><circle r="7.5" class="node" id="2_3" cx="1017" cy="449.5" style="fill: rgb(255, 255, 255); stroke: rgb(51, 51, 51);"></circle><circle r="7.5" class="node" id="2_4" cx="1017" cy="472.5" style="fill: rgb(255, 255, 255); stroke: rgb(51, 51, 51);"></circle><text class="text" dy=".35em" x="790" y="615.5" style="font-size: 12px;"></text><text class="text" dy=".35em" x="886" y="615.5" style="font-size: 12px;"></text><text class="text" dy=".35em" x="982" y="615.5" style="font-size: 12px;"></text><circle r="7.5" class="node" id="2_5" cx="1017" cy="495.5" style="fill: rgb(255, 255, 255); stroke: rgb(51, 51, 51);"></circle><text class="text" dy=".35em" x="1078" y="615.5" style="font-size: 12px;"></text><circle r="7.5" class="node" id="3_0" cx="1113" cy="414" style="fill: rgb(255, 255, 255); stroke: rgb(51, 51, 51);"></circle><circle r="7.5" class="node" id="3_1" cx="1113" cy="438" style="fill: rgb(255, 255, 255); stroke: rgb(51, 51, 51);"></circle><circle r="7.5" class="node" id="3_2" cx="1113" cy="462" style="fill: rgb(255, 255, 255); stroke: rgb(51, 51, 51);"></circle><circle r="7.5" class="node" id="4_0" cx="1209" cy="438" style="fill: rgb(255, 255, 255); stroke: rgb(51, 51, 51);"></circle><text class="text" dy=".35em" x="1174" y="615.5" style="font-size: 12px;"></text></g><defs><marker id="arrow" viewBox="0 -5 10 10" markerWidth="7" markerHeight="7" orient="auto" refX="33"><path d="M0,-5L10,0L0,5" style="stroke: rgb(80, 80, 80); fill: none;"></path></marker></defs></svg>